<svg id="Layer_1" xmlns="http://www.w3.org/2000/svg" width="150" height="150" viewBox="0 0 150 150">
  <style>
    .st0{fill:#6DCFF6;}
  </style>
  <path class="st0" d="M130 46.7c7 5.5 10.4 12 10.6 19.3 0 5.3-2 10.4-6 15.2-7.3 8.6-18 13-31.5 13H75l-9.4 9.3h28l-56 47 23.3-37.6H37.4l14-19H47C39 94 32 92.4 25 89 14.6 83.2 9.4 75.6 9.4 66c0-1 0-2 .3-3.2 1.4-9.2 7.5-16.2 18.5-21 .2-3.8 1.3-7.4 3.2-11 4.5-7.7 11.2-11.6 20.2-11.6 3 0 6 .6 8.8 1.8.6-1.2 1.4-2.4 2.3-3.8C70.3 6 80.7.4 93.7.4c7.8 0 15 2.3 21.7 7C126 14.8 131.2 25 131.2 38c0 2-.3 4.8-1 8.7z"/>
</svg>
