<?xml version="1.0" encoding="utf-8"?>
<!-- Generator: Adobe Illustrator 21.0.0, SVG Export Plug-In . SVG Version: 6.00 Build 0)  -->
<svg version="1.1" id="Capa_1" xmlns="http://www.w3.org/2000/svg" xmlns:xlink="http://www.w3.org/1999/xlink" x="0px" y="0px"
	 viewBox="0 0 99.7 44.2" style="enable-background:new 0 0 99.7 44.2;" xml:space="preserve">
<style type="text/css">
	.st0{fill:#4E5DAA;}
	.st1{fill:#161440;}
	.st2{fill:#DA2A45;}
	.st3{fill:#331317;}
</style>
<g>
	<path class="st0" d="M38.4,24.4c-1.1,0.4-2.3-0.2-2.7-1.3s0.2-2.3,1.3-2.7c4-1.4,6.6-3.7,7.8-6.7c1.2-3.1,0.7-7.1-1.3-10.7
		c-0.6-1-0.2-2.3,0.8-2.8c1-0.6,2.3-0.2,2.8,0.8c2.6,4.6,3.2,9.9,1.6,14.2C47.6,18.1,44.9,22.1,38.4,24.4z"/>
	<ellipse transform="matrix(0.9848 -0.1736 0.1736 0.9848 -3.7703 3.9461)" class="st0" cx="20.7" cy="23.5" rx="20.7" ry="20.7"/>
	<path class="st1" d="M12.5,24.7l-2.9,1.6c0.7,1.2,2.1,1.9,3.4,1.6c1.8-0.3,3-2,2.7-3.8c-0.3-1.8-2-3-3.8-2.7
		c-1.5,0.3-2.6,1.5-2.7,3L12.5,24.7z"/>
	<path class="st1" d="M30.1,21.6l3.2,0.5c-0.2,1.4-1.3,2.5-2.7,2.7c-1.8,0.3-3.5-0.9-3.8-2.7s0.9-3.5,2.7-3.8
		c1.5-0.3,2.9,0.5,3.5,1.9L30.1,21.6z"/>
	<path class="st1" d="M14.1,30.8c1.8,3.3,5.5,5.2,9.3,4.5c3.9-0.7,6.7-3.8,7.2-7.4L14.1,30.8z"/>
	<path class="st2" d="M61.3,24.4c1.1,0.4,2.3-0.2,2.7-1.3s-0.2-2.3-1.3-2.7c-4-1.4-6.6-3.7-7.8-6.7c-1.2-3.1-0.7-7.1,1.3-10.7
		c0.6-1,0.2-2.3-0.8-2.8c-1-0.6-2.3-0.2-2.8,0.8C50,5.6,49.4,10.9,51,15.2C52.1,18.1,54.8,22.1,61.3,24.4z"/>
	<ellipse transform="matrix(0.1736 -0.9848 0.9848 0.1736 42.1462 97.2689)" class="st2" cx="79" cy="23.5" rx="20.7" ry="20.7"/>
	<path class="st3" d="M87.2,24.7l2.9,1.6c-0.7,1.2-2.1,1.9-3.4,1.6c-1.8-0.3-3-2-2.7-3.8c0.3-1.8,2-3,3.8-2.7c1.5,0.3,2.6,1.5,2.7,3
		L87.2,24.7z"/>
	<path class="st3" d="M69.6,21.6l-3.2,0.5c0.2,1.4,1.3,2.5,2.7,2.7c1.8,0.3,3.5-0.9,3.8-2.7c0.3-1.8-0.9-3.5-2.7-3.8
		c-1.5-0.3-2.9,0.5-3.5,1.9L69.6,21.6z"/>
	<path class="st3" d="M85.6,30.8c-1.8,3.3-5.5,5.2-9.3,4.5c-3.9-0.7-6.7-3.8-7.2-7.4L85.6,30.8z"/>
</g>
</svg>
