<svg xmlns="http://www.w3.org/2000/svg" width="150" height="150" viewBox="0 0 150 150">
  <style>
    .st0{fill:#BECC30;}
  </style>
  <path class="st0" d="M140 21.5c6.7 3.5 10.2 9 10.2 16.7v75c0 3-.7 5.8-2 8.5-3.6 6.8-9.2 10.3-16.8 10.3H19c-3 0-6-.7-8.6-2C3.6 126.3 0 120.7 0 113v-75c0-3 .8-5.8 2.2-8.5 3.5-6.8 9-10.3 16.7-10.3h112.4c3 0 5.7.8 8.5 2zm.7 16.7c0-.8 0-1.8-.3-3-1.4-4.2-4.4-6.3-9-6.3H18.8c-1 0-2 0-3 .2-4.3 1.4-6.4 4.4-6.4 9v9.5h131.2v-9.5zm0 28H9.5v47c0 .8 0 1.8.3 3 1.4 4.2 4.4 6.3 9 6.3h112.6c.8 0 1.8 0 3-.3 4.2-1.4 6.3-4.4 6.3-9V66zM19 85.3h56v-9.5H19V85zm0 18.6h18.6v-9.4H19v9.4zm84.2-9.3h28V75.7h-28v18.8z"/>
</svg>
