<svg xmlns="http://www.w3.org/2000/svg" width="150" height="150" viewBox="0 0 150 150">
  <style>
    .st0{fill:#CC0033;}
  </style>
  <path class="st0" d="M115.5 99.8c0-5.7-.5-10.4-1.6-14-1-3.4-2.8-7-5.8-10-2-2.3-5.6-5-11-8.3-5-2.5-11.2-5-18.6-7.4L75 59c-2.3-1-4-2-5.4-3-1.6-1-2.6-3-3-6 0-3.4 1-5.7 3-7 .8-1 2.6-1.6 5.3-2l1.5-.3 2-.2h1.2c1 .3 2 .4 3 .4s3 .2 5.6.7c3 .6 5.5 1 7.4 1.6 1.6.3 4 1 7.4 2l6.2-21.3c-3.3-2.2-8-4-14.3-5.7-4.7-1-9.8-2-15.3-2.5V.6h-13v15.6c-3.3.6-7.7 1.6-13 3.3-4.2 2-7.6 4-10.3 6.6-3 2.6-5.3 5.8-7 10-1.4 4-2 8.6-2 13.8 0 5.5.7 10.5 2 15.2 2 3.8 4.2 7 7 9.8 3 2.5 6.7 4.8 11 7 2.3 1 7.2 3 15 5.7.4.3 1.3.6 2.4.8l3.3 1.2 1 .4 4.4 2.4c.8.8 1.5 2 2 3.3.5.8.8 2.3.8 4.5 0 3.6-1 6.3-3 8.2-1.3.8-3 1.5-5.2 2-1 .4-3 .5-5.7.5-1.4 0-3-.2-4.5-.5-2.2 0-4.2 0-6-.4-1-.2-3.5-1-8-2-1.8-.2-4.7-1-8.5-2.8L35 127.7c5.4 3 10.6 5 15.5 6 4.4 1 9.8 1.6 16.4 2v15h13v-15.3c4.6-.5 9.6-1.8 14.8-3.7 4-1.6 8-4 11.5-7 3-3 5.3-6.4 7-10.2 1.3-4.3 2.2-9.2 2.2-14.7z"/>
</svg>
