<svg id="Layer_1" xmlns="http://www.w3.org/2000/svg" width="150" height="150" viewBox="0 0 150 150">
  <style>
    .st0{fill:#FF6600;} .st1{fill:#FFFFFF;}
  </style>
  <path class="st0" d="M112.5 10C92.2 10 77 5.4 77 0c0 5.5-17.3 10-37.6 10S3.4 5.4 2 0v74.8C2 149.5 77 150 77 150s71-.5 71-75.2V0c0 5.5-15.2 10-35.5 10z"/>
  <path class="st1" d="M75 81.4c-1.4 0-2.6 1.2-2.6 2.6 0 1.2.8 2.2 2 2.5l-.8 5.3h2.7l-.7-5.3c1-.3 2-1.3 2-2.5 0-1.5-1.2-2.6-2.6-2.6zm13-8v-10c0-7.5-5.6-13.5-13-13.5-7.3 0-13 6-13 13.3v10h-3.8V98c0 1.2 7.5 2.2 16.8 2.2s16.8-1 16.8-2.4V73.3H88zM75 93.8c-4 0-7.3-3.4-7.3-7.4s3.3-7.3 7.3-7.3 7.3 3.3 7.3 7.3S79 94 75 94zm8.4-20.7H66.6v-10c0-4.8 3.6-8.7 8.4-8.7 4.8 0 8.4 4 8.4 8.7v10z"/>
</svg>
