<svg xmlns="http://www.w3.org/2000/svg" width="150" height="150" viewBox="0 0 150 150">
  <style>
    .st0{fill:#FFCC00;} .st1{fill:#FFFFFF;}
  </style>
  <path class="st0" d="M143.7 41.7c-9.7 9.7-25.6 9.7-35.3 0-9.7-9.7-9.7-25.6 0-35.3L102 0 0 102l6.4 6.4c9.7-9.7 25.6-9.7 35.3 0 9.7 9.7 9.7 25.6 0 35.3L48 150 150 48l-6.3-6.3z"/>
  <path class="st1" d="M64.5 88.5h-9l-10.2-27H54L60 81l6-19.5h8.5l-10 27M76.6 61.5H85v27h-8.4zM110.5 63.7c-1.5-1.4-3.7-2-6.7-2H90v27h8.4v-10h4.5c3.2 0 5.7-1 7.3-2.4 1.6-1.5 2.4-3.7 2.4-6.4 0-3-.7-5-2.2-6.3zm-6.8 8.5c-.6.6-1.8.8-3.3.8h-2v-6h2.3c1.5 0 2.6.3 3 1 .7.5 1 1.2 1 2 0 1-.4 1.6-1 2.2z"/>
</svg>
