<?xml version="1.0" encoding="utf-8"?>
<!-- Generator: Adobe Illustrator 21.0.0, SVG Export Plug-In . SVG Version: 6.00 Build 0)  -->
<svg version="1.1" id="Capa_1" xmlns="http://www.w3.org/2000/svg" xmlns:xlink="http://www.w3.org/1999/xlink" x="0px" y="0px"
	 viewBox="0 0 72.9 59.9" style="enable-background:new 0 0 72.9 59.9;" xml:space="preserve">
<style type="text/css">
	.st0{fill:#293363;}
	.st1{fill:#FFFFFF;}
	.st2{fill:#5161AC;}
</style>
<g>
	<path class="st0" d="M9,24L57.4,7.7c2.8-1,5.9,0.6,6.8,3.4L72.6,36c1,2.8-0.6,5.9-3.4,6.8L20.9,59.1c-2.8,1-5.9-0.6-6.8-3.4
		L5.6,30.8C4.7,28,6.2,24.9,9,24z"/>
	<rect x="5.6" y="22.7" transform="matrix(0.9475 -0.3196 0.3196 0.9475 -6.3212 13.0352)" class="st1" width="61.9" height="6.2"/>
	<path class="st1" d="M16.2,52.5c-0.3-1,0-1.6,1-2l12.3-4.2c1-0.3,1.6,0,2,1c0.3,1,0,1.6-1,2l-12.3,4.2
		C17.2,53.8,16.5,53.5,16.2,52.5z"/>
	<path class="st1" d="M34.4,46.4c-0.3-1,0-1.6,1-2l2.9-1c1-0.3,1.6,0,2,1c0.3,1,0,1.6-1,2l-2.9,1C35.4,47.7,34.7,47.4,34.4,46.4z"/>
	<path class="st2" d="M14.9,57.9L0.5,32.6c-0.5-1-0.7-2-0.4-3c0.3-1.1,0.9-1.9,1.9-2.4L48.8,0.5c1-0.5,2-0.7,3-0.4
		c1.1,0.3,1.9,0.9,2.4,1.9l14.4,25.3c0.5,1,0.7,2,0.4,3c-0.3,1.1-0.9,1.9-1.9,2.4L20.4,59.4c-1,0.5-2,0.7-3,0.4S15.5,58.9,14.9,57.9
		z"/>
	
		<rect x="-0.3" y="19.9" transform="matrix(0.8692 -0.4945 0.4945 0.8692 -7.3595 18.1566)" class="st1" width="61.9" height="6.2"/>
	<path class="st1" d="M15.8,53.1c-0.5-0.9-0.3-1.6,0.6-2.1l11.3-6.4c0.9-0.5,1.6-0.3,2.1,0.6c0.5,0.9,0.3,1.6-0.6,2.1l-11.3,6.4
		C17,54.2,16.3,54,15.8,53.1z"/>
	<path class="st1" d="M32.4,43.7c-0.5-0.9-0.3-1.6,0.6-2.1l2.7-1.5c0.9-0.5,1.6-0.3,2.1,0.6c0.5,0.9,0.3,1.6-0.6,2.1l-2.7,1.5
		C33.6,44.8,32.9,44.6,32.4,43.7z"/>
</g>
</svg>
