<?xml version="1.0" encoding="utf-8"?>
<!-- Generator: Adobe Illustrator 21.0.0, SVG Export Plug-In . SVG Version: 6.00 Build 0)  -->
<svg version="1.1" id="Capa_1" xmlns="http://www.w3.org/2000/svg" xmlns:xlink="http://www.w3.org/1999/xlink" x="0px" y="0px"
	 viewBox="0 0 68.2 66.2" style="enable-background:new 0 0 68.2 66.2;" xml:space="preserve">
<style type="text/css">
	.st0{fill:#CF5E40;}
	.st1{fill:#FFFFFF;}
	.st2{opacity:0.6;fill:#AB4937;}
	.st3{fill:#F47E60;}
	.st4{fill:#F7A08A;}
	.st5{opacity:0.6;fill:#CF5E40;}
</style>
<g>
	<g>
		<path class="st0" d="M66.2,49c-2.9,0.9-5.6-0.2-6.4-2.5c-0.8-2.3,0.8-4.6,3.7-5.5l-2-6L23.7,46.3l2,6c2.6-0.8,5.6,0.2,6.4,2.5
			c0.8,2.3-0.8,4.6-3.7,5.5l2,5.9l37.8-11.3L66.2,49z"/>
		<path class="st0" d="M66.2,49c-2.9,0.9-5.6-0.2-6.4-2.5c-0.8-2.3,0.8-4.6,3.7-5.5l-2-6L23.7,46.3l2,6c2.6-0.8,5.6,0.2,6.4,2.5
			c0.8,2.3-0.8,4.6-3.7,5.5l2,5.9l37.8-11.3L66.2,49z"/>
		<path class="st1" d="M40.2,55.3l-1.8-5.5c-0.2-0.8,0.1-1.5,0.8-1.7L50,44.9c0.7-0.2,1.4,0.2,1.7,1l1.8,5.5
			c0.2,0.8-0.1,1.5-0.8,1.7l-10.7,3.2C41.2,56.5,40.5,56.1,40.2,55.3z"/>
	</g>
	<polygon class="st2" points="62,36.5 37.9,63.9 30.2,66.1 	"/>
	<g>
		<path class="st3" d="M60.5,27.6c-2.7,2.5-6.3,2.9-8.4,0.8c-2.1-2.1-1.6-5.6,1.1-8.1l-5.5-5.6L12,47.8l5.5,5.6
			c2.5-2.3,6.3-2.9,8.4-0.8c2.1,2.1,1.6,5.6-1.1,8.1l5.4,5.4L65.9,33L60.5,27.6z"/>
		<path class="st3" d="M60.5,27.6c-2.7,2.5-6.3,2.9-8.4,0.8c-2.1-2.1-1.6-5.6,1.1-8.1l-5.5-5.6L12,47.8l5.5,5.6
			c2.5-2.3,6.3-2.9,8.4-0.8c2.1,2.1,1.6,5.6-1.1,8.1l5.4,5.4L65.9,33L60.5,27.6z"/>
		<path class="st1" d="M35.2,48.7l-5-5.1c-0.7-0.7-0.7-1.7,0-2.3l10.1-9.4c0.7-0.6,1.7-0.6,2.4,0.2l5,5.1c0.7,0.7,0.7,1.7,0,2.3
			l-10.1,9.4C36.9,49.5,35.9,49.4,35.2,48.7z"/>
	</g>
	<g>
		<path class="st4" d="M41.3,6.7c-1.5,4.3-5.3,6.8-8.7,5.7c-3.5-1.1-4.9-5.2-3.4-9.5L19.8,0L0,56.7l9.3,2.9c1.4-4,5.3-6.8,8.7-5.7
			c3.5,1.1,4.9,5.2,3.4,9.5l9,2.8L50.3,9.5L41.3,6.7z"/>
		<path class="st4" d="M41.3,6.7c-1.5,4.3-5.3,6.8-8.7,5.7c-3.5-1.1-4.9-5.2-3.4-9.5L19.8,0L0,56.7l9.3,2.9c1.4-4,5.3-6.8,8.7-5.7
			c3.5,1.1,4.9,5.2,3.4,9.5l9,2.8L50.3,9.5L41.3,6.7z"/>
		<path class="st1" d="M25.9,44.4l-8.4-2.7c-1.2-0.4-1.7-1.4-1.4-2.5l5.6-16.1c0.4-1.1,1.5-1.6,2.7-1.2l8.4,2.7
			c1.2,0.4,1.7,1.4,1.4,2.5l-5.6,16.1C28.2,44.2,27,44.8,25.9,44.4z"/>
	</g>
	<polygon class="st5" points="48.3,15.3 34.3,65 30.4,66.2 	"/>
</g>
</svg>
