<?xml version="1.0" encoding="utf-8"?>
<!-- Generator: Adobe Illustrator 21.0.0, SVG Export Plug-In . SVG Version: 6.00 Build 0)  -->
<svg version="1.1" id="Capa_1" xmlns="http://www.w3.org/2000/svg" xmlns:xlink="http://www.w3.org/1999/xlink" x="0px" y="0px"
	 viewBox="0 0 59 61.7" style="enable-background:new 0 0 59 61.7;" xml:space="preserve">
<style type="text/css">
	.st0{fill:#368C51;}
	.st1{fill:#35A650;}
	.st2{fill:#4AB971;}
</style>
<g>
	<path class="st0" d="M42.6,23.8c-0.8,0-1.5-0.7-1.5-1.5v-7.7C41.1,8.2,35.9,3,29.5,3S17.9,8.2,17.9,14.6v7.7c0,0.8-0.7,1.5-1.5,1.5
		c-0.8,0-1.5-0.7-1.5-1.5v-7.7C14.9,6.5,21.5,0,29.5,0s14.6,6.5,14.6,14.6v7.7C44.1,23.1,43.4,23.8,42.6,23.8z"/>
	<polygon class="st1" points="48.6,61.7 0,61.7 7.7,18.4 45.1,18.4 	"/>
	<polygon class="st2" points="59,61.7 10.4,61.7 13.5,16.8 53.5,16.8 	"/>
	<polygon class="st0" points="0,61.7 11,55.7 10.4,61.7 	"/>
	<path class="st1" d="M47.6,23.8c-0.8,0-1.5-0.7-1.5-1.5v-7.7C46.1,8.2,40.9,3,34.5,3S22.9,8.2,22.9,14.6v7.7c0,0.8-0.7,1.5-1.5,1.5
		c-0.8,0-1.5-0.7-1.5-1.5v-7.7C19.9,6.5,26.4,0,34.5,0s14.6,6.5,14.6,14.6v7.7C49.1,23.1,48.4,23.8,47.6,23.8z"/>
</g>
</svg>
