<?xml version="1.0" encoding="utf-8"?>
<!-- Generator: Adobe Illustrator 21.0.0, SVG Export Plug-In . SVG Version: 6.00 Build 0)  -->
<svg version="1.1" id="Capa_1" xmlns="http://www.w3.org/2000/svg" xmlns:xlink="http://www.w3.org/1999/xlink" x="0px" y="0px"
	 viewBox="0 0 73.5 76.3" style="enable-background:new 0 0 73.5 76.3;" xml:space="preserve">
<style type="text/css">
	.st0{fill:#9A2920;}
	.st1{fill:#BD2926;}
	.st2{fill:#D7C33E;}
	.st3{fill:#AAD5F2;}
	.st4{fill:#187DBE;}
	.st5{clip-path:url(#SVGID_2_);}
	.st6{fill:none;stroke:#FFFFFF;stroke-width:2;stroke-linecap:round;stroke-linejoin:round;stroke-miterlimit:10;}
	.st7{fill:#BF2025;}
	.st8{fill:#FFFFFF;}
	.st9{opacity:0.4;}
</style>
<g>
	<path class="st0" d="M47.7,33.2c-1.1,0.6-5.8,0.9-11.5,0.9c-6.5,0-10.2-0.8-11.8-1.3c0.1,0,2.9-0.8,12-0.8
		C44,32.1,46.9,33,47.7,33.2z"/>
	<path class="st1" d="M43.7,33.4c0,0-0.6-0.5-7.5-0.5s-7.5,0.5-7.5,0.5v42.9h15V33.4z"/>
	<path class="st2" d="M48.9,60.2v1c0,0-2.6,1.1-12.1,1.1c-9.5,0-12.1-1.1-12.1-1.1v-1.4l5.6,0.3C30.3,60,43.4,60.3,48.9,60.2z"/>
	<path class="st3" d="M0,41.6l3.3,15.5l6.6,1.8L30.3,60c0,0,20.4,0.4,21,0s15.5-1.7,15.5-1.7l4.9-1.9l1.9-14.8H0z"/>
	<path class="st4" d="M68.7,53v-8.4h4.3l0.4-3.1H0l0.7,3.1h8.8v9.2H2.6l0.7,3.2l6.6,1.8L30.3,60c0,0,20.4,0.4,21,0
		s15.5-1.7,15.5-1.7l4.9-1.9L72,53H68.7z M28.6,54.2H11.2v-9.5h17.4V54.2z M50.7,53.9H30.3v-9.2h20.4V53.9z M67,53.3l-14.2,0.6v-9.2
		H67V53.3z"/>
	<g>
		<defs>
			<path id="SVGID_1_" d="M0,41.6l3.3,15.5l6.6,1.8L30.3,60c0,0,20.4,0.4,21,0s15.5-1.7,15.5-1.7l4.9-1.9l1.9-14.8H0z"/>
		</defs>
		<clipPath id="SVGID_2_">
			<use xlink:href="#SVGID_1_"  style="overflow:visible;"/>
		</clipPath>
		<g class="st5">
			<g>
				<line class="st6" x1="34.4" y1="46" x2="41.9" y2="52.7"/>
				<line class="st6" x1="37.4" y1="46" x2="44.9" y2="52.7"/>
			</g>
			<g>
				<line class="st6" x1="55" y1="46" x2="62.5" y2="52.7"/>
				<line class="st6" x1="58.1" y1="46" x2="65.6" y2="52.7"/>
			</g>
			<g>
				<line class="st6" x1="14.2" y1="46" x2="21.7" y2="52.7"/>
				<line class="st6" x1="17.2" y1="46" x2="24.7" y2="52.7"/>
			</g>
			<g>
				<line class="st6" x1="-2.3" y1="46" x2="5.2" y2="52.7"/>
				<line class="st6" x1="0.7" y1="46" x2="8.2" y2="52.7"/>
			</g>
			<g>
				<line class="st6" x1="70" y1="46" x2="77.5" y2="52.7"/>
				<line class="st6" x1="73.1" y1="46" x2="80.6" y2="52.7"/>
			</g>
		</g>
	</g>
	<path class="st1" d="M19.8,16.5l4.6,16.4c0,0,2.6-0.8,11.9-0.8s11.5,1.1,11.5,1.1l4.9-16.7c0,0-2.3-2-16.4-2S19.8,16.5,19.8,16.5z"
		/>
	<rect x="35.5" y="10.1" class="st7" width="2.4" height="4.4"/>
	<rect x="35.5" y="5.7" class="st8" width="2.4" height="4.4"/>
	<path class="st7" d="M37.9,1.3c0,0,0.1-1.3-1.2-1.3c-1.3,0-1.3,1.3-1.3,1.3v4.4h2.4V1.3z"/>
	<path class="st8" d="M35.5,1.3"/>
	<g class="st9">
		<path class="st8" d="M35.5,1.3L35.5,1.3v4.4v4.4v0v4.4h0.3c-13.8,0-16,2-16,2l4.6,16.4c0,0,2.6-0.8,11.7-0.8"/>
		<path class="st8" d="M36,76.3V32.1c-8.8,0-11.5,0.7-11.7,0.8c0.8,0.3,2.3,0.6,4.4,0.9v7.9H0l0.7,3.1l2.7,12.4l6.6,1.8l14.7,0.8
			v1.4c0,0,1,0.4,4,0.8v14.4H36z"/>
	</g>
</g>
</svg>
