<?xml version="1.0" standalone="no"?>
<!DOCTYPE svg PUBLIC "-//W3C//DTD SVG 1.1//EN" "http://www.w3.org/Graphics/SVG/1.1/DTD/svg11.dtd" >
<svg>
<metadata>
Created by FontForge 20120731 at Tue Nov 15 21:19:50 2016
 By www-data
Copyright (c) 2013 by The Fontry. All rights reserved.
</metadata>
<defs>
<font id="FTYSKRADJHUWNNCV1" horiz-adv-x="484" >
  <font-face 
    font-family="FTY SKRADJHUWN NCV 1"
    font-weight="400"
    font-stretch="normal"
    units-per-em="1000"
    panose-1="2 0 0 0 0 0 0 0 0 0"
    ascent="750"
    descent="-250"
    x-height="710.5"
    cap-height="711"
    bbox="-163 -284 1045 1093.56"
    underline-thickness="50"
    underline-position="-50"
    unicode-range="U+0020-F8FF"
  />
<missing-glyph horiz-adv-x="313" 
 />
    <glyph glyph-name=".notdef" horiz-adv-x="313" 
 />
    <glyph glyph-name=".null" horiz-adv-x="0" 
 />
    <glyph glyph-name="nonmarkingreturn" horiz-adv-x="212" 
 />
    <glyph glyph-name="space" unicode=" " horiz-adv-x="157" 
 />
    <glyph glyph-name="E" unicode="E" horiz-adv-x="418" 
d="M387 3q-85 -1 -170 -2.5t-170 -1.5q4 13 5 25.5t1 26.5q0 38 -1 90.5t-1 103.5q0 92 1 183t5 184q-2 22 -8 45t-14 43q38 5 97 8.5t120 3.5q38 0 73 -1.5t63 -5.5q0 -32 -3 -70.5t-6 -66.5q-32 27 -71.5 37.5t-74.5 10.5q-23 0 -42 -3q-1 -20 -2 -46t-1.5 -53t-0.5 -53.5
v-46.5q21 0 44.5 2.5t46 5.5t42.5 7t34 8q0 -35 -1.5 -73.5t-6.5 -70.5q-32 16 -70 21t-90 4q0 -26 -0.5 -53.5t-0.5 -55.5q0 -57 3 -109q25 -1 52 1.5t52.5 10.5t48.5 22.5t40 37.5q5 -40 5.5 -83.5t0.5 -85.5z" />
    <glyph glyph-name="F" unicode="F" horiz-adv-x="414" 
d="M37 9q6 20 8 39.5t2 39.5q0 130 1 259t6 266q-3 22 -9 45.5t-14 42.5q18 2 43 4.5t54 4t60.5 2.5t61.5 1q40 0 75 -2t59 -7q0 -34 -2.5 -69t-6.5 -64q-35 25 -71 35.5t-77 10.5q-9 0 -19 -0.5t-20 -1.5q-1 -17 -2 -42t-1.5 -52.5t-1 -55.5t-0.5 -52q27 1 53 4t48 6.5
t39.5 7t26.5 5.5q0 -35 -1 -73t-6 -70q-33 16 -71 20.5t-91 4.5q-2 -50 -2 -104.5t4 -120.5q1 -17 5 -40t15 -46q-40 -5 -85 -7t-81 9z" />
    <glyph glyph-name="G" unicode="G" horiz-adv-x="507" 
d="M398 487q-23 63 -50 92t-59 29q-34 0 -56 -25.5t-35 -69t-18 -101.5t-5 -124q1 -18 3 -51.5t10.5 -66t26 -57t48.5 -24.5q35 0 52.5 24.5t19.5 61.5q1 23 0.5 59t-7.5 71q-5 27 -22 49t-38 32q23 5 56.5 8.5t65.5 3.5q23 0 44.5 -1.5t38.5 -5.5q-12 -23 -12 -51
q2 -84 0 -167.5t-7 -171.5q-27 13 -55 12.5t-56.5 -6.5t-56 -13.5t-53.5 -7.5q-59 0 -97.5 30t-62 78.5t-33 110t-9.5 124.5t8.5 132t33.5 127t71 95.5t120 37.5q57 0 104.5 -20.5t76.5 -48.5q-2 -19 -7 -42t-11.5 -45.5t-14 -43t-14.5 -34.5z" />
    <glyph glyph-name="H" unicode="H" horiz-adv-x="515" 
d="M35 1q8 22 10 45t2 46q0 130 2 262.5t2 279.5q0 20 -3.5 37t-11.5 34q13 1 36.5 2.5t48.5 1.5t47.5 -1t35.5 -5q-17 -31 -17 -71l-3 -225q33 2 67.5 2t72.5 -1l4 200q1 27 -3 52.5t-12 48.5q12 2 33.5 3t46 1t48 -2t39.5 -5q-16 -37 -16 -76q-2 -70 -3 -139.5t-3 -140.5
q-1 -54 -1 -107.5v-108.5q0 -32 3 -65.5t16 -60.5q-81 -9 -166 -3q8 15 10.5 30.5t2.5 29.5q0 59 -1 117.5t0 123.5h-69.5t-70.5 -1q-1 -20 -1.5 -46t-1 -55.5t-0.5 -59.5t1 -58q1 -25 5.5 -45.5t11.5 -37.5q-40 -4 -80 -4t-82 2z" />
    <glyph glyph-name="I" unicode="I" horiz-adv-x="242" 
d="M36 4q8 19 10.5 40t2.5 38q0 125 1.5 255.5t3.5 288.5q0 21 -3.5 40.5t-11.5 38.5q35 4 80 5.5t85 0.5q-11 -19 -11 -42q0 -55 -2 -127t-3.5 -151t-3 -160t0.5 -154q0 -36 16 -71q-21 -2 -45 -3.5t-50 -1.5q-37 0 -70 3z" />
    <glyph glyph-name="J" unicode="J" horiz-adv-x="420" 
d="M173 85q28 0 42.5 21.5t20.5 54.5t6 71.5v73.5q0 42 1 95t-0.5 107.5t-6.5 105.5t-17 90q23 4 49 5.5t52 1.5q19 0 37.5 -2.5t34.5 -8.5q-17 -24 -17 -61q0 -62 1.5 -136t1.5 -150q0 -50 -2 -97.5t-5 -90.5q-8 -91 -55.5 -133.5t-117.5 -42.5q-28 0 -55 6t-50.5 14.5
t-41.5 16.5t-29 11q0 25 3 53t7.5 56.5t9.5 56t9 50.5q8 -34 19.5 -64.5t26.5 -53.5t34 -36.5t42 -13.5z" />
    <glyph glyph-name="K" unicode="K" horiz-adv-x="489" 
d="M33 4q8 17 10.5 35.5t2.5 35.5q0 130 1.5 263t1.5 278q0 26 -3 48.5t-11 39.5q20 2 44.5 4t50.5 2q20 0 39.5 -0.5t35.5 -5.5q-17 -28 -17 -64q-2 -48 -3 -101t-1 -101q31 54 63.5 107.5t63.5 100.5q8 13 16 29.5t7 34.5q38 0 72.5 -3.5t64.5 -12.5q-14 -16 -36 -46.5
t-47 -68t-50.5 -79t-47.5 -79.5q18 -33 38.5 -73.5t40.5 -85.5t39 -92t34 -94q5 -15 13.5 -28t17.5 -22q-35 -12 -75.5 -19.5t-82.5 -6.5q-12 40 -27.5 85t-31 87t-30.5 76.5t-26 53.5l-20 -52v-109t2 -73q0 -13 3.5 -29.5t13.5 -30.5q-54 -6 -108 -6h-29t-29 2z" />
    <glyph glyph-name="L" unicode="L" horiz-adv-x="405" 
d="M375 3q-63 -1 -110 -2t-82 -1q-61 0 -99.5 2t-49.5 5q8 23 9.5 47t1.5 45q0 131 2.5 270t3.5 269q0 18 -3 35t-12 32q27 3 55.5 5t59.5 2q14 0 29.5 -1.5t23.5 -7.5q-8 -14 -11.5 -31t-3.5 -36q0 -64 -1.5 -132t-3 -137t-2.5 -136t-1 -130q31 1 56.5 5t48 12.5t43.5 22
t42 33.5q3 -42 4 -83.5t0 -87.5z" />
    <glyph glyph-name="M" unicode="M" horiz-adv-x="626" 
d="M46 79q0 114 1.5 232t1.5 258q0 33 -2 67t-10 71q42 2 84 2.5t90 -4.5q13 -45 25 -85t23 -77.5t22.5 -74t24.5 -74.5q29 81 60 160t66 157q41 2 84 0.5t81 -6.5q-18 -41 -19 -90q-5 -128 -5.5 -254.5t1.5 -263.5q0 -21 4 -43.5t13 -45.5q-33 -2 -69.5 -3.5t-90.5 -1.5
q6 15 7.5 30t2.5 31q2 43 2 86.5t-0.5 91t-2 101.5t-2.5 118q-17 -47 -33 -93t-32 -93.5t-33 -96.5t-35 -103q-10 -7 -23 -2q-25 66 -56.5 168t-63.5 221q-8 -91 -6.5 -182.5t3.5 -185.5q1 -21 4 -43t14 -45q-35 -5 -71 -5t-72 2q8 17 10 37t2 39z" />
    <glyph glyph-name="N" unicode="N" horiz-adv-x="508" 
d="M192 7q-38 -5 -78 -6.5t-79 1.5q8 17 10 34.5t3 37.5q2 58 3.5 133.5t2.5 154t0.5 153.5t-1.5 132q0 41 -14 61q37 3 73.5 4t74.5 -1q34 -98 70 -193t81 -201q1 75 2 153t0 165q0 22 -3.5 39.5t-9.5 31.5q38 4 75.5 4.5t75.5 -1.5q-11 -21 -15 -41.5t-4 -42.5
q-2 -81 -3 -164t-1 -168q0 -36 -0.5 -73.5t0 -74.5t3 -73.5t9.5 -69.5q-26 -3 -55 -4.5t-58 -1.5q-19 37 -42.5 85.5t-48.5 103.5t-49 113t-44 115q-3 -78 -3 -156.5t4 -167.5q1 -23 7 -44t14 -38z" />
    <glyph glyph-name="O" unicode="O" horiz-adv-x="530" 
d="M272 615q-26 -2 -44 -27.5t-29 -64.5t-16 -87.5t-5 -94.5q0 -48 4 -93t13.5 -80.5t26 -56.5t41.5 -21t42.5 23.5t28 62.5t15.5 88.5t5 101.5q0 49 -3.5 94t-13 79.5t-25.5 55t-40 20.5zM275 718q59 0 101.5 -25.5t70 -71t40.5 -109.5t13 -141q0 -189 -63 -287.5
t-178 -98.5q-62 0 -105.5 27.5t-71 76.5t-40 114.5t-12.5 142.5q0 94 17 165.5t48.5 119.5t75 73t97.5 27q2 -2 3.5 -6.5t3.5 -6.5z" />
    <glyph glyph-name="P" unicode="P" horiz-adv-x="466" 
d="M188 610q-2 -54 -2.5 -97t-1.5 -78.5t-1 -65.5v-59q36 -2 60.5 10t40.5 34.5t23 54t7 68.5q0 26 -6.5 50.5t-21.5 43.5t-39 29.5t-59 9.5zM200 5q-39 -5 -79.5 -5.5t-83.5 5.5q5 15 7 31.5t2 33.5q-1 128 1 262t7 293q-5 42 -24 73q36 8 75 12t78 4q61 0 110 -11.5
t83.5 -41t53 -78.5t18.5 -124q0 -56 -19 -104t-53.5 -81.5t-84 -49.5t-110.5 -10q0 -30 -0.5 -59t-0.5 -58q0 -19 3.5 -42.5t16.5 -49.5z" />
    <glyph glyph-name="Q" unicode="Q" horiz-adv-x="532" 
d="M275 718q59 0 102 -25.5t71 -71t41.5 -109.5t13.5 -141q0 -103 -19.5 -178.5t-56.5 -124.5q8 -16 14.5 -31.5t12.5 -30.5q11 -9 26 -14.5t39 -10.5q-37 -29 -82 -52t-87 -35q-5 25 -10.5 50.5t-13.5 50.5q-16 -5 -32.5 -7.5t-34.5 -2.5q-62 0 -105.5 27.5t-71 76.5
t-40 114.5t-12.5 142.5q0 94 17 165.5t48.5 119.5t75 73t97.5 27q2 -2 3.5 -6.5t3.5 -6.5zM274 616q-26 -2 -45 -27.5t-31.5 -65t-18.5 -88t-6 -94.5q0 -116 20.5 -183t70.5 -67q15 0 27 7q-17 40 -37 80.5t-41 67.5q14 17 34.5 29.5t36.5 17.5q18 -17 39 -46t32 -52
q8 36 11.5 84t3.5 87q0 49 -6 94.5t-18 80t-30 55t-42 20.5z" />
    <glyph glyph-name="R" unicode="R" horiz-adv-x="474" 
d="M178 348q33 3 58 19t42 38.5t25.5 50t8.5 54.5q-5 57 -38 82.5t-90 21.5q-3 -79 -4.5 -141.5t-1.5 -124.5zM307 288q18 -19 34 -43.5t31 -52t29 -57t29 -57.5q9 -18 18 -33.5t21 -27.5q-13 -4 -31.5 -7.5t-38.5 -6t-41.5 -4t-40.5 -1.5q-9 19 -24 54.5t-34 74t-39.5 73
t-39.5 51.5q0 -12 -0.5 -21.5t-0.5 -21.5q0 -25 -0.5 -52t0.5 -54t5.5 -51.5t15.5 -43.5q-23 -4 -48 -5.5t-51 -1.5q-17 0 -33.5 1t-31.5 5q7 15 9.5 29t2.5 31q0 39 -1 78t-1 79q0 107 3 209.5t5 190.5q-2 18 -9 38.5t-15 34.5q32 10 71 14t93 4q127 0 187 -51t60 -169
q0 -77 -35.5 -130t-98.5 -76z" />
    <glyph glyph-name="S" unicode="S" horiz-adv-x="451" 
d="M51 26q0 54 7 103.5t14 98.5q26 -76 58 -110t74 -34q74 0 74 69q0 31 -15.5 54.5t-39 43.5t-49.5 37.5t-47 35.5q-24 21 -42 40t-30 40t-18 45.5t-6 55.5q0 43 14.5 82.5t42.5 68.5t69 46.5t95 17.5q42 0 85 -11t75 -29q-2 -31 -18 -77t-51 -116q-8 66 -30 95.5t-61 30.5
q-45 1 -66 -30t-18 -77q2 -39 28 -67.5t69 -54.5q31 -19 59 -40.5t49.5 -47.5t34 -58t12.5 -72q0 -49 -15.5 -82.5t-42 -54.5t-62.5 -30t-78 -9q-27 0 -52.5 5t-47.5 11t-40 12t-31 8z" />
    <glyph glyph-name="T" unicode="T" horiz-adv-x="453" 
d="M425 558q-15 16 -32.5 26t-35.5 16t-35 9t-31 3q-3 -130 -3 -260t4 -271q1 -17 4 -36t13 -38q-42 -5 -83.5 -5.5t-84.5 1.5q9 20 11.5 39.5t2.5 37.5v123t0.5 127t0.5 135v147q-29 -2 -61.5 -13t-66.5 -44q-2 36 -1 78t4 75q96 5 192.5 5t199.5 -4q3 -35 3.5 -75
t-1.5 -76z" />
    <glyph glyph-name="U" unicode="U" 
d="M442 254q0 -30 -2 -61t-8 -58.5t-16.5 -51.5t-26.5 -40q-21 -21 -44.5 -31.5t-45 -14.5t-37.5 -4h-22q-61 -1 -101 20t-61 59q-20 35 -25 81.5t-6 99.5q-1 90 1 189.5t4 187.5q0 40 -16 77q38 3 83.5 3.5t83.5 -1.5q-15 -36 -15 -77q-1 -90 -4.5 -178.5t-1.5 -176.5
q0 -29 0.5 -61.5t6 -59.5t19 -44t40.5 -17q37 1 51 26t16 61q1 22 1.5 60.5t0.5 84.5v94.5t-1 90.5t-2 73t-2 43q-3 39 -15 75q16 1 36.5 2.5t41.5 2t41 1t37 -0.5q-7 -20 -10.5 -41.5t-3.5 -40.5q1 -44 1.5 -75t1 -56.5t0.5 -48v-49v-61v-82.5z" />
    <glyph glyph-name="V" unicode="V" horiz-adv-x="498" 
d="M249 198q6 51 16.5 104.5t23 107.5t26 108.5t24.5 106.5q5 20 7.5 42t-1.5 44q32 0 69 -1.5t75 -8.5q-11 -17 -18.5 -35.5t-11.5 -33.5q-33 -124 -55.5 -215.5t-38.5 -164t-27.5 -131t-21.5 -116.5q-26 -4 -62.5 -4.5t-66.5 -0.5q-18 48 -37.5 115.5t-38.5 146.5
t-37 164.5t-33 171.5q-5 27 -10.5 56t-15.5 55q40 3 80.5 3t88.5 -2q-5 -10 -8.5 -23t-2.5 -30q3 -51 12 -110.5t20 -120t23 -119t21 -109.5z" />
    <glyph glyph-name="W" unicode="W" horiz-adv-x="704" 
d="M13 713q42 2 85.5 2t86.5 -7q-19 -32 -11 -70q7 -71 18 -155t29 -199q11 54 25 113t28.5 114t28 103.5t23.5 81.5q20 0 40 -0.5t42 -6.5q8 -65 17 -126t18.5 -114.5t18 -98.5t16.5 -78q7 47 15.5 98t18.5 100.5t20 96t19 85.5q3 14 5 30t-6 30q38 0 74 -4t66 -11
q-8 -14 -16 -31.5t-13 -38.5q-32 -134 -65.5 -293.5t-57.5 -329.5q-25 -3 -49.5 -3.5t-53.5 0.5q-12 39 -23.5 80.5t-23.5 89.5t-23.5 104.5t-23.5 125.5q-21 -94 -42 -192.5t-40 -207.5q-25 -2 -50.5 -1.5t-52.5 2.5q-14 57 -30.5 134.5t-33 163t-31.5 172t-26 162.5
q-3 20 -8 40.5t-14 38.5z" />
    <glyph glyph-name="X" unicode="X" horiz-adv-x="496" 
d="M321 4q1 4 1 13q0 21 -8.5 50.5t-21.5 63t-29 68t-31 66.5q-17 -26 -30.5 -62t-23.5 -74t-15.5 -73t-5.5 -57q-38 0 -75 2.5t-70 8.5q11 14 18 31t12 37q17 70 46.5 144t70.5 140q-38 65 -67 134.5t-44 140.5q-9 42 -31 69q61 11 132 11h19t19 -1q0 -2 -0.5 -4.5
t-0.5 -4.5q0 -21 6 -54t15 -67.5t21 -66t24 -50.5q13 23 27 53t25.5 61.5t19 61.5t7.5 51v9.5t-1 9.5q38 0 75 -4t69 -10q-14 -21 -27 -48t-22 -56q-17 -53 -43 -106t-59 -110q25 -45 46.5 -90.5t40.5 -96.5q8 -23 15.5 -47t16 -47.5t19 -45.5t25.5 -39q-38 -5 -80 -8
t-85 -3z" />
    <glyph glyph-name="Y" unicode="Y" horiz-adv-x="541" 
d="M217 235q-32 91 -73.5 191.5t-83.5 195.5q-8 19 -20 41t-25 36q41 6 86.5 11t88.5 5q-3 -9 -3 -20q0 -14 4 -30t12 -35q23 -57 45 -120t44 -130q23 75 41.5 134.5t36.5 113.5q6 18 10.5 39.5t2.5 48.5q38 0 74.5 -4.5t68.5 -10.5q-12 -14 -20.5 -31t-14.5 -34
q-32 -87 -64.5 -183t-71.5 -218q-1 -35 -1.5 -65t-1 -53t-0.5 -37v-16q0 -15 2 -31t9 -30q-17 -1 -33 -1.5t-33 -0.5q-27 0 -52 1.5t-48 5.5q12 19 16.5 45.5t5.5 57t-0.5 62.5t-1.5 62z" />
    <glyph glyph-name="Z" unicode="Z" horiz-adv-x="452" 
d="M53 571q0 34 3.5 69t8.5 65q87 6 173.5 6t182.5 -5q4 -10 2 -24q-2 -32 -15.5 -66t-29.5 -68q-17 -41 -43 -98t-54 -118.5t-55 -123t-45 -111.5q56 0 111.5 15t104.5 47q0 -42 -1 -80t-5 -76q-93 2 -180.5 1t-181.5 -3q-1 5 -2 14.5t-1 20t0.5 20.5t1.5 16
q18 50 40 105.5t50.5 121t65.5 144.5t86 177q-51 0 -107 -8.5t-110 -40.5z" />
    <glyph glyph-name="D" unicode="D" horiz-adv-x="498" 
d="M180 96q44 0 72.5 24.5t45.5 62t23.5 83t6.5 86.5q0 23 -1 52.5t-5 60t-13 59t-24.5 49.5t-39.5 32t-59 7q-4 -128 -5 -257.5t-1 -258.5zM31 12q10 17 13 38t3 41q0 132 2 263.5t5 271.5q-3 20 -8.5 36t-15.5 36q15 3 35.5 6t43 5t45 3.5t42.5 1.5q75 0 128 -23t86 -68
t48 -112.5t15 -157.5q0 -73 -14 -138t-47.5 -113.5t-89.5 -77t-141 -28.5q-37 0 -75.5 4t-74.5 12z" />
    <glyph glyph-name="A" unicode="A" horiz-adv-x="512" 
d="M10 13q8 12 14.5 29.5t9.5 33.5q10 61 24 130.5t29 140t31 140.5t31 133q5 22 6 48t-9 41q23 2 50.5 4t57.5 2.5t60 -1.5t57 -7q-10 -12 -13 -32.5t0 -37.5q22 -130 48 -273.5t59 -282.5q5 -20 13 -39t20 -33q-37 -5 -81 -7t-86 -2q4 11 1.5 32t-6.5 41l-20 104
q-34 0 -68 -0.5t-69 -1.5q-6 -27 -13 -59.5t-7 -64.5q0 -24 10 -47q-35 -4 -73.5 -1.5t-75.5 10.5zM245 582q-17 -79 -31.5 -156.5t-26.5 -152.5q25 2 49.5 2t53.5 -1q-11 66 -23 148.5t-22 159.5z" />
    <glyph glyph-name="B" unicode="B" horiz-adv-x="492" 
d="M179 336q-2 -57 -2.5 -116t3.5 -124q12 -3 25 -3q60 0 86 32.5t26 84.5q0 29 -8.5 53.5t-26 41.5t-43.5 25.5t-60 5.5zM186 616q-2 -45 -3 -94t-1 -94q122 0 122 107q0 44 -23.5 64t-65.5 20q-14 0 -29 -3zM198 714q124 0 182 -43t58 -128q0 -20 -5.5 -43t-17.5 -44.5
t-32.5 -39t-50.5 -26.5q33 -7 57.5 -24.5t40.5 -42t24 -54t8 -59.5q0 -66 -21 -107.5t-57 -65.5t-82.5 -33t-97.5 -9t-95.5 7.5t-78.5 27.5q9 21 12 42.5t4 41.5q1 67 1.5 130t1.5 125t2 125.5t3 131.5q-2 19 -8 37.5t-16 34.5q38 8 81 12t87 4z" />
    <glyph glyph-name="C" unicode="C" horiz-adv-x="451" 
d="M256 -11q-66 0 -109.5 30t-69 81t-36 119.5t-10.5 145.5q0 55 9.5 117.5t35 115.5t71.5 88t118 35q39 0 65.5 -8.5t45 -20t30 -23t20.5 -17.5q-6 -42 -17.5 -85.5t-21.5 -82.5q-12 38 -25.5 62t-28 38t-29 19t-27.5 5q-30 -2 -50 -28t-31.5 -67.5t-16.5 -95t-5 -111.5
q0 -46 6.5 -84.5t19 -66t32 -43t46.5 -15.5q50 0 76.5 32.5t45.5 91.5q7 -45 12 -94t7 -94q-14 -5 -32 -12.5t-39 -14.5t-44 -12t-48 -5z" />
    <glyph glyph-name="nine" unicode="9" horiz-adv-x="471" 
d="M71 11q0 36 2 81.5t4 82.5q20 -37 51 -61t65 -24q33 0 54.5 15t34 39.5t17 55t4.5 62.5q-18 -21 -50.5 -32.5t-62.5 -11.5q-77 0 -120.5 62t-43.5 180q0 125 54.5 193.5t154.5 68.5q57 -1 96.5 -24.5t64.5 -66.5t36 -103.5t13 -135.5q0 -43 -3 -89.5t-11 -91t-23.5 -84.5
t-41 -70t-62 -48t-86.5 -18q-26 0 -48 3.5t-41 8t-33.5 7t-24.5 1.5zM228 314q27 0 42.5 9t23 27.5t9.5 46.5t2 66q0 27 -3.5 55t-11.5 51t-20.5 38t-31.5 16q-23 0 -38 -14t-24.5 -36.5t-13.5 -50.5t-4 -56q0 -30 4 -57t12 -48t21.5 -33.5t32.5 -13.5z" />
    <glyph glyph-name="zero" unicode="0" horiz-adv-x="511" 
d="M258 608q-21 0 -37.5 -20t-28 -55t-17 -82.5t-5.5 -102.5q0 -54 5 -100t15.5 -79.5t26.5 -53t38 -19.5t38.5 21t27 57t15.5 84t5 102q0 53 -5 98.5t-15 78.5t-25.5 52t-37.5 19zM258 724q48 0 83.5 -16.5t60.5 -44t41 -64.5t25 -77.5t12.5 -83t4.5 -80.5
q0 -59 -11.5 -124.5t-38 -120.5t-71 -90.5t-111.5 -35.5q-66 0 -109.5 34.5t-70 88t-37 117t-10.5 121.5q0 61 10 127t36 121.5t71 91.5t115 36z" />
    <glyph glyph-name="one" unicode="1" horiz-adv-x="272" 
d="M25 608q5 10 12.5 24.5t15.5 28.5t16.5 26.5t14.5 20.5q10 1 27.5 2.5t37.5 2t38.5 0.5t30.5 -1q2 -24 1.5 -48t-0.5 -48q0 -127 -3.5 -255.5t-1.5 -256.5q1 -26 4 -51t14 -45q-38 -5 -81 -6.5t-84 -1.5q5 16 8 33t3 40q0 115 2.5 243t7.5 279q-14 2 -33 5.5t-30 7.5z
" />
    <glyph glyph-name="two" unicode="2" horiz-adv-x="440" 
d="M419 557q1 -45 -13 -85.5t-36.5 -78t-51 -73.5t-55 -72t-48.5 -72.5t-32 -74.5q23 0 54.5 2t62.5 7t57.5 14t38.5 23q0 -38 -2 -76t-7 -70q-39 2 -85.5 3t-94.5 1t-93 -1.5t-81 -4.5q-9 34 -10 73q12 48 43 100.5t74 108.5q25 33 51 67t46 67t33 65.5t13 62.5
q0 36 -16 56t-47 20q-49 0 -87.5 -31.5t-71.5 -102.5q-8 45 -13 95.5t-1 97.5q15 1 36.5 9t47.5 16t55 15t58 7q84 0 129.5 -45t45.5 -123z" />
    <glyph glyph-name="three" unicode="3" horiz-adv-x="439" 
d="M40 672q15 1 36 9t46.5 17t54.5 16.5t59 7.5q81 0 128 -43t49 -122q0 -26 -6.5 -52.5t-20 -51t-35 -44.5t-52.5 -32q58 -16 87 -67.5t29 -117.5q0 -55 -17.5 -93.5t-47.5 -63t-70 -36t-85 -11.5q-27 0 -54.5 5.5t-51.5 17t-43 28t-30 38.5q0 16 5.5 34.5t13 36.5t15 33
t12.5 23q9 -27 23.5 -47.5t31 -34t34 -20t32.5 -6.5q19 0 37 5t31.5 18.5t20.5 37.5t4 61q-3 44 -29 69.5t-67 25.5h-34t-36 -3q-10 22 -10 46.5t2 50.5q48 4 81 12.5t54 24.5t30 41t9 63t-19 55t-42 17q-36 0 -76 -24t-77 -91q-7 38 -13 80.5t-9 86.5z" />
    <glyph glyph-name="four" unicode="4" horiz-adv-x="501" 
d="M277 540q-17 -33 -34.5 -69.5t-34.5 -73.5t-32 -73.5t-27 -69.5q22 1 48.5 2.5t71.5 1.5q0 69 1.5 139t6.5 143zM420 710q-6 -14 -8.5 -29.5t-2.5 -32.5q-2 -95 -4.5 -197t-2.5 -194q18 0 38.5 1.5t35.5 14.5v-67t-2 -68q-11 12 -33 15.5t-40 1.5q-1 -38 -1 -76.5
t19 -73.5q-45 -5 -88 -5h-75q4 9 6.5 20.5t4.5 29t2.5 42.5t-0.5 61q-58 0 -117 -2t-116 -5q-2 8 -5 22t-5 30t-3 30t1 22q21 51 48.5 112t57.5 123.5t61.5 121.5t61.5 106q82 4 167 -3z" />
    <glyph glyph-name="five" unicode="5" horiz-adv-x="443" 
d="M32 696q33 8 76 11.5t89 4t90.5 -0.5t80.5 -2q2 -28 4.5 -60t2.5 -67q-46 20 -98.5 23.5t-103.5 -0.5q-5 -43 -9 -87.5t-6 -89.5q17 9 38 13.5t41 4.5q47 0 81.5 -16.5t56.5 -46.5t32.5 -72t10.5 -94q0 -48 -13.5 -89t-39.5 -71.5t-64.5 -47.5t-89.5 -17q-25 0 -50 5
t-48 12t-44 14t-37 12q1 51 7 101.5t13 95.5q30 -78 64.5 -110t73.5 -32q25 0 42 9t27.5 25.5t15 39t4.5 49.5q0 28 -4.5 52.5t-15 41.5t-28.5 27t-44 10q-20 0 -46.5 -9t-53.5 -31q-14 4 -29.5 12.5t-25.5 17.5q2 61 7.5 134.5t12.5 142.5q-3 22 -7.5 44t-12.5 41z" />
    <glyph glyph-name="six" unicode="6" horiz-adv-x="473" 
d="M173 446q23 18 54.5 26.5t54.5 8.5q42 0 72.5 -18t51 -48.5t30.5 -70.5t11 -84q0 -58 -12 -107.5t-37.5 -85.5t-65.5 -56t-95 -20q-60 0 -101 25.5t-65.5 70t-35 103.5t-10.5 127q0 42 3.5 88t13 90.5t25.5 85.5t41 72t60.5 50t83.5 20q47 0 84 -12.5t68 -18.5
q-1 -37 -4 -79t-6 -80q-14 28 -28.5 46t-29 28.5t-29.5 14t-28 3.5q-26 0 -45 -15t-31.5 -40t-20 -57.5t-9.5 -66.5zM240 389q-29 0 -45 -11.5t-23.5 -30t-9 -43t-1.5 -50.5q0 -35 5 -65t14.5 -51.5t23 -33.5t31.5 -12q38 0 58 38t20 121q-1 23 -4 47.5t-10.5 44.5t-21.5 33
t-37 13z" />
    <glyph glyph-name="seven" unicode="7" horiz-adv-x="445" 
d="M40 711q47 -2 94.5 -0.5t95.5 2t96.5 -0.5t97.5 -7q0 -9 -2 -21t-8 -32.5t-17.5 -53t-29.5 -81.5q-25 -63 -47 -127.5t-38.5 -129t-25.5 -127.5t-8 -123q-2 -4 -22 -6.5t-45.5 -4.5t-50 -3t-35.5 -1q0 73 19.5 156t48.5 164.5t61 156t57 130.5q-64 0 -128 -5t-128 -29
q1 34 5 74t10 69z" />
    <glyph glyph-name="eight" unicode="8" horiz-adv-x="486" 
d="M243 -14q-46 0 -84.5 10t-67 31.5t-45.5 55.5t-19 83q0 65 26 115.5t78 84.5q-42 27 -65.5 71t-23.5 92q0 37 12 72t37.5 62t65.5 43.5t96 17.5q41 0 76 -11t60.5 -33.5t40 -55t14.5 -75.5q1 -54 -26.5 -100.5t-76.5 -75.5q60 -30 87.5 -83.5t27.5 -115.5
q0 -44 -16 -78.5t-44.5 -58.5t-67.5 -37t-85 -14zM241 90q38 1 56.5 27t18.5 65q0 46 -21.5 79t-68.5 51q-27 -17 -45 -52.5t-18 -76.5q0 -38 18 -65.5t60 -27.5zM247 423q35 17 53 52t18 72q0 14 -4 28t-12 25.5t-21 19t-32 7.5q-42 0 -57.5 -28t-15.5 -69q0 -31 18 -61.5
t53 -45.5z" />
    <glyph glyph-name="exclam" unicode="!" horiz-adv-x="259" 
d="M130 138q33 0 54.5 -18.5t21.5 -53.5t-24 -55t-59 -20q-32 0 -53.5 18.5t-21.5 53.5t23.5 55t58.5 20zM79 231q0 37 -1.5 84.5t-3.5 98t-5 100.5t-7 91.5t-8.5 70.5t-8.5 39q13 4 36.5 6.5t49.5 2.5t51 -2.5t40 -8.5q-6 -13 -11.5 -44t-10.5 -71.5t-9.5 -89t-7.5 -97
t-4.5 -94.5t-1.5 -83q0 -11 1 -22.5t6 -19.5q-27 -6 -56 -7t-56 7q4 8 5.5 18t1.5 21z" />
    <glyph glyph-name="quotedbl" unicode="&#x22;" horiz-adv-x="375" 
d="M338 710q-3 -29 -5.5 -55.5t-7 -59.5t-10 -76.5t-14.5 -105.5q-19 -2 -33 -2.5t-27 -0.5q-8 27 -13.5 66.5t-8.5 81.5t-5 83.5t-2 73.5q28 5 62 5q18 0 34.5 -2t29.5 -8zM165 710q-5 -29 -9 -68t-7.5 -80.5t-6 -80t-4.5 -65.5q-30 -9 -64 -9q-8 27 -14 63.5t-10.5 76
t-7 79t-2.5 72.5v17q13 2 29 3.5t33 1.5t33.5 -2.5t29.5 -7.5z" />
    <glyph glyph-name="ampersand" unicode="&#x26;" horiz-adv-x="576" 
d="M380 536q-8 43 -30 62t-58 18q-27 -1 -43 -22t-16 -50q0 -30 16 -70.5t40 -82.5t51.5 -81t51.5 -66q17 41 23.5 93.5t-5.5 96.5q14 0 33 -3.5t37 -8.5t33.5 -10.5t21.5 -11.5q1 -25 -3.5 -57.5t-14 -66.5t-23 -66.5t-29.5 -57.5q12 -15 22.5 -27t22 -24t25 -25.5
t30.5 -31.5q-23 -13 -49 -24t-58 -19q-17 12 -33 27t-34 31q-61 -70 -176 -70q-47 0 -83 14.5t-61 41t-38 62.5t-13 79q0 69 30 133t92 106q-17 27 -28 61.5t-11 69.5q0 37 13.5 67t37.5 52t58 34t75 13q16 0 35 -1.5t38.5 -6t37.5 -10.5t32 -15q1 -13 -4.5 -34t-13.5 -44
t-17 -43.5t-15 -31.5zM320 143q-34 40 -64.5 85.5t-59.5 102.5q-11 -6 -21 -18t-17.5 -28t-12 -34.5t-4.5 -37.5q0 -52 25.5 -83.5t64.5 -31.5q23 0 46.5 12t42.5 33z" />
    <glyph glyph-name="comma" unicode="," horiz-adv-x="238" 
d="M87 -78q13 15 26.5 35t12.5 40q-18 -4 -35.5 -1t-31 13.5t-21 28.5t-7.5 44q1 42 26 64.5t63 22.5q39 0 63.5 -24.5t24.5 -62.5q0 -42 -18.5 -87t-64.5 -83q-9 1 -21 4t-17 6z" />
    <glyph glyph-name="hyphen" unicode="-" horiz-adv-x="337" 
d="M43 401q19 -6 44.5 -9t75.5 -3q51 0 79 3.5t50 11.5q3 -12 4 -29.5t1 -36t-1.5 -37t-2.5 -32.5q-20 5 -51 9.5t-76 3.5q-41 -1 -71.5 -4.5t-49.5 -11.5q-2 10 -3 28t-1.5 37.5t0 38.5t2.5 31z" />
    <glyph glyph-name="period" unicode="." horiz-adv-x="234" 
d="M204 82q-1 -42 -27 -65.5t-64 -23.5q-36 0 -59.5 22t-23.5 64t26 65.5t64 23.5q37 0 60.5 -22t23.5 -64z" />
    <glyph glyph-name="colon" unicode=":" horiz-adv-x="237" 
d="M204 407q-1 -42 -27 -65.5t-64 -23.5q-36 0 -59.5 22t-23.5 64t26 65.5t64 23.5q37 0 60.5 -22t23.5 -64zM204 82q-1 -42 -27 -65.5t-64 -23.5q-36 0 -59.5 22t-23.5 64t26 65.5t64 23.5q37 0 60.5 -22t23.5 -64z" />
    <glyph glyph-name="semicolon" unicode=";" horiz-adv-x="238" 
d="M83 -77q13 15 27.5 35.5t13.5 39.5q-15 -3 -32 -1.5t-31 10.5t-23 26t-8 46q1 41 26 62.5t63 21.5t61 -23.5t23 -60.5q0 -40 -18.5 -84t-63.5 -82q-9 1 -21 4t-17 6zM204 407q-1 -42 -27 -65.5t-64 -23.5q-36 0 -59.5 22t-23.5 64t26 65.5t64 23.5q37 0 60.5 -22
t23.5 -64z" />
    <glyph glyph-name="question" unicode="?" horiz-adv-x="423" 
d="M234 477q7 11 13.5 25t9.5 29.5t1.5 30.5t-8.5 28q-16 27 -54 27q-41 0 -80.5 -35t-66.5 -95q-14 49 -19.5 103.5t-1.5 105.5q16 -3 36.5 1.5t44.5 11t51 12.5t55 6q85 0 134 -41t49 -124q0 -41 -14 -73.5t-34.5 -60.5t-44.5 -52t-44.5 -47.5t-34.5 -48t-14 -52.5
q0 -9 2 -18.5t7 -18.5q-26 -3 -54 -4.5t-66 -1.5q2 8 2 19v41q0 42 14.5 74.5t35 59t43 50t38.5 48.5zM163 138q34 0 55.5 -18.5t21.5 -53.5t-24.5 -55t-58.5 -20q-33 0 -54.5 18.5t-21.5 53.5t23.5 55t58.5 20z" />
    <glyph glyph-name="at" unicode="@" horiz-adv-x="811" 
d="M374 87q29 0 48 24t30.5 60t16.5 77t5 74q-2 11 -11.5 19.5t-26.5 8.5q-26 0 -45.5 -19t-33 -47.5t-20.5 -61.5t-7 -60q0 -29 9.5 -52t34.5 -23zM780 287q0 -50 -13 -100.5t-39.5 -91t-65.5 -66.5t-91 -26q-30 0 -53 15.5t-32 43.5q-30 -35 -66 -50.5t-65 -15.5
q-72 0 -108 45.5t-38 119.5q-1 51 14 100.5t42.5 88t65 62.5t82.5 24q20 0 40.5 -7.5t35.5 -27.5l-3 28q7 1 22.5 2t32.5 0.5t32.5 -1.5t21.5 -3q0 -8 -3 -36t-7.5 -64.5t-10 -77.5t-9.5 -75q-4 -26 -6.5 -45t-3.5 -28q-3 -15 4 -22.5t21 -7.5q29 0 49.5 21t33.5 52t19 66
t6 63q0 58 -18 104.5t-51 78t-80 48.5t-105 17q-71 0 -126 -29t-93.5 -75.5t-59 -104.5t-20.5 -116q0 -65 20.5 -117t57.5 -88.5t87 -56t109 -19.5q60 0 110 17.5t85 55.5q11 -3 28 -7.5t31 -12.5q-44 -60 -113.5 -87.5t-150.5 -27.5q-84 0 -152 24t-116 69.5t-74.5 110
t-26.5 145.5q0 85 28.5 161t82 132t129 89t168.5 33q78 0 141 -23.5t107.5 -67t68.5 -104t25 -135.5z" />
    <glyph glyph-name="underscore" unicode="_" horiz-adv-x="418" 
d="M396 -25q2 -23 1 -53t-6 -50q-45 12 -89.5 14.5t-98.5 2.5q-45 0 -88.5 -3t-88.5 -14q-5 23 -5.5 52.5t5.5 52.5q37 4 87.5 5.5t102.5 1.5t100 -2.5t80 -6.5z" />
    <glyph glyph-name="numbersign" unicode="#" horiz-adv-x="562" 
d="M309 302q5 25 10.5 54t11.5 57h-88l-23 -111h89zM48 411q2 17 8 42.5t11 39.5q18 2 45.5 2.5t50.5 0.5q14 68 24.5 118t21.5 97q9 1 23 1.5t28.5 0.5t27.5 -0.5t19 -2.5l-46 -211h87q14 68 23.5 116.5t20.5 95.5q9 1 23 1.5t28.5 0.5t27.5 -0.5t21 -2.5l-45 -214
q30 0 55 -0.5t40 -2.5q-2 -17 -8.5 -40.5t-13.5 -40.5q-19 1 -40 1h-47q-3 -21 -8.5 -48t-13.5 -64q31 0 56 -0.5t42 -2.5q-3 -18 -9 -43.5t-14 -40.5q-20 -1 -46 -1t-46 1q-9 -45 -15 -76.5t-11 -55.5t-8.5 -44t-7.5 -42q-5 0 -13.5 -0.5t-15.5 -0.5h-16t-20 0.5t-19 2
t-13 4.5q8 48 17 98.5t21 113.5h-88q-9 -44 -15.5 -75t-11.5 -55.5t-8.5 -45t-7.5 -42.5q-5 -1 -12 -1h-12q-16 0 -36.5 1t-29.5 6q7 49 15 97t22 113q-25 0 -47.5 0.5t-41.5 2.5q2 18 7.5 42.5t11.5 40.5q23 2 42.5 2h42.5l22 112h-23.5h-27.5t-27 -0.5t-20 -0.5z" />
    <glyph glyph-name="dollar" unicode="$" horiz-adv-x="407" 
d="M184 152q33 -2 52 11.5t19 46.5q0 18 -9.5 33t-23.5 27.5t-31.5 23t-33.5 19.5q-25 15 -48 30t-40 35t-27.5 46t-10.5 63q0 69 38 112.5t106 46.5q0 20 -4.5 38.5t-10.5 37.5q20 3 47.5 3t51.5 -3q-8 -20 -12 -41t-5 -36q13 0 27.5 -3.5t29 -8t27.5 -8.5t22 -5
q-4 -41 -9.5 -81.5t-13.5 -75.5q-21 58 -47 78t-65 20q-26 0 -47.5 -16.5t-21.5 -50.5q0 -31 14 -49t37 -33q34 -22 66.5 -40t57 -39.5t39.5 -49.5t15 -70q0 -28 -7.5 -53.5t-24 -45t-42 -31.5t-61.5 -15q0 -19 1.5 -37t8.5 -38q-18 -2 -41.5 -2.5t-42.5 2.5q13 35 13 76
q-18 1 -38 5.5t-38 11.5t-33 15.5t-23 17.5q1 16 4 36t8 39.5t11 38t12 33.5q12 -59 40.5 -85.5t63.5 -28.5z" />
    <glyph glyph-name="quotesingle" unicode="'" horiz-adv-x="204" 
d="M166 709q-2 -24 -5 -52t-7.5 -63.5t-10.5 -80t-14 -102.5q-19 -2 -33 -2.5t-28 -0.5q-8 28 -13 67t-8.5 81.5t-5 83.5t-1.5 74q28 5 63 5q17 0 34 -2t29 -8z" />
    <glyph glyph-name="parenleft" unicode="(" horiz-adv-x="300" 
d="M310 758q-38 -41 -64 -91.5t-42 -105t-23 -109t-7 -103.5q0 -47 6.5 -99t22 -105t40.5 -104.5t62 -97.5q-17 -8 -40 -11.5t-45 -1.5q-44 33 -79.5 82t-60 105t-37.5 116t-13 116q0 55 13 115t38 116t61 105.5t82 85.5q46 3 86 -13z" />
    <glyph glyph-name="parenright" unicode=")" horiz-adv-x="299" 
d="M-10 -56q38 40 63.5 89.5t41 102t22.5 106t8 102.5q0 48 -6.5 100.5t-21.5 106t-40 106.5t-62 102q24 8 50 9t52 -8q39 -37 70.5 -85t54 -102t35 -110.5t12.5 -110.5q0 -56 -13 -115.5t-38 -116t-61 -105.5t-82 -85q-20 -1 -43 2.5t-42 11.5z" />
    <glyph glyph-name="asterisk" unicode="*" horiz-adv-x="377" 
d="M199 518q-17 -26 -31.5 -53.5t-31.5 -53.5q-6 4 -17 10t-23 14t-22.5 16.5t-16.5 17.5q22 22 45.5 46.5t43.5 38.5q-12 3 -28 5.5t-32.5 4.5t-32.5 4t-28 6q2 22 13 48t22 44q25 -13 51.5 -28.5t49.5 -27.5q-4 28 -10.5 58t-10.5 61q26 5 51 6t52 -5q-3 -30 -9.5 -58.5
t-11.5 -59.5q29 19 55 32.5t47 23.5q6 -6 11.5 -17.5t10 -24.5t7.5 -26t5 -22q-29 -8 -62 -13.5l-51 -8.5h-2q20 -14 49.5 -33t55.5 -45q-14 -19 -35.5 -35.5t-36.5 -27.5q-7 7 -13 15t-14.5 20t-20 28.5t-29.5 39.5z" />
    <glyph glyph-name="less" unicode="&#x3c;" horiz-adv-x="446" 
d="M403 490q-11 0 -25 -11q-43 -32 -99 -64.5t-124 -68.5q60 -33 117 -62.5t111 -55.5q5 -2 9 -4t9 -2q1 -14 2.5 -32t1.5 -37t-1 -37t-5 -32q-5 5 -16 13.5t-43 28.5t-92.5 57t-165.5 99q-21 12 -38 11q-2 12 -3 27.5t0 31t3 29.5t5 24q6 0 16 2t18 7q26 15 57.5 34
t64.5 39t64.5 40t57.5 38t44 32t23 22q5 -28 7 -61.5t2 -67.5z" />
    <glyph glyph-name="equal" unicode="=" horiz-adv-x="467" 
d="M45 327q14 -4 34.5 -6t46.5 -4q28 -2 59 -2.5t62.5 -1t60.5 0t53 1.5q19 1 36 3t25 7q3 -29 3.5 -59t-4.5 -60q-14 4 -29.5 6.5t-31.5 3.5q-59 2 -121 2t-125 -2q-15 0 -33.5 -2.5t-32.5 -7.5q-6 25 -7 57t4 64zM424 507q2 -27 2.5 -55t-2.5 -61q-10 4 -31 6.5t-48 4
t-56 1.5h-56q-51 0 -100.5 -1.5t-86.5 -10.5q-9 57 -3 118q20 -5 46 -6.5t45 -2.5q53 -2 107 -1.5t118 0.5q17 0 35.5 1.5t29.5 6.5z" />
    <glyph glyph-name="bracketleft" unicode="[" horiz-adv-x="215" 
d="M239 742q-26 -2 -44.5 -4t-39.5 -8q-2 -188 -2 -375t2 -382q26 -6 48 -8t33 -4q3 -12 3 -29.5v-29.5q-45 -3 -100.5 -3t-103.5 2v517q0 100 1 196t4 189q15 2 40.5 3t54 1.5t55.5 0t46 -1.5q2 -12 2.5 -31.5t0.5 -32.5z" />
    <glyph glyph-name="backslash" unicode="\" horiz-adv-x="369" 
d="M262 -48q-18 65 -38.5 138.5t-42 149.5t-43 151t-42.5 143t-41 126t-37 99q23 6 45.5 9.5t48.5 4.5q35 -86 69.5 -188.5t67 -210t62 -212.5t54.5 -196q-8 -3 -21 -6t-27.5 -4.5t-29 -2.5t-25.5 -1z" />
    <glyph glyph-name="bracketright" unicode="]" horiz-adv-x="215" 
d="M-24 -37q26 2 44 4t39 8q1 74 1.5 151t1 166.5t0.5 197v242.5q-26 6 -48 7.5t-32 3.5q-2 13 -3.5 30.5t-1.5 28.5q51 5 101.5 5t103.5 -2q-3 -227 -1.5 -458t-5.5 -445q-49 -3 -98 -3.5t-99 1.5q-1 9 -1.5 26.5t-0.5 36.5z" />
    <glyph glyph-name="asciicircum" unicode="^" horiz-adv-x="486" 
d="M318 704q15 -30 34.5 -68.5t39.5 -78.5t38 -78t31 -65q-20 -15 -46 -20t-53 -9q-12 21 -26.5 47t-30 54t-31.5 56.5t-30 54.5q-16 -26 -31.5 -54.5t-31 -56.5t-30 -54t-27.5 -47q-27 4 -53 9.5t-46 21.5q13 28 32.5 66t40 78t40 78t34.5 66q9 2 27 3t39.5 1.5t43 0
t36.5 -2.5v-2z" />
    <glyph glyph-name="percent" unicode="%" horiz-adv-x="729" 
d="M164 360q-32 0 -58 13t-45.5 36t-30 55.5t-10.5 70.5q0 41 11 75.5t30.5 59t46 38t58.5 13.5q33 0 59.5 -13.5t45.5 -37.5t29.5 -56t10.5 -69q0 -41 -10.5 -75t-30 -58.5t-46.5 -38t-60 -13.5zM123 541q0 -48 11 -80.5t32 -32.5q10 0 18 9t13.5 24t8.5 35t3 42
q0 48 -11 81t-31 33t-31.5 -33t-12.5 -78zM563 -9q-32 0 -58.5 13t-45.5 36.5t-29.5 56t-10.5 71.5q0 41 11 75t30.5 58t46 37.5t58.5 13.5t58.5 -13.5t45.5 -37.5t29.5 -56t10.5 -69q0 -41 -10.5 -74.5t-30 -58.5t-46.5 -38.5t-59 -13.5zM564 282q-14 0 -22.5 -14
t-13.5 -33t-6.5 -40t-1.5 -34q2 -42 13 -72.5t31 -30.5q11 0 19 10.5t13.5 28t8 40t2.5 45.5q0 44 -12 72t-31 28zM475 732h29t34 -1t34 -3t29 -4q-91 -175 -179.5 -362t-163.5 -378q-26 -1 -53.5 0t-51.5 5z" />
    <glyph glyph-name="plus" unicode="+" horiz-adv-x="492" 
d="M37 295q-2 14 -2.5 31t-0.5 34.5t1.5 33.5t4.5 28q29 -12 72.5 -14.5t86.5 -0.5q2 45 0.5 91.5t-18.5 88.5q14 3 32.5 5t37.5 2.5t37 -1t32 -5.5q-3 -6 -6 -16t-6 -30t-4.5 -52.5t-1.5 -81.5q39 0 79.5 0.5t78.5 13.5q3 -12 5 -28t2.5 -33.5t-0.5 -35t-3 -31.5
q-6 3 -15.5 6.5t-27.5 6.5t-46.5 4.5t-73.5 0.5q0 -44 1 -75t3.5 -51.5t5 -33t5.5 -19.5q-31 -7 -65.5 -7t-66.5 7q12 43 12.5 89.5t0.5 90.5h-37t-43.5 -1.5t-43.5 -5t-36 -11.5z" />
    <glyph glyph-name="slash" unicode="/" horiz-adv-x="369" 
d="M236 752q10 0 27 -1t34.5 -3t33 -4t24.5 -5q-39 -93 -73 -191.5t-64.5 -199t-59 -200t-55.5 -193.5q-23 0 -46.5 0.5t-47.5 7.5q24 94 49.5 194t53.5 200.5t58.5 200t65.5 194.5z" />
    <glyph glyph-name="greater" unicode="&#x3e;" horiz-adv-x="447" 
d="M40 222q19 6 50 19.5t66 31t71 37t66 36.5q-70 37 -123.5 69.5t-98.5 61.5q-14 9 -27 11q0 21 2 49.5t8 81.5q6 -10 14.5 -16.5t14.5 -11.5q69 -48 142 -93t141 -85q10 -5 17.5 -7t16.5 -1q3 -11 5 -26t2 -30.5t-1 -31t-2 -27.5q-12 1 -41 -14q-25 -13 -58 -32t-66 -38.5
t-62.5 -37.5t-47.5 -29q-20 -12 -40.5 -25t-40.5 -29q-2 8 -3 26.5t-2.5 39.5t-2 40.5t-0.5 30.5z" />
    <glyph glyph-name="grave" unicode="`" horiz-adv-x="344" 
d="M40 899q36 4 75.5 3.5t77.5 -2.5q5 -8 12 -23q13 -13 26.5 -28t26.5 -29.5t25 -28t21 -23.5q-21 -2 -43 -2t-45 1q-19 12 -42 28.5t-47 35t-46.5 36.5t-40.5 32z" />
    <glyph glyph-name="braceleft" unicode="{" horiz-adv-x="347" 
d="M34 385q51 3 71.5 27t25 58.5t0 73.5t-4.5 71q0 97 52.5 146.5t137.5 49.5q22 0 34.5 -6t13.5 -32q0 -5 -2 -15q-28 0 -46.5 -8.5t-30 -24.5t-16 -38t-4.5 -50q0 -23 1.5 -46t1.5 -44q0 -71 -26.5 -121.5t-92.5 -68.5q30 -6 52.5 -23t37.5 -42t22.5 -56t7.5 -65
q0 -20 -1.5 -42t-1.5 -44q0 -25 3 -48.5t12.5 -41.5t27 -29t46.5 -11q8 0 12 1q2 -14 0.5 -25.5t-5.5 -25.5q-24 -3 -46 -3q-95 0 -139.5 48.5t-46.5 129.5q-2 22 0 49t2.5 54.5t-2.5 54t-13 46.5t-30 32t-53 12q-3 3 -4 11t-1 17t1 17t4 12z" />
    <glyph glyph-name="bar" unicode="|" horiz-adv-x="236" 
d="M56 754q31 3 62 2.5t63 -2.5q-4 -108 -5.5 -237.5t-2 -262t-0.5 -258t-1 -225.5q-26 -5 -55 -6.5t-57 3.5q-6 246 -7 490.5t3 495.5z" />
    <glyph glyph-name="braceright" unicode="}" horiz-adv-x="345" 
d="M312 327q-51 -4 -71.5 -28t-25 -58t0.5 -72.5t5 -71.5q0 -96 -52.5 -146t-136.5 -50q-9 0 -17.5 1t-16 4.5t-12 11t-4.5 21.5q0 4 0.5 7.5t1.5 8.5q27 -3 46 5t30.5 24.5t16.5 40t5 52.5q0 24 -2 48.5t-2 47.5q0 67 28.5 115t91.5 67q-31 6 -54 23.5t-38 43t-22 57
t-7 66.5q0 21 1.5 42.5t1.5 43.5q0 24 -3.5 47t-14 40t-30 28t-52.5 11q-1 16 0.5 27.5t4.5 23.5q21 3 42 3q52 0 88 -14t58.5 -40t32.5 -62.5t10 -81.5q0 -32 -2.5 -72t3.5 -75.5t27 -59t68 -22.5q5 -11 5 -28.5t-5 -28.5z" />
    <glyph glyph-name="asciitilde" unicode="~" horiz-adv-x="447" 
d="M412 455q3 -10 4 -21t1 -22q0 -30 -9 -55t-26.5 -42.5t-42.5 -26.5t-56 -7q-30 2 -51 15t-37 27q-11 11 -23 19t-23 9q-13 0 -20 -6.5t-9.5 -16.5t-0.5 -21.5t6 -20.5q-11 -2 -22 -4.5t-25 -2.5q-28 0 -40 20.5t-10 46.5q3 51 38 78.5t86 27.5q32 0 58 -15t46 -32
q11 -11 22.5 -17t19.5 -6q12 0 18.5 7t9 17.5t1.5 22t-4 21.5q7 2 19.5 3l25 2t24.5 1t20 -1z" />
    <glyph glyph-name="Euro" unicode="&#x20ac;" horiz-adv-x="515" 
d="M422 437q-5 -45 -12 -90q-8 3 -26.5 5t-44 3t-56 1.5t-63.5 0.5q-1 -7 -1 -13v-12v-17t1 -20q35 0 69.5 -0.5t63.5 -0.5q16 0 26 1t21 6q0 -8 -1.5 -19.5t-3 -24.5t-3.5 -25.5t-4 -21.5q-9 5 -27.5 7t-41 3t-47 0.5t-46.5 -0.5q4 -26 12 -50.5t20 -43.5t27.5 -30.5
t36.5 -12.5q51 0 83.5 32t55.5 92q6 -40 11.5 -83t7.5 -83q-29 -19 -74 -35t-96 -16t-90 17t-66.5 47.5t-44.5 72.5t-25 92q-16 0 -25.5 -1t-20.5 -6q-2 10 -2.5 23.5t-0.5 27.5q0 10 0.5 19.5t1.5 17.5q9 -4 18 -5t22 -1q-1 10 -1.5 18.5t-0.5 16.5v12.5t1 14.5
q-25 0 -40 -7q-2 8 -3 18.5t-1 23.5q0 12 1 24t3 22q11 -5 21 -5.5t24 -0.5q5 58 20 110.5t42.5 92.5t70 63t102.5 23q34 0 60 -8.5t46.5 -19.5t36 -22.5t28.5 -17.5q-6 -46 -16.5 -91.5t-19.5 -87.5q-26 79 -54.5 111.5t-67.5 32.5q-21 0 -38 -14t-29.5 -38.5t-21.5 -59
t-14 -74.5q38 1 71 0t59 -1t39 1t27 6z" />
    <glyph glyph-name="quotesinglbase" unicode="&#x201a;" horiz-adv-x="238" 
d="M87 -78q13 15 26.5 35t12.5 40q-18 -4 -35.5 -1t-31 13.5t-21 28.5t-7.5 44q1 42 26 64.5t63 22.5q39 0 63.5 -24.5t24.5 -62.5q0 -42 -18.5 -87t-64.5 -83q-9 1 -21 4t-17 6z" />
    <glyph glyph-name="florin" unicode="&#x192;" horiz-adv-x="486" 
d="M414 501q-6 -26 -13.5 -55.5t-15.5 -45.5q-22 9 -47.5 11t-50.5 4q-22 -106 -41 -203.5t-42 -197.5q-17 -68 -47.5 -102.5t-90.5 -38.5q-15 0 -32.5 3.5t-33.5 12.5t-29 24.5t-20 39.5q10 -5 27 -8.5t34.5 -1.5t32.5 12.5t21 33.5q10 45 20.5 91t22 98t24.5 112.5
t29 134.5q-3 3 -13 4t-22.5 1.5t-25.5 0t-20 -1.5q20 26 47.5 41.5t47.5 20.5q6 49 21 91.5t40 74t61 49t84 17.5q35 0 64.5 -6.5t49.5 -4.5q-9 -31 -20 -64t-26 -63q-11 22 -28 33t-34 11q-20 0 -33.5 -11t-23 -29t-15.5 -41t-11 -47q10 0 24.5 0.5t30.5 1t30.5 0
t23.5 -1.5z" />
    <glyph glyph-name="quotedblbase" unicode="&#x201e;" horiz-adv-x="463" 
d="M87 -78q13 15 26.5 35t12.5 40q-18 -4 -35.5 -1t-31 13.5t-21 28.5t-7.5 44q1 42 26 64.5t63 22.5q39 0 63.5 -24.5t24.5 -62.5q0 -42 -18.5 -87t-64.5 -83q-9 1 -21 4t-17 6zM312 -78q13 15 26.5 35t12.5 40q-18 -4 -35.5 -1t-31 13.5t-21 28.5t-7.5 44q1 42 26 64.5
t63 22.5q39 0 63.5 -24.5t24.5 -62.5q0 -42 -18.5 -87t-64.5 -83q-9 1 -21 4t-17 6z" />
    <glyph glyph-name="dagger" unicode="&#x2020;" horiz-adv-x="478" 
d="M239 -155q-16 43 -25 86.5t-13.5 85.5t-6.5 82.5t-4 76.5q-3 68 -24 123q3 5 8.5 16.5t9.5 30t6 44.5t-2 62q-45 0 -84.5 -8t-68.5 -24q-4 33 -4.5 66.5t4.5 69.5q32 -20 70.5 -26.5t85.5 -6.5q1 20 -0.5 50t-5.5 61.5t-11 60t-17 45.5q23 3 43 4t39.5 1t40 -1t43.5 -4
q-10 -17 -17.5 -45.5t-12 -60t-6.5 -61.5t-1 -50q47 0 86 6.5t71 26.5q5 -36 4.5 -69.5t-4.5 -66.5q-29 16 -68.5 24t-84.5 8q-4 -36 -2 -62t6 -44.5t9.5 -30t8.5 -16.5q-11 -30 -17 -58.5t-8 -64.5q-2 -35 -3.5 -76t-6.5 -83.5t-14 -86.5t-24 -85z" />
    <glyph glyph-name="daggerdbl" unicode="&#x2021;" horiz-adv-x="479" 
d="M314 301q-20 -32 -24.5 -65.5t-4.5 -75.5q27 0 53 3.5t48 8t38 9.5t22 8q6 -64 0 -133q-32 17 -72 22t-87 9q-1 -18 -0.5 -48.5t4 -63t11 -63t21.5 -48.5q-45 -6 -86 -5.5t-81 5.5q14 18 21.5 48.5t11 63t4 63t-0.5 48.5q-47 -4 -87 -9t-72 -22q-6 69 0 133q6 -3 22 -8
t38 -9.5t48 -8t53 -3.5q0 42 -4.5 75.5t-24.5 65.5q20 32 24.5 65.5t4.5 75.5q-27 0 -53 -3.5t-48 -8t-38 -9.5t-22 -8q-6 64 0 133q32 -17 72 -22t87 -9q1 18 0.5 48.5t-4 63t-11 63t-21.5 48.5q40 5 81 5.5t86 -5.5q-14 -18 -21.5 -48.5t-11 -63t-4 -63t0.5 -48.5
q47 4 87 9t72 22q6 -69 0 -133q-6 3 -22 8t-38 9.5t-48 8t-53 3.5q0 -42 4.5 -75.5t24.5 -65.5z" />
    <glyph glyph-name="circumflex" unicode="&#x2c6;" horiz-adv-x="403" 
d="M368 765q-16 -3 -42 -4t-47 1q-19 14 -38 34t-41 43q-21 -23 -42.5 -42.5t-41.5 -36.5q-18 -2 -42 -1t-41 4q10 13 25 32t30.5 38.5t30 37.5t24.5 29q26 3 58 3t58 -2q12 -14 27 -33t30.5 -38t29 -36.5t22.5 -28.5z" />
    <glyph glyph-name="perthousand" unicode="&#x2030;" horiz-adv-x="1065" 
d="M899 -9q-32 0 -58.5 13t-45.5 36.5t-29.5 56t-10.5 71.5q0 41 11 75t30.5 58t46 37.5t58.5 13.5t58.5 -13.5t45.5 -37.5t29.5 -56t10.5 -69q0 -41 -10.5 -74.5t-30 -58.5t-46.5 -38.5t-59 -13.5zM900 282q-14 0 -22.5 -14t-13.5 -33t-6.5 -40t-1.5 -34q2 -42 13 -72.5
t31 -30.5q11 0 19 10.5t13.5 28t8 40t2.5 45.5q0 44 -12 72t-31 28zM164 360q-32 0 -58 13t-45.5 36t-30 55.5t-10.5 70.5q0 41 11 75.5t30.5 59t46 38t58.5 13.5q33 0 59.5 -13.5t45.5 -37.5t29.5 -56t10.5 -69q0 -41 -10.5 -75t-30 -58.5t-46.5 -38t-60 -13.5zM123 541
q0 -48 11 -80.5t32 -32.5q10 0 18 9t13.5 24t8.5 35t3 42q0 48 -11 81t-31 33t-31.5 -33t-12.5 -78zM563 -9q-32 0 -58.5 13t-45.5 36.5t-29.5 56t-10.5 71.5q0 41 11 75t30.5 58t46 37.5t58.5 13.5t58.5 -13.5t45.5 -37.5t29.5 -56t10.5 -69q0 -41 -10.5 -74.5t-30 -58.5
t-46.5 -38.5t-59 -13.5zM564 282q-14 0 -22.5 -14t-13.5 -33t-6.5 -40t-1.5 -34q2 -42 13 -72.5t31 -30.5q11 0 19 10.5t13.5 28t8 40t2.5 45.5q0 44 -12 72t-31 28zM475 732h29t34 -1t34 -3t29 -4q-91 -175 -179.5 -362t-163.5 -378q-26 -1 -53.5 0t-51.5 5z" />
    <glyph glyph-name="Scaron" unicode="&#x160;" horiz-adv-x="451" 
d="M51 26q0 54 7 103.5t14 98.5q26 -76 58 -110t74 -34q74 0 74 69q0 31 -15.5 54.5t-39 43.5t-49.5 37.5t-47 35.5q-24 21 -42 40t-30 40t-18 45.5t-6 55.5q0 43 14.5 82.5t42.5 68.5t69 46.5t95 17.5q42 0 85 -11t75 -29q-2 -31 -18 -77t-51 -116q-8 66 -30 95.5t-61 30.5
q-45 1 -66 -30t-18 -77q2 -39 28 -67.5t69 -54.5q31 -19 59 -40.5t49.5 -47.5t34 -58t12.5 -72q0 -49 -15.5 -82.5t-42 -54.5t-62.5 -30t-78 -9q-27 0 -52.5 5t-47.5 11t-40 12t-31 8zM407 901q-9 -11 -22.5 -28.5t-29 -36.5t-30.5 -38t-27 -33q-26 -2 -58 -2t-58 3
q-10 11 -24.5 29t-30 37.5t-30.5 38t-25 32.5q17 3 41 4t42 -1q20 -17 41.5 -36.5t42.5 -42.5q22 23 41 43t38 34q21 2 47 1t42 -4z" />
    <glyph glyph-name="guilsinglleft" unicode="&#x2039;" horiz-adv-x="292" 
d="M262 454q-23 -42 -55.5 -88.5t-62.5 -90.5q40 -61 68 -105t50 -82q-3 -32 -13.5 -58.5t-21.5 -49.5q-50 64 -99 127t-100 125q-2 24 -2.5 39.5t0.5 36.5q41 49 90.5 113t106.5 139q11 -23 23 -48.5t16 -57.5z" />
    <glyph glyph-name="OE" unicode="&#x152;" horiz-adv-x="722" 
d="M691 3q-89 -2 -174 -3t-174 1q-40 -16 -84 -16q-62 0 -105.5 27.5t-71 76.5t-40 114.5t-12.5 142.5q0 94 17 165.5t48.5 119.5t75 73t97.5 27q2 -2 3.5 -6.5t3.5 -6.5q45 0 83 -16q38 5 90 7.5t108 2.5q38 0 73 -1.5t63 -5.5q0 -32 -3 -70.5t-6 -66.5q-32 27 -71.5 37.5
t-74.5 10.5q-23 0 -42 -3q-2 -32 -2.5 -80.5t1.5 -118.5q20 0 43 2.5t45.5 5.5t42 7t33.5 8q0 -35 -1.5 -73.5t-6.5 -70.5q-26 14 -63.5 19.5t-95.5 5.5q-4 -52 -2.5 -105t4.5 -113q25 -1 51.5 1.5t52 10.5t48.5 22.5t40 37.5q5 -40 5.5 -83.5t0.5 -85.5zM272 615
q-26 -2 -44 -27.5t-29 -64.5t-16 -87.5t-5 -94.5q0 -48 4 -93t13.5 -80.5t26 -56.5t41.5 -21t42.5 13t28 44.5t15.5 84.5t5 134t-3.5 129.5t-13 75t-25.5 35.5t-40 9z" />
    <glyph glyph-name="Zcaron" horiz-adv-x="452" 
d="M53 571q0 34 3.5 69t8.5 65q87 6 173.5 6t182.5 -5q4 -10 2 -24q-2 -32 -15.5 -66t-29.5 -68q-17 -41 -43 -98t-54 -118.5t-55 -123t-45 -111.5q56 0 111.5 15t104.5 47q0 -42 -1 -80t-5 -76q-93 2 -180.5 1t-181.5 -3q-1 5 -2 14.5t-1 20t0.5 20.5t1.5 16
q18 50 40 105.5t50.5 121t65.5 144.5t86 177q-51 0 -107 -8.5t-110 -40.5zM413 901q-9 -11 -22.5 -28.5t-29 -36.5t-30.5 -38t-27 -33q-26 -2 -58 -2t-58 3q-10 11 -24.5 29t-30 37.5t-30.5 38t-25 32.5q17 3 41 4t42 -1q20 -17 41.5 -36.5t42.5 -42.5q22 23 41 43t38 34
q21 2 47 1t42 -4z" />
    <glyph glyph-name="Zcaron" unicode="&#x17d;" horiz-adv-x="452" 
d="M53 571q0 34 3.5 69t8.5 65q87 6 173.5 6t182.5 -5q4 -10 2 -24q-2 -32 -15.5 -66t-29.5 -68q-17 -41 -43 -98t-54 -118.5t-55 -123t-45 -111.5q56 0 111.5 15t104.5 47q0 -42 -1 -80t-5 -76q-93 2 -180.5 1t-181.5 -3q-1 5 -2 14.5t-1 20t0.5 20.5t1.5 16
q18 50 40 105.5t50.5 121t65.5 144.5t86 177q-51 0 -107 -8.5t-110 -40.5zM413 901q-9 -11 -22.5 -28.5t-29 -36.5t-30.5 -38t-27 -33q-26 -2 -58 -2t-58 3q-10 11 -24.5 29t-30 37.5t-30.5 38t-25 32.5q17 3 41 4t42 -1q20 -17 41.5 -36.5t42.5 -42.5q22 23 41 43t38 34
q21 2 47 1t42 -4z" />
    <glyph glyph-name="quoteleft" unicode="&#x2bb;" horiz-adv-x="221" 
d="M145 726q-12 -16 -25.5 -38.5t-12.5 -42.5q16 2 32.5 -1t29.5 -12.5t21 -27t7 -43.5q-1 -38 -27 -59.5t-62 -21.5q-37 0 -60 24t-25 60q-2 42 17.5 88t64.5 84q9 -1 22 -4t18 -6z" />
    <glyph glyph-name="quoteleft" unicode="&#x2018;" horiz-adv-x="221" 
d="M145 726q-12 -16 -25.5 -38.5t-12.5 -42.5q16 2 32.5 -1t29.5 -12.5t21 -27t7 -43.5q-1 -38 -27 -59.5t-62 -21.5q-37 0 -60 24t-25 60q-2 42 17.5 88t64.5 84q9 -1 22 -4t18 -6z" />
    <glyph glyph-name="quoteright" unicode="&#x2bc;" horiz-adv-x="221" 
d="M75 487q11 16 24.5 38.5t12.5 42.5q-16 -2 -32 1t-28.5 12.5t-20.5 27t-7 43.5q1 38 26 59.5t60 21.5q38 0 62.5 -24t25.5 -60q1 -42 -18 -88t-65 -84q-9 1 -22 4t-18 6z" />
    <glyph glyph-name="quoteright" unicode="&#x2019;" horiz-adv-x="221" 
d="M75 487q11 16 24.5 38.5t12.5 42.5q-16 -2 -32 1t-28.5 12.5t-20.5 27t-7 43.5q1 38 26 59.5t60 21.5q38 0 62.5 -24t25.5 -60q1 -42 -18 -88t-65 -84q-9 1 -22 4t-18 6z" />
    <glyph glyph-name="quotedblleft" unicode="&#x201c;" horiz-adv-x="431" 
d="M145 726q-12 -16 -25.5 -38.5t-12.5 -42.5q16 2 32.5 -1t29.5 -12.5t21 -27t7 -43.5q-1 -38 -27 -59.5t-62 -21.5q-37 0 -59.5 24t-24.5 60q-2 42 17 88t64 84q9 -1 22 -4t18 -6zM356 726q-11 -16 -24.5 -38.5t-12.5 -42.5q16 2 32 -1t28.5 -12.5t20.5 -27t7 -43.5
q-1 -38 -26.5 -59.5t-60.5 -21.5q-38 0 -61 24t-25 60q-2 42 17 88t65 84q9 -1 22 -4t18 -6z" />
    <glyph glyph-name="quotedblright" unicode="&#x201d;" horiz-adv-x="430" 
d="M286 487q12 16 25.5 38.5t12.5 42.5q-16 -2 -32.5 1t-29.5 12.5t-21 27t-7 43.5q1 38 26 59.5t61 21.5q37 0 61.5 -23.5t24.5 -60.5q0 -42 -18 -88t-63 -84q-9 1 -22 4t-18 6zM75 487q11 16 24.5 38.5t12.5 42.5q-16 -2 -32 1t-28.5 12.5t-20.5 27t-7 43.5q1 38 26 59.5
t60 21.5q38 0 62 -24t25 -60q1 -42 -17.5 -88t-64.5 -84q-9 1 -22 4t-18 6z" />
    <glyph glyph-name="bullet" unicode="&#x2022;" horiz-adv-x="357" 
d="M48 359q0 27 8.5 50.5t24.5 41.5t40 28t55 10t55.5 -10t41 -28t25.5 -41.5t9 -50.5q0 -61 -37 -95.5t-92 -34.5q-35 0 -59.5 10t-40.5 28t-23 41.5t-7 50.5z" />
    <glyph glyph-name="endash" unicode="&#x2013;" horiz-adv-x="491" 
d="M46 266q-4 15 -6 34.5t-1.5 39.5t4 37.5t10.5 27.5q7 -3 16.5 -6t29.5 -4.5t54 -2.5t90 -1h45t55 1.5t54 4t43 8.5q3 -12 4.5 -31.5t1 -40.5t-3.5 -39.5t-9 -28.5q-25 8 -78 11.5t-111 3.5q-32 0 -63 -1t-57.5 -2.5t-47 -4.5t-30.5 -6z" />
    <glyph glyph-name="emdash" unicode="&#x2014;" horiz-adv-x="717" 
d="M44 260q-6 32 -7 68t4 71q18 -4 53 -6.5t77.5 -4t88 -2t84.5 -0.5q40 0 86.5 0.5t91.5 2t83.5 4t62.5 8.5q8 -33 7 -69t-6 -73q-20 4 -54.5 6.5t-79 4t-95.5 2t-102 0.5q-50 0 -97.5 -1t-87 -2.5t-68.5 -3.5t-41 -5z" />
    <glyph glyph-name="tilde" unicode="&#x2dc;" horiz-adv-x="428" 
d="M307 834q13 1 31.5 0t32.5 -4q8 -27 7 -52.5t-12.5 -46t-32.5 -32.5t-53 -12q-37 0 -62 16t-53 36q-7 5 -13.5 9t-11.5 4q-17 0 -26 -17t-10 -47q-17 1 -33.5 3t-28.5 6q-3 25 3 52t21 47q13 17 32 27t42 10q22 0 39.5 -10.5t34 -23.5t32 -23.5t32.5 -10.5q11 0 18 6.5
t10 16t3 22t-2 24.5z" />
    <glyph glyph-name="trademark" unicode="&#x2122;" horiz-adv-x="673" 
d="M268 659q-18 -1 -44 -1h-42q-2 -73 -2.5 -155.5t-0.5 -153.5q-15 -3 -32 -3.5t-33 2.5q0 35 0.5 75.5t1 81.5t0.5 80.5v72.5q-23 0 -47 -0.5t-38 -0.5q-3 26 0 54q57 0 114 0.5t123 -0.5v-52zM573 349q0 23 0.5 53.5t0.5 63.5t-0.5 66t-0.5 61l-83 -225q-8 -2 -17.5 -2
t-17.5 2q-21 48 -43 107t-41 117v-121.5t1 -120.5q-14 -5 -31 -5t-34 4l3 362h42t43 -2q17 -55 37 -114t40 -115q17 47 39 108t50 123q20 0 39.5 0.5t39.5 -1.5q-2 -80 -2.5 -173t-0.5 -187q-16 -2 -31.5 -2.5t-32.5 1.5z" />
    <glyph glyph-name="scaron" unicode="&#x161;" horiz-adv-x="451" 
d="M51 26q0 54 7 103.5t14 98.5q26 -76 58 -110t74 -34q74 0 74 69q0 31 -15.5 54.5t-39 43.5t-49.5 37.5t-47 35.5q-24 21 -42 40t-30 40t-18 45.5t-6 55.5q0 43 14.5 82.5t42.5 68.5t69 46.5t95 17.5q42 0 85 -11t75 -29q-2 -31 -18 -77t-51 -116q-8 66 -30 95.5t-61 30.5
q-45 1 -66 -30t-18 -77q2 -39 28 -67.5t69 -54.5q31 -19 59 -40.5t49.5 -47.5t34 -58t12.5 -72q0 -49 -15.5 -82.5t-42 -54.5t-62.5 -30t-78 -9q-27 0 -52.5 5t-47.5 11t-40 12t-31 8zM407 901q-9 -11 -22.5 -28.5t-29 -36.5t-30.5 -38t-27 -33q-26 -2 -58 -2t-58 3
q-10 11 -24.5 29t-30 37.5t-30.5 38t-25 32.5q17 3 41 4t42 -1q20 -17 41.5 -36.5t42.5 -42.5q22 23 41 43t38 34q21 2 47 1t42 -4z" />
    <glyph glyph-name="guilsinglright" unicode="&#x203a;" horiz-adv-x="292" 
d="M30 88q23 47 55.5 91.5t60.5 87.5q-39 63 -66.5 107.5t-47.5 82.5q3 31 14 57t23 49q98 -132 194 -251q3 -24 3.5 -40t-0.5 -38q-32 -39 -58 -71.5t-49.5 -62t-45.5 -58.5t-46 -61q-11 23 -22 50t-15 57z" />
    <glyph glyph-name="oe" unicode="&#x153;" horiz-adv-x="722" 
d="M691 3q-89 -2 -174 -3t-174 1q-40 -16 -84 -16q-62 0 -105.5 27.5t-71 76.5t-40 114.5t-12.5 142.5q0 94 17 165.5t48.5 119.5t75 73t97.5 27q2 -2 3.5 -6.5t3.5 -6.5q45 0 83 -16q38 5 90 7.5t108 2.5q38 0 73 -1.5t63 -5.5q0 -32 -3 -70.5t-6 -66.5q-32 27 -71.5 37.5
t-74.5 10.5q-23 0 -42 -3q-2 -32 -2.5 -80.5t1.5 -118.5q20 0 43 2.5t45.5 5.5t42 7t33.5 8q0 -35 -1.5 -73.5t-6.5 -70.5q-26 14 -63.5 19.5t-95.5 5.5q-4 -52 -2.5 -105t4.5 -113q25 -1 51.5 1.5t52 10.5t48.5 22.5t40 37.5q5 -40 5.5 -83.5t0.5 -85.5zM272 615
q-26 -2 -44 -27.5t-29 -64.5t-16 -87.5t-5 -94.5q0 -48 4 -93t13.5 -80.5t26 -56.5t41.5 -21t42.5 13t28 44.5t15.5 84.5t5 134t-3.5 129.5t-13 75t-25.5 35.5t-40 9z" />
    <glyph glyph-name="zcaron" horiz-adv-x="452" 
d="M53 571q0 34 3.5 69t8.5 65q87 6 173.5 6t182.5 -5q4 -10 2 -24q-2 -32 -15.5 -66t-29.5 -68q-17 -41 -43 -98t-54 -118.5t-55 -123t-45 -111.5q56 0 111.5 15t104.5 47q0 -42 -1 -80t-5 -76q-93 2 -180.5 1t-181.5 -3q-1 5 -2 14.5t-1 20t0.5 20.5t1.5 16
q18 50 40 105.5t50.5 121t65.5 144.5t86 177q-51 0 -107 -8.5t-110 -40.5zM413 901q-9 -11 -22.5 -28.5t-29 -36.5t-30.5 -38t-27 -33q-26 -2 -58 -2t-58 3q-10 11 -24.5 29t-30 37.5t-30.5 38t-25 32.5q17 3 41 4t42 -1q20 -17 41.5 -36.5t42.5 -42.5q22 23 41 43t38 34
q21 2 47 1t42 -4z" />
    <glyph glyph-name="zcaron" unicode="&#x17e;" horiz-adv-x="452" 
d="M53 571q0 34 3.5 69t8.5 65q87 6 173.5 6t182.5 -5q4 -10 2 -24q-2 -32 -15.5 -66t-29.5 -68q-17 -41 -43 -98t-54 -118.5t-55 -123t-45 -111.5q56 0 111.5 15t104.5 47q0 -42 -1 -80t-5 -76q-93 2 -180.5 1t-181.5 -3q-1 5 -2 14.5t-1 20t0.5 20.5t1.5 16
q18 50 40 105.5t50.5 121t65.5 144.5t86 177q-51 0 -107 -8.5t-110 -40.5zM413 901q-9 -11 -22.5 -28.5t-29 -36.5t-30.5 -38t-27 -33q-26 -2 -58 -2t-58 3q-10 11 -24.5 29t-30 37.5t-30.5 38t-25 32.5q17 3 41 4t42 -1q20 -17 41.5 -36.5t42.5 -42.5q22 23 41 43t38 34
q21 2 47 1t42 -4z" />
    <glyph glyph-name="Ydieresis" unicode="&#x178;" horiz-adv-x="541" 
d="M217 235q-32 91 -73.5 191.5t-83.5 195.5q-8 19 -20 41t-25 36q41 6 86.5 11t88.5 5q-3 -9 -3 -20q0 -14 4 -30t12 -35q23 -57 45 -120t44 -130q23 75 41.5 134.5t36.5 113.5q6 18 10.5 39.5t2.5 48.5q38 0 74.5 -4.5t68.5 -10.5q-12 -14 -20.5 -31t-14.5 -34
q-32 -87 -64.5 -183t-71.5 -218q-1 -35 -1.5 -65t-1 -53t-0.5 -37v-16q0 -15 2 -31t9 -30q-17 -1 -33 -1.5t-33 -0.5q-27 0 -52 1.5t-48 5.5q12 19 16.5 45.5t5.5 57t-0.5 62.5t-1.5 62zM111 827q0 28 21 48.5t53 20.5q28 0 48.5 -19t20.5 -47q0 -29 -23 -49.5t-53 -20.5
t-48.5 20t-18.5 47zM303 827q0 28 21 48.5t53 20.5q29 0 48.5 -19t19.5 -47q0 -29 -22 -49.5t-52 -20.5q-31 0 -49.5 20t-18.5 47z" />
    <glyph glyph-name="cent" unicode="&#xa2;" horiz-adv-x="397" 
d="M147 348q0 -22 3 -45.5t11.5 -43.5t24 -35t40.5 -19q22 -3 39 5.5t29.5 23.5t22 34t17.5 38q12 -35 19 -66.5t14 -63.5q-9 -2 -20.5 -10.5t-25.5 -18t-32.5 -17.5t-41.5 -9q0 -26 3.5 -53t10.5 -56q-20 -4 -44.5 -4t-44.5 4q7 24 11.5 52.5t5.5 56.5q-37 6 -66.5 25
t-50 48t-31.5 66t-11 80q0 49 9 93t29.5 78t52.5 55t78 26q0 54 -13 109q22 2 47 2.5t48 -3.5q-9 -24 -13.5 -53t-7.5 -56q38 -5 63.5 -15.5t42.5 -15.5q-4 -34 -11.5 -71t-19.5 -71q-14 30 -26.5 47.5t-24.5 27t-24 12t-27 2.5q-41 0 -63.5 -43.5t-22.5 -115.5z" />
    <glyph glyph-name="sterling" unicode="&#xa3;" horiz-adv-x="481" 
d="M399 397q5 -10 7.5 -24.5t3.5 -30.5t0 -32t-4 -29q-10 7 -29.5 10.5t-43 4t-47.5 0t-42 -0.5q1 -48 -7 -100t-32 -97q34 2 69 2t68 5t63.5 19.5t54.5 46.5q4 -39 2 -83t-16 -79q-34 -16 -68.5 -17.5t-69.5 3t-70.5 10.5t-71.5 6q-29 0 -61 -3t-68 -11q9 32 24 56.5
t32 43.5q20 44 25 94.5t-3 98.5h-22t-24 -1t-22 -3t-15 -5q-5 10 -7 24.5t-2.5 29.5t1 30t3.5 26q16 -8 33.5 -8.5t35.5 1.5q-17 45 -27.5 85.5t-10.5 78.5q0 39 14 71t40 55.5t63 36t84 12.5q33 0 63.5 -6t54.5 -13.5t41 -13t23 -5.5q-1 -47 -10 -97t-16 -89q-25 68 -61 95
t-71 27q-40 0 -57 -24t-17 -72q0 -30 7 -64t15 -72q12 1 28 1h33t33.5 -0.5t29.5 -0.5q27 0 44 8z" />
    <glyph glyph-name="currency" unicode="&#xa4;" horiz-adv-x="605" 
d="M105 348q0 41 5.5 78t17.5 67q-25 21 -47 33.5t-47 18.5q15 27 36 53.5t50 43.5q11 -20 24 -38.5t34 -38.5q23 20 53.5 31.5t68.5 11.5q43 0 74 -11t54 -30q21 19 34 37t24 38q29 -17 50 -43.5t36 -53.5q-25 -6 -47 -18t-46 -32q11 -29 15.5 -64t4.5 -70q0 -39 -5 -79.5
t-19 -74.5q26 -21 48.5 -34t48.5 -19q-15 -27 -36 -53.5t-50 -43.5q-11 20 -25 39.5t-37 39.5q-23 -20 -53.5 -31t-72.5 -11q-73 0 -119 40q-22 -20 -35 -38.5t-24 -38.5q-29 17 -50 43.5t-36 53.5q25 6 47 18.5t47 32.5q-12 30 -17.5 66.5t-5.5 76.5zM230 358
q0 -31 3.5 -62.5t12 -56.5t21.5 -40.5t32 -15.5q14 0 27 9.5t22.5 31.5t15 56.5t5.5 84.5q0 75 -20 116t-47 39q-19 0 -32.5 -13.5t-22.5 -36t-13 -52t-4 -60.5z" />
    <glyph glyph-name="yen" unicode="&#xa5;" horiz-adv-x="541" 
d="M77 203q30 -9 65.5 -9.5t71.5 0.5v23l-7 37q-34 0 -55.5 -0.5t-34.5 -1t-20.5 -2t-13.5 -3.5q-6 23 -7.5 48t2.5 48q20 -5 48.5 -6.5t54.5 0.5q-30 75 -63.5 153t-66.5 150q-8 17 -18.5 35.5t-20.5 28.5q41 6 90 10t92 2q-3 -9 -3 -20q-1 -15 4.5 -39.5t15 -54.5
t21 -62.5t23 -62t21.5 -54t16 -38.5q23 76 42.5 136.5t39.5 118.5q7 20 8 39t-2 39q38 1 78 -3t72 -11q-13 -13 -22 -29.5t-16 -33.5q-28 -71 -54 -146t-53 -159h41t29.5 1t21 2t16.5 3q2 -23 1.5 -47t-2.5 -48q-16 6 -53.5 6.5t-77.5 0.5l-6 -36q0 -5 -0.5 -11.5
t-0.5 -12.5q32 -2 67.5 -1t66.5 7q3 -17 3.5 -43t-4.5 -52q-33 8 -67 8.5t-68 -0.5q-1 -26 -1 -43.5t1 -30t4 -21t8 -15.5q-42 -3 -84.5 -2.5t-85.5 7.5q9 12 13 25t5 26.5t0.5 27.5t-0.5 26q-31 0 -65.5 -1.5t-63.5 -8.5q-4 20 -6 45t0 55z" />
    <glyph glyph-name="brokenbar" unicode="&#xa6;" horiz-adv-x="237" 
d="M173 -229q-26 -5 -56 -5t-57 2q-2 86 -3 188t-2 223q29 2 59.5 2t60.5 -2zM55 331q-1 102 -1 203.5t2 207.5q31 4 62.5 3.5t63.5 -2.5q-3 -91 -4.5 -194.5t-2.5 -215.5q-11 -1 -25.5 -1.5t-31 -0.5h-33h-30.5z" />
    <glyph glyph-name="section" unicode="&#xa7;" horiz-adv-x="513" 
d="M77 -1q9 -23 21 -43.5t28 -36.5t36.5 -25t46.5 -9q30 0 51 15t21 47q0 33 -23.5 59.5t-56 50.5t-67.5 46.5t-58 48.5q-22 23 -34 51t-12 66q0 55 33 98.5t91 57.5q-32 31 -46 62.5t-14 63.5q0 34 13 64.5t37.5 52.5t59 35t77.5 13q23 0 45.5 -4t43.5 -8.5t41.5 -8.5
t38.5 -4q1 -11 1.5 -23t0.5 -23q0 -36 -4.5 -73t-12.5 -68q-17 46 -48.5 79t-83.5 33q-32 0 -51.5 -14.5t-19.5 -46.5q0 -33 23 -60t55.5 -50.5t67.5 -46t59 -47.5q22 -23 34 -52.5t12 -65.5q0 -56 -34 -99.5t-91 -56.5q34 -31 46.5 -62.5t12.5 -64.5q0 -34 -13 -64
t-37.5 -52t-59 -34.5t-77.5 -12.5q-22 0 -44 4t-43 8.5t-41.5 8.5t-38.5 4q-2 11 -2 23.5v24.5q0 35 4 71.5t12 67.5zM300 135q25 8 41.5 28t16.5 49q0 28 -15.5 48.5t-37.5 37.5t-47.5 33.5t-44.5 36.5q-26 -8 -42.5 -29t-16.5 -50q0 -27 15.5 -47.5t38 -38t48 -33.5
t44.5 -35z" />
    <glyph glyph-name="dieresis" unicode="&#xa8;" horiz-adv-x="414" 
d="M40 827q0 28 21 48.5t53 20.5q28 0 48.5 -19t20.5 -47q0 -29 -23 -49.5t-53 -20.5t-48.5 20t-18.5 47zM232 827q0 28 21 48.5t53 20.5q29 0 48.5 -19t19.5 -47q0 -29 -22 -49.5t-52 -20.5q-31 0 -49.5 20t-18.5 47z" />
    <glyph glyph-name="copyright" unicode="&#xa9;" horiz-adv-x="783" 
d="M570 284q-7 -34 -24 -62t-41 -48.5t-53.5 -32t-62.5 -11.5q-45 0 -80.5 16.5t-60 45t-37.5 66.5t-13 81q0 51 14.5 94.5t40.5 75.5t62 50t80 18q32 0 60 -11t50 -30.5t35.5 -46.5t15.5 -58q-11 -4 -28 -7t-32 -5q-3 13 -10 29.5t-18.5 31t-28.5 24.5t-42 10
q-61 -4 -93 -52.5t-32 -122.5q0 -30 8 -57t23 -47.5t37 -32.5t50 -12q24 0 44 9.5t36 24.5t26 34t15 38q17 -1 31.5 -4t27.5 -8zM683 360q0 64 -22 119t-61 95t-92 62.5t-115 22.5t-116 -21.5t-93.5 -62t-62 -98t-22.5 -128.5q0 -65 21 -119.5t58.5 -94.5t90.5 -62t117 -22
t118 23t94 64.5t62.5 98t22.5 123.5zM38 347q0 82 27.5 149t75.5 115t113 74.5t140 26.5q72 0 136 -26.5t111.5 -73.5t75.5 -111.5t28 -140.5q0 -79 -28 -145.5t-77 -115t-114.5 -75.5t-140.5 -27q-72 0 -135 26t-110 72.5t-74.5 110.5t-27.5 141z" />
    <glyph glyph-name="ordfeminine" unicode="&#xaa;" horiz-adv-x="401" 
d="M181 334q21 0 32.5 11.5t16.5 30t6 40.5t1 43v17t-1 20q-17 0 -33.5 -6.5t-29 -18.5t-20 -30.5t-7.5 -42.5q0 -26 8 -45t27 -19zM219 731q42 0 76 -18.5t48 -64.5q7 -26 8.5 -60.5t1.5 -74.5v-183q0 -32 18 -59q-26 -6 -55.5 -11.5t-59.5 -5.5q-3 5 -6 15t-5 19
q-10 -10 -23 -17.5t-26.5 -13t-26 -8t-21.5 -2.5q-56 0 -87 37.5t-31 99.5q0 41 16.5 73.5t44.5 55t65.5 34.5t80.5 13q0 15 -0.5 30.5t-3.5 29t-10.5 22t-20.5 8.5q-12 0 -26.5 -6.5t-29 -18t-28 -28t-22.5 -37.5q-10 27 -20.5 59t-15.5 64q8 2 17.5 6t19.5 8
q26 12 57.5 23t64.5 11z" />
    <glyph glyph-name="guillemotleft" unicode="&#xab;" horiz-adv-x="508" 
d="M262 454q-23 -42 -55.5 -88.5t-62.5 -90.5q40 -61 68 -105t50 -82q-3 -32 -13.5 -58.5t-21.5 -49.5q-50 64 -99 127t-100 125q-2 24 -2.5 39.5t0.5 36.5q41 49 90.5 113t106.5 139q11 -23 23 -48.5t16 -57.5zM478 88q-4 -30 -15 -57t-22 -50q-24 32 -46 61t-45.5 58.5
t-49.5 62t-58 71.5q-1 22 -0.5 38t3.5 40q96 119 194 251q12 -23 23 -49t14 -57q-20 -38 -47.5 -82.5t-66.5 -107.5q28 -43 60.5 -87.5t55.5 -91.5z" />
    <glyph glyph-name="logicalnot" unicode="&#xac;" horiz-adv-x="543" 
d="M386 328q-17 1 -47 1.5t-66 1t-74 0t-70.5 -1.5t-56.5 -3t-32 -5v25t1 31t2.5 31t3.5 26q44 -5 102.5 -5.5t120.5 0t122 0.5t108 -2q-2 -13 -3 -38t-1.5 -55.5t-0.5 -63t1.5 -61t3 -50t4.5 -29.5q-11 -1 -27.5 -1.5t-34 -0.5h-34h-28.5q3 10 5 23t1 31q-1 25 -0.5 61.5
t0.5 84.5z" />
    <glyph glyph-name="uni00AD" unicode="&#xad;" horiz-adv-x="414" 
d="M42 270q-1 3 -3 17.5t-3 34.5t0.5 41.5t7.5 37.5q9 -5 27 -7.5t32 -3.5q51 -2 111.5 -1.5t111.5 1.5q12 0 28 3.5t24 8.5q3 -12 4 -31t0.5 -38.5t-3 -37t-6.5 -27.5q-20 8 -42.5 11t-46.5 4q-41 2 -85.5 1.5t-89.5 -2.5q-20 -1 -35 -4t-32 -8z" />
    <glyph glyph-name="uni00AD" unicode="&#x2212;" horiz-adv-x="414" 
d="M42 270q-1 3 -3 17.5t-3 34.5t0.5 41.5t7.5 37.5q9 -5 27 -7.5t32 -3.5q51 -2 111.5 -1.5t111.5 1.5q12 0 28 3.5t24 8.5q3 -12 4 -31t0.5 -38.5t-3 -37t-6.5 -27.5q-20 8 -42.5 11t-46.5 4q-41 2 -85.5 1.5t-89.5 -2.5q-20 -1 -35 -4t-32 -8z" />
    <glyph glyph-name="registered" unicode="&#xae;" horiz-adv-x="783" 
d="M484 450q0 20 -10 31.5t-26 17.5t-34.5 8t-36.5 2h-27t-26 -1q-1 -23 -2.5 -61t-1.5 -76q41 0 71.5 2.5t51 10.5t31 24t10.5 42zM253 554q24 4 53.5 6.5t71.5 2.5q83 0 127.5 -26.5t44.5 -90.5q0 -51 -30 -81t-77 -38q18 -29 33 -52.5t29 -44t27 -39t27 -37.5
q-14 -4 -30.5 -7t-33.5 -3q-29 32 -60 79t-61 98q-11 -1 -26 -1.5t-28 -0.5q0 -54 0.5 -93.5t1.5 -76.5q-14 -6 -31 -6t-33 4q-2 43 -3 86t-1 86q0 84 3 161q-2 21 -3 39t-1 35zM38 347q0 82 27.5 149t75.5 115t113 74.5t140 26.5q72 0 136 -26.5t111.5 -73.5t75.5 -111.5
t28 -140.5q0 -79 -28 -145.5t-77 -115t-114.5 -75.5t-140.5 -27q-72 0 -135 26t-110 72.5t-74.5 110.5t-27.5 141zM683 360q0 64 -22 119t-61 95t-92 62.5t-115 22.5t-116 -21.5t-93.5 -62t-62 -98t-22.5 -128.5q0 -65 21 -119.5t58.5 -94.5t90.5 -62t117 -22t118 23
t94 64.5t62.5 98t22.5 123.5z" />
    <glyph glyph-name="macron" unicode="&#xaf;" horiz-adv-x="412" 
d="M32 847q91 2 180.5 2t167.5 -1q2 -18 0 -41t-8 -43q-26 1 -71 1.5t-94 0.5t-94.5 -1t-71.5 -2q-3 5 -5 15.5t-3.5 23t-2 24.5t1.5 21z" />
    <glyph glyph-name="degree" unicode="&#xb0;" horiz-adv-x="295" 
d="M200 640q0 19 -12.5 33t-37.5 14q-21 0 -34 -14.5t-13 -34.5q0 -21 13 -34t35 -13t35.5 14.5t13.5 34.5zM151 756q56 0 89 -34t34 -83q0 -24 -8.5 -46t-24.5 -38t-39.5 -25t-51.5 -9q-26 0 -48 8.5t-38 23.5t-25 37t-8 49q1 25 10.5 46.5t26 37t38 24.5t45.5 9z" />
    <glyph glyph-name="plusminus" unicode="&#xb1;" horiz-adv-x="492" 
d="M37 301q-4 28 -3 64.5t6 60.5q29 -12 73 -14t87 0q2 45 0.5 91.5t-18.5 88.5q14 3 32 5t37 2.5t36.5 -1t31.5 -5.5q-3 -6 -6 -16t-6 -30t-4.5 -52.5t-1.5 -81.5h80t79 13q3 -12 5 -27.5t2.5 -33t-0.5 -34.5t-3 -31q-6 3 -15.5 6.5t-27.5 6t-47 4t-74 0.5q0 -44 1 -75
t3.5 -51.5t5 -33t5.5 -19.5q-63 -14 -130 0q12 43 12.5 89.5t0.5 90.5q-16 0 -37 0.5t-43.5 -1t-44 -5t-36.5 -11.5zM458 98q2 -27 2.5 -51.5t-2.5 -57.5q-10 4 -36.5 6.5t-59.5 4t-67.5 1.5h-61.5q-51 0 -97.5 -1.5t-83.5 -10.5q-5 29 -5 55t3 56q20 -5 45.5 -6.5
t44.5 -2.5q53 -2 121 -1.5t132 0.5q17 0 35.5 1.5t29.5 6.5z" />
    <glyph glyph-name="twosuperior" unicode="&#xb2;" horiz-adv-x="378" 
d="M336 299q2 -28 1.5 -64.5t-4.5 -62.5q-18 1 -38 1.5t-42 0.5q-57 0 -115 -0.5t-99 -5.5q-4 10 -6.5 22.5t-2.5 26.5q29 69 64.5 123.5t67 100.5t53 86t21.5 78q0 16 -10 31t-31 15q-32 0 -62 -21.5t-56 -78.5q-11 29 -19.5 61t-13.5 65q34 22 76 40.5t99 18.5
q35 0 59.5 -10.5t40 -27.5t22.5 -39.5t7 -47.5q0 -50 -21.5 -94.5t-50.5 -86.5t-58.5 -84t-45.5 -85q19 1 42.5 2.5t46 5t42.5 11t33 19.5z" />
    <glyph glyph-name="threesuperior" unicode="&#xb3;" horiz-adv-x="373" 
d="M343 329q0 -76 -45 -116t-124 -40q-26 0 -46 4t-36.5 10t-31 12t-29.5 10q-2 37 3.5 73.5t13.5 70.5q18 -45 43.5 -71t66.5 -26q75 0 75 78q0 40 -18.5 63.5t-53.5 25.5q-36 2 -66 -3q-7 20 -7.5 40t3.5 43q27 -2 50.5 0t43.5 7q15 3 24.5 14t14.5 24.5t7 27.5t2 23
t-2.5 19.5t-7.5 20t-13 16t-19 6.5q-32 0 -66.5 -20.5t-61.5 -67.5q-17 58 -18 126q11 1 29.5 7t40 13t45 12.5t44.5 5.5q66 0 101.5 -31.5t35.5 -94.5q0 -43 -20 -81.5t-62 -56.5q22 -7 37.5 -21t26 -33.5t15.5 -42.5t5 -47z" />
    <glyph glyph-name="acute" unicode="&#xb4;" horiz-adv-x="344" 
d="M304 899q-18 -14 -40.5 -32t-46.5 -36.5t-47 -35t-42 -28.5q-23 -1 -45 -1t-43 2q9 10 21 23.5t25 28t26.5 29.5t26.5 28q7 15 12 23q38 2 77.5 2.5t75.5 -3.5z" />
    <glyph glyph-name="mu" unicode="&#xb5;" horiz-adv-x="450" 
d="M170 -193q-14 -3 -31.5 -3.5t-35.5 1.5t-33.5 6.5t-24.5 11.5q-4 145 -4 291v302q0 47 -11 83q35 8 71 9t74 -4q-2 -29 -3 -64.5t-2.5 -74t-2 -77t-0.5 -74.5q0 -23 0.5 -45t3.5 -40t11 -29t23 -11q17 0 37.5 11t30.5 28q0 71 1 143t1 154q0 24 -1.5 45.5t-5.5 35.5
q37 5 75.5 4t76.5 -9q-10 -15 -12.5 -33.5t-3.5 -37.5q-3 -107 -3 -219q0 -26 -0.5 -54t0.5 -54.5t5 -49t13 -37.5q-28 -6 -55.5 -10.5t-59.5 -5.5q-7 19 -13 48q-6 -15 -16.5 -26t-24 -18.5t-28 -11t-27.5 -3.5q-9 0 -21.5 2t-19.5 7q0 -48 4 -98t12 -93z" />
    <glyph glyph-name="mu" unicode="&#x3bc;" horiz-adv-x="450" 
d="M170 -193q-14 -3 -31.5 -3.5t-35.5 1.5t-33.5 6.5t-24.5 11.5q-4 145 -4 291v302q0 47 -11 83q35 8 71 9t74 -4q-2 -29 -3 -64.5t-2.5 -74t-2 -77t-0.5 -74.5q0 -23 0.5 -45t3.5 -40t11 -29t23 -11q17 0 37.5 11t30.5 28q0 71 1 143t1 154q0 24 -1.5 45.5t-5.5 35.5
q37 5 75.5 4t76.5 -9q-10 -15 -12.5 -33.5t-3.5 -37.5q-3 -107 -3 -219q0 -26 -0.5 -54t0.5 -54.5t5 -49t13 -37.5q-28 -6 -55.5 -10.5t-59.5 -5.5q-7 19 -13 48q-6 -15 -16.5 -26t-24 -18.5t-28 -11t-27.5 -3.5q-9 0 -21.5 2t-19.5 7q0 -48 4 -98t12 -93z" />
    <glyph glyph-name="paragraph" unicode="&#xb6;" horiz-adv-x="582" 
d="M552 700q-10 -17 -14 -40t-5 -40q-5 -106 -8 -208.5t-3 -207.5q0 -21 -0.5 -54.5t0 -72.5t1.5 -80.5t3.5 -79t7 -67t12.5 -45.5q-26 -4 -58.5 -5.5t-63.5 -1.5q-4 79 -7 147t-4.5 132.5t-1.5 127t1.5 130t4.5 143t8 164.5q-14 2 -31 2.5t-40 -0.5q-2 -49 -4.5 -112
t-4.5 -132.5t-3.5 -142t-1.5 -142.5t1 -133.5t4 -113.5q1 -19 4 -37t10 -29q-27 -3 -62 -5t-65 -1q2 8 3 19.5t1 25.5q0 22 -0.5 57t-1.5 76.5t-1.5 86t-1 87t0 79.5t1.5 62q-9 -2 -19.5 -2.5t-19.5 -0.5q-44 0 -75.5 14t-51 39t-28.5 60t-9 78q0 72 20 118t58.5 73t94 38
t127.5 12q70 -1 125.5 -5t96.5 -13z" />
    <glyph glyph-name="periodcentered" unicode="&#xb7;" horiz-adv-x="234" 
d="M204 366q-1 -42 -27 -65.5t-64 -23.5q-36 0 -59.5 22t-23.5 64t26 65.5t64 23.5q37 0 60.5 -22t23.5 -64z" />
    <glyph glyph-name="cedilla" unicode="&#xb8;" horiz-adv-x="329" 
d="M203 5l-38 -62q6 1 12.5 1.5t13.5 0.5q36 0 62 -20t26 -61q0 -25 -10 -44t-27 -32.5t-40 -20.5t-49 -7q-30 0 -59 9t-44 28q1 8 2.5 18t3.5 18q13 -8 32.5 -14t37.5 -6q21 0 39.5 11.5t18.5 35.5q0 19 -11 29t-27.5 14.5t-35 5t-34.5 0.5q6 9 15 21.5t19.5 26t21 26.5
t19.5 22h52z" />
    <glyph glyph-name="onesuperior" unicode="&#xb9;" horiz-adv-x="230" 
d="M30 665q4 6 11 16t14.5 20.5t15 20t13.5 16.5q27 2 52.5 3t48.5 2q1 -98 -0.5 -197t-1.5 -203q0 -21 -1 -44.5t-0.5 -45.5t4.5 -41.5t14 -33.5q-34 -4 -71 -5t-71 5q12 24 12 52q0 103 1 203.5t4 212.5q-30 9 -45 19z" />
    <glyph glyph-name="ordmasculine" unicode="&#xba;" horiz-adv-x="416" 
d="M31 468q-2 48 5.5 94t28.5 82.5t57.5 60t93.5 26.5q4 -3 7 -8q49 0 80.5 -20.5t50 -54.5t25.5 -76.5t7 -85.5q0 -45 -9.5 -88.5t-30.5 -77t-56 -54t-86 -20.5q-46 0 -78 19.5t-52.5 51t-30.5 71t-12 80.5zM148 489q0 -27 3 -55.5t10.5 -51.5t18.5 -37.5t28 -14.5
q18 0 30 16t19.5 41.5t10.5 56t2 60.5q-1 66 -15.5 101.5t-39.5 35.5q-18 0 -30.5 -14.5t-21 -37t-12 -49.5t-3.5 -51z" />
    <glyph glyph-name="guillemotright" unicode="&#xbb;" horiz-adv-x="508" 
d="M246 454q4 32 16 57.5t23 48.5q57 -75 106.5 -139t90.5 -113q1 -21 0.5 -36.5t-2.5 -39.5q-51 -62 -100 -125t-99 -127q-11 23 -21.5 49.5t-13.5 58.5q22 38 50 82t68 105q-30 44 -62.5 90.5t-55.5 88.5zM30 88q23 47 55.5 91.5t60.5 87.5q-39 63 -66.5 107.5t-47.5 82.5
q3 31 14 57t23 49q98 -132 194 -251q3 -24 3.5 -40t-0.5 -38q-32 -39 -58 -71.5t-49.5 -62t-45.5 -58.5t-46 -61q-11 23 -22 50t-15 57z" />
    <glyph glyph-name="onequarter" unicode="&#xbc;" horiz-adv-x="814" 
d="M30 665q4 6 11 16t14.5 20.5t15 20t13.5 16.5q27 2 52.5 3t48.5 2q1 -98 -0.5 -197t-1.5 -203q0 -21 -1 -44.5t-0.5 -45.5t4.5 -41.5t14 -33.5q-34 -4 -71 -5t-71 5q12 24 12 52q0 103 1 203.5t4 212.5q-30 9 -45 19zM185 -14q7 15 12.5 31t11.5 35q24 80 53.5 170
t61 182t64.5 181.5t64 169.5q23 0 48 -4t43 -9q-5 -10 -11 -23t-11 -27q-22 -61 -48 -132t-54 -150t-57 -163.5t-58 -171.5q-9 -26 -17.5 -50t-15.5 -50q-21 0 -45 4.5t-41 6.5zM612 217q2 51 3.5 105.5t3.5 105.5q-23 -51 -46.5 -105t-45.5 -108q20 2 42.5 2h42.5zM419 193
q15 38 36 83t44 92.5t47 95t46 91.5q35 6 73 6.5t76 -4.5q-6 -12 -8.5 -26.5t-3.5 -30.5q-2 -60 -4.5 -130t-4.5 -154q15 0 33.5 1t30.5 12q0 -28 -3 -57t-8 -52q-6 6 -14 10.5t-21 4.5h-22l1 -78q-1 -28 11 -53q-30 -2 -62.5 -3t-63.5 -1q10 23 10 55q0 20 -0.5 40.5
t-0.5 37.5q-45 0 -90.5 -1.5t-90.5 -4.5q-6 31 -11 66z" />
    <glyph glyph-name="onehalf" unicode="&#xbd;" horiz-adv-x="840" 
d="M799 131q2 -28 1.5 -64.5t-4.5 -62.5q-18 1 -38 1.5t-42 0.5q-57 0 -115 -0.5t-99 -5.5q-4 10 -6.5 22.5t-2.5 26.5q29 69 64.5 123.5t67 100.5t53 86t21.5 78q0 16 -10 31t-31 15q-32 0 -62 -21.5t-56 -78.5q-11 29 -19.5 61t-13.5 65q34 22 76 40.5t99 18.5
q35 0 59.5 -10.5t40 -27.5t22.5 -39.5t7 -47.5q0 -50 -21.5 -94.5t-50.5 -86.5t-58.5 -84t-45.5 -85q19 1 42.5 2.5t46 5t42.5 11t33 19.5zM185 -14q7 15 12.5 31t11.5 35q24 80 53.5 170t61 182t64.5 181.5t64 169.5q23 0 48 -4t43 -9q-5 -10 -11 -23t-11 -27
q-22 -61 -48 -132t-54 -150t-57 -163.5t-58 -171.5q-9 -26 -17.5 -50t-15.5 -50q-21 0 -45 4.5t-41 6.5zM30 665q4 6 11 16t14.5 20.5t15 20t13.5 16.5q27 2 52.5 3t48.5 2q1 -98 -0.5 -197t-1.5 -203q0 -21 -1 -44.5t-0.5 -45.5t4.5 -41.5t14 -33.5q-34 -4 -71 -5t-71 5
q12 24 12 52q0 103 1 203.5t4 212.5q-30 9 -45 19z" />
    <glyph glyph-name="threequarters" unicode="&#xbe;" horiz-adv-x="927" 
d="M343 329q0 -76 -45 -116t-124 -40q-26 0 -46 4t-36.5 10t-31 12t-29.5 10q-2 37 3.5 73.5t13.5 70.5q18 -45 43.5 -71t66.5 -26q75 0 75 78q0 40 -18.5 63.5t-53.5 25.5q-36 2 -66 -3q-7 20 -7.5 40t3.5 43q27 -2 50.5 0t43.5 7q15 3 24.5 14t14.5 24.5t7 27.5t2 23
t-2.5 19.5t-7.5 20t-13 16t-19 6.5q-32 0 -66.5 -20.5t-61.5 -67.5q-17 58 -18 126q11 1 29.5 7t40 13t45 12.5t44.5 5.5q66 0 101.5 -31.5t35.5 -94.5q0 -43 -20 -81.5t-62 -56.5q22 -7 37.5 -21t26 -33.5t15.5 -42.5t5 -47zM297 -14q7 15 12.5 31t11.5 35q24 80 53.5 170
t61 182t64.5 181.5t64 169.5q23 0 48 -4t43 -9q-5 -10 -11 -23t-11 -27q-22 -61 -48 -132t-54 -150t-57 -163.5t-58 -171.5q-9 -26 -17.5 -50t-15.5 -50q-21 0 -45 4.5t-41 6.5zM724 217q2 51 3.5 105.5t3.5 105.5q-23 -51 -46.5 -105t-45.5 -108q20 2 42.5 2h42.5zM531 193
q15 38 36 83t44 92.5t47 95t46 91.5q35 6 73 6.5t76 -4.5q-6 -12 -8.5 -26.5t-3.5 -30.5q-2 -60 -4.5 -130t-4.5 -154q15 0 33.5 1t30.5 12q0 -28 -3 -57t-8 -52q-6 6 -14 10.5t-21 4.5h-22l1 -78q-1 -28 11 -53q-30 -2 -62.5 -3t-63.5 -1q10 23 10 55q0 20 -0.5 40.5
t-0.5 37.5q-45 0 -90.5 -1.5t-90.5 -4.5q-6 31 -11 66z" />
    <glyph glyph-name="Agrave" unicode="&#xc0;" horiz-adv-x="512" 
d="M10 13q8 12 14.5 29.5t9.5 33.5q10 61 24 130.5t29 140t31 140.5t31 133q5 22 6 48t-9 41q23 2 50.5 4t57.5 2.5t60 -1.5t57 -7q-10 -12 -13 -32.5t0 -37.5q22 -130 48 -273.5t59 -282.5q5 -20 13 -39t20 -33q-37 -5 -81 -7t-86 -2q4 11 1.5 32t-6.5 41l-20 104
q-34 0 -68 -0.5t-69 -1.5q-6 -27 -13 -59.5t-7 -64.5q0 -24 10 -47q-35 -4 -73.5 -1.5t-75.5 10.5zM245 582q-17 -79 -31.5 -156.5t-26.5 -152.5q25 2 49.5 2t53.5 -1q-11 66 -23 148.5t-22 159.5zM39 895q36 4 75.5 3.5t77.5 -2.5q5 -8 12 -23q13 -13 26.5 -28t26.5 -29.5
t25 -28t21 -23.5q-21 -2 -43 -2t-45 1q-19 12 -42 28.5t-47 35t-46.5 36.5t-40.5 32z" />
    <glyph glyph-name="Aacute" unicode="&#xc1;" horiz-adv-x="512" 
d="M10 13q8 12 14.5 29.5t9.5 33.5q10 61 24 130.5t29 140t31 140.5t31 133q5 22 6 48t-9 41q23 2 50.5 4t57.5 2.5t60 -1.5t57 -7q-10 -12 -13 -32.5t0 -37.5q22 -130 48 -273.5t59 -282.5q5 -20 13 -39t20 -33q-37 -5 -81 -7t-86 -2q4 11 1.5 32t-6.5 41l-20 104
q-34 0 -68 -0.5t-69 -1.5q-6 -27 -13 -59.5t-7 -64.5q0 -24 10 -47q-35 -4 -73.5 -1.5t-75.5 10.5zM245 582q-17 -79 -31.5 -156.5t-26.5 -152.5q25 2 49.5 2t53.5 -1q-11 66 -23 148.5t-22 159.5zM476 895q-18 -14 -40.5 -32t-46.5 -36.5t-47 -35t-42 -28.5q-23 -1 -45 -1
t-43 2q9 10 21 23.5t25 28t26.5 29.5t26.5 28q7 15 12 23q38 2 77.5 2.5t75.5 -3.5z" />
    <glyph glyph-name="Acircumflex" unicode="&#xc2;" horiz-adv-x="512" 
d="M10 13q8 12 14.5 29.5t9.5 33.5q10 61 24 130.5t29 140t31 140.5t31 133q5 22 6 48t-9 41q23 2 50.5 4t57.5 2.5t60 -1.5t57 -7q-10 -12 -13 -32.5t0 -37.5q22 -130 48 -273.5t59 -282.5q5 -20 13 -39t20 -33q-37 -5 -81 -7t-86 -2q4 11 1.5 32t-6.5 41l-20 104
q-34 0 -68 -0.5t-69 -1.5q-6 -27 -13 -59.5t-7 -64.5q0 -24 10 -47q-35 -4 -73.5 -1.5t-75.5 10.5zM245 582q-17 -79 -31.5 -156.5t-26.5 -152.5q25 2 49.5 2t53.5 -1q-11 66 -23 148.5t-22 159.5zM426 765q-16 -3 -42 -4t-47 1q-19 14 -38 34t-41 43q-21 -23 -42.5 -42.5
t-41.5 -36.5q-18 -2 -42 -1t-41 4q10 13 25 32t30.5 38.5t30 37.5t24.5 29q26 3 58 3t58 -2q12 -14 27 -33t30.5 -38t29 -36.5t22.5 -28.5z" />
    <glyph glyph-name="Atilde" unicode="&#xc3;" horiz-adv-x="512" 
d="M10 13q8 12 14.5 29.5t9.5 33.5q10 61 24 130.5t29 140t31 140.5t31 133q5 22 6 48t-9 41q23 2 50.5 4t57.5 2.5t60 -1.5t57 -7q-10 -12 -13 -32.5t0 -37.5q22 -130 48 -273.5t59 -282.5q5 -20 13 -39t20 -33q-37 -5 -81 -7t-86 -2q4 11 1.5 32t-6.5 41l-20 104
q-34 0 -68 -0.5t-69 -1.5q-6 -27 -13 -59.5t-7 -64.5q0 -24 10 -47q-35 -4 -73.5 -1.5t-75.5 10.5zM245 582q-17 -79 -31.5 -156.5t-26.5 -152.5q25 2 49.5 2t53.5 -1q-11 66 -23 148.5t-22 159.5zM355 907q13 1 31.5 0t32.5 -4q8 -27 7 -52.5t-12.5 -46t-32.5 -32.5
t-53 -12q-37 0 -62 16t-53 36q-7 5 -13.5 9t-11.5 4q-17 0 -26 -17t-10 -47q-17 1 -33.5 3t-28.5 6q-3 25 3 52t21 47q13 17 32 27t42 10q22 0 39.5 -10.5t34 -23.5t32 -23.5t32.5 -10.5q11 0 18 6.5t10 16t3 22t-2 24.5z" />
    <glyph glyph-name="Adieresis" unicode="&#xc4;" horiz-adv-x="512" 
d="M10 13q8 12 14.5 29.5t9.5 33.5q10 61 24 130.5t29 140t31 140.5t31 133q5 22 6 48t-9 41q23 2 50.5 4t57.5 2.5t60 -1.5t57 -7q-10 -12 -13 -32.5t0 -37.5q22 -130 48 -273.5t59 -282.5q5 -20 13 -39t20 -33q-37 -5 -81 -7t-86 -2q4 11 1.5 32t-6.5 41l-20 104
q-34 0 -68 -0.5t-69 -1.5q-6 -27 -13 -59.5t-7 -64.5q0 -24 10 -47q-35 -4 -73.5 -1.5t-75.5 10.5zM245 582q-17 -79 -31.5 -156.5t-26.5 -152.5q25 2 49.5 2t53.5 -1q-11 66 -23 148.5t-22 159.5zM90 827q0 28 21 48.5t53 20.5q28 0 48.5 -19t20.5 -47q0 -29 -23 -49.5
t-53 -20.5t-48.5 20t-18.5 47zM282 827q0 28 21 48.5t53 20.5q29 0 48.5 -19t19.5 -47q0 -29 -22 -49.5t-52 -20.5q-31 0 -49.5 20t-18.5 47z" />
    <glyph glyph-name="Aring" unicode="&#xc5;" horiz-adv-x="512" 
d="M10 13q8 12 14.5 29.5t9.5 33.5q10 61 24 130.5t29 140t31 140.5t31 133q5 22 6 48t-9 41q23 2 50.5 4t57.5 2.5t60 -1.5t57 -7q-10 -12 -13 -32.5t0 -37.5q22 -130 48 -273.5t59 -282.5q5 -20 13 -39t20 -33q-37 -5 -81 -7t-86 -2q4 11 1.5 32t-6.5 41l-20 104
q-34 0 -68 -0.5t-69 -1.5q-6 -27 -13 -59.5t-7 -64.5q0 -24 10 -47q-35 -4 -73.5 -1.5t-75.5 10.5zM245 582q-17 -79 -31.5 -156.5t-26.5 -152.5q25 2 49.5 2t53.5 -1q-11 66 -23 148.5t-22 159.5zM288 851q0 14 -9 24t-27 10q-16 0 -25 -11t-9 -25t9.5 -23.5t23.5 -9.5
q17 0 27 10.5t10 24.5zM253 943q45 0 70.5 -26.5t25.5 -65.5q0 -20 -7.5 -36.5t-21 -29.5t-31 -20t-37.5 -7q-41 0 -67.5 26.5t-26.5 64.5v2q1 19 8.5 36t20.5 29.5t30 19.5t36 7z" />
    <glyph glyph-name="AE" unicode="&#xc6;" horiz-adv-x="705" 
d="M674 3q-86 -1 -170.5 -3.5t-170.5 -0.5q5 16 6 28t1 23q0 25 -0.5 58.5t-1.5 68.5q-34 0 -62 -0.5t-63 -1.5q-11 -27 -18 -59.5t-12 -64.5q-4 -25 2 -47q-18 -2 -40.5 -2.5t-46 0.5t-45.5 3.5t-38 7.5q10 12 19.5 29.5t15.5 33.5q21 61 44 129.5t48 138.5t50.5 139
t51.5 132q8 22 13.5 48t-1.5 41q11 2 41 4.5t69 3.5t84.5 1.5t88 -0.5t78.5 -3t58 -5q0 -32 -3 -70.5t-6 -66.5q-32 27 -71.5 37.5t-74.5 10.5q-23 0 -42 -3q-1 -20 -2 -46t-1.5 -53t-0.5 -53.5v-46.5q21 0 44.5 2.5t46 5.5t42.5 7t34 8q0 -35 -1.5 -73.5t-6.5 -70.5
q-26 14 -60.5 19.5t-76.5 5.5h-23q0 -26 -0.5 -53.5t-0.5 -55.5q0 -57 3 -109q25 -1 52 1.5t52.5 10.5t48.5 22.5t40 37.5q5 -40 5.5 -83.5t0.5 -85.5zM246 273q25 2 44.5 2t47.5 -1q0 73 1 146t4 147q-29 -75 -52.5 -149t-44.5 -145z" />
    <glyph glyph-name="Ccedilla" unicode="&#xc7;" horiz-adv-x="451" 
d="M241 -10q-62 3 -102.5 34t-64.5 82t-33.5 117.5t-9.5 141.5q0 55 9.5 117.5t35 115.5t71.5 88t118 35q39 0 65.5 -8.5t45 -20t30 -23t20.5 -17.5q-6 -42 -17.5 -85.5t-21.5 -82.5q-12 38 -25.5 62t-28 38t-29 19t-27.5 5q-30 -2 -50 -28t-31.5 -67.5t-16.5 -95t-5 -111.5
q0 -46 6.5 -84.5t19 -66t32 -43t46.5 -15.5q50 0 76.5 32.5t45.5 91.5q7 -45 12 -94t7 -94q-21 -8 -52.5 -21t-66.5 -19l-31 -51q5 1 12 1.5t14 0.5q36 0 62 -20t26 -61q0 -25 -10 -44t-27 -32.5t-40 -20.5t-49 -7q-30 0 -59 9t-44 28q1 8 2.5 18t3.5 18q13 -8 32.5 -14
t37.5 -6q21 0 39.5 11.5t18.5 35.5q0 19 -11 29t-27.5 14.5t-35 5t-34.5 0.5q11 17 27.5 40t33.5 41v1z" />
    <glyph glyph-name="Eth" unicode="&#xd0;" horiz-adv-x="516" 
d="M22 397q22 3 46 3q1 57 2 113t3 113q-3 20 -8.5 36t-15.5 36q15 3 35.5 6t43 5t45 3.5t42.5 1.5q75 0 127.5 -23t85.5 -68t48 -112.5t15 -157.5q0 -82 -14.5 -147.5t-48 -111.5t-88.5 -71.5t-136 -26.5q-40 0 -80.5 4t-71.5 12q8 14 11 29t3 29q0 60 -1 118.5t1 120.5
q-10 0 -22 -0.5t-20 -6.5q-8 48 -2 95zM199 98q45 -5 74.5 14.5t47 55t24.5 83t7 99.5q0 35 -3.5 83t-18 90t-44 68.5t-81.5 20.5q-2 -53 -2.5 -104t-1.5 -105q17 0 36.5 0.5t37.5 5.5q8 -23 9 -54t-6 -54q-8 5 -27.5 7.5t-51.5 1.5v-212z" />
    <glyph glyph-name="Odieresis" unicode="&#xd6;" horiz-adv-x="530" 
d="M272 615q-26 -2 -44 -27.5t-29 -64.5t-16 -87.5t-5 -94.5q0 -48 4 -93t13.5 -80.5t26 -56.5t41.5 -21t42.5 23.5t28 62.5t15.5 88.5t5 101.5q0 49 -3.5 94t-13 79.5t-25.5 55t-40 20.5zM275 718q59 0 101.5 -25.5t70 -71t40.5 -109.5t13 -141q0 -189 -63 -287.5
t-178 -98.5q-62 0 -105.5 27.5t-71 76.5t-40 114.5t-12.5 142.5q0 94 17 165.5t48.5 119.5t75 73t97.5 27q2 -2 3.5 -6.5t3.5 -6.5zM103 827q0 28 21 48.5t53 20.5q28 0 48.5 -19t20.5 -47q0 -29 -23 -49.5t-53 -20.5t-48.5 20t-18.5 47zM295 827q0 28 21 48.5t53 20.5
q29 0 48.5 -19t19.5 -47q0 -29 -22 -49.5t-52 -20.5q-31 0 -49.5 20t-18.5 47z" />
    <glyph glyph-name="multiply" unicode="&#xd7;" horiz-adv-x="482" 
d="M124 145q-12 6 -26 15.5t-28.5 21t-27.5 24t-22 23.5q14 6 35.5 21.5t45 35t45 40t35.5 35.5q-14 16 -35 35t-43 37t-43 32t-35 20q7 10 19 23t26.5 25t28.5 22.5t26 16.5q4 -12 17.5 -30t31.5 -39t37 -41.5t36 -36.5q23 24 43 48.5t35.5 44.5t25 35t11.5 20
q13 -8 27.5 -18.5t28 -22t25 -23.5t18.5 -22q-14 -8 -33.5 -22.5t-40.5 -32t-41.5 -36.5t-35.5 -35q15 -16 35.5 -34t41.5 -35t41 -31.5t34 -21.5q-6 -11 -18 -23.5t-26 -25t-29 -23t-28 -17.5q-5 18 -38 58t-78 87q-16 -17 -35.5 -38t-37 -42t-31 -39.5t-17.5 -30.5z" />
    <glyph glyph-name="Oslash" unicode="&#xd8;" horiz-adv-x="529" 
d="M30 343q0 36 4 79t13.5 86t26.5 83t43 71t62 49.5t85 19.5q4 -3 7 -9q23 0 48 -8t45 -23q10 20 16 34.5t10 23.5q17 -2 32.5 -4t32.5 -7q-11 -21 -19.5 -39.5t-18.5 -41.5q20 -20 35.5 -51t26 -68.5t15.5 -79t5 -81.5q0 -84 -14 -155.5t-43 -123t-75 -81t-109 -29.5
q-26 0 -54 7.5t-49 23.5q-6 -17 -10 -30.5t-8 -23.5q-18 0 -35 1.5t-31 5.5q4 12 11 31.5t24 59.5q-20 21 -34.5 51t-23.5 66.5t-13.5 78t-4.5 84.5zM313 577q-3 14 -16.5 26t-31.5 12q-13 0 -25.5 -9t-21.5 -23q-11 -18 -19.5 -43.5t-14.5 -54t-9.5 -56.5t-3.5 -50
q-1 -35 2 -76t9 -73q29 84 65 173t66 174zM217 133q4 -16 17 -30.5t30 -14.5q23 0 40 20.5t27.5 54.5t15.5 76.5t5 86.5q0 43 -0.5 85t-6.5 68q-18 -50 -34 -92.5t-31.5 -83t-31 -81.5t-31.5 -89z" />
    <glyph glyph-name="Thorn" unicode="&#xde;" horiz-adv-x="480" 
d="M316 361q0 28 -4.5 55t-15 48t-28.5 34t-45 13q-9 0 -19.5 -1.5t-19.5 -5.5q-2 -50 -2.5 -91t-1.5 -75.5t-1 -64.5v-58q15 -4 35 -4q25 0 44 12.5t32 33t19.5 47.5t6.5 57zM187 598q13 3 29 5t30 2q95 0 152 -62t57 -184q0 -113 -55.5 -177t-171.5 -64q-28 0 -51 4v-57
t19 -60q-38 -6 -81.5 -5t-81.5 6q8 21 10 45.5t2 47.5q0 131 3 262t3 270q0 19 -4.5 40.5t-12.5 36.5q79 11 162 6q-7 -15 -8 -39.5t-1 -76.5z" />
    <glyph glyph-name="germandbls" unicode="&#xdf;" horiz-adv-x="554" 
d="M36 6q7 14 10 32t3 38q-2 134 -2.5 264t1.5 263q0 24 -15 38q17 25 43 43t57.5 29.5t66.5 16.5t71 5q94 0 150.5 -35.5t70.5 -95.5q-6 -27 -17 -57.5t-25 -60t-28.5 -56t-27.5 -45.5q27 -21 52 -44t44 -51t30 -62.5t11 -77.5q0 -70 -38.5 -113t-116.5 -43
q-16 0 -31.5 2.5t-31 4.5t-31 2t-31.5 -4q-4 38 -3 78t7 78q20 -31 45 -45.5t45 -14.5q24 0 40 16.5t16 55.5q0 36 -20 65t-47 52t-55 39.5t-44 26.5q6 15 23.5 43t36.5 61t33.5 67.5t13.5 63.5q-1 22 -16.5 38t-55.5 15q-35 -1 -54.5 -16t-30.5 -36q-2 -77 -3.5 -140
t-1.5 -122.5t0.5 -120t2.5 -131.5q1 -40 12 -70q-17 -2 -38 -3t-42.5 -0.5t-42 2.5t-36.5 5z" />
    <glyph glyph-name="ae" unicode="&#xe6;" horiz-adv-x="705" 
d="M674 3q-86 -1 -170.5 -3.5t-170.5 -0.5q5 16 6 28t1 23q0 25 -0.5 58.5t-1.5 68.5q-34 0 -62 -0.5t-63 -1.5q-11 -27 -18 -59.5t-12 -64.5q-4 -25 2 -47q-18 -2 -40.5 -2.5t-46 0.5t-45.5 3.5t-38 7.5q10 12 19.5 29.5t15.5 33.5q21 61 44 129.5t48 138.5t50.5 139
t51.5 132q8 22 13.5 48t-1.5 41q11 2 41 4.5t69 3.5t84.5 1.5t88 -0.5t78.5 -3t58 -5q0 -32 -3 -70.5t-6 -66.5q-32 27 -71.5 37.5t-74.5 10.5q-23 0 -42 -3q-1 -20 -2 -46t-1.5 -53t-0.5 -53.5v-46.5q21 0 44.5 2.5t46 5.5t42.5 7t34 8q0 -35 -1.5 -73.5t-6.5 -70.5
q-26 14 -60.5 19.5t-76.5 5.5h-23q0 -26 -0.5 -53.5t-0.5 -55.5q0 -57 3 -109q25 -1 52 1.5t52.5 10.5t48.5 22.5t40 37.5q5 -40 5.5 -83.5t0.5 -85.5zM246 273q25 2 44.5 2t47.5 -1q0 73 1 146t4 147q-29 -75 -52.5 -149t-44.5 -145z" />
    <glyph glyph-name="ccedilla" unicode="&#xe7;" horiz-adv-x="451" 
d="M241 -10q-62 3 -102.5 34t-64.5 82t-33.5 117.5t-9.5 141.5q0 55 9.5 117.5t35 115.5t71.5 88t118 35q39 0 65.5 -8.5t45 -20t30 -23t20.5 -17.5q-6 -42 -17.5 -85.5t-21.5 -82.5q-12 38 -25.5 62t-28 38t-29 19t-27.5 5q-30 -2 -50 -28t-31.5 -67.5t-16.5 -95t-5 -111.5
q0 -46 6.5 -84.5t19 -66t32 -43t46.5 -15.5q50 0 76.5 32.5t45.5 91.5q7 -45 12 -94t7 -94q-21 -8 -52.5 -21t-66.5 -19l-31 -51q5 1 12 1.5t14 0.5q36 0 62 -20t26 -61q0 -25 -10 -44t-27 -32.5t-40 -20.5t-49 -7q-30 0 -59 9t-44 28q1 8 2.5 18t3.5 18q13 -8 32.5 -14
t37.5 -6q21 0 39.5 11.5t18.5 35.5q0 19 -11 29t-27.5 14.5t-35 5t-34.5 0.5q11 17 27.5 40t33.5 41v1z" />
    <glyph glyph-name="eth" unicode="&#xf0;" horiz-adv-x="516" 
d="M22 397q22 3 46 3q1 57 2 113t3 113q-3 20 -8.5 36t-15.5 36q15 3 35.5 6t43 5t45 3.5t42.5 1.5q75 0 127.5 -23t85.5 -68t48 -112.5t15 -157.5q0 -82 -14.5 -147.5t-48 -111.5t-88.5 -71.5t-136 -26.5q-40 0 -80.5 4t-71.5 12q8 14 11 29t3 29q0 60 -1 118.5t1 120.5
q-10 0 -22 -0.5t-20 -6.5q-8 48 -2 95zM199 98q45 -5 74.5 14.5t47 55t24.5 83t7 99.5q0 35 -3.5 83t-18 90t-44 68.5t-81.5 20.5q-2 -53 -2.5 -104t-1.5 -105q17 0 36.5 0.5t37.5 5.5q8 -23 9 -54t-6 -54q-8 5 -27.5 7.5t-51.5 1.5v-212z" />
    <glyph glyph-name="divide" unicode="&#xf7;" horiz-adv-x="490" 
d="M245 260q34 0 54.5 -20.5t20.5 -50.5q0 -31 -22.5 -52.5t-56.5 -21.5q-32 0 -52.5 20.5t-20.5 50.5q0 31 22 52.5t55 21.5zM245 600q34 0 54.5 -20.5t20.5 -49.5q0 -31 -22.5 -53t-56.5 -22q-32 0 -52.5 21t-20.5 50q0 31 22 52.5t55 21.5zM449 290q-13 5 -26 9t-27 5
q-64 5 -134.5 5.5t-138.5 -2.5q-43 -2 -80 -15q-7 29 -7.5 62.5t6.5 62.5q11 -4 29.5 -7t34.5 -3q70 -2 137.5 -2t148.5 2q14 0 31.5 3t25.5 8q6 -27 5.5 -62.5t-5.5 -65.5z" />
    <glyph glyph-name="oslash" unicode="&#xf8;" horiz-adv-x="529" 
d="M30 343q0 36 4 79t13.5 86t26.5 83t43 71t62 49.5t85 19.5q4 -3 7 -9q23 0 48 -8t45 -23q10 20 16 34.5t10 23.5q17 -2 32.5 -4t32.5 -7q-11 -21 -19.5 -39.5t-18.5 -41.5q20 -20 35.5 -51t26 -68.5t15.5 -79t5 -81.5q0 -84 -14 -155.5t-43 -123t-75 -81t-109 -29.5
q-26 0 -54 7.5t-49 23.5q-6 -17 -10 -30.5t-8 -23.5q-18 0 -35 1.5t-31 5.5q4 12 11 31.5t24 59.5q-20 21 -34.5 51t-23.5 66.5t-13.5 78t-4.5 84.5zM313 577q-3 14 -16.5 26t-31.5 12q-13 0 -25.5 -9t-21.5 -23q-11 -18 -19.5 -43.5t-14.5 -54t-9.5 -56.5t-3.5 -50
q-1 -35 2 -76t9 -73q29 84 65 173t66 174zM217 133q4 -16 17 -30.5t30 -14.5q23 0 40 20.5t27.5 54.5t15.5 76.5t5 86.5q0 43 -0.5 85t-6.5 68q-18 -50 -34 -92.5t-31.5 -83t-31 -81.5t-31.5 -89z" />
    <glyph glyph-name="thorn" unicode="&#xfe;" horiz-adv-x="480" 
d="M316 361q0 28 -4.5 55t-15 48t-28.5 34t-45 13q-9 0 -19.5 -1.5t-19.5 -5.5q-2 -50 -2.5 -91t-1.5 -75.5t-1 -64.5v-58q15 -4 35 -4q25 0 44 12.5t32 33t19.5 47.5t6.5 57zM187 598q13 3 29 5t30 2q95 0 152 -62t57 -184q0 -113 -55.5 -177t-171.5 -64q-28 0 -51 4v-57
t19 -60q-38 -6 -81.5 -5t-81.5 6q8 21 10 45.5t2 47.5q0 131 3 262t3 270q0 19 -4.5 40.5t-12.5 36.5q79 11 162 6q-7 -15 -8 -39.5t-1 -76.5z" />
    <glyph glyph-name="uni00A0" unicode="&#xa0;" horiz-adv-x="50" 
 />
    <glyph glyph-name="lslash" unicode="&#x142;" horiz-adv-x="460" 
d="M434 3q-63 -1 -110 -2t-82 -1q-61 0 -99.5 2t-49.5 5q8 23 9.5 47t1.5 45v83.5t1 85.5q-42 -29 -55 -46q-18 14 -31 39t-14 43q5 1 12 3.5t18 9t28 16.5t43 26q2 72 2.5 142t1.5 137q0 18 -3 35t-12 32q27 3 55.5 5t59.5 2q14 0 29.5 -1.5t23.5 -7.5q-8 -14 -11.5 -31
t-3.5 -36q0 -46 -0.5 -93.5t-1.5 -96.5q23 16 44 31.5t32 27.5q7 -6 15 -16t14.5 -21t12 -23t7.5 -22q-10 -1 -24 -7t-30.5 -14.5t-35.5 -19.5t-38 -23q-3 -134 -3 -258q31 1 56.5 5t48 12.5t43.5 22t42 33.5q3 -42 4 -83.5t0 -87.5z" />
    <glyph glyph-name="Lslash" unicode="&#x141;" horiz-adv-x="460" 
d="M434 3q-63 -1 -110 -2t-82 -1q-61 0 -99.5 2t-49.5 5q8 23 9.5 47t1.5 45v83.5t1 85.5q-42 -29 -55 -46q-18 14 -31 39t-14 43q5 1 12 3.5t18 9t28 16.5t43 26q2 72 2.5 142t1.5 137q0 18 -3 35t-12 32q27 3 55.5 5t59.5 2q14 0 29.5 -1.5t23.5 -7.5q-8 -14 -11.5 -31
t-3.5 -36q0 -46 -0.5 -93.5t-1.5 -96.5q23 16 44 31.5t32 27.5q7 -6 15 -16t14.5 -21t12 -23t7.5 -22q-10 -1 -24 -7t-30.5 -14.5t-35.5 -19.5t-38 -23q-3 -134 -3 -258q31 1 56.5 5t48 12.5t43.5 22t42 33.5q3 -42 4 -83.5t0 -87.5z" />
    <glyph glyph-name="dotlessi" unicode="&#x131;" horiz-adv-x="242" 
d="M36 4q8 19 10.5 40t2.5 38q0 125 1.5 255.5t3.5 288.5q0 21 -3.5 40.5t-11.5 38.5q35 4 80 5.5t85 0.5q-11 -19 -11 -42q0 -55 -2 -127t-3.5 -151t-3 -160t0.5 -154q0 -36 16 -71q-21 -2 -45 -3.5t-50 -1.5q-37 0 -70 3z" />
    <glyph glyph-name="caron" unicode="&#x2c7;" horiz-adv-x="375" 
d="M355 901q-9 -11 -22.5 -28.5t-29 -36.5t-30.5 -38t-27 -33q-26 -2 -58 -2t-58 3q-10 11 -24.5 29t-30 37.5t-30.5 38t-25 32.5q17 3 41 4t42 -1q20 -17 41.5 -36.5t42.5 -42.5q22 23 41 43t38 34q21 2 47 1t42 -4z" />
    <glyph glyph-name="ogonek" unicode="&#x2db;" horiz-adv-x="310" 
d="M234 6q-11 -8 -26.5 -21t-30.5 -28t-25.5 -31.5t-10.5 -31.5q0 -16 8 -25.5t29 -9.5q19 0 44.5 11t41.5 25l-16 -90q-35 -17 -60 -20t-39 -3q-20 0 -38.5 5t-33 15t-23 25.5t-8.5 37.5q0 29 17.5 56t43 51t54 44.5t49.5 36.5z" />
    <glyph glyph-name="hungarumlaut" unicode="&#x2dd;" horiz-adv-x="497" 
d="M275 894q-16 -14 -37 -32t-43.5 -36t-44 -34.5t-37.5 -27.5q-40 -4 -83 0q17 20 42 51.5t48 57.5l12 23q33 3 70.5 4t72.5 -6zM467 894q-16 -14 -37 -32t-43.5 -36t-44 -34.5t-37.5 -27.5q-40 -4 -83 0q17 20 42 51.5t48 57.5l12 23q33 3 70.5 4t72.5 -6z" />
    <glyph glyph-name="ring" unicode="&#x2da;" horiz-adv-x="251" 
d="M160 851q0 14 -9 24t-27 10q-16 0 -25 -11t-9 -25t9.5 -23.5t23.5 -9.5q17 0 27 10.5t10 24.5zM125 943q45 0 70.5 -26.5t25.5 -65.5q0 -20 -7.5 -36.5t-21 -29.5t-31 -20t-37.5 -7q-41 0 -67.5 26.5t-26.5 64.5v2q1 19 8.5 36t20.5 29.5t30 19.5t36 7z" />
    <glyph glyph-name="dotaccent" unicode="&#x2d9;" horiz-adv-x="233" 
d="M111 910q33 0 58 -18.5t27 -54.5q0 -34 -20.5 -55.5t-54.5 -21.5t-59.5 18t-27.5 55q0 33 21 54t56 23z" />
    <glyph glyph-name="breve" unicode="&#x2d8;" horiz-adv-x="367" 
d="M181 758q-33 0 -60.5 8t-48 24t-31.5 40t-10 56q4 1 16.5 1.5t26.5 0.5h27t19 -1q1 -35 19 -51.5t44 -16.5q29 0 47 17t18 51q7 1 20 1h27t26 -0.5t15 -1.5q1 -33 -11.5 -57t-33.5 -39.5t-49.5 -23.5t-60.5 -8z" />
    <glyph glyph-name="commaaccent" unicode="&#xe001;" horiz-adv-x="202" 
d="M88 -180q-22 -2 -40 14t-18 46q0 29 19.5 48.5t49.5 21.5q38 0 57.5 -22t19.5 -55q0 -43 -24.5 -84.5t-79.5 -72.5q-9 4 -16 9.5t-13 12.5q20 15 35 35.5t10 46.5z" />
    <glyph glyph-name="invertedbreve" unicode="&#xe002;" horiz-adv-x="376" 
d="M186 893q32 0 60.5 -8t49.5 -24t33.5 -40t11.5 -56q-3 -1 -15 -2t-26 -1h-27t-20 1q0 34 -18 51.5t-47 17.5q-26 0 -44.5 -17t-18.5 -52q-6 0 -19.5 -0.5t-27.5 0t-26.5 1t-16.5 1.5q0 31 11 55t31.5 40.5t48 24.5t60.5 8z" />
    <glyph glyph-name="doublegrave" unicode="&#xe003;" horiz-adv-x="497" 
d="M222 894q35 7 72.5 6t70.5 -4l12 -23q23 -26 48 -57.5t42 -51.5q-43 -4 -83 0q-17 11 -38 27.5t-43.5 34.5t-43.5 36t-37 32zM30 894q35 7 72.5 6t70.5 -4l12 -23q23 -26 48 -57.5t42 -51.5q-43 -4 -83 0q-17 11 -38 27.5t-43.5 34.5t-43.5 36t-37 32z" />
    <glyph glyph-name="horn" unicode="&#xe004;" horiz-adv-x="267" 
d="M111 634h-78l15 72q45 0 61 14t16 38q0 17 -14.5 32.5t-36.5 27.5q7 4 19.5 8.5t26 8t25.5 6.5t19 3q30 -8 44.5 -27.5t14.5 -48.5q0 -41 -25.5 -69.5t-80.5 -38.5z" />
    <glyph glyph-name="servicemark" unicode="&#x2120;" horiz-adv-x="679" 
d="M264 443q0 -53 -31.5 -78t-86.5 -25q-14 0 -30.5 4t-31.5 11t-27.5 17.5t-18.5 22.5q2 17 12 31.5t15 19.5q12 -25 34 -38.5t44 -15t38 10t16 37.5q0 29 -26.5 44.5t-64.5 29.5t-56 36t-19 60q0 46 30.5 78.5t91.5 32.5q29 0 55.5 -8t43.5 -25q-4 -13 -11 -30t-17 -27
q-9 21 -30.5 30.5t-43 7.5t-37.5 -16.5t-15 -42.5q1 -20 17 -33t48 -24q45 -14 72.5 -39.5t28.5 -70.5zM573 345q0 23 0.5 54.5t0.5 65t-0.5 67t-0.5 61.5l-83 -225q-8 -2 -17.5 -2t-17.5 2q-21 48 -43 107t-41 117v-121.5t1 -120.5q-14 -5 -31 -5t-34 4l3 362h42t43 -2
q17 -55 37 -114t40 -115q17 47 39 108t50 123q20 0 39.5 0.5t39.5 -1.5q-2 -80 -2.5 -175t-0.5 -189q-16 -2 -31.5 -2.5t-32.5 1.5z" />
    <glyph glyph-name="uni2117" unicode="&#x2117;" horiz-adv-x="827" 
d="M519 448q0 20 -10.5 32t-27 18t-36 8t-37.5 2h-27.5t-26.5 -1q-1 -23 -2.5 -61.5t-1.5 -77.5q42 -1 73.5 1.5t52.5 11t32 24.5t11 43zM584 444q0 -48 -23 -75t-58 -39t-76 -14t-77 -1q0 -55 0.5 -95t1.5 -78q-14 -6 -31.5 -6t-33.5 4q-2 44 -3 87.5t-1 87.5q0 86 3 164
q-2 23 -3 40.5t-1 34.5q25 4 55 6.5t72 2.5q84 0 129.5 -27t45.5 -92zM57 347q0 82 27.5 149t75.5 115t113 74.5t140 26.5q72 0 136 -26.5t111.5 -73.5t75.5 -111.5t28 -140.5q0 -79 -28 -145.5t-77 -115t-114.5 -75.5t-140.5 -27q-72 0 -135 26t-110 72.5t-74.5 110.5
t-27.5 141zM702 360q0 64 -22 119t-61 95t-92 62.5t-115 22.5t-116 -21.5t-93.5 -62t-62 -98t-22.5 -128.5q0 -65 21 -119.5t58.5 -94.5t90.5 -62t117 -22t118 23t94 64.5t62.5 98t22.5 123.5z" />
    <glyph glyph-name="numero" unicode="&#x2116;" horiz-adv-x="934" 
d="M646 447q0 -29 3.5 -59t10.5 -54.5t18.5 -40.5t28.5 -16q16 0 28.5 16t20.5 42t12 59t4 67q0 32 -3.5 63t-11 55t-18.5 39t-26 15q-21 0 -34 -19t-20.5 -47t-10 -60.5t-2.5 -59.5zM707 723q52 -1 88.5 -23t59.5 -58.5t33.5 -85t10.5 -102.5q0 -51 -10.5 -98.5
t-33.5 -84.5t-60 -59t-90 -22q-50 0 -85.5 21.5t-58 57t-33 81t-10.5 93.5q0 58 11.5 109t35 88.5t59 59.5t83.5 23zM706 148q30 -17 51.5 -44.5t32.5 -65.5q-8 -22 -31.5 -36t-52.5 -14t-53.5 12.5t-32.5 34.5q13 46 35 72.5t51 40.5zM185 7q-38 -5 -78 -6.5t-79 1.5
q8 17 10 34.5t3 37.5q2 58 3.5 133.5t2.5 154t0.5 153.5t-1.5 132q0 41 -14 61q37 3 73.5 4t74.5 -1q34 -98 70 -193t81 -201q1 75 2 153t0 165q0 22 -3.5 39.5t-9.5 31.5q38 4 75.5 4.5t75.5 -1.5q-11 -21 -15 -41.5t-4 -42.5q-2 -81 -3 -164t-1 -168q0 -36 -0.5 -73.5
t0 -74.5t3 -73.5t9.5 -69.5q-26 -3 -55 -4.5t-58 -1.5q-19 37 -42.5 85.5t-48.5 103.5t-49 113t-44 115q-3 -78 -3 -156.5t4 -167.5q1 -23 7 -44t14 -38z" />
    <glyph glyph-name="uni1E9E" unicode="&#x1e9e;" horiz-adv-x="554" 
d="M36 6q7 14 10 32t3 38q-2 134 -2.5 264t1.5 263q0 24 -15 38q17 25 43 43t57.5 29.5t66.5 16.5t71 5q94 0 150.5 -35.5t70.5 -95.5q-6 -27 -17 -57.5t-25 -60t-28.5 -56t-27.5 -45.5q27 -21 52 -44t44 -51t30 -62.5t11 -77.5q0 -70 -38.5 -113t-116.5 -43
q-16 0 -31.5 2.5t-31 4.5t-31 2t-31.5 -4q-4 38 -3 78t7 78q20 -31 45 -45.5t45 -14.5q24 0 40 16.5t16 55.5q0 36 -20 65t-47 52t-55 39.5t-44 26.5q6 15 23.5 43t36.5 61t33.5 67.5t13.5 63.5q-1 22 -16.5 38t-55.5 15q-35 -1 -54.5 -16t-30.5 -36q-2 -77 -3.5 -140
t-1.5 -122.5t0.5 -120t2.5 -131.5q1 -40 12 -70q-17 -2 -38 -3t-42.5 -0.5t-42 2.5t-36.5 5z" />
    <glyph glyph-name="Eng.001" unicode="&#xe008;" horiz-adv-x="497" 
d="M33 700q33 5 70 5t71 -5q2 -11 3 -24.5t3 -23.5q16 26 47 43.5t69 19.5q68 0 100.5 -26.5t43.5 -73.5q6 -26 8.5 -58.5t3.5 -69.5t1 -75v-74q0 -66 -1 -123.5t-1.5 -110t-2 -101t-2.5 -95.5q-2 -60 -37.5 -95t-100.5 -35q-14 0 -27 2.5l-26 5t-26 3.5t-25 -2
q-4 29 -5.5 61.5t0.5 63.5q14 -20 31 -29.5t31 -9.5q28 0 40.5 16t14.5 48q2 39 3 76t1 76v82v94v75t-0.5 72.5t-1 64.5t-1.5 52q-1 20 -3.5 36t-9 27.5t-18 18t-29.5 6.5q-26 0 -47.5 -25t-24.5 -67q-2 -45 -3.5 -100t-2 -112.5t0 -115.5t2.5 -110q1 -43 17 -85
q-42 -3 -84 -4t-84 3q14 35 16 82q2 125 3 244t1 231q0 40 -1 78t-17 64z" />
    <glyph glyph-name="Eng.002" unicode="&#xe009;" horiz-adv-x="514" 
d="M33 700q14 2 32.5 3t38 1t38 -1t32.5 -3q2 -11 3 -24.5t3 -23.5q10 14 25.5 25.5t34 20t39 13t40.5 4.5q66 0 97 -28t42 -74q6 -27 9 -63.5t4.5 -77.5t2 -83.5t0.5 -81.5q0 -83 -3 -143t-16.5 -99t-42 -58t-79.5 -19q-26 0 -46 5.5t-44 -1.5q-4 28 -5 63.5t-1 66.5
q10 -22 25 -31.5t30 -9.5q22 0 32.5 18.5t14.5 48.5t3.5 69t-0.5 80q0 59 -1.5 116.5t-3.5 103.5q-2 51 -17 75.5t-50 24.5q-8 0 -20 -4.5t-24 -14t-23.5 -24t-17.5 -34.5q-2 -72 -3.5 -155.5t-1.5 -186.5v-93.5t2 -102.5q-37 -3 -75 -4t-76 3q8 17 12 35.5t4 38.5
q0 128 2 251.5t2 238.5q0 43 -3 75.5t-15 59.5z" />
    <glyph glyph-name="questiondown" unicode="&#xbf;" horiz-adv-x="423" 
d="M187.015 39.0293q-7 -11 -13.5 -24.999q-6.49902 -13.999 -9.49902 -29.498t-1.5 -30.498t8.5 -27.998q15.999 -26.998 53.9961 -26.998q40.998 0 80.4951 34.9971q39.498 34.998 66.4961 94.9941q13.999 -48.9961 19.499 -103.493t1.5 -105.493
q-15.999 2.99902 -36.498 -1.5q-20.499 -4.5 -44.4971 -11q-23.999 -6.49902 -50.9971 -12.499t-54.9971 -6q-84.9941 0 -133.991 40.998q-48.9971 40.9971 -48.9971 123.992q0 40.998 13.999 73.4961q13.999 32.4971 34.498 60.4961q20.499 27.998 44.4971 51.9971
q23.999 23.998 44.4971 47.4971q20.499 23.498 34.498 47.9971q13.999 24.498 13.999 52.4961q0 9 -2 18.499q-1.99902 9.49902 -6.99902 18.499q25.998 3 53.9961 4.5q27.999 1.5 65.9961 1.5q-2 -8 -2 -18.999v-40.998q0 -41.9971 -14.499 -74.4951t-34.9971 -58.9961
q-20.499 -26.499 -42.998 -49.9971q-22.498 -23.499 -38.4971 -48.4971zM258.01 378.009q-33.998 0 -55.4961 18.498q-21.499 18.499 -21.499 53.4971t24.498 54.9971q24.499 19.998 58.4971 19.998q32.998 0 54.4961 -18.498q21.499 -18.499 21.499 -53.4971
t-23.498 -54.9971q-23.499 -19.998 -58.4971 -19.998z" />
    <glyph glyph-name="exclamdown" unicode="&#xa1;" horiz-adv-x="259" 
d="M130 378.009q33 0 54.5 18.498q21.5 18.499 21.5 53.4971t-24 54.9971q-24 19.998 -59 19.998q-32 0 -53.5 -18.498q-21.5 -18.499 -21.5 -53.4971t23.5 -54.9971q23.5 -19.998 58.5 -19.998zM79 285.014q0 -36.9971 -1.5 -84.4941t-3.5 -97.9941t-5 -100.494
t-7 -91.4941q-4 -41.498 -8.5 -70.4961t-8.5 -38.9971q13 -4 36.5 -6.5t49.5 -2.5t51 2.5t40 8.5q-6 12.999 -11.5 43.9971t-10.5 71.4951q-5 40.498 -9.5 88.9951t-7.5 96.9941t-4.5 94.4941t-1.5 82.9951q0 10.999 1 22.498t6 19.499q-27 6 -56 7t-56 -7q4 -8 5.5 -17.999
t1.5 -20.999z" />
    <glyph glyph-name="ellipsis" unicode="&#x2026;" horiz-adv-x="753" 
d="M465 82q-1 -42 -27 -65.5t-64 -23.5q-36 0 -59.5 22t-23.5 64t26 65.5t64 23.5q37 0 60.5 -22t23.5 -64zM703 82q-1 -42 -27 -65.5t-64 -23.5q-36 0 -59.5 22t-23.5 64t26 65.5t64 23.5q37 0 60.5 -22t23.5 -64zM224 82q-1 -42 -27 -65.5t-64 -23.5q-36 0 -59.5 22
t-23.5 64t26 65.5t64 23.5q37 0 60.5 -22t23.5 -64z" />
    <glyph glyph-name="aring" unicode="&#xe5;" horiz-adv-x="512" 
d="M10 13q8 12 14.5 29.5t9.5 33.5q10 61 24 130.5t29 140t31 140.5t31 133q5 22 6 48t-9 41q23 2 50.5 4t57.5 2.5t60 -1.5t57 -7q-10 -12 -13 -32.5t0 -37.5q22 -130 48 -273.5t59 -282.5q5 -20 13 -39t20 -33q-37 -5 -81 -7t-86 -2q4 11 1.5 32t-6.5 41l-20 104
q-34 0 -68 -0.5t-69 -1.5q-6 -27 -13 -59.5t-7 -64.5q0 -24 10 -47q-35 -4 -73.5 -1.5t-75.5 10.5zM245 582q-17 -79 -31.5 -156.5t-26.5 -152.5q25 2 49.5 2t53.5 -1q-11 66 -23 148.5t-22 159.5zM288 851q0 14 -9 24t-27 10q-16 0 -25 -11t-9 -25t9.5 -23.5t23.5 -9.5
q17 0 27 10.5t10 24.5zM253 943q45 0 70.5 -26.5t25.5 -65.5q0 -20 -7.5 -36.5t-21 -29.5t-31 -20t-37.5 -7q-41 0 -67.5 26.5t-26.5 64.5v2q1 19 8.5 36t20.5 29.5t30 19.5t36 7z" />
    <glyph glyph-name="adieresis" unicode="&#xe4;" horiz-adv-x="512" 
d="M10 13q8 12 14.5 29.5t9.5 33.5q10 61 24 130.5t29 140t31 140.5t31 133q5 22 6 48t-9 41q23 2 50.5 4t57.5 2.5t60 -1.5t57 -7q-10 -12 -13 -32.5t0 -37.5q22 -130 48 -273.5t59 -282.5q5 -20 13 -39t20 -33q-37 -5 -81 -7t-86 -2q4 11 1.5 32t-6.5 41l-20 104
q-34 0 -68 -0.5t-69 -1.5q-6 -27 -13 -59.5t-7 -64.5q0 -24 10 -47q-35 -4 -73.5 -1.5t-75.5 10.5zM245 582q-17 -79 -31.5 -156.5t-26.5 -152.5q25 2 49.5 2t53.5 -1q-11 66 -23 148.5t-22 159.5zM90 827q0 28 21 48.5t53 20.5q28 0 48.5 -19t20.5 -47q0 -29 -23 -49.5
t-53 -20.5t-48.5 20t-18.5 47zM282 827q0 28 21 48.5t53 20.5q29 0 48.5 -19t19.5 -47q0 -29 -22 -49.5t-52 -20.5q-31 0 -49.5 20t-18.5 47z" />
    <glyph glyph-name="atilde" unicode="&#xe3;" horiz-adv-x="512" 
d="M10 13q8 12 14.5 29.5t9.5 33.5q10 61 24 130.5t29 140t31 140.5t31 133q5 22 6 48t-9 41q23 2 50.5 4t57.5 2.5t60 -1.5t57 -7q-10 -12 -13 -32.5t0 -37.5q22 -130 48 -273.5t59 -282.5q5 -20 13 -39t20 -33q-37 -5 -81 -7t-86 -2q4 11 1.5 32t-6.5 41l-20 104
q-34 0 -68 -0.5t-69 -1.5q-6 -27 -13 -59.5t-7 -64.5q0 -24 10 -47q-35 -4 -73.5 -1.5t-75.5 10.5zM245 582q-17 -79 -31.5 -156.5t-26.5 -152.5q25 2 49.5 2t53.5 -1q-11 66 -23 148.5t-22 159.5zM355 907q13 1 31.5 0t32.5 -4q8 -27 7 -52.5t-12.5 -46t-32.5 -32.5
t-53 -12q-37 0 -62 16t-53 36q-7 5 -13.5 9t-11.5 4q-17 0 -26 -17t-10 -47q-17 1 -33.5 3t-28.5 6q-3 25 3 52t21 47q13 17 32 27t42 10q22 0 39.5 -10.5t34 -23.5t32 -23.5t32.5 -10.5q11 0 18 6.5t10 16t3 22t-2 24.5z" />
    <glyph glyph-name="acircumflex" unicode="&#xe2;" horiz-adv-x="512" 
d="M10 13q8 12 14.5 29.5t9.5 33.5q10 61 24 130.5t29 140t31 140.5t31 133q5 22 6 48t-9 41q23 2 50.5 4t57.5 2.5t60 -1.5t57 -7q-10 -12 -13 -32.5t0 -37.5q22 -130 48 -273.5t59 -282.5q5 -20 13 -39t20 -33q-37 -5 -81 -7t-86 -2q4 11 1.5 32t-6.5 41l-20 104
q-34 0 -68 -0.5t-69 -1.5q-6 -27 -13 -59.5t-7 -64.5q0 -24 10 -47q-35 -4 -73.5 -1.5t-75.5 10.5zM245 582q-17 -79 -31.5 -156.5t-26.5 -152.5q25 2 49.5 2t53.5 -1q-11 66 -23 148.5t-22 159.5zM426 765q-16 -3 -42 -4t-47 1q-19 14 -38 34t-41 43q-21 -23 -42.5 -42.5
t-41.5 -36.5q-18 -2 -42 -1t-41 4q10 13 25 32t30.5 38.5t30 37.5t24.5 29q26 3 58 3t58 -2q12 -14 27 -33t30.5 -38t29 -36.5t22.5 -28.5z" />
    <glyph glyph-name="aacute" unicode="&#xe1;" horiz-adv-x="512" 
d="M10 13q8 12 14.5 29.5t9.5 33.5q10 61 24 130.5t29 140t31 140.5t31 133q5 22 6 48t-9 41q23 2 50.5 4t57.5 2.5t60 -1.5t57 -7q-10 -12 -13 -32.5t0 -37.5q22 -130 48 -273.5t59 -282.5q5 -20 13 -39t20 -33q-37 -5 -81 -7t-86 -2q4 11 1.5 32t-6.5 41l-20 104
q-34 0 -68 -0.5t-69 -1.5q-6 -27 -13 -59.5t-7 -64.5q0 -24 10 -47q-35 -4 -73.5 -1.5t-75.5 10.5zM245 582q-17 -79 -31.5 -156.5t-26.5 -152.5q25 2 49.5 2t53.5 -1q-11 66 -23 148.5t-22 159.5zM476 895q-18 -14 -40.5 -32t-46.5 -36.5t-47 -35t-42 -28.5q-23 -1 -45 -1
t-43 2q9 10 21 23.5t25 28t26.5 29.5t26.5 28q7 15 12 23q38 2 77.5 2.5t75.5 -3.5z" />
    <glyph glyph-name="agrave" unicode="&#xe0;" horiz-adv-x="512" 
d="M10 13q8 12 14.5 29.5t9.5 33.5q10 61 24 130.5t29 140t31 140.5t31 133q5 22 6 48t-9 41q23 2 50.5 4t57.5 2.5t60 -1.5t57 -7q-10 -12 -13 -32.5t0 -37.5q22 -130 48 -273.5t59 -282.5q5 -20 13 -39t20 -33q-37 -5 -81 -7t-86 -2q4 11 1.5 32t-6.5 41l-20 104
q-34 0 -68 -0.5t-69 -1.5q-6 -27 -13 -59.5t-7 -64.5q0 -24 10 -47q-35 -4 -73.5 -1.5t-75.5 10.5zM245 582q-17 -79 -31.5 -156.5t-26.5 -152.5q25 2 49.5 2t53.5 -1q-11 66 -23 148.5t-22 159.5zM39 895q36 4 75.5 3.5t77.5 -2.5q5 -8 12 -23q13 -13 26.5 -28t26.5 -29.5
t25 -28t21 -23.5q-21 -2 -43 -2t-45 1q-19 12 -42 28.5t-47 35t-46.5 36.5t-40.5 32z" />
    <glyph glyph-name="Egrave" unicode="&#xc8;" horiz-adv-x="418" 
d="M387 3q-85 -1 -170 -2.5t-170 -1.5q4 13 5 25.5t1 26.5q0 38 -1 90.5t-1 103.5q0 92 1 183t5 184q-2 22 -8 45t-14 43q38 5 97 8.5t120 3.5q38 0 73 -1.5t63 -5.5q0 -32 -3 -70.5t-6 -66.5q-32 27 -71.5 37.5t-74.5 10.5q-23 0 -42 -3q-1 -20 -2 -46t-1.5 -53t-0.5 -53.5
v-46.5q21 0 44.5 2.5t46 5.5t42.5 7t34 8q0 -35 -1.5 -73.5t-6.5 -70.5q-32 16 -70 21t-90 4q0 -26 -0.5 -53.5t-0.5 -55.5q0 -57 3 -109q25 -1 52 1.5t52.5 10.5t48.5 22.5t40 37.5q5 -40 5.5 -83.5t0.5 -85.5zM39 895q36 4 75.5 3.5t77.5 -2.5q5 -8 12 -23
q13 -13 26.5 -28t26.5 -29.5t25 -28t21 -23.5q-21 -2 -43 -2t-45 1q-19 12 -42 28.5t-47 35t-46.5 36.5t-40.5 32z" />
    <glyph glyph-name="Eacute" unicode="&#xc9;" horiz-adv-x="418" 
d="M387 3q-85 -1 -170 -2.5t-170 -1.5q4 13 5 25.5t1 26.5q0 38 -1 90.5t-1 103.5q0 92 1 183t5 184q-2 22 -8 45t-14 43q38 5 97 8.5t120 3.5q38 0 73 -1.5t63 -5.5q0 -32 -3 -70.5t-6 -66.5q-32 27 -71.5 37.5t-74.5 10.5q-23 0 -42 -3q-1 -20 -2 -46t-1.5 -53t-0.5 -53.5
v-46.5q21 0 44.5 2.5t46 5.5t42.5 7t34 8q0 -35 -1.5 -73.5t-6.5 -70.5q-32 16 -70 21t-90 4q0 -26 -0.5 -53.5t-0.5 -55.5q0 -57 3 -109q25 -1 52 1.5t52.5 10.5t48.5 22.5t40 37.5q5 -40 5.5 -83.5t0.5 -85.5zM401 895q-18 -14 -40.5 -32t-46.5 -36.5t-47 -35t-42 -28.5
q-23 -1 -45 -1t-43 2q9 10 21 23.5t25 28t26.5 29.5t26.5 28q7 15 12 23q38 2 77.5 2.5t75.5 -3.5z" />
    <glyph glyph-name="Ecircumflex" unicode="&#xca;" horiz-adv-x="418" 
d="M387 3q-85 -1 -170 -2.5t-170 -1.5q4 13 5 25.5t1 26.5q0 38 -1 90.5t-1 103.5q0 92 1 183t5 184q-2 22 -8 45t-14 43q38 5 97 8.5t120 3.5q38 0 73 -1.5t63 -5.5q0 -32 -3 -70.5t-6 -66.5q-32 27 -71.5 37.5t-74.5 10.5q-23 0 -42 -3q-1 -20 -2 -46t-1.5 -53t-0.5 -53.5
v-46.5q21 0 44.5 2.5t46 5.5t42.5 7t34 8q0 -35 -1.5 -73.5t-6.5 -70.5q-32 16 -70 21t-90 4q0 -26 -0.5 -53.5t-0.5 -55.5q0 -57 3 -109q25 -1 52 1.5t52.5 10.5t48.5 22.5t40 37.5q5 -40 5.5 -83.5t0.5 -85.5zM384 765q-16 -3 -42 -4t-47 1q-19 14 -38 34t-41 43
q-21 -23 -42.5 -42.5t-41.5 -36.5q-18 -2 -42 -1t-41 4q10 13 25 32t30.5 38.5t30 37.5t24.5 29q26 3 58 3t58 -2q12 -14 27 -33t30.5 -38t29 -36.5t22.5 -28.5z" />
    <glyph glyph-name="Edieresis" unicode="&#xcb;" horiz-adv-x="418" 
d="M387 3q-85 -1 -170 -2.5t-170 -1.5q4 13 5 25.5t1 26.5q0 38 -1 90.5t-1 103.5q0 92 1 183t5 184q-2 22 -8 45t-14 43q38 5 97 8.5t120 3.5q38 0 73 -1.5t63 -5.5q0 -32 -3 -70.5t-6 -66.5q-32 27 -71.5 37.5t-74.5 10.5q-23 0 -42 -3q-1 -20 -2 -46t-1.5 -53t-0.5 -53.5
v-46.5q21 0 44.5 2.5t46 5.5t42.5 7t34 8q0 -35 -1.5 -73.5t-6.5 -70.5q-32 16 -70 21t-90 4q0 -26 -0.5 -53.5t-0.5 -55.5q0 -57 3 -109q25 -1 52 1.5t52.5 10.5t48.5 22.5t40 37.5q5 -40 5.5 -83.5t0.5 -85.5zM46 827q0 28 21 48.5t53 20.5q28 0 48.5 -19t20.5 -47
q0 -29 -23 -49.5t-53 -20.5t-48.5 20t-18.5 47zM238 827q0 28 21 48.5t53 20.5q29 0 48.5 -19t19.5 -47q0 -29 -22 -49.5t-52 -20.5q-31 0 -49.5 20t-18.5 47z" />
    <glyph glyph-name="egrave" unicode="&#xe8;" horiz-adv-x="418" 
d="M387 3q-85 -1 -170 -2.5t-170 -1.5q4 13 5 25.5t1 26.5q0 38 -1 90.5t-1 103.5q0 92 1 183t5 184q-2 22 -8 45t-14 43q38 5 97 8.5t120 3.5q38 0 73 -1.5t63 -5.5q0 -32 -3 -70.5t-6 -66.5q-32 27 -71.5 37.5t-74.5 10.5q-23 0 -42 -3q-1 -20 -2 -46t-1.5 -53t-0.5 -53.5
v-46.5q21 0 44.5 2.5t46 5.5t42.5 7t34 8q0 -35 -1.5 -73.5t-6.5 -70.5q-32 16 -70 21t-90 4q0 -26 -0.5 -53.5t-0.5 -55.5q0 -57 3 -109q25 -1 52 1.5t52.5 10.5t48.5 22.5t40 37.5q5 -40 5.5 -83.5t0.5 -85.5zM39 895q36 4 75.5 3.5t77.5 -2.5q5 -8 12 -23
q13 -13 26.5 -28t26.5 -29.5t25 -28t21 -23.5q-21 -2 -43 -2t-45 1q-19 12 -42 28.5t-47 35t-46.5 36.5t-40.5 32z" />
    <glyph glyph-name="eacute" unicode="&#xe9;" horiz-adv-x="418" 
d="M387 3q-85 -1 -170 -2.5t-170 -1.5q4 13 5 25.5t1 26.5q0 38 -1 90.5t-1 103.5q0 92 1 183t5 184q-2 22 -8 45t-14 43q38 5 97 8.5t120 3.5q38 0 73 -1.5t63 -5.5q0 -32 -3 -70.5t-6 -66.5q-32 27 -71.5 37.5t-74.5 10.5q-23 0 -42 -3q-1 -20 -2 -46t-1.5 -53t-0.5 -53.5
v-46.5q21 0 44.5 2.5t46 5.5t42.5 7t34 8q0 -35 -1.5 -73.5t-6.5 -70.5q-32 16 -70 21t-90 4q0 -26 -0.5 -53.5t-0.5 -55.5q0 -57 3 -109q25 -1 52 1.5t52.5 10.5t48.5 22.5t40 37.5q5 -40 5.5 -83.5t0.5 -85.5zM401 895q-18 -14 -40.5 -32t-46.5 -36.5t-47 -35t-42 -28.5
q-23 -1 -45 -1t-43 2q9 10 21 23.5t25 28t26.5 29.5t26.5 28q7 15 12 23q38 2 77.5 2.5t75.5 -3.5z" />
    <glyph glyph-name="ecircumflex" unicode="&#xea;" horiz-adv-x="418" 
d="M387 3q-85 -1 -170 -2.5t-170 -1.5q4 13 5 25.5t1 26.5q0 38 -1 90.5t-1 103.5q0 92 1 183t5 184q-2 22 -8 45t-14 43q38 5 97 8.5t120 3.5q38 0 73 -1.5t63 -5.5q0 -32 -3 -70.5t-6 -66.5q-32 27 -71.5 37.5t-74.5 10.5q-23 0 -42 -3q-1 -20 -2 -46t-1.5 -53t-0.5 -53.5
v-46.5q21 0 44.5 2.5t46 5.5t42.5 7t34 8q0 -35 -1.5 -73.5t-6.5 -70.5q-32 16 -70 21t-90 4q0 -26 -0.5 -53.5t-0.5 -55.5q0 -57 3 -109q25 -1 52 1.5t52.5 10.5t48.5 22.5t40 37.5q5 -40 5.5 -83.5t0.5 -85.5zM384 765q-16 -3 -42 -4t-47 1q-19 14 -38 34t-41 43
q-21 -23 -42.5 -42.5t-41.5 -36.5q-18 -2 -42 -1t-41 4q10 13 25 32t30.5 38.5t30 37.5t24.5 29q26 3 58 3t58 -2q12 -14 27 -33t30.5 -38t29 -36.5t22.5 -28.5z" />
    <glyph glyph-name="edieresis" unicode="&#xeb;" horiz-adv-x="418" 
d="M387 3q-85 -1 -170 -2.5t-170 -1.5q4 13 5 25.5t1 26.5q0 38 -1 90.5t-1 103.5q0 92 1 183t5 184q-2 22 -8 45t-14 43q38 5 97 8.5t120 3.5q38 0 73 -1.5t63 -5.5q0 -32 -3 -70.5t-6 -66.5q-32 27 -71.5 37.5t-74.5 10.5q-23 0 -42 -3q-1 -20 -2 -46t-1.5 -53t-0.5 -53.5
v-46.5q21 0 44.5 2.5t46 5.5t42.5 7t34 8q0 -35 -1.5 -73.5t-6.5 -70.5q-32 16 -70 21t-90 4q0 -26 -0.5 -53.5t-0.5 -55.5q0 -57 3 -109q25 -1 52 1.5t52.5 10.5t48.5 22.5t40 37.5q5 -40 5.5 -83.5t0.5 -85.5zM46 827q0 28 21 48.5t53 20.5q28 0 48.5 -19t20.5 -47
q0 -29 -23 -49.5t-53 -20.5t-48.5 20t-18.5 47zM238 827q0 28 21 48.5t53 20.5q29 0 48.5 -19t19.5 -47q0 -29 -22 -49.5t-52 -20.5q-31 0 -49.5 20t-18.5 47z" />
    <glyph glyph-name="Ntilde" unicode="&#xd1;" horiz-adv-x="508" 
d="M192 7q-38 -5 -78 -6.5t-79 1.5q8 17 10 34.5t3 37.5q2 58 3.5 133.5t2.5 154t0.5 153.5t-1.5 132q0 41 -14 61q37 3 73.5 4t74.5 -1q34 -98 70 -193t81 -201q1 75 2 153t0 165q0 22 -3.5 39.5t-9.5 31.5q38 4 75.5 4.5t75.5 -1.5q-11 -21 -15 -41.5t-4 -42.5
q-2 -81 -3 -164t-1 -168q0 -36 -0.5 -73.5t0 -74.5t3 -73.5t9.5 -69.5q-26 -3 -55 -4.5t-58 -1.5q-19 37 -42.5 85.5t-48.5 103.5t-49 113t-44 115q-3 -78 -3 -156.5t4 -167.5q1 -23 7 -44t14 -38zM358 907q13 1 31.5 0t32.5 -4q8 -27 7 -52.5t-12.5 -46t-32.5 -32.5
t-53 -12q-37 0 -62 16t-53 36q-7 5 -13.5 9t-11.5 4q-17 0 -26 -17t-10 -47q-17 1 -33.5 3t-28.5 6q-3 25 3 52t21 47q13 17 32 27t42 10q22 0 39.5 -10.5t34 -23.5t32 -23.5t32.5 -10.5q11 0 18 6.5t10 16t3 22t-2 24.5z" />
    <glyph glyph-name="ntilde" unicode="&#xf1;" horiz-adv-x="508" 
d="M192 7q-38 -5 -78 -6.5t-79 1.5q8 17 10 34.5t3 37.5q2 58 3.5 133.5t2.5 154t0.5 153.5t-1.5 132q0 41 -14 61q37 3 73.5 4t74.5 -1q34 -98 70 -193t81 -201q1 75 2 153t0 165q0 22 -3.5 39.5t-9.5 31.5q38 4 75.5 4.5t75.5 -1.5q-11 -21 -15 -41.5t-4 -42.5
q-2 -81 -3 -164t-1 -168q0 -36 -0.5 -73.5t0 -74.5t3 -73.5t9.5 -69.5q-26 -3 -55 -4.5t-58 -1.5q-19 37 -42.5 85.5t-48.5 103.5t-49 113t-44 115q-3 -78 -3 -156.5t4 -167.5q1 -23 7 -44t14 -38zM358 907q13 1 31.5 0t32.5 -4q8 -27 7 -52.5t-12.5 -46t-32.5 -32.5
t-53 -12q-37 0 -62 16t-53 36q-7 5 -13.5 9t-11.5 4q-17 0 -26 -17t-10 -47q-17 1 -33.5 3t-28.5 6q-3 25 3 52t21 47q13 17 32 27t42 10q22 0 39.5 -10.5t34 -23.5t32 -23.5t32.5 -10.5q11 0 18 6.5t10 16t3 22t-2 24.5z" />
    <glyph glyph-name="Idieresis" unicode="&#xcf;" horiz-adv-x="242" 
d="M36 4q8 19 10.5 40t2.5 38q0 125 1.5 255.5t3.5 288.5q0 21 -3.5 40.5t-11.5 38.5q35 4 80 5.5t85 0.5q-11 -19 -11 -42q0 -55 -2 -127t-3.5 -151t-3 -160t0.5 -154q0 -36 16 -71q-21 -2 -45 -3.5t-50 -1.5q-37 0 -70 3zM-42 827q0 28 21 48.5t53 20.5q28 0 48.5 -19
t20.5 -47q0 -29 -23 -49.5t-53 -20.5t-48.5 20t-18.5 47zM150 827q0 28 21 48.5t53 20.5q29 0 48.5 -19t19.5 -47q0 -29 -22 -49.5t-52 -20.5q-31 0 -49.5 20t-18.5 47z" />
    <glyph glyph-name="Icircumflex" unicode="&#xce;" horiz-adv-x="242" 
d="M36 4q8 19 10.5 40t2.5 38q0 125 1.5 255.5t3.5 288.5q0 21 -3.5 40.5t-11.5 38.5q35 4 80 5.5t85 0.5q-11 -19 -11 -42q0 -55 -2 -127t-3.5 -151t-3 -160t0.5 -154q0 -36 16 -71q-21 -2 -45 -3.5t-50 -1.5q-37 0 -70 3zM294 765q-16 -3 -42 -4t-47 1q-19 14 -38 34
t-41 43q-21 -23 -42.5 -42.5t-41.5 -36.5q-18 -2 -42 -1t-41 4q10 13 25 32t30.5 38.5t30 37.5t24.5 29q26 3 58 3t58 -2q12 -14 27 -33t30.5 -38t29 -36.5t22.5 -28.5z" />
    <glyph glyph-name="Iacute" unicode="&#xcd;" horiz-adv-x="242" 
d="M36 4q8 19 10.5 40t2.5 38q0 125 1.5 255.5t3.5 288.5q0 21 -3.5 40.5t-11.5 38.5q35 4 80 5.5t85 0.5q-11 -19 -11 -42q0 -55 -2 -127t-3.5 -151t-3 -160t0.5 -154q0 -36 16 -71q-21 -2 -45 -3.5t-50 -1.5q-37 0 -70 3zM334 895q-18 -14 -40.5 -32t-46.5 -36.5t-47 -35
t-42 -28.5q-23 -1 -45 -1t-43 2q9 10 21 23.5t25 28t26.5 29.5t26.5 28q7 15 12 23q38 2 77.5 2.5t75.5 -3.5z" />
    <glyph glyph-name="Igrave" unicode="&#xcc;" horiz-adv-x="242" 
d="M36 4q8 19 10.5 40t2.5 38q0 125 1.5 255.5t3.5 288.5q0 21 -3.5 40.5t-11.5 38.5q35 4 80 5.5t85 0.5q-11 -19 -11 -42q0 -55 -2 -127t-3.5 -151t-3 -160t0.5 -154q0 -36 16 -71q-21 -2 -45 -3.5t-50 -1.5q-37 0 -70 3zM-89 895q36 4 75.5 3.5t77.5 -2.5q5 -8 12 -23
q13 -13 26.5 -28t26.5 -29.5t25 -28t21 -23.5q-21 -2 -43 -2t-45 1q-19 12 -42 28.5t-47 35t-46.5 36.5t-40.5 32z" />
    <glyph glyph-name="idieresis" unicode="&#xef;" horiz-adv-x="242" 
d="M36 4q8 19 10.5 40t2.5 38q0 125 1.5 255.5t3.5 288.5q0 21 -3.5 40.5t-11.5 38.5q35 4 80 5.5t85 0.5q-11 -19 -11 -42q0 -55 -2 -127t-3.5 -151t-3 -160t0.5 -154q0 -36 16 -71q-21 -2 -45 -3.5t-50 -1.5q-37 0 -70 3zM-42 827q0 28 21 48.5t53 20.5q28 0 48.5 -19
t20.5 -47q0 -29 -23 -49.5t-53 -20.5t-48.5 20t-18.5 47zM150 827q0 28 21 48.5t53 20.5q29 0 48.5 -19t19.5 -47q0 -29 -22 -49.5t-52 -20.5q-31 0 -49.5 20t-18.5 47z" />
    <glyph glyph-name="icircumflex" unicode="&#xee;" horiz-adv-x="242" 
d="M36 4q8 19 10.5 40t2.5 38q0 125 1.5 255.5t3.5 288.5q0 21 -3.5 40.5t-11.5 38.5q35 4 80 5.5t85 0.5q-11 -19 -11 -42q0 -55 -2 -127t-3.5 -151t-3 -160t0.5 -154q0 -36 16 -71q-21 -2 -45 -3.5t-50 -1.5q-37 0 -70 3zM294 765q-16 -3 -42 -4t-47 1q-19 14 -38 34
t-41 43q-21 -23 -42.5 -42.5t-41.5 -36.5q-18 -2 -42 -1t-41 4q10 13 25 32t30.5 38.5t30 37.5t24.5 29q26 3 58 3t58 -2q12 -14 27 -33t30.5 -38t29 -36.5t22.5 -28.5z" />
    <glyph glyph-name="iacute" unicode="&#xed;" horiz-adv-x="242" 
d="M36 4q8 19 10.5 40t2.5 38q0 125 1.5 255.5t3.5 288.5q0 21 -3.5 40.5t-11.5 38.5q35 4 80 5.5t85 0.5q-11 -19 -11 -42q0 -55 -2 -127t-3.5 -151t-3 -160t0.5 -154q0 -36 16 -71q-21 -2 -45 -3.5t-50 -1.5q-37 0 -70 3zM334 895q-18 -14 -40.5 -32t-46.5 -36.5t-47 -35
t-42 -28.5q-23 -1 -45 -1t-43 2q9 10 21 23.5t25 28t26.5 29.5t26.5 28q7 15 12 23q38 2 77.5 2.5t75.5 -3.5z" />
    <glyph glyph-name="igrave" unicode="&#xec;" horiz-adv-x="242" 
d="M36 4q8 19 10.5 40t2.5 38q0 125 1.5 255.5t3.5 288.5q0 21 -3.5 40.5t-11.5 38.5q35 4 80 5.5t85 0.5q-11 -19 -11 -42q0 -55 -2 -127t-3.5 -151t-3 -160t0.5 -154q0 -36 16 -71q-21 -2 -45 -3.5t-50 -1.5q-37 0 -70 3zM-89 895q36 4 75.5 3.5t77.5 -2.5q5 -8 12 -23
q13 -13 26.5 -28t26.5 -29.5t25 -28t21 -23.5q-21 -2 -43 -2t-45 1q-19 12 -42 28.5t-47 35t-46.5 36.5t-40.5 32z" />
    <glyph glyph-name="Ograve" unicode="&#xd2;" horiz-adv-x="530" 
d="M272 615q-26 -2 -44 -27.5t-29 -64.5t-16 -87.5t-5 -94.5q0 -48 4 -93t13.5 -80.5t26 -56.5t41.5 -21t42.5 23.5t28 62.5t15.5 88.5t5 101.5q0 49 -3.5 94t-13 79.5t-25.5 55t-40 20.5zM275 718q59 0 101.5 -25.5t70 -71t40.5 -109.5t13 -141q0 -189 -63 -287.5
t-178 -98.5q-62 0 -105.5 27.5t-71 76.5t-40 114.5t-12.5 142.5q0 94 17 165.5t48.5 119.5t75 73t97.5 27q2 -2 3.5 -6.5t3.5 -6.5zM58 895q36 4 75.5 3.5t77.5 -2.5q5 -8 12 -23q13 -13 26.5 -28t26.5 -29.5t25 -28t21 -23.5q-21 -2 -43 -2t-45 1q-19 12 -42 28.5t-47 35
t-46.5 36.5t-40.5 32z" />
    <glyph glyph-name="Ugrave" unicode="&#xd9;" 
d="M442 254q0 -30 -2 -61t-8 -58.5t-16.5 -51.5t-26.5 -40q-21 -21 -44.5 -31.5t-45 -14.5t-37.5 -4h-22q-61 -1 -101 20t-61 59q-20 35 -25 81.5t-6 99.5q-1 90 1 189.5t4 187.5q0 40 -16 77q38 3 83.5 3.5t83.5 -1.5q-15 -36 -15 -77q-1 -90 -4.5 -178.5t-1.5 -176.5
q0 -29 0.5 -61.5t6 -59.5t19 -44t40.5 -17q37 1 51 26t16 61q1 22 1.5 60.5t0.5 84.5v94.5t-1 90.5t-2 73t-2 43q-3 39 -15 75q16 1 36.5 2.5t41.5 2t41 1t37 -0.5q-7 -20 -10.5 -41.5t-3.5 -40.5q1 -44 1.5 -75t1 -56.5t0.5 -48v-49v-61v-82.5zM48 895q36 4 75.5 3.5
t77.5 -2.5q5 -8 12 -23q13 -13 26.5 -28t26.5 -29.5t25 -28t21 -23.5q-21 -2 -43 -2t-45 1q-19 12 -42 28.5t-47 35t-46.5 36.5t-40.5 32z" />
    <glyph glyph-name="Oacute" unicode="&#xd3;" horiz-adv-x="530" 
d="M272 615q-26 -2 -44 -27.5t-29 -64.5t-16 -87.5t-5 -94.5q0 -48 4 -93t13.5 -80.5t26 -56.5t41.5 -21t42.5 23.5t28 62.5t15.5 88.5t5 101.5q0 49 -3.5 94t-13 79.5t-25.5 55t-40 20.5zM275 718q59 0 101.5 -25.5t70 -71t40.5 -109.5t13 -141q0 -189 -63 -287.5
t-178 -98.5q-62 0 -105.5 27.5t-71 76.5t-40 114.5t-12.5 142.5q0 94 17 165.5t48.5 119.5t75 73t97.5 27q2 -2 3.5 -6.5t3.5 -6.5zM468 895q-18 -14 -40.5 -32t-46.5 -36.5t-47 -35t-42 -28.5q-23 -1 -45 -1t-43 2q9 10 21 23.5t25 28t26.5 29.5t26.5 28q7 15 12 23
q38 2 77.5 2.5t75.5 -3.5z" />
    <glyph glyph-name="Ocircumflex" unicode="&#xd4;" horiz-adv-x="530" 
d="M272 615q-26 -2 -44 -27.5t-29 -64.5t-16 -87.5t-5 -94.5q0 -48 4 -93t13.5 -80.5t26 -56.5t41.5 -21t42.5 23.5t28 62.5t15.5 88.5t5 101.5q0 49 -3.5 94t-13 79.5t-25.5 55t-40 20.5zM275 718q59 0 101.5 -25.5t70 -71t40.5 -109.5t13 -141q0 -189 -63 -287.5
t-178 -98.5q-62 0 -105.5 27.5t-71 76.5t-40 114.5t-12.5 142.5q0 94 17 165.5t48.5 119.5t75 73t97.5 27q2 -2 3.5 -6.5t3.5 -6.5zM439 765q-16 -3 -42 -4t-47 1q-19 14 -38 34t-41 43q-21 -23 -42.5 -42.5t-41.5 -36.5q-18 -2 -42 -1t-41 4q10 13 25 32t30.5 38.5t30 37.5
t24.5 29q26 3 58 3t58 -2q12 -14 27 -33t30.5 -38t29 -36.5t22.5 -28.5z" />
    <glyph glyph-name="Otilde" unicode="&#xd5;" horiz-adv-x="530" 
d="M272 615q-26 -2 -44 -27.5t-29 -64.5t-16 -87.5t-5 -94.5q0 -48 4 -93t13.5 -80.5t26 -56.5t41.5 -21t42.5 23.5t28 62.5t15.5 88.5t5 101.5q0 49 -3.5 94t-13 79.5t-25.5 55t-40 20.5zM275 718q59 0 101.5 -25.5t70 -71t40.5 -109.5t13 -141q0 -189 -63 -287.5
t-178 -98.5q-62 0 -105.5 27.5t-71 76.5t-40 114.5t-12.5 142.5q0 94 17 165.5t48.5 119.5t75 73t97.5 27q2 -2 3.5 -6.5t3.5 -6.5zM363 907q13 1 31.5 0t32.5 -4q8 -27 7 -52.5t-12.5 -46t-32.5 -32.5t-53 -12q-37 0 -62 16t-53 36q-7 5 -13.5 9t-11.5 4q-17 0 -26 -17
t-10 -47q-17 1 -33.5 3t-28.5 6q-3 25 3 52t21 47q13 17 32 27t42 10q22 0 39.5 -10.5t34 -23.5t32 -23.5t32.5 -10.5q11 0 18 6.5t10 16t3 22t-2 24.5z" />
    <glyph glyph-name="Uacute" unicode="&#xda;" 
d="M442 254q0 -30 -2 -61t-8 -58.5t-16.5 -51.5t-26.5 -40q-21 -21 -44.5 -31.5t-45 -14.5t-37.5 -4h-22q-61 -1 -101 20t-61 59q-20 35 -25 81.5t-6 99.5q-1 90 1 189.5t4 187.5q0 40 -16 77q38 3 83.5 3.5t83.5 -1.5q-15 -36 -15 -77q-1 -90 -4.5 -178.5t-1.5 -176.5
q0 -29 0.5 -61.5t6 -59.5t19 -44t40.5 -17q37 1 51 26t16 61q1 22 1.5 60.5t0.5 84.5v94.5t-1 90.5t-2 73t-2 43q-3 39 -15 75q16 1 36.5 2.5t41.5 2t41 1t37 -0.5q-7 -20 -10.5 -41.5t-3.5 -40.5q1 -44 1.5 -75t1 -56.5t0.5 -48v-49v-61v-82.5zM438 895q-18 -14 -40.5 -32
t-46.5 -36.5t-47 -35t-42 -28.5q-23 -1 -45 -1t-43 2q9 10 21 23.5t25 28t26.5 29.5t26.5 28q7 15 12 23q38 2 77.5 2.5t75.5 -3.5z" />
    <glyph glyph-name="Ucircumflex" unicode="&#xdb;" 
d="M442 254q0 -30 -2 -61t-8 -58.5t-16.5 -51.5t-26.5 -40q-21 -21 -44.5 -31.5t-45 -14.5t-37.5 -4h-22q-61 -1 -101 20t-61 59q-20 35 -25 81.5t-6 99.5q-1 90 1 189.5t4 187.5q0 40 -16 77q38 3 83.5 3.5t83.5 -1.5q-15 -36 -15 -77q-1 -90 -4.5 -178.5t-1.5 -176.5
q0 -29 0.5 -61.5t6 -59.5t19 -44t40.5 -17q37 1 51 26t16 61q1 22 1.5 60.5t0.5 84.5v94.5t-1 90.5t-2 73t-2 43q-3 39 -15 75q16 1 36.5 2.5t41.5 2t41 1t37 -0.5q-7 -20 -10.5 -41.5t-3.5 -40.5q1 -44 1.5 -75t1 -56.5t0.5 -48v-49v-61v-82.5zM418 765q-16 -3 -42 -4
t-47 1q-19 14 -38 34t-41 43q-21 -23 -42.5 -42.5t-41.5 -36.5q-18 -2 -42 -1t-41 4q10 13 25 32t30.5 38.5t30 37.5t24.5 29q26 3 58 3t58 -2q12 -14 27 -33t30.5 -38t29 -36.5t22.5 -28.5z" />
    <glyph glyph-name="Udieresis" unicode="&#xdc;" 
d="M442 254q0 -30 -2 -61t-8 -58.5t-16.5 -51.5t-26.5 -40q-21 -21 -44.5 -31.5t-45 -14.5t-37.5 -4h-22q-61 -1 -101 20t-61 59q-20 35 -25 81.5t-6 99.5q-1 90 1 189.5t4 187.5q0 40 -16 77q38 3 83.5 3.5t83.5 -1.5q-15 -36 -15 -77q-1 -90 -4.5 -178.5t-1.5 -176.5
q0 -29 0.5 -61.5t6 -59.5t19 -44t40.5 -17q37 1 51 26t16 61q1 22 1.5 60.5t0.5 84.5v94.5t-1 90.5t-2 73t-2 43q-3 39 -15 75q16 1 36.5 2.5t41.5 2t41 1t37 -0.5q-7 -20 -10.5 -41.5t-3.5 -40.5q1 -44 1.5 -75t1 -56.5t0.5 -48v-49v-61v-82.5zM80 827q0 28 21 48.5
t53 20.5q28 0 48.5 -19t20.5 -47q0 -29 -23 -49.5t-53 -20.5t-48.5 20t-18.5 47zM272 827q0 28 21 48.5t53 20.5q29 0 48.5 -19t19.5 -47q0 -29 -22 -49.5t-52 -20.5q-31 0 -49.5 20t-18.5 47z" />
    <glyph glyph-name="Yacute" unicode="&#xdd;" horiz-adv-x="541" 
d="M217 235q-32 91 -73.5 191.5t-83.5 195.5q-8 19 -20 41t-25 36q41 6 86.5 11t88.5 5q-3 -9 -3 -20q0 -14 4 -30t12 -35q23 -57 45 -120t44 -130q23 75 41.5 134.5t36.5 113.5q6 18 10.5 39.5t2.5 48.5q38 0 74.5 -4.5t68.5 -10.5q-12 -14 -20.5 -31t-14.5 -34
q-32 -87 -64.5 -183t-71.5 -218q-1 -35 -1.5 -65t-1 -53t-0.5 -37v-16q0 -15 2 -31t9 -30q-17 -1 -33 -1.5t-33 -0.5q-27 0 -52 1.5t-48 5.5q12 19 16.5 45.5t5.5 57t-0.5 62.5t-1.5 62zM468 895q-18 -14 -40.5 -32t-46.5 -36.5t-47 -35t-42 -28.5q-23 -1 -45 -1t-43 2
q9 10 21 23.5t25 28t26.5 29.5t26.5 28q7 15 12 23q38 2 77.5 2.5t75.5 -3.5z" />
    <glyph glyph-name="ograve" unicode="&#xf2;" horiz-adv-x="530" 
d="M272 615q-26 -2 -44 -27.5t-29 -64.5t-16 -87.5t-5 -94.5q0 -48 4 -93t13.5 -80.5t26 -56.5t41.5 -21t42.5 23.5t28 62.5t15.5 88.5t5 101.5q0 49 -3.5 94t-13 79.5t-25.5 55t-40 20.5zM275 718q59 0 101.5 -25.5t70 -71t40.5 -109.5t13 -141q0 -189 -63 -287.5
t-178 -98.5q-62 0 -105.5 27.5t-71 76.5t-40 114.5t-12.5 142.5q0 94 17 165.5t48.5 119.5t75 73t97.5 27q2 -2 3.5 -6.5t3.5 -6.5zM58 895q36 4 75.5 3.5t77.5 -2.5q5 -8 12 -23q13 -13 26.5 -28t26.5 -29.5t25 -28t21 -23.5q-21 -2 -43 -2t-45 1q-19 12 -42 28.5t-47 35
t-46.5 36.5t-40.5 32z" />
    <glyph glyph-name="oacute" unicode="&#xf3;" horiz-adv-x="530" 
d="M272 615q-26 -2 -44 -27.5t-29 -64.5t-16 -87.5t-5 -94.5q0 -48 4 -93t13.5 -80.5t26 -56.5t41.5 -21t42.5 23.5t28 62.5t15.5 88.5t5 101.5q0 49 -3.5 94t-13 79.5t-25.5 55t-40 20.5zM275 718q59 0 101.5 -25.5t70 -71t40.5 -109.5t13 -141q0 -189 -63 -287.5
t-178 -98.5q-62 0 -105.5 27.5t-71 76.5t-40 114.5t-12.5 142.5q0 94 17 165.5t48.5 119.5t75 73t97.5 27q2 -2 3.5 -6.5t3.5 -6.5zM468 895q-18 -14 -40.5 -32t-46.5 -36.5t-47 -35t-42 -28.5q-23 -1 -45 -1t-43 2q9 10 21 23.5t25 28t26.5 29.5t26.5 28q7 15 12 23
q38 2 77.5 2.5t75.5 -3.5z" />
    <glyph glyph-name="ocircumflex" unicode="&#xf4;" horiz-adv-x="530" 
d="M272 615q-26 -2 -44 -27.5t-29 -64.5t-16 -87.5t-5 -94.5q0 -48 4 -93t13.5 -80.5t26 -56.5t41.5 -21t42.5 23.5t28 62.5t15.5 88.5t5 101.5q0 49 -3.5 94t-13 79.5t-25.5 55t-40 20.5zM275 718q59 0 101.5 -25.5t70 -71t40.5 -109.5t13 -141q0 -189 -63 -287.5
t-178 -98.5q-62 0 -105.5 27.5t-71 76.5t-40 114.5t-12.5 142.5q0 94 17 165.5t48.5 119.5t75 73t97.5 27q2 -2 3.5 -6.5t3.5 -6.5zM439 765q-16 -3 -42 -4t-47 1q-19 14 -38 34t-41 43q-21 -23 -42.5 -42.5t-41.5 -36.5q-18 -2 -42 -1t-41 4q10 13 25 32t30.5 38.5t30 37.5
t24.5 29q26 3 58 3t58 -2q12 -14 27 -33t30.5 -38t29 -36.5t22.5 -28.5z" />
    <glyph glyph-name="otilde" unicode="&#xf5;" horiz-adv-x="530" 
d="M272 615q-26 -2 -44 -27.5t-29 -64.5t-16 -87.5t-5 -94.5q0 -48 4 -93t13.5 -80.5t26 -56.5t41.5 -21t42.5 23.5t28 62.5t15.5 88.5t5 101.5q0 49 -3.5 94t-13 79.5t-25.5 55t-40 20.5zM275 718q59 0 101.5 -25.5t70 -71t40.5 -109.5t13 -141q0 -189 -63 -287.5
t-178 -98.5q-62 0 -105.5 27.5t-71 76.5t-40 114.5t-12.5 142.5q0 94 17 165.5t48.5 119.5t75 73t97.5 27q2 -2 3.5 -6.5t3.5 -6.5zM363 907q13 1 31.5 0t32.5 -4q8 -27 7 -52.5t-12.5 -46t-32.5 -32.5t-53 -12q-37 0 -62 16t-53 36q-7 5 -13.5 9t-11.5 4q-17 0 -26 -17
t-10 -47q-17 1 -33.5 3t-28.5 6q-3 25 3 52t21 47q13 17 32 27t42 10q22 0 39.5 -10.5t34 -23.5t32 -23.5t32.5 -10.5q11 0 18 6.5t10 16t3 22t-2 24.5z" />
    <glyph glyph-name="odieresis" unicode="&#xf6;" horiz-adv-x="530" 
d="M272 615q-26 -2 -44 -27.5t-29 -64.5t-16 -87.5t-5 -94.5q0 -48 4 -93t13.5 -80.5t26 -56.5t41.5 -21t42.5 23.5t28 62.5t15.5 88.5t5 101.5q0 49 -3.5 94t-13 79.5t-25.5 55t-40 20.5zM275 718q59 0 101.5 -25.5t70 -71t40.5 -109.5t13 -141q0 -189 -63 -287.5
t-178 -98.5q-62 0 -105.5 27.5t-71 76.5t-40 114.5t-12.5 142.5q0 94 17 165.5t48.5 119.5t75 73t97.5 27q2 -2 3.5 -6.5t3.5 -6.5zM103 827q0 28 21 48.5t53 20.5q28 0 48.5 -19t20.5 -47q0 -29 -23 -49.5t-53 -20.5t-48.5 20t-18.5 47zM295 827q0 28 21 48.5t53 20.5
q29 0 48.5 -19t19.5 -47q0 -29 -22 -49.5t-52 -20.5q-31 0 -49.5 20t-18.5 47z" />
    <glyph glyph-name="ydieresis" unicode="&#xff;" horiz-adv-x="541" 
d="M217 235q-32 91 -73.5 191.5t-83.5 195.5q-8 19 -20 41t-25 36q41 6 86.5 11t88.5 5q-3 -9 -3 -20q0 -14 4 -30t12 -35q23 -57 45 -120t44 -130q23 75 41.5 134.5t36.5 113.5q6 18 10.5 39.5t2.5 48.5q38 0 74.5 -4.5t68.5 -10.5q-12 -14 -20.5 -31t-14.5 -34
q-32 -87 -64.5 -183t-71.5 -218q-1 -35 -1.5 -65t-1 -53t-0.5 -37v-16q0 -15 2 -31t9 -30q-17 -1 -33 -1.5t-33 -0.5q-27 0 -52 1.5t-48 5.5q12 19 16.5 45.5t5.5 57t-0.5 62.5t-1.5 62zM111 827q0 28 21 48.5t53 20.5q28 0 48.5 -19t20.5 -47q0 -29 -23 -49.5t-53 -20.5
t-48.5 20t-18.5 47zM303 827q0 28 21 48.5t53 20.5q29 0 48.5 -19t19.5 -47q0 -29 -22 -49.5t-52 -20.5q-31 0 -49.5 20t-18.5 47z" />
    <glyph glyph-name="yacute" unicode="&#xfd;" horiz-adv-x="541" 
d="M217 235q-32 91 -73.5 191.5t-83.5 195.5q-8 19 -20 41t-25 36q41 6 86.5 11t88.5 5q-3 -9 -3 -20q0 -14 4 -30t12 -35q23 -57 45 -120t44 -130q23 75 41.5 134.5t36.5 113.5q6 18 10.5 39.5t2.5 48.5q38 0 74.5 -4.5t68.5 -10.5q-12 -14 -20.5 -31t-14.5 -34
q-32 -87 -64.5 -183t-71.5 -218q-1 -35 -1.5 -65t-1 -53t-0.5 -37v-16q0 -15 2 -31t9 -30q-17 -1 -33 -1.5t-33 -0.5q-27 0 -52 1.5t-48 5.5q12 19 16.5 45.5t5.5 57t-0.5 62.5t-1.5 62zM468 895q-18 -14 -40.5 -32t-46.5 -36.5t-47 -35t-42 -28.5q-23 -1 -45 -1t-43 2
q9 10 21 23.5t25 28t26.5 29.5t26.5 28q7 15 12 23q38 2 77.5 2.5t75.5 -3.5z" />
    <glyph glyph-name="udieresis" unicode="&#xfc;" 
d="M442 254q0 -30 -2 -61t-8 -58.5t-16.5 -51.5t-26.5 -40q-21 -21 -44.5 -31.5t-45 -14.5t-37.5 -4h-22q-61 -1 -101 20t-61 59q-20 35 -25 81.5t-6 99.5q-1 90 1 189.5t4 187.5q0 40 -16 77q38 3 83.5 3.5t83.5 -1.5q-15 -36 -15 -77q-1 -90 -4.5 -178.5t-1.5 -176.5
q0 -29 0.5 -61.5t6 -59.5t19 -44t40.5 -17q37 1 51 26t16 61q1 22 1.5 60.5t0.5 84.5v94.5t-1 90.5t-2 73t-2 43q-3 39 -15 75q16 1 36.5 2.5t41.5 2t41 1t37 -0.5q-7 -20 -10.5 -41.5t-3.5 -40.5q1 -44 1.5 -75t1 -56.5t0.5 -48v-49v-61v-82.5zM80 827q0 28 21 48.5
t53 20.5q28 0 48.5 -19t20.5 -47q0 -29 -23 -49.5t-53 -20.5t-48.5 20t-18.5 47zM272 827q0 28 21 48.5t53 20.5q29 0 48.5 -19t19.5 -47q0 -29 -22 -49.5t-52 -20.5q-31 0 -49.5 20t-18.5 47z" />
    <glyph glyph-name="ucircumflex" unicode="&#xfb;" 
d="M442 254q0 -30 -2 -61t-8 -58.5t-16.5 -51.5t-26.5 -40q-21 -21 -44.5 -31.5t-45 -14.5t-37.5 -4h-22q-61 -1 -101 20t-61 59q-20 35 -25 81.5t-6 99.5q-1 90 1 189.5t4 187.5q0 40 -16 77q38 3 83.5 3.5t83.5 -1.5q-15 -36 -15 -77q-1 -90 -4.5 -178.5t-1.5 -176.5
q0 -29 0.5 -61.5t6 -59.5t19 -44t40.5 -17q37 1 51 26t16 61q1 22 1.5 60.5t0.5 84.5v94.5t-1 90.5t-2 73t-2 43q-3 39 -15 75q16 1 36.5 2.5t41.5 2t41 1t37 -0.5q-7 -20 -10.5 -41.5t-3.5 -40.5q1 -44 1.5 -75t1 -56.5t0.5 -48v-49v-61v-82.5zM418 765q-16 -3 -42 -4
t-47 1q-19 14 -38 34t-41 43q-21 -23 -42.5 -42.5t-41.5 -36.5q-18 -2 -42 -1t-41 4q10 13 25 32t30.5 38.5t30 37.5t24.5 29q26 3 58 3t58 -2q12 -14 27 -33t30.5 -38t29 -36.5t22.5 -28.5z" />
    <glyph glyph-name="uacute" unicode="&#xfa;" 
d="M442 254q0 -30 -2 -61t-8 -58.5t-16.5 -51.5t-26.5 -40q-21 -21 -44.5 -31.5t-45 -14.5t-37.5 -4h-22q-61 -1 -101 20t-61 59q-20 35 -25 81.5t-6 99.5q-1 90 1 189.5t4 187.5q0 40 -16 77q38 3 83.5 3.5t83.5 -1.5q-15 -36 -15 -77q-1 -90 -4.5 -178.5t-1.5 -176.5
q0 -29 0.5 -61.5t6 -59.5t19 -44t40.5 -17q37 1 51 26t16 61q1 22 1.5 60.5t0.5 84.5v94.5t-1 90.5t-2 73t-2 43q-3 39 -15 75q16 1 36.5 2.5t41.5 2t41 1t37 -0.5q-7 -20 -10.5 -41.5t-3.5 -40.5q1 -44 1.5 -75t1 -56.5t0.5 -48v-49v-61v-82.5zM438 895q-18 -14 -40.5 -32
t-46.5 -36.5t-47 -35t-42 -28.5q-23 -1 -45 -1t-43 2q9 10 21 23.5t25 28t26.5 29.5t26.5 28q7 15 12 23q38 2 77.5 2.5t75.5 -3.5z" />
    <glyph glyph-name="ugrave" unicode="&#xf9;" 
d="M442 254q0 -30 -2 -61t-8 -58.5t-16.5 -51.5t-26.5 -40q-21 -21 -44.5 -31.5t-45 -14.5t-37.5 -4h-22q-61 -1 -101 20t-61 59q-20 35 -25 81.5t-6 99.5q-1 90 1 189.5t4 187.5q0 40 -16 77q38 3 83.5 3.5t83.5 -1.5q-15 -36 -15 -77q-1 -90 -4.5 -178.5t-1.5 -176.5
q0 -29 0.5 -61.5t6 -59.5t19 -44t40.5 -17q37 1 51 26t16 61q1 22 1.5 60.5t0.5 84.5v94.5t-1 90.5t-2 73t-2 43q-3 39 -15 75q16 1 36.5 2.5t41.5 2t41 1t37 -0.5q-7 -20 -10.5 -41.5t-3.5 -40.5q1 -44 1.5 -75t1 -56.5t0.5 -48v-49v-61v-82.5zM48 895q36 4 75.5 3.5
t77.5 -2.5q5 -8 12 -23q13 -13 26.5 -28t26.5 -29.5t25 -28t21 -23.5q-21 -2 -43 -2t-45 1q-19 12 -42 28.5t-47 35t-46.5 36.5t-40.5 32z" />
    <glyph glyph-name="Mr.Smiley" unicode="&#xf8ff;" horiz-adv-x="836" 
d="M537 242q-154 -39 -310 0q10 -17 24.5 -35t34 -34t43.5 -26t53 -10q28 0 52 10t43.5 26t34.5 34t25 35zM600 340h-436l53 -84q83 -20 164.5 -19.5t164.5 19.5zM323 453q-13 27 -21 56t-25 52q-3 4 -12.5 0t-20 -10.5t-18 -13t-5.5 -8.5l72 -90q1 -2 6.5 -0.5t11 4
t9.5 5.5t3 5zM419 371l-37 89l-36 -89h73zM542 529q1 2 -6 8.5t-17 13t-19.5 10.5t-12.5 0q-18 -23 -26.5 -52t-19.5 -56q-2 -2 2 -5t10 -5.5t11 -4t7 0.5zM657 371q0 -57 -21.5 -107t-59 -87.5t-87.5 -59t-107 -21.5t-107 21.5t-87.5 59t-59.5 87.5t-22 107t22 107
t59.5 87.5t87.5 59t107 21.5t107 -21.5t87.5 -59t59 -87.5t21.5 -107zM677 371q0 61 -23 115t-63 94t-94 63.5t-115 23.5t-115 -23.5t-94.5 -63.5t-64 -94t-23.5 -115t23.5 -114.5t64 -94t94.5 -64t115 -23.5t115 23.5t94 64t63 94t23 114.5zM707 104h-26v-69h-19v69h-25v16
h70v-16zM724 371q0 -71 -27 -133t-73.5 -109t-109 -74t-132.5 -27q-71 0 -133 27t-108.5 74t-73.5 109t-27 133t27 133.5t73.5 109t108.5 73.5t133 27q70 0 132.5 -27t109 -73.5t73.5 -109t27 -133.5zM796 35h-15v69l-17 -69h-16l-17 69v-69h-16v85h25l17 -66l14 66h25v-85z
" />
    <glyph glyph-name="Amacron" unicode="&#x100;" horiz-adv-x="512" 
d="M10 13q8 12 14.5 29.5t9.5 33.5q10 61 24 130.5t29 140t31 140.5t31 133q5 22 6 48t-9 41q23 2 50.5 4t57.5 2.5t60 -1.5t57 -7q-10 -12 -13 -32.5t0 -37.5q22 -130 48 -273.5t59 -282.5q5 -20 13 -39t20 -33q-37 -5 -81 -7t-86 -2q4 11 1.5 32t-6.5 41l-20 104
q-34 0 -68 -0.5t-69 -1.5q-6 -27 -13 -59.5t-7 -64.5q0 -24 10 -47q-35 -4 -73.5 -1.5t-75.5 10.5zM245 582q-17 -79 -31.5 -156.5t-26.5 -152.5q25 2 49.5 2t53.5 -1q-11 66 -23 148.5t-22 159.5zM80 854q91 2 180.5 2t167.5 -1q2 -18 0 -41t-8 -43q-26 1 -71 1.5t-94 0.5
t-94.5 -1t-71.5 -2q-3 5 -5 15.5t-3.5 23t-2 24.5t1.5 21z" />
    <glyph glyph-name="Abreve" unicode="&#x102;" horiz-adv-x="512" 
d="M10 13q8 12 14.5 29.5t9.5 33.5q10 61 24 130.5t29 140t31 140.5t31 133q5 22 6 48t-9 41q23 2 50.5 4t57.5 2.5t60 -1.5t57 -7q-10 -12 -13 -32.5t0 -37.5q22 -130 48 -273.5t59 -282.5q5 -20 13 -39t20 -33q-37 -5 -81 -7t-86 -2q4 11 1.5 32t-6.5 41l-20 104
q-34 0 -68 -0.5t-69 -1.5q-6 -27 -13 -59.5t-7 -64.5q0 -24 10 -47q-35 -4 -73.5 -1.5t-75.5 10.5zM245 582q-17 -79 -31.5 -156.5t-26.5 -152.5q25 2 49.5 2t53.5 -1q-11 66 -23 148.5t-22 159.5zM251 758q-33 0 -60.5 8t-48 24t-31.5 40t-10 56q4 1 16.5 1.5t26.5 0.5h27
t19 -1q1 -35 19 -51.5t44 -16.5q29 0 47 17t18 51q7 1 20 1h27t26 -0.5t15 -1.5q1 -33 -11.5 -57t-33.5 -39.5t-49.5 -23.5t-60.5 -8z" />
    <glyph glyph-name="uni0200" unicode="&#x200;" horiz-adv-x="512" 
d="M10 13q8 12 14.5 29.5t9.5 33.5q10 61 24 130.5t29 140t31 140.5t31 133q5 22 6 48t-9 41q23 2 50.5 4t57.5 2.5t60 -1.5t57 -7q-10 -12 -13 -32.5t0 -37.5q22 -130 48 -273.5t59 -282.5q5 -20 13 -39t20 -33q-37 -5 -81 -7t-86 -2q4 11 1.5 32t-6.5 41l-20 104
q-34 0 -68 -0.5t-69 -1.5q-6 -27 -13 -59.5t-7 -64.5q0 -24 10 -47q-35 -4 -73.5 -1.5t-75.5 10.5zM245 582q-17 -79 -31.5 -156.5t-26.5 -152.5q25 2 49.5 2t53.5 -1q-11 66 -23 148.5t-22 159.5zM153 894q35 7 72.5 6t70.5 -4l12 -23q23 -26 48 -57.5t42 -51.5
q-43 -4 -83 0q-17 11 -38 27.5t-43.5 34.5t-43.5 36t-37 32zM-39 894q35 7 72.5 6t70.5 -4l12 -23q23 -26 48 -57.5t42 -51.5q-43 -4 -83 0q-17 11 -38 27.5t-43.5 34.5t-43.5 36t-37 32z" />
    <glyph glyph-name="Aringacute" unicode="&#x1fa;" horiz-adv-x="512" 
d="M283 845q0 -13 -9 -23t-25 -10q-14 0 -22.5 9t-8.5 22q0 14 8.5 23.5t23.5 9.5q17 0 25 -9t8 -22zM251 931q-36 0 -61.5 -25t-27.5 -61v-2q0 -35 25 -60t63 -25q37 0 63.5 25t26.5 62q0 36 -23.5 61t-65.5 25zM458 1090q-17 -13 -38 -30t-43.5 -34t-44 -32.5t-38.5 -26.5
q-22 -1 -42 -1t-40 2q17 19 42.5 48t49.5 54q3 6 6 11.5t5 9.5q36 2 72.5 2.5t70.5 -3.5zM10 13q37 -8 75.5 -10.5t73.5 1.5q-10 23 -10 47q0 32 7 64.5t13 59.5q35 1 69 1.5t68 0.5l20 -104q4 -20 6.5 -41t-1.5 -32q42 0 86 2t81 7q-12 14 -20 33t-13 39q-33 139 -59 282.5
t-48 273.5q-3 17 0 37.5t13 32.5q-27 5 -57 7t-60 1.5t-57.5 -2.5t-50.5 -4q10 -15 9 -41t-6 -48q-15 -63 -31 -133t-31 -140.5t-29 -140t-24 -130.5q-3 -16 -9.5 -33.5t-14.5 -29.5zM245 582q10 -77 22 -159.5t23 -148.5q-29 1 -53.5 1t-49.5 -2q12 75 26.5 152.5
t31.5 156.5z" />
    <glyph glyph-name="Aogonek" unicode="&#x104;" horiz-adv-x="512" 
d="M10 13q8 12 14.5 29.5t9.5 33.5q10 61 24 130.5t29 140t31 140.5t31 133q5 22 6 48t-9 41q23 2 50.5 4t57.5 2.5t60 -1.5t57 -7q-10 -12 -13 -32.5t0 -37.5q22 -130 48 -273.5t59 -282.5q5 -20 13 -39t20 -33q-8 -2 -18 -3.5t-19 -2.5q-11 -8 -26.5 -20.5t-30 -27
t-24.5 -30.5t-10 -31q0 -16 8 -25.5t29 -9.5q19 0 46.5 11t43.5 25l-16 -90q-35 -17 -62 -20t-41 -3q-20 0 -38.5 5t-33 15t-23 25.5t-8.5 37.5q0 19 8 37.5t21 35.5t29.5 32.5t34.5 29.5q-10 0 -20 0.5t-17 1.5q4 11 1.5 31t-6.5 40l-20 104q-34 0 -68 -0.5t-69 -1.5
q-6 -27 -13 -59.5t-7 -64.5q0 -24 10 -47q-35 -4 -73.5 -1.5t-75.5 10.5zM245 582q-17 -79 -31.5 -156.5t-26.5 -152.5q25 2 49.5 2t53.5 -1q-11 66 -23 148.5t-22 159.5z" />
    <glyph glyph-name="uni0202" unicode="&#x202;" horiz-adv-x="512" 
d="M10 13q8 12 14.5 29.5t9.5 33.5q10 61 24 130.5t29 140t31 140.5t31 133q5 22 6 48t-9 41q23 2 50.5 4t57.5 2.5t60 -1.5t57 -7q-10 -12 -13 -32.5t0 -37.5q22 -130 48 -273.5t59 -282.5q5 -20 13 -39t20 -33q-37 -5 -81 -7t-86 -2q4 11 1.5 32t-6.5 41l-20 104
q-34 0 -68 -0.5t-69 -1.5q-6 -27 -13 -59.5t-7 -64.5q0 -24 10 -47q-35 -4 -73.5 -1.5t-75.5 10.5zM245 582q-17 -79 -31.5 -156.5t-26.5 -152.5q25 2 49.5 2t53.5 -1q-11 66 -23 148.5t-22 159.5zM255 893q32 0 60.5 -8t49.5 -24t33.5 -40t11.5 -56q-3 -1 -15 -2t-26 -1
h-27t-20 1q0 34 -18 51.5t-47 17.5q-26 0 -44.5 -17t-18.5 -52q-6 0 -19.5 -0.5t-27.5 0t-26.5 1t-16.5 1.5q0 31 11 55t31.5 40.5t48 24.5t60.5 8z" />
    <glyph glyph-name="AEacute" unicode="&#x1fc;" horiz-adv-x="705" 
d="M674 3q-86 -1 -170.5 -3.5t-170.5 -0.5q5 16 6 28t1 23q0 25 -0.5 58.5t-1.5 68.5q-34 0 -62 -0.5t-63 -1.5q-11 -27 -18 -59.5t-12 -64.5q-4 -25 2 -47q-18 -2 -40.5 -2.5t-46 0.5t-45.5 3.5t-38 7.5q10 12 19.5 29.5t15.5 33.5q21 61 44 129.5t48 138.5t50.5 139
t51.5 132q8 22 13.5 48t-1.5 41q11 2 41 4.5t69 3.5t84.5 1.5t88 -0.5t78.5 -3t58 -5q0 -32 -3 -70.5t-6 -66.5q-32 27 -71.5 37.5t-74.5 10.5q-23 0 -42 -3q-1 -20 -2 -46t-1.5 -53t-0.5 -53.5v-46.5q21 0 44.5 2.5t46 5.5t42.5 7t34 8q0 -35 -1.5 -73.5t-6.5 -70.5
q-26 14 -60.5 19.5t-76.5 5.5h-23q0 -26 -0.5 -53.5t-0.5 -55.5q0 -57 3 -109q25 -1 52 1.5t52.5 10.5t48.5 22.5t40 37.5q5 -40 5.5 -83.5t0.5 -85.5zM246 273q25 2 44.5 2t47.5 -1q0 73 1 146t4 147q-29 -75 -52.5 -149t-44.5 -145zM639 895q-18 -14 -40.5 -32
t-46.5 -36.5t-47 -35t-42 -28.5q-23 -1 -45 -1t-43 2q9 10 21 23.5t25 28t26.5 29.5t26.5 28q7 15 12 23q38 2 77.5 2.5t75.5 -3.5z" />
    <glyph glyph-name="Ccircumflex" unicode="&#x108;" horiz-adv-x="451" 
d="M256 -11q-66 0 -109.5 30t-69 81t-36 119.5t-10.5 145.5q0 55 9.5 117.5t35 115.5t71.5 88t118 35q39 0 65.5 -8.5t45 -20t30 -23t20.5 -17.5q-6 -42 -17.5 -85.5t-21.5 -82.5q-12 38 -25.5 62t-28 38t-29 19t-27.5 5q-30 -2 -50 -28t-31.5 -67.5t-16.5 -95t-5 -111.5
q0 -46 6.5 -84.5t19 -66t32 -43t46.5 -15.5q50 0 76.5 32.5t45.5 91.5q7 -45 12 -94t7 -94q-14 -5 -32 -12.5t-39 -14.5t-44 -12t-48 -5zM427 765q-16 -3 -42 -4t-47 1q-19 14 -38 34t-41 43q-21 -23 -42.5 -42.5t-41.5 -36.5q-18 -2 -42 -1t-41 4q10 13 25 32t30.5 38.5
t30 37.5t24.5 29q26 3 58 3t58 -2q12 -14 27 -33t30.5 -38t29 -36.5t22.5 -28.5z" />
    <glyph glyph-name="Ccaron" unicode="&#x10c;" horiz-adv-x="451" 
d="M256 -11q-66 0 -109.5 30t-69 81t-36 119.5t-10.5 145.5q0 55 9.5 117.5t35 115.5t71.5 88t118 35q39 0 65.5 -8.5t45 -20t30 -23t20.5 -17.5q-6 -42 -17.5 -85.5t-21.5 -82.5q-12 38 -25.5 62t-28 38t-29 19t-27.5 5q-30 -2 -50 -28t-31.5 -67.5t-16.5 -95t-5 -111.5
q0 -46 6.5 -84.5t19 -66t32 -43t46.5 -15.5q50 0 76.5 32.5t45.5 91.5q7 -45 12 -94t7 -94q-14 -5 -32 -12.5t-39 -14.5t-44 -12t-48 -5zM430 901q-9 -11 -22.5 -28.5t-29 -36.5t-30.5 -38t-27 -33q-26 -2 -58 -2t-58 3q-10 11 -24.5 29t-30 37.5t-30.5 38t-25 32.5
q17 3 41 4t42 -1q20 -17 41.5 -36.5t42.5 -42.5q22 23 41 43t38 34q21 2 47 1t42 -4z" />
    <glyph glyph-name="Cdotaccent" unicode="&#x10a;" horiz-adv-x="451" 
d="M256 -11q-66 0 -109.5 30t-69 81t-36 119.5t-10.5 145.5q0 55 9.5 117.5t35 115.5t71.5 88t118 35q39 0 65.5 -8.5t45 -20t30 -23t20.5 -17.5q-6 -42 -17.5 -85.5t-21.5 -82.5q-12 38 -25.5 62t-28 38t-29 19t-27.5 5q-30 -2 -50 -28t-31.5 -67.5t-16.5 -95t-5 -111.5
q0 -46 6.5 -84.5t19 -66t32 -43t46.5 -15.5q50 0 76.5 32.5t45.5 91.5q7 -45 12 -94t7 -94q-14 -5 -32 -12.5t-39 -14.5t-44 -12t-48 -5zM261 910q33 0 58 -18.5t27 -54.5q0 -34 -20.5 -55.5t-54.5 -21.5t-59.5 18t-27.5 55q0 33 21 54t56 23z" />
    <glyph glyph-name="Cacute" unicode="&#x106;" horiz-adv-x="451" 
d="M256 -11q-66 0 -109.5 30t-69 81t-36 119.5t-10.5 145.5q0 55 9.5 117.5t35 115.5t71.5 88t118 35q39 0 65.5 -8.5t45 -20t30 -23t20.5 -17.5q-6 -42 -17.5 -85.5t-21.5 -82.5q-12 38 -25.5 62t-28 38t-29 19t-27.5 5q-30 -2 -50 -28t-31.5 -67.5t-16.5 -95t-5 -111.5
q0 -46 6.5 -84.5t19 -66t32 -43t46.5 -15.5q50 0 76.5 32.5t45.5 91.5q7 -45 12 -94t7 -94q-14 -5 -32 -12.5t-39 -14.5t-44 -12t-48 -5zM466 895q-18 -14 -40.5 -32t-46.5 -36.5t-47 -35t-42 -28.5q-23 -1 -45 -1t-43 2q9 10 21 23.5t25 28t26.5 29.5t26.5 28q7 15 12 23
q38 2 77.5 2.5t75.5 -3.5z" />
    <glyph glyph-name="Dcaron" unicode="&#x10e;" horiz-adv-x="498" 
d="M180 96q44 0 72.5 24.5t45.5 62t23.5 83t6.5 86.5q0 23 -1 52.5t-5 60t-13 59t-24.5 49.5t-39.5 32t-59 7q-4 -128 -5 -257.5t-1 -258.5zM31 12q10 17 13 38t3 41q0 132 2 263.5t5 271.5q-3 20 -8.5 36t-15.5 36q15 3 35.5 6t43 5t45 3.5t42.5 1.5q75 0 128 -23t86 -68
t48 -112.5t15 -157.5q0 -73 -14 -138t-47.5 -113.5t-89.5 -77t-141 -28.5q-37 0 -75.5 4t-74.5 12zM417 901q-9 -11 -22.5 -28.5t-29 -36.5t-30.5 -38t-27 -33q-26 -2 -58 -2t-58 3q-10 11 -24.5 29t-30 37.5t-30.5 38t-25 32.5q17 3 41 4t42 -1q20 -17 41.5 -36.5
t42.5 -42.5q22 23 41 43t38 34q21 2 47 1t42 -4z" />
    <glyph glyph-name="Dcroat" unicode="&#x110;" horiz-adv-x="519" 
d="M22 397q22 3 46 3q1 57 2 113t3 113q-3 20 -8.5 36t-15.5 36q15 3 35.5 6t43 5t45 3.5t42.5 1.5q75 0 128 -23t86.5 -68t49 -112.5t15.5 -157.5q0 -82 -15 -147.5t-49 -111.5t-89.5 -71.5t-136.5 -26.5q-40 0 -80.5 4t-71.5 12q8 14 11 29t3 29q0 60 -1 118.5t1 120.5
q-10 0 -22 -0.5t-20 -6.5q-8 48 -2 95zM199 98q45 -5 75 14.5t48 55t25.5 83t7.5 99.5q0 35 -4 83t-19 90t-45 68.5t-82 20.5q-2 -53 -2.5 -104t-1.5 -105q17 0 41.5 0.5t42.5 5.5q8 -23 9 -54t-6 -54q-8 5 -32.5 7.5t-56.5 1.5v-212z" />
    <glyph glyph-name="Emacron" unicode="&#x112;" horiz-adv-x="418" 
d="M387 3q-85 -1 -170 -2.5t-170 -1.5q4 13 5 25.5t1 26.5q0 38 -1 90.5t-1 103.5q0 92 1 183t5 184q-2 22 -8 45t-14 43q38 5 97 8.5t120 3.5q38 0 73 -1.5t63 -5.5q0 -32 -3 -70.5t-6 -66.5q-32 27 -71.5 37.5t-74.5 10.5q-23 0 -42 -3q-1 -20 -2 -46t-1.5 -53t-0.5 -53.5
v-46.5q21 0 44.5 2.5t46 5.5t42.5 7t34 8q0 -35 -1.5 -73.5t-6.5 -70.5q-32 16 -70 21t-90 4q0 -26 -0.5 -53.5t-0.5 -55.5q0 -57 3 -109q25 -1 52 1.5t52.5 10.5t48.5 22.5t40 37.5q5 -40 5.5 -83.5t0.5 -85.5zM39 854q91 2 180.5 2t167.5 -1q2 -18 0 -41t-8 -43
q-26 1 -71 1.5t-94 0.5t-94.5 -1t-71.5 -2q-3 5 -5 15.5t-3.5 23t-2 24.5t1.5 21z" />
    <glyph glyph-name="Ebreve" unicode="&#x114;" horiz-adv-x="418" 
d="M387 3q-85 -1 -170 -2.5t-170 -1.5q4 13 5 25.5t1 26.5q0 38 -1 90.5t-1 103.5q0 92 1 183t5 184q-2 22 -8 45t-14 43q38 5 97 8.5t120 3.5q38 0 73 -1.5t63 -5.5q0 -32 -3 -70.5t-6 -66.5q-32 27 -71.5 37.5t-74.5 10.5q-23 0 -42 -3q-1 -20 -2 -46t-1.5 -53t-0.5 -53.5
v-46.5q21 0 44.5 2.5t46 5.5t42.5 7t34 8q0 -35 -1.5 -73.5t-6.5 -70.5q-32 16 -70 21t-90 4q0 -26 -0.5 -53.5t-0.5 -55.5q0 -57 3 -109q25 -1 52 1.5t52.5 10.5t48.5 22.5t40 37.5q5 -40 5.5 -83.5t0.5 -85.5zM218 758q-33 0 -60.5 8t-48 24t-31.5 40t-10 56q4 1 16.5 1.5
t26.5 0.5h27t19 -1q1 -35 19 -51.5t44 -16.5q29 0 47 17t18 51q7 1 20 1h27t26 -0.5t15 -1.5q1 -33 -11.5 -57t-33.5 -39.5t-49.5 -23.5t-60.5 -8z" />
    <glyph glyph-name="Ecaron" unicode="&#x11a;" horiz-adv-x="418" 
d="M387 3q-85 -1 -170 -2.5t-170 -1.5q4 13 5 25.5t1 26.5q0 38 -1 90.5t-1 103.5q0 92 1 183t5 184q-2 22 -8 45t-14 43q38 5 97 8.5t120 3.5q38 0 73 -1.5t63 -5.5q0 -32 -3 -70.5t-6 -66.5q-32 27 -71.5 37.5t-74.5 10.5q-23 0 -42 -3q-1 -20 -2 -46t-1.5 -53t-0.5 -53.5
v-46.5q21 0 44.5 2.5t46 5.5t42.5 7t34 8q0 -35 -1.5 -73.5t-6.5 -70.5q-32 16 -70 21t-90 4q0 -26 -0.5 -53.5t-0.5 -55.5q0 -57 3 -109q25 -1 52 1.5t52.5 10.5t48.5 22.5t40 37.5q5 -40 5.5 -83.5t0.5 -85.5zM385 901q-9 -11 -22.5 -28.5t-29 -36.5t-30.5 -38t-27 -33
q-26 -2 -58 -2t-58 3q-10 11 -24.5 29t-30 37.5t-30.5 38t-25 32.5q17 3 41 4t42 -1q20 -17 41.5 -36.5t42.5 -42.5q22 23 41 43t38 34q21 2 47 1t42 -4z" />
    <glyph glyph-name="Edotaccent" unicode="&#x116;" horiz-adv-x="418" 
d="M387 3q-85 -1 -170 -2.5t-170 -1.5q4 13 5 25.5t1 26.5q0 38 -1 90.5t-1 103.5q0 92 1 183t5 184q-2 22 -8 45t-14 43q38 5 97 8.5t120 3.5q38 0 73 -1.5t63 -5.5q0 -32 -3 -70.5t-6 -66.5q-32 27 -71.5 37.5t-74.5 10.5q-23 0 -42 -3q-1 -20 -2 -46t-1.5 -53t-0.5 -53.5
v-46.5q21 0 44.5 2.5t46 5.5t42.5 7t34 8q0 -35 -1.5 -73.5t-6.5 -70.5q-32 16 -70 21t-90 4q0 -26 -0.5 -53.5t-0.5 -55.5q0 -57 3 -109q25 -1 52 1.5t52.5 10.5t48.5 22.5t40 37.5q5 -40 5.5 -83.5t0.5 -85.5zM214 910q33 0 58 -18.5t27 -54.5q0 -34 -20.5 -55.5
t-54.5 -21.5t-59.5 18t-27.5 55q0 33 21 54t56 23z" />
    <glyph glyph-name="uni0204" unicode="&#x204;" horiz-adv-x="418" 
d="M387 3q-85 -1 -170 -2.5t-170 -1.5q4 13 5 25.5t1 26.5q0 38 -1 90.5t-1 103.5q0 92 1 183t5 184q-2 22 -8 45t-14 43q38 5 97 8.5t120 3.5q38 0 73 -1.5t63 -5.5q0 -32 -3 -70.5t-6 -66.5q-32 27 -71.5 37.5t-74.5 10.5q-23 0 -42 -3q-1 -20 -2 -46t-1.5 -53t-0.5 -53.5
v-46.5q21 0 44.5 2.5t46 5.5t42.5 7t34 8q0 -35 -1.5 -73.5t-6.5 -70.5q-32 16 -70 21t-90 4q0 -26 -0.5 -53.5t-0.5 -55.5q0 -57 3 -109q25 -1 52 1.5t52.5 10.5t48.5 22.5t40 37.5q5 -40 5.5 -83.5t0.5 -85.5zM122 894q35 7 72.5 6t70.5 -4l12 -23q23 -26 48 -57.5
t42 -51.5q-43 -4 -83 0q-17 11 -38 27.5t-43.5 34.5t-43.5 36t-37 32zM-70 894q35 7 72.5 6t70.5 -4l12 -23q23 -26 48 -57.5t42 -51.5q-43 -4 -83 0q-17 11 -38 27.5t-43.5 34.5t-43.5 36t-37 32z" />
    <glyph glyph-name="Eogonek" unicode="&#x118;" horiz-adv-x="418" 
d="M260 1q-52 -2 -106.5 -2h-106.5q4 13 5 25.5t1 26.5q0 38 -1 90.5t-1 103.5q0 92 1 183t5 184q-2 22 -8 45t-14 43q38 5 97 8.5t120 3.5q38 0 73 -1.5t63 -5.5q0 -32 -3 -70.5t-6 -66.5q-32 27 -71.5 37.5t-74.5 10.5q-23 0 -42 -3q-1 -20 -2 -46t-1.5 -53t-0.5 -53.5
v-46.5q21 0 44.5 2.5t46 5.5t42.5 7t34 8q0 -35 -1.5 -73.5t-6.5 -70.5q-32 16 -70 21t-90 4q0 -26 -0.5 -53.5t-0.5 -55.5q0 -57 3 -109q25 -1 52 1.5t52.5 10.5t48.5 22.5t40 37.5q5 -40 5.5 -82.5t0.5 -84.5q-5 -1 -17.5 -2t-20.5 -2q-11 -8 -26.5 -20t-29.5 -26.5
t-24 -30t-10 -30.5q0 -16 8 -25.5t29 -9.5q19 0 46.5 11t43.5 25l-16 -90q-35 -17 -62 -20t-41 -3q-20 0 -39 5t-33.5 15t-23.5 25.5t-9 37.5q0 19 8.5 37.5t22.5 35.5t31.5 33t35.5 30z" />
    <glyph glyph-name="uni0206" unicode="&#x206;" horiz-adv-x="418" 
d="M387 3q-85 -1 -170 -2.5t-170 -1.5q4 13 5 25.5t1 26.5q0 38 -1 90.5t-1 103.5q0 92 1 183t5 184q-2 22 -8 45t-14 43q38 5 97 8.5t120 3.5q38 0 73 -1.5t63 -5.5q0 -32 -3 -70.5t-6 -66.5q-32 27 -71.5 37.5t-74.5 10.5q-23 0 -42 -3q-1 -20 -2 -46t-1.5 -53t-0.5 -53.5
v-46.5q21 0 44.5 2.5t46 5.5t42.5 7t34 8q0 -35 -1.5 -73.5t-6.5 -70.5q-32 16 -70 21t-90 4q0 -26 -0.5 -53.5t-0.5 -55.5q0 -57 3 -109q25 -1 52 1.5t52.5 10.5t48.5 22.5t40 37.5q5 -40 5.5 -83.5t0.5 -85.5zM217 893q32 0 60.5 -8t49.5 -24t33.5 -40t11.5 -56
q-3 -1 -15 -2t-26 -1h-27t-20 1q0 34 -18 51.5t-47 17.5q-26 0 -44.5 -17t-18.5 -52q-6 0 -19.5 -0.5t-27.5 0t-26.5 1t-16.5 1.5q0 31 11 55t31.5 40.5t48 24.5t60.5 8z" />
    <glyph glyph-name="Gbreve" unicode="&#x11e;" horiz-adv-x="507" 
d="M398 487q-23 63 -50 92t-59 29q-34 0 -56 -25.5t-35 -69t-18 -101.5t-5 -124q1 -18 3 -51.5t10.5 -66t26 -57t48.5 -24.5q35 0 52.5 24.5t19.5 61.5q1 23 0.5 59t-7.5 71q-5 27 -22 49t-38 32q23 5 56.5 8.5t65.5 3.5q23 0 44.5 -1.5t38.5 -5.5q-12 -23 -12 -51
q2 -84 0 -167.5t-7 -171.5q-27 13 -55 12.5t-56.5 -6.5t-56 -13.5t-53.5 -7.5q-59 0 -97.5 30t-62 78.5t-33 110t-9.5 124.5t8.5 132t33.5 127t71 95.5t120 37.5q57 0 104.5 -20.5t76.5 -48.5q-2 -19 -7 -42t-11.5 -45.5t-14 -43t-14.5 -34.5zM263 758q-33 0 -60.5 8t-48 24
t-31.5 40t-10 56q4 1 16.5 1.5t26.5 0.5h27t19 -1q1 -35 19 -51.5t44 -16.5q29 0 47 17t18 51q7 1 20 1h27t26 -0.5t15 -1.5q1 -33 -11.5 -57t-33.5 -39.5t-49.5 -23.5t-60.5 -8z" />
    <glyph glyph-name="Gcircumflex" unicode="&#x11c;" horiz-adv-x="507" 
d="M398 487q-23 63 -50 92t-59 29q-34 0 -56 -25.5t-35 -69t-18 -101.5t-5 -124q1 -18 3 -51.5t10.5 -66t26 -57t48.5 -24.5q35 0 52.5 24.5t19.5 61.5q1 23 0.5 59t-7.5 71q-5 27 -22 49t-38 32q23 5 56.5 8.5t65.5 3.5q23 0 44.5 -1.5t38.5 -5.5q-12 -23 -12 -51
q2 -84 0 -167.5t-7 -171.5q-27 13 -55 12.5t-56.5 -6.5t-56 -13.5t-53.5 -7.5q-59 0 -97.5 30t-62 78.5t-33 110t-9.5 124.5t8.5 132t33.5 127t71 95.5t120 37.5q57 0 104.5 -20.5t76.5 -48.5q-2 -19 -7 -42t-11.5 -45.5t-14 -43t-14.5 -34.5zM434 765q-16 -3 -42 -4t-47 1
q-19 14 -38 34t-41 43q-21 -23 -42.5 -42.5t-41.5 -36.5q-18 -2 -42 -1t-41 4q10 13 25 32t30.5 38.5t30 37.5t24.5 29q26 3 58 3t58 -2q12 -14 27 -33t30.5 -38t29 -36.5t22.5 -28.5z" />
    <glyph glyph-name="Gdotaccent" unicode="&#x120;" horiz-adv-x="507" 
d="M398 487q-23 63 -50 92t-59 29q-34 0 -56 -25.5t-35 -69t-18 -101.5t-5 -124q1 -18 3 -51.5t10.5 -66t26 -57t48.5 -24.5q35 0 52.5 24.5t19.5 61.5q1 23 0.5 59t-7.5 71q-5 27 -22 49t-38 32q23 5 56.5 8.5t65.5 3.5q23 0 44.5 -1.5t38.5 -5.5q-12 -23 -12 -51
q2 -84 0 -167.5t-7 -171.5q-27 13 -55 12.5t-56.5 -6.5t-56 -13.5t-53.5 -7.5q-59 0 -97.5 30t-62 78.5t-33 110t-9.5 124.5t8.5 132t33.5 127t71 95.5t120 37.5q57 0 104.5 -20.5t76.5 -48.5q-2 -19 -7 -42t-11.5 -45.5t-14 -43t-14.5 -34.5zM260 910q33 0 58 -18.5
t27 -54.5q0 -34 -20.5 -55.5t-54.5 -21.5t-59.5 18t-27.5 55q0 33 21 54t56 23z" />
    <glyph glyph-name="Gcommaaccent" unicode="&#x122;" horiz-adv-x="507" 
d="M398 487q-23 63 -50 92t-59 29q-34 0 -56 -25.5t-35 -69t-18 -101.5t-5 -124q1 -18 3 -51.5t10.5 -66t26 -57t48.5 -24.5q35 0 52.5 24.5t19.5 61.5q1 23 0.5 59t-7.5 71q-5 27 -22 49t-38 32q23 5 56.5 8.5t65.5 3.5q23 0 44.5 -1.5t38.5 -5.5q-12 -23 -12 -51
q2 -84 0 -167.5t-7 -171.5q-27 13 -55 12.5t-56.5 -6.5t-56 -13.5t-53.5 -7.5q-59 0 -97.5 30t-62 78.5t-33 110t-9.5 124.5t8.5 132t33.5 127t71 95.5t120 37.5q57 0 104.5 -20.5t76.5 -48.5q-2 -19 -7 -42t-11.5 -45.5t-14 -43t-14.5 -34.5zM268 -180q-22 -2 -40 14
t-18 46q0 29 19.5 48.5t49.5 21.5q38 0 57.5 -22t19.5 -55q0 -43 -24.5 -84.5t-79.5 -72.5q-9 4 -16 9.5t-13 12.5q20 15 35 35.5t10 46.5z" />
    <glyph glyph-name="Hcircumflex" unicode="&#x124;" horiz-adv-x="515" 
d="M35 1q8 22 10 45t2 46q0 130 2 262.5t2 279.5q0 20 -3.5 37t-11.5 34q13 1 36.5 2.5t48.5 1.5t47.5 -1t35.5 -5q-17 -31 -17 -71l-3 -225q33 2 67.5 2t72.5 -1l4 200q1 27 -3 52.5t-12 48.5q12 2 33.5 3t46 1t48 -2t39.5 -5q-16 -37 -16 -76q-2 -70 -3 -139.5t-3 -140.5
q-1 -54 -1 -107.5v-108.5q0 -32 3 -65.5t16 -60.5q-81 -9 -166 -3q8 15 10.5 30.5t2.5 29.5q0 59 -1 117.5t0 123.5h-69.5t-70.5 -1q-1 -20 -1.5 -46t-1 -55.5t-0.5 -59.5t1 -58q1 -25 5.5 -45.5t11.5 -37.5q-40 -4 -80 -4t-82 2zM427 765q-16 -3 -42 -4t-47 1
q-19 14 -38 34t-41 43q-21 -23 -42.5 -42.5t-41.5 -36.5q-18 -2 -42 -1t-41 4q10 13 25 32t30.5 38.5t30 37.5t24.5 29q26 3 58 3t58 -2q12 -14 27 -33t30.5 -38t29 -36.5t22.5 -28.5z" />
    <glyph glyph-name="Hbar" unicode="&#x126;" horiz-adv-x="551" 
d="M52 1q8 22 10 45t2 46q0 103 1.5 205t2.5 214q-14 -1 -27 -1.5t-24 -2.5q-6 21 -7 41t5 45q11 -2 24 -2.5t29 -1.5v43q0 20 -3.5 38t-11.5 35q13 1 36.5 2.5t48.5 1.5t47.5 -1t35.5 -5q-9 -17 -13 -35t-4 -38l-1 -46q36 -1 71 -1h70q2 37 -2 70t-12 56q12 2 33.5 3t46 1
t48 -2t39.5 -5q-11 -26 -14 -58t-3 -62q18 1 33.5 2t23.5 4q5 -23 4 -42t-7 -44q-12 3 -26 3.5t-30 2.5l-3 -162q-1 -54 -1 -107.5v-108.5q0 -32 3 -65.5t16 -60.5q-81 -9 -166 -3q8 15 10.5 30.5t2.5 29.5q0 59 -1 117.5t0 123.5h-69.5t-70.5 -1q-1 -20 -1.5 -46t-1 -55.5
t-0.5 -59.5t1 -58q1 -25 5.5 -45.5t11.5 -37.5q-40 -4 -80 -4t-82 2zM343 515h-70.5t-70.5 -1l-1 -107q33 2 67.5 2t72.5 -1z" />
    <glyph glyph-name="uni012A" unicode="&#x12a;" horiz-adv-x="242" 
d="M36 4q8 19 10.5 40t2.5 38q0 125 1.5 255.5t3.5 288.5q0 21 -3.5 40.5t-11.5 38.5q35 4 80 5.5t85 0.5q-11 -19 -11 -42q0 -55 -2 -127t-3.5 -151t-3 -160t0.5 -154q0 -36 16 -71q-21 -2 -45 -3.5t-50 -1.5q-37 0 -70 3zM-52 854q91 2 180.5 2t167.5 -1q2 -18 0 -41
t-8 -43q-26 1 -71 1.5t-94 0.5t-94.5 -1t-71.5 -2q-3 5 -5 15.5t-3.5 23t-2 24.5t1.5 21z" />
    <glyph glyph-name="Ibreve" unicode="&#x12c;" horiz-adv-x="242" 
d="M36 4q8 19 10.5 40t2.5 38q0 125 1.5 255.5t3.5 288.5q0 21 -3.5 40.5t-11.5 38.5q35 4 80 5.5t85 0.5q-11 -19 -11 -42q0 -55 -2 -127t-3.5 -151t-3 -160t0.5 -154q0 -36 16 -71q-21 -2 -45 -3.5t-50 -1.5q-37 0 -70 3zM122 758q-33 0 -60.5 8t-48 24t-31.5 40t-10 56
q4 1 16.5 1.5t26.5 0.5h27t19 -1q1 -35 19 -51.5t44 -16.5q29 0 47 17t18 51q7 1 20 1h27t26 -0.5t15 -1.5q1 -33 -11.5 -57t-33.5 -39.5t-49.5 -23.5t-60.5 -8z" />
    <glyph glyph-name="Itilde" unicode="&#x128;" horiz-adv-x="242" 
d="M36 4q8 19 10.5 40t2.5 38q0 125 1.5 255.5t3.5 288.5q0 21 -3.5 40.5t-11.5 38.5q35 4 80 5.5t85 0.5q-11 -19 -11 -42q0 -55 -2 -127t-3.5 -151t-3 -160t0.5 -154q0 -36 16 -71q-21 -2 -45 -3.5t-50 -1.5q-37 0 -70 3zM216 907q13 1 31.5 0t32.5 -4q8 -27 7 -52.5
t-12.5 -46t-32.5 -32.5t-53 -12q-37 0 -62 16t-53 36q-7 5 -13.5 9t-11.5 4q-17 0 -26 -17t-10 -47q-17 1 -33.5 3t-28.5 6q-3 25 3 52t21 47q13 17 32 27t42 10q22 0 39.5 -10.5t34 -23.5t32 -23.5t32.5 -10.5q11 0 18 6.5t10 16t3 22t-2 24.5z" />
    <glyph glyph-name="Idotaccent" unicode="&#x130;" horiz-adv-x="242" 
d="M36 4q8 19 10.5 40t2.5 38q0 125 1.5 255.5t3.5 288.5q0 21 -3.5 40.5t-11.5 38.5q35 4 80 5.5t85 0.5q-11 -19 -11 -42q0 -55 -2 -127t-3.5 -151t-3 -160t0.5 -154q0 -36 16 -71q-21 -2 -45 -3.5t-50 -1.5q-37 0 -70 3zM116 910q33 0 58 -18.5t27 -54.5
q0 -34 -20.5 -55.5t-54.5 -21.5t-59.5 18t-27.5 55q0 33 21 54t56 23z" />
    <glyph glyph-name="uni0208" unicode="&#x208;" horiz-adv-x="242" 
d="M36 4q8 19 10.5 40t2.5 38q0 125 1.5 255.5t3.5 288.5q0 21 -3.5 40.5t-11.5 38.5q35 4 80 5.5t85 0.5q-11 -19 -11 -42q0 -55 -2 -127t-3.5 -151t-3 -160t0.5 -154q0 -36 16 -71q-21 -2 -45 -3.5t-50 -1.5q-37 0 -70 3zM29 894q35 7 72.5 6t70.5 -4l12 -23
q23 -26 48 -57.5t42 -51.5q-43 -4 -83 0q-17 11 -38 27.5t-43.5 34.5t-43.5 36t-37 32zM-163 894q35 7 72.5 6t70.5 -4l12 -23q23 -26 48 -57.5t42 -51.5q-43 -4 -83 0q-17 11 -38 27.5t-43.5 34.5t-43.5 36t-37 32z" />
    <glyph glyph-name="uni020A" unicode="&#x20a;" horiz-adv-x="242" 
d="M36 4q8 19 10.5 40t2.5 38q0 125 1.5 255.5t3.5 288.5q0 21 -3.5 40.5t-11.5 38.5q35 4 80 5.5t85 0.5q-11 -19 -11 -42q0 -55 -2 -127t-3.5 -151t-3 -160t0.5 -154q0 -36 16 -71q-21 -2 -45 -3.5t-50 -1.5q-37 0 -70 3zM121 893q32 0 60.5 -8t49.5 -24t33.5 -40
t11.5 -56q-3 -1 -15 -2t-26 -1h-27t-20 1q0 34 -18 51.5t-47 17.5q-26 0 -44.5 -17t-18.5 -52q-6 0 -19.5 -0.5t-27.5 0t-26.5 1t-16.5 1.5q0 31 11 55t31.5 40.5t48 24.5t60.5 8z" />
    <glyph glyph-name="Iogonek" unicode="&#x12e;" horiz-adv-x="242" 
d="M36 4q8 19 10.5 40t2.5 38q0 125 1.5 255.5t3.5 288.5q0 21 -3.5 40.5t-11.5 38.5q35 4 80 5.5t85 0.5q-11 -19 -11 -42q0 -55 -2 -127t-3.5 -151t-3 -160t0.5 -154q0 -36 16 -71l-39 -4q-17 -13 -36.5 -36t-26.5 -49q-6 -23 3 -40.5t35 -17.5q9 0 22 2.5t26 7.5
t24.5 11.5t18.5 14.5l-16 -90q-21 -15 -47.5 -19.5t-40.5 -4.5q-20 0 -39 4t-34.5 13t-25.5 24t-13 37q-2 18 2 37t13 37.5t22 35.5t30 31q-2 0 -8.5 0.5t-34.5 3.5z" />
    <glyph glyph-name="Jcircumflex" unicode="&#x134;" horiz-adv-x="420" 
d="M173 85q28 0 42.5 21.5t20.5 54.5t6 71.5v73.5q0 42 1 95t-0.5 107.5t-6.5 105.5t-17 90q23 4 49 5.5t52 1.5q19 0 37.5 -2.5t34.5 -8.5q-17 -24 -17 -61q0 -62 1.5 -136t1.5 -150q0 -50 -2 -97.5t-5 -90.5q-8 -91 -55.5 -133.5t-117.5 -42.5q-28 0 -55 6t-50.5 14.5
t-41.5 16.5t-29 11q0 25 3 53t7.5 56.5t9.5 56t9 50.5q8 -34 19.5 -64.5t26.5 -53.5t34 -36.5t42 -13.5zM349 765q-16 -3 -42 -4t-47 1q-19 14 -38 34t-41 43q-21 -23 -42.5 -42.5t-41.5 -36.5q-18 -2 -42 -1t-41 4q10 13 25 32t30.5 38.5t30 37.5t24.5 29q26 3 58 3t58 -2
q12 -14 27 -33t30.5 -38t29 -36.5t22.5 -28.5z" />
    <glyph glyph-name="IJ" unicode="&#x132;" horiz-adv-x="656" 
d="M36 4q8 19 10.5 40t2.5 38q0 125 1.5 255.5t3.5 288.5q0 21 -3.5 40.5t-11.5 38.5q35 4 80 5.5t85 0.5q-11 -19 -11 -42q0 -55 -2 -127t-3.5 -151t-3 -160t0.5 -154q0 -36 16 -71q-21 -2 -45 -3.5t-50 -1.5q-37 0 -70 3zM409 85q28 0 42.5 21.5t20.5 54.5t6 71.5v73.5
q0 42 1 95t-0.5 107.5t-6.5 105.5t-17 90q23 4 49 5.5t52 1.5q19 0 37.5 -2.5t34.5 -8.5q-17 -24 -17 -61q0 -62 1.5 -136t1.5 -150q0 -50 -2 -97.5t-5 -90.5q-8 -91 -55.5 -133.5t-117.5 -42.5q-28 0 -55 6t-50.5 14.5t-41.5 16.5t-29 11q0 25 3 53t7.5 56.5t9.5 56t9 50.5
q8 -34 19.5 -64.5t26.5 -53.5t34 -36.5t42 -13.5z" />
    <glyph glyph-name="Kcommaaccent" unicode="&#x136;" horiz-adv-x="489" 
d="M33 4q8 17 10.5 35.5t2.5 35.5q0 130 1.5 263t1.5 278q0 26 -3 48.5t-11 39.5q20 2 44.5 4t50.5 2q20 0 39.5 -0.5t35.5 -5.5q-17 -28 -17 -64q-2 -48 -3 -101t-1 -101q31 54 63.5 107.5t63.5 100.5q8 13 16 29.5t7 34.5q38 0 72.5 -3.5t64.5 -12.5q-14 -16 -36 -46.5
t-47 -68t-50.5 -79t-47.5 -79.5q18 -33 38.5 -73.5t40.5 -85.5t39 -92t34 -94q5 -15 13.5 -28t17.5 -22q-35 -12 -75.5 -19.5t-82.5 -6.5q-12 40 -27.5 85t-31 87t-30.5 76.5t-26 53.5l-20 -52v-109t2 -73q0 -13 3.5 -29.5t13.5 -30.5q-54 -6 -108 -6h-29t-29 2zM225 -180
q-22 -2 -40 14t-18 46q0 29 19.5 48.5t49.5 21.5q38 0 57.5 -22t19.5 -55q0 -43 -24.5 -84.5t-79.5 -72.5q-9 4 -16 9.5t-13 12.5q20 15 35 35.5t10 46.5z" />
    <glyph glyph-name="Ldot" unicode="&#x13f;" horiz-adv-x="401" 
d="M376 3q-63 -1 -110 -2t-82 -1q-61 0 -99.5 2t-49.5 5q8 23 9.5 47t1.5 45q0 131 2.5 270t3.5 269q0 18 -3 35t-12 32q27 3 55.5 5t59.5 2q14 0 29.5 -1.5t23.5 -7.5q-8 -14 -11.5 -31t-3.5 -36q0 -64 -1.5 -132t-3 -137t-2.5 -136t-1 -130q31 1 56.5 5t48 12.5t43.5 22
t42 33.5q3 -42 4 -83.5t0 -87.5zM318 466q33 0 58 -18.5t27 -54.5q0 -34 -20.5 -55.5t-54.5 -21.5t-59.5 18t-27.5 55q0 33 21 54t56 23z" />
    <glyph glyph-name="Lcommaaccent" unicode="&#x13b;" horiz-adv-x="405" 
d="M375 3q-63 -1 -110 -2t-82 -1q-61 0 -99.5 2t-49.5 5q8 23 9.5 47t1.5 45q0 131 2.5 270t3.5 269q0 18 -3 35t-12 32q27 3 55.5 5t59.5 2q14 0 29.5 -1.5t23.5 -7.5q-8 -14 -11.5 -31t-3.5 -36q0 -64 -1.5 -132t-3 -137t-2.5 -136t-1 -130q31 1 56.5 5t48 12.5t43.5 22
t42 33.5q3 -42 4 -83.5t0 -87.5zM196 -180q-22 -2 -40 14t-18 46q0 29 19.5 48.5t49.5 21.5q38 0 57.5 -22t19.5 -55q0 -43 -24.5 -84.5t-79.5 -72.5q-9 4 -16 9.5t-13 12.5q20 15 35 35.5t10 46.5z" />
    <glyph glyph-name="Lacute" unicode="&#x139;" horiz-adv-x="405" 
d="M375 3q-63 -1 -110 -2t-82 -1q-61 0 -99.5 2t-49.5 5q8 23 9.5 47t1.5 45q0 131 2.5 270t3.5 269q0 18 -3 35t-12 32q27 3 55.5 5t59.5 2q14 0 29.5 -1.5t23.5 -7.5q-8 -14 -11.5 -31t-3.5 -36q0 -64 -1.5 -132t-3 -137t-2.5 -136t-1 -130q31 1 56.5 5t48 12.5t43.5 22
t42 33.5q3 -42 4 -83.5t0 -87.5zM344 895q-18 -14 -40.5 -32t-46.5 -36.5t-47 -35t-42 -28.5q-23 -1 -45 -1t-43 2q9 10 21 23.5t25 28t26.5 29.5t26.5 28q7 15 12 23q38 2 77.5 2.5t75.5 -3.5z" />
    <glyph glyph-name="Lcaron" unicode="&#x13d;" horiz-adv-x="451" 
d="M300 505q16 16 31 37.5t13 44.5q-14 -2 -27 1.5t-23.5 12t-17 23t-6.5 35.5q0 33 22 53.5t54 21.5q38 0 60 -22.5t23 -57.5q0 -42 -22 -86t-73 -79q-9 2 -19 6.5t-15 9.5zM375 3q-63 -1 -110 -2t-82 -1q-61 0 -99.5 2t-49.5 5q8 23 9.5 47t1.5 45q0 131 2.5 270t3.5 269
q0 18 -3 35t-12 32q27 3 55.5 5t59.5 2q14 0 29.5 -1.5t23.5 -7.5q-8 -14 -11.5 -31t-3.5 -36q0 -64 -1.5 -132t-3 -137t-2.5 -136t-1 -130q31 1 56.5 5t48 12.5t43.5 22t42 33.5q3 -42 4 -83.5t0 -87.5z" />
    <glyph glyph-name="Ncaron" unicode="&#x147;" horiz-adv-x="508" 
d="M192 7q-38 -5 -78 -6.5t-79 1.5q8 17 10 34.5t3 37.5q2 58 3.5 133.5t2.5 154t0.5 153.5t-1.5 132q0 41 -14 61q37 3 73.5 4t74.5 -1q34 -98 70 -193t81 -201q1 75 2 153t0 165q0 22 -3.5 39.5t-9.5 31.5q38 4 75.5 4.5t75.5 -1.5q-11 -21 -15 -41.5t-4 -42.5
q-2 -81 -3 -164t-1 -168q0 -36 -0.5 -73.5t0 -74.5t3 -73.5t9.5 -69.5q-26 -3 -55 -4.5t-58 -1.5q-19 37 -42.5 85.5t-48.5 103.5t-49 113t-44 115q-3 -78 -3 -156.5t4 -167.5q1 -23 7 -44t14 -38zM428 901q-9 -11 -22.5 -28.5t-29 -36.5t-30.5 -38t-27 -33q-26 -2 -58 -2
t-58 3q-10 11 -24.5 29t-30 37.5t-30.5 38t-25 32.5q17 3 41 4t42 -1q20 -17 41.5 -36.5t42.5 -42.5q22 23 41 43t38 34q21 2 47 1t42 -4z" />
    <glyph glyph-name="Nacute" unicode="&#x143;" horiz-adv-x="508" 
d="M192 7q-38 -5 -78 -6.5t-79 1.5q8 17 10 34.5t3 37.5q2 58 3.5 133.5t2.5 154t0.5 153.5t-1.5 132q0 41 -14 61q37 3 73.5 4t74.5 -1q34 -98 70 -193t81 -201q1 75 2 153t0 165q0 22 -3.5 39.5t-9.5 31.5q38 4 75.5 4.5t75.5 -1.5q-11 -21 -15 -41.5t-4 -42.5
q-2 -81 -3 -164t-1 -168q0 -36 -0.5 -73.5t0 -74.5t3 -73.5t9.5 -69.5q-26 -3 -55 -4.5t-58 -1.5q-19 37 -42.5 85.5t-48.5 103.5t-49 113t-44 115q-3 -78 -3 -156.5t4 -167.5q1 -23 7 -44t14 -38zM467 895q-18 -14 -40.5 -32t-46.5 -36.5t-47 -35t-42 -28.5q-23 -1 -45 -1
t-43 2q9 10 21 23.5t25 28t26.5 29.5t26.5 28q7 15 12 23q38 2 77.5 2.5t75.5 -3.5z" />
    <glyph glyph-name="Ncommaaccent" unicode="&#x145;" horiz-adv-x="508" 
d="M192 7q-38 -5 -78 -6.5t-79 1.5q8 17 10 34.5t3 37.5q2 58 3.5 133.5t2.5 154t0.5 153.5t-1.5 132q0 41 -14 61q37 3 73.5 4t74.5 -1q34 -98 70 -193t81 -201q1 75 2 153t0 165q0 22 -3.5 39.5t-9.5 31.5q38 4 75.5 4.5t75.5 -1.5q-11 -21 -15 -41.5t-4 -42.5
q-2 -81 -3 -164t-1 -168q0 -36 -0.5 -73.5t0 -74.5t3 -73.5t9.5 -69.5q-26 -3 -55 -4.5t-58 -1.5q-19 37 -42.5 85.5t-48.5 103.5t-49 113t-44 115q-3 -78 -3 -156.5t4 -167.5q1 -23 7 -44t14 -38zM258 -180q-22 -2 -40 14t-18 46q0 29 19.5 48.5t49.5 21.5q38 0 57.5 -22
t19.5 -55q0 -43 -24.5 -84.5t-79.5 -72.5q-9 4 -16 9.5t-13 12.5q20 15 35 35.5t10 46.5z" />
    <glyph glyph-name="Eng" unicode="&#x14a;" horiz-adv-x="508" 
d="M192 7q-38 -5 -78 -6.5t-79 1.5q8 17 10 34.5t3 37.5q2 58 3.5 133.5t2.5 154t0.5 153.5t-1.5 132q0 41 -14 61q37 3 73.5 4t74.5 -1q34 -98 71 -193t82 -201q1 75 1.5 153t-1.5 165q-1 41 -14 71q38 4 76 4.5t76 -1.5q-11 -21 -15 -41.5t-4 -42.5v-196t-0.5 -154
t-1 -120.5t-1.5 -96t-2 -80.5t-3 -74q-3 -60 -40 -94.5t-97 -34.5q-13 0 -25.5 2.5t-25 4.5t-25.5 2t-26 -4q-5 29 -7 65.5t-2 68.5q11 -24 35 -38t43 -13q7 0 16 2.5t16.5 8.5t13 16t6.5 24q2 31 2.5 62.5t-0.5 63.5q-18 37 -40 81.5t-44 93t-43 98.5t-38 100
q-3 -78 -3 -156.5t4 -167.5q1 -23 7 -44t14 -38z" />
    <glyph glyph-name="Omacron" unicode="&#x14c;" horiz-adv-x="530" 
d="M272 615q-26 -2 -44 -27.5t-29 -64.5t-16 -87.5t-5 -94.5q0 -48 4 -93t13.5 -80.5t26 -56.5t41.5 -21t42.5 23.5t28 62.5t15.5 88.5t5 101.5q0 49 -3.5 94t-13 79.5t-25.5 55t-40 20.5zM275 718q59 0 101.5 -25.5t70 -71t40.5 -109.5t13 -141q0 -189 -63 -287.5
t-178 -98.5q-62 0 -105.5 27.5t-71 76.5t-40 114.5t-12.5 142.5q0 94 17 165.5t48.5 119.5t75 73t97.5 27q2 -2 3.5 -6.5t3.5 -6.5zM95 854q91 2 180.5 2t167.5 -1q2 -18 0 -41t-8 -43q-26 1 -71 1.5t-94 0.5t-94.5 -1t-71.5 -2q-3 5 -5 15.5t-3.5 23t-2 24.5t1.5 21z" />
    <glyph glyph-name="Obreve" unicode="&#x14e;" horiz-adv-x="530" 
d="M272 615q-26 -2 -44 -27.5t-29 -64.5t-16 -87.5t-5 -94.5q0 -48 4 -93t13.5 -80.5t26 -56.5t41.5 -21t42.5 23.5t28 62.5t15.5 88.5t5 101.5q0 49 -3.5 94t-13 79.5t-25.5 55t-40 20.5zM275 718q59 0 101.5 -25.5t70 -71t40.5 -109.5t13 -141q0 -189 -63 -287.5
t-178 -98.5q-62 0 -105.5 27.5t-71 76.5t-40 114.5t-12.5 142.5q0 94 17 165.5t48.5 119.5t75 73t97.5 27q2 -2 3.5 -6.5t3.5 -6.5zM271 758q-33 0 -60.5 8t-48 24t-31.5 40t-10 56q4 1 16.5 1.5t26.5 0.5h27t19 -1q1 -35 19 -51.5t44 -16.5q29 0 47 17t18 51q7 1 20 1h27
t26 -0.5t15 -1.5q1 -33 -11.5 -57t-33.5 -39.5t-49.5 -23.5t-60.5 -8z" />
    <glyph glyph-name="Ohorn" unicode="&#x1a0;" horiz-adv-x="530" 
d="M374 818q7 4 19.5 8.5t26 8t25.5 6.5t19 3q30 -8 44.5 -27.5t14.5 -48.5q0 -41 -25.5 -69.5t-80.5 -38.5q43 -45 63 -119t20 -170q0 -189 -63 -287.5t-178 -98.5q-62 0 -105.5 27.5t-71 76.5t-40 114.5t-12.5 142.5q0 94 17 165.5t48.5 119.5t75 73t97.5 27
q2 -2 3.5 -6.5t3.5 -6.5q40 0 73 -12q45 0 61 14t16 38q0 17 -14.5 32.5t-36.5 27.5zM272 615q-26 -2 -44 -27.5t-29 -64.5t-16 -87.5t-5 -94.5q0 -48 4 -93t13.5 -80.5t26 -56.5t41.5 -21t42.5 23.5t28 62.5t15.5 88.5t5 101.5q0 49 -3.5 94t-13 79.5t-25.5 55t-40 20.5z
" />
    <glyph glyph-name="Oslashacute" unicode="&#x1fe;" horiz-adv-x="529" 
d="M30 343q0 36 4 79t13.5 86t26.5 83t43 71t62 49.5t85 19.5q4 -3 7 -9q23 0 48 -8t45 -23q10 20 16 34.5t10 23.5q17 -2 32.5 -4t32.5 -7q-11 -21 -19.5 -39.5t-18.5 -41.5q20 -20 35.5 -51t26 -68.5t15.5 -79t5 -81.5q0 -84 -14 -155.5t-43 -123t-75 -81t-109 -29.5
q-26 0 -54 7.5t-49 23.5q-6 -17 -10 -30.5t-8 -23.5q-18 0 -35 1.5t-31 5.5q4 12 11 31.5t24 59.5q-20 21 -34.5 51t-23.5 66.5t-13.5 78t-4.5 84.5zM313 577q-3 14 -16.5 26t-31.5 12q-13 0 -25.5 -9t-21.5 -23q-11 -18 -19.5 -43.5t-14.5 -54t-9.5 -56.5t-3.5 -50
q-1 -35 2 -76t9 -73q29 84 65 173t66 174zM217 133q4 -16 17 -30.5t30 -14.5q23 0 40 20.5t27.5 54.5t15.5 76.5t5 86.5q0 43 -0.5 85t-6.5 68q-18 -50 -34 -92.5t-31.5 -83t-31 -81.5t-31.5 -89zM451 895q-18 -14 -40.5 -32t-46.5 -36.5t-47 -35t-42 -28.5q-23 -1 -45 -1
t-43 2q9 10 21 23.5t25 28t26.5 29.5t26.5 28q7 15 12 23q38 2 77.5 2.5t75.5 -3.5z" />
    <glyph glyph-name="uni020C" unicode="&#x20c;" horiz-adv-x="530" 
d="M272 615q-26 -2 -44 -27.5t-29 -64.5t-16 -87.5t-5 -94.5q0 -48 4 -93t13.5 -80.5t26 -56.5t41.5 -21t42.5 23.5t28 62.5t15.5 88.5t5 101.5q0 49 -3.5 94t-13 79.5t-25.5 55t-40 20.5zM275 718q59 0 101.5 -25.5t70 -71t40.5 -109.5t13 -141q0 -189 -63 -287.5
t-178 -98.5q-62 0 -105.5 27.5t-71 76.5t-40 114.5t-12.5 142.5q0 94 17 165.5t48.5 119.5t75 73t97.5 27q2 -2 3.5 -6.5t3.5 -6.5zM159 894q35 7 72.5 6t70.5 -4l12 -23q23 -26 48 -57.5t42 -51.5q-43 -4 -83 0q-17 11 -38 27.5t-43.5 34.5t-43.5 36t-37 32zM-33 894
q35 7 72.5 6t70.5 -4l12 -23q23 -26 48 -57.5t42 -51.5q-43 -4 -83 0q-17 11 -38 27.5t-43.5 34.5t-43.5 36t-37 32z" />
    <glyph glyph-name="Ohungarumlaut" unicode="&#x150;" horiz-adv-x="530" 
d="M272 615q-26 -2 -44 -27.5t-29 -64.5t-16 -87.5t-5 -94.5q0 -48 4 -93t13.5 -80.5t26 -56.5t41.5 -21t42.5 23.5t28 62.5t15.5 88.5t5 101.5q0 49 -3.5 94t-13 79.5t-25.5 55t-40 20.5zM275 718q59 0 101.5 -25.5t70 -71t40.5 -109.5t13 -141q0 -189 -63 -287.5
t-178 -98.5q-62 0 -105.5 27.5t-71 76.5t-40 114.5t-12.5 142.5q0 94 17 165.5t48.5 119.5t75 73t97.5 27q2 -2 3.5 -6.5t3.5 -6.5zM371 894q-16 -14 -37 -32t-43.5 -36t-44 -34.5t-37.5 -27.5q-40 -4 -83 0q17 20 42 51.5t48 57.5l12 23q33 3 70.5 4t72.5 -6zM563 894
q-16 -14 -37 -32t-43.5 -36t-44 -34.5t-37.5 -27.5q-40 -4 -83 0q17 20 42 51.5t48 57.5l12 23q33 3 70.5 4t72.5 -6z" />
    <glyph glyph-name="uni020E" unicode="&#x20e;" horiz-adv-x="530" 
d="M272 615q-26 -2 -44 -27.5t-29 -64.5t-16 -87.5t-5 -94.5q0 -48 4 -93t13.5 -80.5t26 -56.5t41.5 -21t42.5 23.5t28 62.5t15.5 88.5t5 101.5q0 49 -3.5 94t-13 79.5t-25.5 55t-40 20.5zM275 718q59 0 101.5 -25.5t70 -71t40.5 -109.5t13 -141q0 -189 -63 -287.5
t-178 -98.5q-62 0 -105.5 27.5t-71 76.5t-40 114.5t-12.5 142.5q0 94 17 165.5t48.5 119.5t75 73t97.5 27q2 -2 3.5 -6.5t3.5 -6.5zM268 893q32 0 60.5 -8t49.5 -24t33.5 -40t11.5 -56q-3 -1 -15 -2t-26 -1h-27t-20 1q0 34 -18 51.5t-47 17.5q-26 0 -44.5 -17t-18.5 -52
q-6 0 -19.5 -0.5t-27.5 0t-26.5 1t-16.5 1.5q0 31 11 55t31.5 40.5t48 24.5t60.5 8z" />
    <glyph glyph-name="Rcaron" unicode="&#x158;" horiz-adv-x="474" 
d="M178 348q33 3 58 19t42 38.5t25.5 50t8.5 54.5q-5 57 -38 82.5t-90 21.5q-3 -79 -4.5 -141.5t-1.5 -124.5zM307 288q18 -19 34 -43.5t31 -52t29 -57t29 -57.5q9 -18 18 -33.5t21 -27.5q-13 -4 -31.5 -7.5t-38.5 -6t-41.5 -4t-40.5 -1.5q-9 19 -24 54.5t-34 74t-39.5 73
t-39.5 51.5q0 -12 -0.5 -21.5t-0.5 -21.5q0 -25 -0.5 -52t0.5 -54t5.5 -51.5t15.5 -43.5q-23 -4 -48 -5.5t-51 -1.5q-17 0 -33.5 1t-31.5 5q7 15 9.5 29t2.5 31q0 39 -1 78t-1 79q0 107 3 209.5t5 190.5q-2 18 -9 38.5t-15 34.5q32 10 71 14t93 4q127 0 187 -51t60 -169
q0 -77 -35.5 -130t-98.5 -76zM403 901q-9 -11 -22.5 -28.5t-29 -36.5t-30.5 -38t-27 -33q-26 -2 -58 -2t-58 3q-10 11 -24.5 29t-30 37.5t-30.5 38t-25 32.5q17 3 41 4t42 -1q20 -17 41.5 -36.5t42.5 -42.5q22 23 41 43t38 34q21 2 47 1t42 -4z" />
    <glyph glyph-name="Racute" unicode="&#x154;" horiz-adv-x="474" 
d="M178 348q33 3 58 19t42 38.5t25.5 50t8.5 54.5q-5 57 -38 82.5t-90 21.5q-3 -79 -4.5 -141.5t-1.5 -124.5zM307 288q18 -19 34 -43.5t31 -52t29 -57t29 -57.5q9 -18 18 -33.5t21 -27.5q-13 -4 -31.5 -7.5t-38.5 -6t-41.5 -4t-40.5 -1.5q-9 19 -24 54.5t-34 74t-39.5 73
t-39.5 51.5q0 -12 -0.5 -21.5t-0.5 -21.5q0 -25 -0.5 -52t0.5 -54t5.5 -51.5t15.5 -43.5q-23 -4 -48 -5.5t-51 -1.5q-17 0 -33.5 1t-31.5 5q7 15 9.5 29t2.5 31q0 39 -1 78t-1 79q0 107 3 209.5t5 190.5q-2 18 -9 38.5t-15 34.5q32 10 71 14t93 4q127 0 187 -51t60 -169
q0 -77 -35.5 -130t-98.5 -76zM431 895q-18 -14 -40.5 -32t-46.5 -36.5t-47 -35t-42 -28.5q-23 -1 -45 -1t-43 2q9 10 21 23.5t25 28t26.5 29.5t26.5 28q7 15 12 23q38 2 77.5 2.5t75.5 -3.5z" />
    <glyph glyph-name="Rcommaaccent" unicode="&#x156;" horiz-adv-x="474" 
d="M178 348q33 3 58 19t42 38.5t25.5 50t8.5 54.5q-5 57 -38 82.5t-90 21.5q-3 -79 -4.5 -141.5t-1.5 -124.5zM307 288q18 -19 34 -43.5t31 -52t29 -57t29 -57.5q9 -18 18 -33.5t21 -27.5q-13 -4 -31.5 -7.5t-38.5 -6t-41.5 -4t-40.5 -1.5q-9 19 -24 54.5t-34 74t-39.5 73
t-39.5 51.5q0 -12 -0.5 -21.5t-0.5 -21.5q0 -25 -0.5 -52t0.5 -54t5.5 -51.5t15.5 -43.5q-23 -4 -48 -5.5t-51 -1.5q-17 0 -33.5 1t-31.5 5q7 15 9.5 29t2.5 31q0 39 -1 78t-1 79q0 107 3 209.5t5 190.5q-2 18 -9 38.5t-15 34.5q32 10 71 14t93 4q127 0 187 -51t60 -169
q0 -77 -35.5 -130t-98.5 -76zM223 -180q-22 -2 -40 14t-18 46q0 29 19.5 48.5t49.5 21.5q38 0 57.5 -22t19.5 -55q0 -43 -24.5 -84.5t-79.5 -72.5q-9 4 -16 9.5t-13 12.5q20 15 35 35.5t10 46.5z" />
    <glyph glyph-name="uni0210" unicode="&#x210;" horiz-adv-x="474" 
d="M178 348q33 3 58 19t42 38.5t25.5 50t8.5 54.5q-5 57 -38 82.5t-90 21.5q-3 -79 -4.5 -141.5t-1.5 -124.5zM307 288q18 -19 34 -43.5t31 -52t29 -57t29 -57.5q9 -18 18 -33.5t21 -27.5q-13 -4 -31.5 -7.5t-38.5 -6t-41.5 -4t-40.5 -1.5q-9 19 -24 54.5t-34 74t-39.5 73
t-39.5 51.5q0 -12 -0.5 -21.5t-0.5 -21.5q0 -25 -0.5 -52t0.5 -54t5.5 -51.5t15.5 -43.5q-23 -4 -48 -5.5t-51 -1.5q-17 0 -33.5 1t-31.5 5q7 15 9.5 29t2.5 31q0 39 -1 78t-1 79q0 107 3 209.5t5 190.5q-2 18 -9 38.5t-15 34.5q32 10 71 14t93 4q127 0 187 -51t60 -169
q0 -77 -35.5 -130t-98.5 -76zM147 894q35 7 72.5 6t70.5 -4l12 -23q23 -26 48 -57.5t42 -51.5q-43 -4 -83 0q-17 11 -38 27.5t-43.5 34.5t-43.5 36t-37 32zM-45 894q35 7 72.5 6t70.5 -4l12 -23q23 -26 48 -57.5t42 -51.5q-43 -4 -83 0q-17 11 -38 27.5t-43.5 34.5t-43.5 36
t-37 32z" />
    <glyph glyph-name="uni0212" unicode="&#x212;" horiz-adv-x="474" 
d="M178 348q33 3 58 19t42 38.5t25.5 50t8.5 54.5q-5 57 -38 82.5t-90 21.5q-3 -79 -4.5 -141.5t-1.5 -124.5zM307 288q18 -19 34 -43.5t31 -52t29 -57t29 -57.5q9 -18 18 -33.5t21 -27.5q-13 -4 -31.5 -7.5t-38.5 -6t-41.5 -4t-40.5 -1.5q-9 19 -24 54.5t-34 74t-39.5 73
t-39.5 51.5q0 -12 -0.5 -21.5t-0.5 -21.5q0 -25 -0.5 -52t0.5 -54t5.5 -51.5t15.5 -43.5q-23 -4 -48 -5.5t-51 -1.5q-17 0 -33.5 1t-31.5 5q7 15 9.5 29t2.5 31q0 39 -1 78t-1 79q0 107 3 209.5t5 190.5q-2 18 -9 38.5t-15 34.5q32 10 71 14t93 4q127 0 187 -51t60 -169
q0 -77 -35.5 -130t-98.5 -76zM235 893q32 0 60.5 -8t49.5 -24t33.5 -40t11.5 -56q-3 -1 -15 -2t-26 -1h-27t-20 1q0 34 -18 51.5t-47 17.5q-26 0 -44.5 -17t-18.5 -52q-6 0 -19.5 -0.5t-27.5 0t-26.5 1t-16.5 1.5q0 31 11 55t31.5 40.5t48 24.5t60.5 8z" />
    <glyph glyph-name="Scircumflex" unicode="&#x15c;" horiz-adv-x="451" 
d="M51 26q0 54 7 103.5t14 98.5q26 -76 58 -110t74 -34q74 0 74 69q0 31 -15.5 54.5t-39 43.5t-49.5 37.5t-47 35.5q-24 21 -42 40t-30 40t-18 45.5t-6 55.5q0 43 14.5 82.5t42.5 68.5t69 46.5t95 17.5q42 0 85 -11t75 -29q-2 -31 -18 -77t-51 -116q-8 66 -30 95.5t-61 30.5
q-45 1 -66 -30t-18 -77q2 -39 28 -67.5t69 -54.5q31 -19 59 -40.5t49.5 -47.5t34 -58t12.5 -72q0 -49 -15.5 -82.5t-42 -54.5t-62.5 -30t-78 -9q-27 0 -52.5 5t-47.5 11t-40 12t-31 8zM399 765q-16 -3 -42 -4t-47 1q-19 14 -38 34t-41 43q-21 -23 -42.5 -42.5t-41.5 -36.5
q-18 -2 -42 -1t-41 4q10 13 25 32t30.5 38.5t30 37.5t24.5 29q26 3 58 3t58 -2q12 -14 27 -33t30.5 -38t29 -36.5t22.5 -28.5z" />
    <glyph glyph-name="Sacute" unicode="&#x15a;" horiz-adv-x="451" 
d="M51 26q0 54 7 103.5t14 98.5q26 -76 58 -110t74 -34q74 0 74 69q0 31 -15.5 54.5t-39 43.5t-49.5 37.5t-47 35.5q-24 21 -42 40t-30 40t-18 45.5t-6 55.5q0 43 14.5 82.5t42.5 68.5t69 46.5t95 17.5q42 0 85 -11t75 -29q-2 -31 -18 -77t-51 -116q-8 66 -30 95.5t-61 30.5
q-45 1 -66 -30t-18 -77q2 -39 28 -67.5t69 -54.5q31 -19 59 -40.5t49.5 -47.5t34 -58t12.5 -72q0 -49 -15.5 -82.5t-42 -54.5t-62.5 -30t-78 -9q-27 0 -52.5 5t-47.5 11t-40 12t-31 8zM451 895q-18 -14 -40.5 -32t-46.5 -36.5t-47 -35t-42 -28.5q-23 -1 -45 -1t-43 2
q9 10 21 23.5t25 28t26.5 29.5t26.5 28q7 15 12 23q38 2 77.5 2.5t75.5 -3.5z" />
    <glyph glyph-name="Scedilla" unicode="&#x15e;" horiz-adv-x="451" 
d="M51 26q0 54 7 103.5t14 98.5q26 -76 58 -110t74 -34q74 0 74 69q0 31 -15.5 54.5t-39 43.5t-49.5 37.5t-47 35.5q-24 21 -42 40t-30 40t-18 45.5t-6 55.5q0 43 14.5 82.5t42.5 68.5t69 46.5t95 17.5q42 0 85 -11t75 -29q-2 -31 -18 -77t-51 -116q-8 66 -30 95.5t-61 30.5
q-45 1 -66 -30t-18 -77q2 -39 28 -67.5t69 -54.5q31 -19 59 -40.5t49.5 -47.5t34 -58t12.5 -72q0 -43 -12 -74t-33 -52t-50 -32.5t-63 -15.5l-30 -50q5 1 11.5 1.5t14.5 0.5q36 0 62 -20t26 -61q0 -25 -10 -44t-27 -32.5t-40 -20.5t-49 -7q-30 0 -59 9t-44 28q1 8 2.5 18
t3.5 18q13 -8 32.5 -14t37.5 -6q21 0 39.5 11.5t18.5 35.5q0 19 -11 29t-27.5 14.5t-35 5t-34.5 0.5q11 17 28.5 41t34.5 42q-25 1 -48 6t-42.5 11t-36 11t-28.5 7z" />
    <glyph glyph-name="Scommaaccent" unicode="&#x218;" horiz-adv-x="451" 
d="M51 26q0 54 7 103.5t14 98.5q26 -76 58 -110t74 -34q74 0 74 69q0 31 -15.5 54.5t-39 43.5t-49.5 37.5t-47 35.5q-24 21 -42 40t-30 40t-18 45.5t-6 55.5q0 43 14.5 82.5t42.5 68.5t69 46.5t95 17.5q42 0 85 -11t75 -29q-2 -31 -18 -77t-51 -116q-8 66 -30 95.5t-61 30.5
q-45 1 -66 -30t-18 -77q2 -39 28 -67.5t69 -54.5q31 -19 59 -40.5t49.5 -47.5t34 -58t12.5 -72q0 -49 -15.5 -82.5t-42 -54.5t-62.5 -30t-78 -9q-27 0 -52.5 5t-47.5 11t-40 12t-31 8zM225 -180q-22 -2 -40 14t-18 46q0 29 19.5 48.5t49.5 21.5q38 0 57.5 -22t19.5 -55
q0 -43 -24.5 -84.5t-79.5 -72.5q-9 4 -16 9.5t-13 12.5q20 15 35 35.5t10 46.5z" />
    <glyph glyph-name="Tcommaaccent" unicode="&#x162;" horiz-adv-x="453" 
d="M425 558q-15 16 -32.5 26t-35.5 16t-35 9t-31 3q-3 -130 -3 -260t4 -271q1 -17 4 -36t13 -38q-42 -5 -83.5 -5.5t-84.5 1.5q9 20 11.5 39.5t2.5 37.5v123t0.5 127t0.5 135v147q-29 -2 -61.5 -13t-66.5 -44q-2 36 -1 78t4 75q96 5 192.5 5t199.5 -4q3 -35 3.5 -75
t-1.5 -76zM207 -180q-22 -2 -40 14t-18 46q0 29 19.5 48.5t49.5 21.5q38 0 57.5 -22t19.5 -55q0 -43 -24.5 -84.5t-79.5 -72.5q-9 4 -16 9.5t-13 12.5q20 15 35 35.5t10 46.5z" />
    <glyph glyph-name="Tbar" unicode="&#x166;" horiz-adv-x="453" 
d="M425 558q-15 16 -32.5 26t-35.5 16t-35 9t-31 3q-3 -117 -3 -237h30.5t34.5 1t33 2.5t27 4.5q4 -23 3.5 -44.5t-5.5 -46.5q-27 8 -60.5 9.5t-62.5 0.5q0 -54 1 -109t3 -112q1 -17 4 -36t13 -38q-42 -5 -83.5 -5.5t-84.5 1.5q9 20 11.5 39.5t2.5 37.5v222q-26 0 -55 -1
t-58 -7q-5 21 -6 43.5t4 47.5q9 -2 23.5 -3.5t30.5 -2.5t32.5 -1.5t29.5 -0.5v235q-29 -2 -61.5 -13t-66.5 -44q-2 36 -1 78t4 75q96 5 192.5 5t199.5 -4q3 -35 3.5 -75t-1.5 -76z" />
    <glyph glyph-name="Tcaron" unicode="&#x164;" horiz-adv-x="453" 
d="M425 558q-15 16 -32.5 26t-35.5 16t-35 9t-31 3q-3 -130 -3 -260t4 -271q1 -17 4 -36t13 -38q-42 -5 -83.5 -5.5t-84.5 1.5q9 20 11.5 39.5t2.5 37.5v123t0.5 127t0.5 135v147q-29 -2 -61.5 -13t-66.5 -44q-2 36 -1 78t4 75q96 5 192.5 5t199.5 -4q3 -35 3.5 -75
t-1.5 -76zM393 901q-9 -11 -22.5 -28.5t-29 -36.5t-30.5 -38t-27 -33q-26 -2 -58 -2t-58 3q-10 11 -24.5 29t-30 37.5t-30.5 38t-25 32.5q17 3 41 4t42 -1q20 -17 41.5 -36.5t42.5 -42.5q22 23 41 43t38 34q21 2 47 1t42 -4z" />
    <glyph glyph-name="uni021A" unicode="&#x21a;" horiz-adv-x="453" 
d="M425 558q-15 16 -32.5 26t-35.5 16t-35 9t-31 3q-3 -130 -3 -260t4 -271q1 -17 4 -36t13 -38q-42 -5 -83.5 -5.5t-84.5 1.5q9 20 11.5 39.5t2.5 37.5v123t0.5 127t0.5 135v147q-29 -2 -61.5 -13t-66.5 -44q-2 36 -1 78t4 75q96 5 192.5 5t199.5 -4q3 -35 3.5 -75
t-1.5 -76zM207 -180q-22 -2 -40 14t-18 46q0 29 19.5 48.5t49.5 21.5q38 0 57.5 -22t19.5 -55q0 -43 -24.5 -84.5t-79.5 -72.5q-9 4 -16 9.5t-13 12.5q20 15 35 35.5t10 46.5z" />
    <glyph glyph-name="Umacron" unicode="&#x16a;" 
d="M442 254q0 -30 -2 -61t-8 -58.5t-16.5 -51.5t-26.5 -40q-21 -21 -44.5 -31.5t-45 -14.5t-37.5 -4h-22q-61 -1 -101 20t-61 59q-20 35 -25 81.5t-6 99.5q-1 90 1 189.5t4 187.5q0 40 -16 77q38 3 83.5 3.5t83.5 -1.5q-15 -36 -15 -77q-1 -90 -4.5 -178.5t-1.5 -176.5
q0 -29 0.5 -61.5t6 -59.5t19 -44t40.5 -17q37 1 51 26t16 61q1 22 1.5 60.5t0.5 84.5v94.5t-1 90.5t-2 73t-2 43q-3 39 -15 75q16 1 36.5 2.5t41.5 2t41 1t37 -0.5q-7 -20 -10.5 -41.5t-3.5 -40.5q1 -44 1.5 -75t1 -56.5t0.5 -48v-49v-61v-82.5zM75 854q91 2 180.5 2
t167.5 -1q2 -18 0 -41t-8 -43q-26 1 -71 1.5t-94 0.5t-94.5 -1t-71.5 -2q-3 5 -5 15.5t-3.5 23t-2 24.5t1.5 21z" />
    <glyph glyph-name="Ubreve" unicode="&#x16c;" 
d="M442 254q0 -30 -2 -61t-8 -58.5t-16.5 -51.5t-26.5 -40q-21 -21 -44.5 -31.5t-45 -14.5t-37.5 -4h-22q-61 -1 -101 20t-61 59q-20 35 -25 81.5t-6 99.5q-1 90 1 189.5t4 187.5q0 40 -16 77q38 3 83.5 3.5t83.5 -1.5q-15 -36 -15 -77q-1 -90 -4.5 -178.5t-1.5 -176.5
q0 -29 0.5 -61.5t6 -59.5t19 -44t40.5 -17q37 1 51 26t16 61q1 22 1.5 60.5t0.5 84.5v94.5t-1 90.5t-2 73t-2 43q-3 39 -15 75q16 1 36.5 2.5t41.5 2t41 1t37 -0.5q-7 -20 -10.5 -41.5t-3.5 -40.5q1 -44 1.5 -75t1 -56.5t0.5 -48v-49v-61v-82.5zM242 758q-33 0 -60.5 8
t-48 24t-31.5 40t-10 56q4 1 16.5 1.5t26.5 0.5h27t19 -1q1 -35 19 -51.5t44 -16.5q29 0 47 17t18 51q7 1 20 1h27t26 -0.5t15 -1.5q1 -33 -11.5 -57t-33.5 -39.5t-49.5 -23.5t-60.5 -8z" />
    <glyph glyph-name="Utilde" unicode="&#x168;" 
d="M442 254q0 -30 -2 -61t-8 -58.5t-16.5 -51.5t-26.5 -40q-21 -21 -44.5 -31.5t-45 -14.5t-37.5 -4h-22q-61 -1 -101 20t-61 59q-20 35 -25 81.5t-6 99.5q-1 90 1 189.5t4 187.5q0 40 -16 77q38 3 83.5 3.5t83.5 -1.5q-15 -36 -15 -77q-1 -90 -4.5 -178.5t-1.5 -176.5
q0 -29 0.5 -61.5t6 -59.5t19 -44t40.5 -17q37 1 51 26t16 61q1 22 1.5 60.5t0.5 84.5v94.5t-1 90.5t-2 73t-2 43q-3 39 -15 75q16 1 36.5 2.5t41.5 2t41 1t37 -0.5q-7 -20 -10.5 -41.5t-3.5 -40.5q1 -44 1.5 -75t1 -56.5t0.5 -48v-49v-61v-82.5zM342 907q13 1 31.5 0
t32.5 -4q8 -27 7 -52.5t-12.5 -46t-32.5 -32.5t-53 -12q-37 0 -62 16t-53 36q-7 5 -13.5 9t-11.5 4q-17 0 -26 -17t-10 -47q-17 1 -33.5 3t-28.5 6q-3 25 3 52t21 47q13 17 32 27t42 10q22 0 39.5 -10.5t34 -23.5t32 -23.5t32.5 -10.5q11 0 18 6.5t10 16t3 22t-2 24.5z" />
    <glyph glyph-name="Uring" unicode="&#x16e;" 
d="M442 254q0 -30 -2 -61t-8 -58.5t-16.5 -51.5t-26.5 -40q-21 -21 -44.5 -31.5t-45 -14.5t-37.5 -4h-22q-61 -1 -101 20t-61 59q-20 35 -25 81.5t-6 99.5q-1 90 1 189.5t4 187.5q0 40 -16 77q38 3 83.5 3.5t83.5 -1.5q-15 -36 -15 -77q-1 -90 -4.5 -178.5t-1.5 -176.5
q0 -29 0.5 -61.5t6 -59.5t19 -44t40.5 -17q37 1 51 26t16 61q1 22 1.5 60.5t0.5 84.5v94.5t-1 90.5t-2 73t-2 43q-3 39 -15 75q16 1 36.5 2.5t41.5 2t41 1t37 -0.5q-7 -20 -10.5 -41.5t-3.5 -40.5q1 -44 1.5 -75t1 -56.5t0.5 -48v-49v-61v-82.5zM288 851q0 14 -9 24t-27 10
q-16 0 -25 -11t-9 -25t9.5 -23.5t23.5 -9.5q17 0 27 10.5t10 24.5zM253 943q45 0 70.5 -26.5t25.5 -65.5q0 -20 -7.5 -36.5t-21 -29.5t-31 -20t-37.5 -7q-41 0 -67.5 26.5t-26.5 64.5v2q1 19 8.5 36t20.5 29.5t30 19.5t36 7z" />
    <glyph glyph-name="Uhorn" unicode="&#x1af;" 
d="M442 254q0 -30 -2 -61t-8 -58.5t-16.5 -51.5t-26.5 -40q-21 -21 -44.5 -31.5t-45 -14.5t-37.5 -4h-22q-61 -1 -101 20t-61 59q-20 35 -25 81.5t-6 99.5q-1 90 1 189.5t4 187.5q0 40 -16 77q38 3 83.5 3.5t83.5 -1.5q-15 -36 -15 -77q-1 -90 -4.5 -178.5t-1.5 -176.5
q0 -29 0.5 -61.5t6 -59.5t19 -44t40.5 -17q37 1 51 26t16 61q1 22 1.5 60.5t0.5 84.5v94.5t-1 90.5t-2 73t-2 43q-3 39 -15 75q25 2 47.5 3.5t53.5 1.5q27 2 37.5 16t10.5 34q0 17 -16.5 32.5t-38.5 27.5q7 4 19 8.5t25 8t24.5 6.5t18.5 3q60 -17 60 -76q0 -38 -24.5 -64.5
t-72.5 -35.5q-1 -9 -1.5 -21.5t-0.5 -20.5q1 -44 1.5 -75t1 -56.5t0.5 -48v-49v-61v-82.5z" />
    <glyph glyph-name="uni0214" unicode="&#x214;" 
d="M442 254q0 -30 -2 -61t-8 -58.5t-16.5 -51.5t-26.5 -40q-21 -21 -44.5 -31.5t-45 -14.5t-37.5 -4h-22q-61 -1 -101 20t-61 59q-20 35 -25 81.5t-6 99.5q-1 90 1 189.5t4 187.5q0 40 -16 77q38 3 83.5 3.5t83.5 -1.5q-15 -36 -15 -77q-1 -90 -4.5 -178.5t-1.5 -176.5
q0 -29 0.5 -61.5t6 -59.5t19 -44t40.5 -17q37 1 51 26t16 61q1 22 1.5 60.5t0.5 84.5v94.5t-1 90.5t-2 73t-2 43q-3 39 -15 75q16 1 36.5 2.5t41.5 2t41 1t37 -0.5q-7 -20 -10.5 -41.5t-3.5 -40.5q1 -44 1.5 -75t1 -56.5t0.5 -48v-49v-61v-82.5zM153 894q35 7 72.5 6
t70.5 -4l12 -23q23 -26 48 -57.5t42 -51.5q-43 -4 -83 0q-17 11 -38 27.5t-43.5 34.5t-43.5 36t-37 32zM-39 894q35 7 72.5 6t70.5 -4l12 -23q23 -26 48 -57.5t42 -51.5q-43 -4 -83 0q-17 11 -38 27.5t-43.5 34.5t-43.5 36t-37 32z" />
    <glyph glyph-name="Uogonek" unicode="&#x172;" 
d="M442 254q0 -30 -2 -60.5t-8 -58t-16.5 -51t-26.5 -39.5q-23 -23 -52.5 -38.5t-55.5 -38.5q-18 -17 -32.5 -36.5t-14.5 -37.5q0 -16 8 -25.5t29 -9.5q19 0 46.5 11t43.5 25l-16 -90q-35 -17 -62 -20t-41 -3q-20 0 -38.5 5t-33 15t-23 25.5t-8.5 37.5q0 36 25.5 69t58.5 60
q-53 0 -89.5 21.5t-55.5 56.5q-20 35 -25 81.5t-6 99.5q-1 90 1 189.5t4 187.5q0 40 -16 77q38 3 83.5 3.5t83.5 -1.5q-15 -36 -15 -77q-1 -90 -4.5 -178.5t-1.5 -176.5q0 -29 0.5 -61.5t6 -59.5t19 -44t40.5 -17q37 1 51 26t16 61q1 22 1.5 60.5t0.5 84.5v94.5t-1 90.5
t-2 73t-2 43q-3 39 -15 75q16 1 36.5 2.5t41.5 2t41 1t37 -0.5q-7 -20 -10.5 -41.5t-3.5 -40.5q1 -44 1.5 -75t1 -56.5t0.5 -48v-49v-61v-82.5z" />
    <glyph glyph-name="Uhungarumlaut" unicode="&#x170;" 
d="M442 254q0 -30 -2 -61t-8 -58.5t-16.5 -51.5t-26.5 -40q-21 -21 -44.5 -31.5t-45 -14.5t-37.5 -4h-22q-61 -1 -101 20t-61 59q-20 35 -25 81.5t-6 99.5q-1 90 1 189.5t4 187.5q0 40 -16 77q38 3 83.5 3.5t83.5 -1.5q-15 -36 -15 -77q-1 -90 -4.5 -178.5t-1.5 -176.5
q0 -29 0.5 -61.5t6 -59.5t19 -44t40.5 -17q37 1 51 26t16 61q1 22 1.5 60.5t0.5 84.5v94.5t-1 90.5t-2 73t-2 43q-3 39 -15 75q16 1 36.5 2.5t41.5 2t41 1t37 -0.5q-7 -20 -10.5 -41.5t-3.5 -40.5q1 -44 1.5 -75t1 -56.5t0.5 -48v-49v-61v-82.5zM342 894q-16 -14 -37 -32
t-43.5 -36t-44 -34.5t-37.5 -27.5q-40 -4 -83 0q17 20 42 51.5t48 57.5l12 23q33 3 70.5 4t72.5 -6zM534 894q-16 -14 -37 -32t-43.5 -36t-44 -34.5t-37.5 -27.5q-40 -4 -83 0q17 20 42 51.5t48 57.5l12 23q33 3 70.5 4t72.5 -6z" />
    <glyph glyph-name="uni0216" unicode="&#x216;" 
d="M442 254q0 -30 -2 -61t-8 -58.5t-16.5 -51.5t-26.5 -40q-21 -21 -44.5 -31.5t-45 -14.5t-37.5 -4h-22q-61 -1 -101 20t-61 59q-20 35 -25 81.5t-6 99.5q-1 90 1 189.5t4 187.5q0 40 -16 77q38 3 83.5 3.5t83.5 -1.5q-15 -36 -15 -77q-1 -90 -4.5 -178.5t-1.5 -176.5
q0 -29 0.5 -61.5t6 -59.5t19 -44t40.5 -17q37 1 51 26t16 61q1 22 1.5 60.5t0.5 84.5v94.5t-1 90.5t-2 73t-2 43q-3 39 -15 75q16 1 36.5 2.5t41.5 2t41 1t37 -0.5q-7 -20 -10.5 -41.5t-3.5 -40.5q1 -44 1.5 -75t1 -56.5t0.5 -48v-49v-61v-82.5zM245 893q32 0 60.5 -8
t49.5 -24t33.5 -40t11.5 -56q-3 -1 -15 -2t-26 -1h-27t-20 1q0 34 -18 51.5t-47 17.5q-26 0 -44.5 -17t-18.5 -52q-6 0 -19.5 -0.5t-27.5 0t-26.5 1t-16.5 1.5q0 31 11 55t31.5 40.5t48 24.5t60.5 8z" />
    <glyph glyph-name="Wcircumflex" unicode="&#x174;" horiz-adv-x="704" 
d="M13 713q42 2 85.5 2t86.5 -7q-19 -32 -11 -70q7 -71 18 -155t29 -199q11 54 25 113t28.5 114t28 103.5t23.5 81.5q20 0 40 -0.5t42 -6.5q8 -65 17 -126t18.5 -114.5t18 -98.5t16.5 -78q7 47 15.5 98t18.5 100.5t20 96t19 85.5q3 14 5 30t-6 30q38 0 74 -4t66 -11
q-8 -14 -16 -31.5t-13 -38.5q-32 -134 -65.5 -293.5t-57.5 -329.5q-25 -3 -49.5 -3.5t-53.5 0.5q-12 39 -23.5 80.5t-23.5 89.5t-23.5 104.5t-23.5 125.5q-21 -94 -42 -192.5t-40 -207.5q-25 -2 -50.5 -1.5t-52.5 2.5q-14 57 -30.5 134.5t-33 163t-31.5 172t-26 162.5
q-3 20 -8 40.5t-14 38.5zM527 765q-16 -3 -42 -4t-47 1q-19 14 -38 34t-41 43q-21 -23 -42.5 -42.5t-41.5 -36.5q-18 -2 -42 -1t-41 4q10 13 25 32t30.5 38.5t30 37.5t24.5 29q26 3 58 3t58 -2q12 -14 27 -33t30.5 -38t29 -36.5t22.5 -28.5z" />
    <glyph glyph-name="Ycircumflex" unicode="&#x176;" horiz-adv-x="541" 
d="M217 235q-32 91 -73.5 191.5t-83.5 195.5q-8 19 -20 41t-25 36q41 6 86.5 11t88.5 5q-3 -9 -3 -20q0 -14 4 -30t12 -35q23 -57 45 -120t44 -130q23 75 41.5 134.5t36.5 113.5q6 18 10.5 39.5t2.5 48.5q38 0 74.5 -4.5t68.5 -10.5q-12 -14 -20.5 -31t-14.5 -34
q-32 -87 -64.5 -183t-71.5 -218q-1 -35 -1.5 -65t-1 -53t-0.5 -37v-16q0 -15 2 -31t9 -30q-17 -1 -33 -1.5t-33 -0.5q-27 0 -52 1.5t-48 5.5q12 19 16.5 45.5t5.5 57t-0.5 62.5t-1.5 62zM447 765q-16 -3 -42 -4t-47 1q-19 14 -38 34t-41 43q-21 -23 -42.5 -42.5t-41.5 -36.5
q-18 -2 -42 -1t-41 4q10 13 25 32t30.5 38.5t30 37.5t24.5 29q26 3 58 3t58 -2q12 -14 27 -33t30.5 -38t29 -36.5t22.5 -28.5z" />
    <glyph glyph-name="uni0232" unicode="&#x232;" horiz-adv-x="541" 
d="M217 235q-32 91 -73.5 191.5t-83.5 195.5q-8 19 -20 41t-25 36q41 6 86.5 11t88.5 5q-3 -9 -3 -20q0 -14 4 -30t12 -35q23 -57 45 -120t44 -130q23 75 41.5 134.5t36.5 113.5q6 18 10.5 39.5t2.5 48.5q38 0 74.5 -4.5t68.5 -10.5q-12 -14 -20.5 -31t-14.5 -34
q-32 -87 -64.5 -183t-71.5 -218q-1 -35 -1.5 -65t-1 -53t-0.5 -37v-16q0 -15 2 -31t9 -30q-17 -1 -33 -1.5t-33 -0.5q-27 0 -52 1.5t-48 5.5q12 19 16.5 45.5t5.5 57t-0.5 62.5t-1.5 62zM103 854q91 2 180.5 2t167.5 -1q2 -18 0 -41t-8 -43q-26 1 -71 1.5t-94 0.5t-94.5 -1
t-71.5 -2q-3 5 -5 15.5t-3.5 23t-2 24.5t1.5 21z" />
    <glyph glyph-name="Zacute" unicode="&#x179;" horiz-adv-x="452" 
d="M53 571q0 34 3.5 69t8.5 65q87 6 173.5 6t182.5 -5q4 -10 2 -24q-2 -32 -15.5 -66t-29.5 -68q-17 -41 -43 -98t-54 -118.5t-55 -123t-45 -111.5q56 0 111.5 15t104.5 47q0 -42 -1 -80t-5 -76q-93 2 -180.5 1t-181.5 -3q-1 5 -2 14.5t-1 20t0.5 20.5t1.5 16
q18 50 40 105.5t50.5 121t65.5 144.5t86 177q-51 0 -107 -8.5t-110 -40.5zM434 895q-18 -14 -40.5 -32t-46.5 -36.5t-47 -35t-42 -28.5q-23 -1 -45 -1t-43 2q9 10 21 23.5t25 28t26.5 29.5t26.5 28q7 15 12 23q38 2 77.5 2.5t75.5 -3.5z" />
    <glyph glyph-name="Zdotaccent" unicode="&#x17b;" horiz-adv-x="452" 
d="M53 571q0 34 3.5 69t8.5 65q87 6 173.5 6t182.5 -5q4 -10 2 -24q-2 -32 -15.5 -66t-29.5 -68q-17 -41 -43 -98t-54 -118.5t-55 -123t-45 -111.5q56 0 111.5 15t104.5 47q0 -42 -1 -80t-5 -76q-93 2 -180.5 1t-181.5 -3q-1 5 -2 14.5t-1 20t0.5 20.5t1.5 16
q18 50 40 105.5t50.5 121t65.5 144.5t86 177q-51 0 -107 -8.5t-110 -40.5zM236 910q33 0 58 -18.5t27 -54.5q0 -34 -20.5 -55.5t-54.5 -21.5t-59.5 18t-27.5 55q0 33 21 54t56 23z" />
    <glyph glyph-name="amacron" unicode="&#x101;" horiz-adv-x="512" 
d="M10 13q8 12 14.5 29.5t9.5 33.5q10 61 24 130.5t29 140t31 140.5t31 133q5 22 6 48t-9 41q23 2 50.5 4t57.5 2.5t60 -1.5t57 -7q-10 -12 -13 -32.5t0 -37.5q22 -130 48 -273.5t59 -282.5q5 -20 13 -39t20 -33q-37 -5 -81 -7t-86 -2q4 11 1.5 32t-6.5 41l-20 104
q-34 0 -68 -0.5t-69 -1.5q-6 -27 -13 -59.5t-7 -64.5q0 -24 10 -47q-35 -4 -73.5 -1.5t-75.5 10.5zM245 582q-17 -79 -31.5 -156.5t-26.5 -152.5q25 2 49.5 2t53.5 -1q-11 66 -23 148.5t-22 159.5zM80 854q91 2 180.5 2t167.5 -1q2 -18 0 -41t-8 -43q-26 1 -71 1.5t-94 0.5
t-94.5 -1t-71.5 -2q-3 5 -5 15.5t-3.5 23t-2 24.5t1.5 21z" />
    <glyph glyph-name="abreve" unicode="&#x103;" horiz-adv-x="512" 
d="M10 13q8 12 14.5 29.5t9.5 33.5q10 61 24 130.5t29 140t31 140.5t31 133q5 22 6 48t-9 41q23 2 50.5 4t57.5 2.5t60 -1.5t57 -7q-10 -12 -13 -32.5t0 -37.5q22 -130 48 -273.5t59 -282.5q5 -20 13 -39t20 -33q-37 -5 -81 -7t-86 -2q4 11 1.5 32t-6.5 41l-20 104
q-34 0 -68 -0.5t-69 -1.5q-6 -27 -13 -59.5t-7 -64.5q0 -24 10 -47q-35 -4 -73.5 -1.5t-75.5 10.5zM245 582q-17 -79 -31.5 -156.5t-26.5 -152.5q25 2 49.5 2t53.5 -1q-11 66 -23 148.5t-22 159.5zM251 758q-33 0 -60.5 8t-48 24t-31.5 40t-10 56q4 1 16.5 1.5t26.5 0.5h27
t19 -1q1 -35 19 -51.5t44 -16.5q29 0 47 17t18 51q7 1 20 1h27t26 -0.5t15 -1.5q1 -33 -11.5 -57t-33.5 -39.5t-49.5 -23.5t-60.5 -8z" />
    <glyph glyph-name="uni0201" unicode="&#x201;" horiz-adv-x="512" 
d="M10 13q8 12 14.5 29.5t9.5 33.5q10 61 24 130.5t29 140t31 140.5t31 133q5 22 6 48t-9 41q23 2 50.5 4t57.5 2.5t60 -1.5t57 -7q-10 -12 -13 -32.5t0 -37.5q22 -130 48 -273.5t59 -282.5q5 -20 13 -39t20 -33q-37 -5 -81 -7t-86 -2q4 11 1.5 32t-6.5 41l-20 104
q-34 0 -68 -0.5t-69 -1.5q-6 -27 -13 -59.5t-7 -64.5q0 -24 10 -47q-35 -4 -73.5 -1.5t-75.5 10.5zM245 582q-17 -79 -31.5 -156.5t-26.5 -152.5q25 2 49.5 2t53.5 -1q-11 66 -23 148.5t-22 159.5zM153 894q35 7 72.5 6t70.5 -4l12 -23q23 -26 48 -57.5t42 -51.5
q-43 -4 -83 0q-17 11 -38 27.5t-43.5 34.5t-43.5 36t-37 32zM-39 894q35 7 72.5 6t70.5 -4l12 -23q23 -26 48 -57.5t42 -51.5q-43 -4 -83 0q-17 11 -38 27.5t-43.5 34.5t-43.5 36t-37 32z" />
    <glyph glyph-name="aringacute" unicode="&#x1fb;" horiz-adv-x="512" 
d="M283 845q0 -13 -9 -23t-25 -10q-14 0 -22.5 9t-8.5 22q0 14 8.5 23.5t23.5 9.5q17 0 25 -9t8 -22zM251 931q-36 0 -61.5 -25t-27.5 -61v-2q0 -35 25 -60t63 -25q37 0 63.5 25t26.5 62q0 36 -23.5 61t-65.5 25zM458 1090q-17 -13 -38 -30t-43.5 -34t-44 -32.5t-38.5 -26.5
q-22 -1 -42 -1t-40 2q17 19 42.5 48t49.5 54q3 6 6 11.5t5 9.5q36 2 72.5 2.5t70.5 -3.5zM10 13q37 -8 75.5 -10.5t73.5 1.5q-10 23 -10 47q0 32 7 64.5t13 59.5q35 1 69 1.5t68 0.5l20 -104q4 -20 6.5 -41t-1.5 -32q42 0 86 2t81 7q-12 14 -20 33t-13 39q-33 139 -59 282.5
t-48 273.5q-3 17 0 37.5t13 32.5q-27 5 -57 7t-60 1.5t-57.5 -2.5t-50.5 -4q10 -15 9 -41t-6 -48q-15 -63 -31 -133t-31 -140.5t-29 -140t-24 -130.5q-3 -16 -9.5 -33.5t-14.5 -29.5zM245 582q10 -77 22 -159.5t23 -148.5q-29 1 -53.5 1t-49.5 -2q12 75 26.5 152.5
t31.5 156.5z" />
    <glyph glyph-name="aogonek" unicode="&#x105;" horiz-adv-x="512" 
d="M10 13q8 12 14.5 29.5t9.5 33.5q10 61 24 130.5t29 140t31 140.5t31 133q5 22 6 48t-9 41q23 2 50.5 4t57.5 2.5t60 -1.5t57 -7q-10 -12 -13 -32.5t0 -37.5q22 -130 48 -273.5t59 -282.5q5 -20 13 -39t20 -33q-8 -2 -18 -3.5t-19 -2.5q-11 -8 -26.5 -20.5t-30 -27
t-24.5 -30.5t-10 -31q0 -16 8 -25.5t29 -9.5q19 0 46.5 11t43.5 25l-16 -90q-35 -17 -62 -20t-41 -3q-20 0 -38.5 5t-33 15t-23 25.5t-8.5 37.5q0 19 8 37.5t21 35.5t29.5 32.5t34.5 29.5q-10 0 -20 0.5t-17 1.5q4 11 1.5 31t-6.5 40l-20 104q-34 0 -68 -0.5t-69 -1.5
q-6 -27 -13 -59.5t-7 -64.5q0 -24 10 -47q-35 -4 -73.5 -1.5t-75.5 10.5zM245 582q-17 -79 -31.5 -156.5t-26.5 -152.5q25 2 49.5 2t53.5 -1q-11 66 -23 148.5t-22 159.5z" />
    <glyph glyph-name="uni0203" unicode="&#x203;" horiz-adv-x="512" 
d="M10 13q8 12 14.5 29.5t9.5 33.5q10 61 24 130.5t29 140t31 140.5t31 133q5 22 6 48t-9 41q23 2 50.5 4t57.5 2.5t60 -1.5t57 -7q-10 -12 -13 -32.5t0 -37.5q22 -130 48 -273.5t59 -282.5q5 -20 13 -39t20 -33q-37 -5 -81 -7t-86 -2q4 11 1.5 32t-6.5 41l-20 104
q-34 0 -68 -0.5t-69 -1.5q-6 -27 -13 -59.5t-7 -64.5q0 -24 10 -47q-35 -4 -73.5 -1.5t-75.5 10.5zM245 582q-17 -79 -31.5 -156.5t-26.5 -152.5q25 2 49.5 2t53.5 -1q-11 66 -23 148.5t-22 159.5zM255 893q32 0 60.5 -8t49.5 -24t33.5 -40t11.5 -56q-3 -1 -15 -2t-26 -1
h-27t-20 1q0 34 -18 51.5t-47 17.5q-26 0 -44.5 -17t-18.5 -52q-6 0 -19.5 -0.5t-27.5 0t-26.5 1t-16.5 1.5q0 31 11 55t31.5 40.5t48 24.5t60.5 8z" />
    <glyph glyph-name="aeacute" unicode="&#x1fd;" horiz-adv-x="705" 
d="M674 3q-86 -1 -170.5 -3.5t-170.5 -0.5q5 16 6 28t1 23q0 25 -0.5 58.5t-1.5 68.5q-34 0 -62 -0.5t-63 -1.5q-11 -27 -18 -59.5t-12 -64.5q-4 -25 2 -47q-18 -2 -40.5 -2.5t-46 0.5t-45.5 3.5t-38 7.5q10 12 19.5 29.5t15.5 33.5q21 61 44 129.5t48 138.5t50.5 139
t51.5 132q8 22 13.5 48t-1.5 41q11 2 41 4.5t69 3.5t84.5 1.5t88 -0.5t78.5 -3t58 -5q0 -32 -3 -70.5t-6 -66.5q-32 27 -71.5 37.5t-74.5 10.5q-23 0 -42 -3q-1 -20 -2 -46t-1.5 -53t-0.5 -53.5v-46.5q21 0 44.5 2.5t46 5.5t42.5 7t34 8q0 -35 -1.5 -73.5t-6.5 -70.5
q-26 14 -60.5 19.5t-76.5 5.5h-23q0 -26 -0.5 -53.5t-0.5 -55.5q0 -57 3 -109q25 -1 52 1.5t52.5 10.5t48.5 22.5t40 37.5q5 -40 5.5 -83.5t0.5 -85.5zM246 273q25 2 44.5 2t47.5 -1q0 73 1 146t4 147q-29 -75 -52.5 -149t-44.5 -145zM639 895q-18 -14 -40.5 -32
t-46.5 -36.5t-47 -35t-42 -28.5q-23 -1 -45 -1t-43 2q9 10 21 23.5t25 28t26.5 29.5t26.5 28q7 15 12 23q38 2 77.5 2.5t75.5 -3.5z" />
    <glyph glyph-name="ccircumflex" unicode="&#x109;" horiz-adv-x="451" 
d="M256 -11q-66 0 -109.5 30t-69 81t-36 119.5t-10.5 145.5q0 55 9.5 117.5t35 115.5t71.5 88t118 35q39 0 65.5 -8.5t45 -20t30 -23t20.5 -17.5q-6 -42 -17.5 -85.5t-21.5 -82.5q-12 38 -25.5 62t-28 38t-29 19t-27.5 5q-30 -2 -50 -28t-31.5 -67.5t-16.5 -95t-5 -111.5
q0 -46 6.5 -84.5t19 -66t32 -43t46.5 -15.5q50 0 76.5 32.5t45.5 91.5q7 -45 12 -94t7 -94q-14 -5 -32 -12.5t-39 -14.5t-44 -12t-48 -5zM427 765q-16 -3 -42 -4t-47 1q-19 14 -38 34t-41 43q-21 -23 -42.5 -42.5t-41.5 -36.5q-18 -2 -42 -1t-41 4q10 13 25 32t30.5 38.5
t30 37.5t24.5 29q26 3 58 3t58 -2q12 -14 27 -33t30.5 -38t29 -36.5t22.5 -28.5z" />
    <glyph glyph-name="ccaron" unicode="&#x10d;" horiz-adv-x="451" 
d="M256 -11q-66 0 -109.5 30t-69 81t-36 119.5t-10.5 145.5q0 55 9.5 117.5t35 115.5t71.5 88t118 35q39 0 65.5 -8.5t45 -20t30 -23t20.5 -17.5q-6 -42 -17.5 -85.5t-21.5 -82.5q-12 38 -25.5 62t-28 38t-29 19t-27.5 5q-30 -2 -50 -28t-31.5 -67.5t-16.5 -95t-5 -111.5
q0 -46 6.5 -84.5t19 -66t32 -43t46.5 -15.5q50 0 76.5 32.5t45.5 91.5q7 -45 12 -94t7 -94q-14 -5 -32 -12.5t-39 -14.5t-44 -12t-48 -5zM430 901q-9 -11 -22.5 -28.5t-29 -36.5t-30.5 -38t-27 -33q-26 -2 -58 -2t-58 3q-10 11 -24.5 29t-30 37.5t-30.5 38t-25 32.5
q17 3 41 4t42 -1q20 -17 41.5 -36.5t42.5 -42.5q22 23 41 43t38 34q21 2 47 1t42 -4z" />
    <glyph glyph-name="cdotaccent" unicode="&#x10b;" horiz-adv-x="451" 
d="M256 -11q-66 0 -109.5 30t-69 81t-36 119.5t-10.5 145.5q0 55 9.5 117.5t35 115.5t71.5 88t118 35q39 0 65.5 -8.5t45 -20t30 -23t20.5 -17.5q-6 -42 -17.5 -85.5t-21.5 -82.5q-12 38 -25.5 62t-28 38t-29 19t-27.5 5q-30 -2 -50 -28t-31.5 -67.5t-16.5 -95t-5 -111.5
q0 -46 6.5 -84.5t19 -66t32 -43t46.5 -15.5q50 0 76.5 32.5t45.5 91.5q7 -45 12 -94t7 -94q-14 -5 -32 -12.5t-39 -14.5t-44 -12t-48 -5zM261 910q33 0 58 -18.5t27 -54.5q0 -34 -20.5 -55.5t-54.5 -21.5t-59.5 18t-27.5 55q0 33 21 54t56 23z" />
    <glyph glyph-name="cacute" unicode="&#x107;" horiz-adv-x="451" 
d="M256 -11q-66 0 -109.5 30t-69 81t-36 119.5t-10.5 145.5q0 55 9.5 117.5t35 115.5t71.5 88t118 35q39 0 65.5 -8.5t45 -20t30 -23t20.5 -17.5q-6 -42 -17.5 -85.5t-21.5 -82.5q-12 38 -25.5 62t-28 38t-29 19t-27.5 5q-30 -2 -50 -28t-31.5 -67.5t-16.5 -95t-5 -111.5
q0 -46 6.5 -84.5t19 -66t32 -43t46.5 -15.5q50 0 76.5 32.5t45.5 91.5q7 -45 12 -94t7 -94q-14 -5 -32 -12.5t-39 -14.5t-44 -12t-48 -5zM466 895q-18 -14 -40.5 -32t-46.5 -36.5t-47 -35t-42 -28.5q-23 -1 -45 -1t-43 2q9 10 21 23.5t25 28t26.5 29.5t26.5 28q7 15 12 23
q38 2 77.5 2.5t75.5 -3.5z" />
    <glyph glyph-name="dcaron" unicode="&#x10f;" horiz-adv-x="498" 
d="M180 96q44 0 72.5 24.5t45.5 62t23.5 83t6.5 86.5q0 23 -1 52.5t-5 60t-13 59t-24.5 49.5t-39.5 32t-59 7q-4 -128 -5 -257.5t-1 -258.5zM31 12q10 17 13 38t3 41q0 132 2 263.5t5 271.5q-3 20 -8.5 36t-15.5 36q15 3 35.5 6t43 5t45 3.5t42.5 1.5q75 0 128 -23t86 -68
t48 -112.5t15 -157.5q0 -73 -14 -138t-47.5 -113.5t-89.5 -77t-141 -28.5q-37 0 -75.5 4t-74.5 12zM417 901q-9 -11 -22.5 -28.5t-29 -36.5t-30.5 -38t-27 -33q-26 -2 -58 -2t-58 3q-10 11 -24.5 29t-30 37.5t-30.5 38t-25 32.5q17 3 41 4t42 -1q20 -17 41.5 -36.5
t42.5 -42.5q22 23 41 43t38 34q21 2 47 1t42 -4z" />
    <glyph glyph-name="dcroat" unicode="&#x111;" horiz-adv-x="519" 
d="M22 397q22 3 46 3q1 57 2 113t3 113q-3 20 -8.5 36t-15.5 36q15 3 35.5 6t43 5t45 3.5t42.5 1.5q75 0 128 -23t86.5 -68t49 -112.5t15.5 -157.5q0 -82 -15 -147.5t-49 -111.5t-89.5 -71.5t-136.5 -26.5q-40 0 -80.5 4t-71.5 12q8 14 11 29t3 29q0 60 -1 118.5t1 120.5
q-10 0 -22 -0.5t-20 -6.5q-8 48 -2 95zM199 98q45 -5 75 14.5t48 55t25.5 83t7.5 99.5q0 35 -4 83t-19 90t-45 68.5t-82 20.5q-2 -53 -2.5 -104t-1.5 -105q17 0 41.5 0.5t42.5 5.5q8 -23 9 -54t-6 -54q-8 5 -32.5 7.5t-56.5 1.5v-212z" />
    <glyph glyph-name="emacron" unicode="&#x113;" horiz-adv-x="418" 
d="M387 3q-85 -1 -170 -2.5t-170 -1.5q4 13 5 25.5t1 26.5q0 38 -1 90.5t-1 103.5q0 92 1 183t5 184q-2 22 -8 45t-14 43q38 5 97 8.5t120 3.5q38 0 73 -1.5t63 -5.5q0 -32 -3 -70.5t-6 -66.5q-32 27 -71.5 37.5t-74.5 10.5q-23 0 -42 -3q-1 -20 -2 -46t-1.5 -53t-0.5 -53.5
v-46.5q21 0 44.5 2.5t46 5.5t42.5 7t34 8q0 -35 -1.5 -73.5t-6.5 -70.5q-32 16 -70 21t-90 4q0 -26 -0.5 -53.5t-0.5 -55.5q0 -57 3 -109q25 -1 52 1.5t52.5 10.5t48.5 22.5t40 37.5q5 -40 5.5 -83.5t0.5 -85.5zM39 854q91 2 180.5 2t167.5 -1q2 -18 0 -41t-8 -43
q-26 1 -71 1.5t-94 0.5t-94.5 -1t-71.5 -2q-3 5 -5 15.5t-3.5 23t-2 24.5t1.5 21z" />
    <glyph glyph-name="ebreve" unicode="&#x115;" horiz-adv-x="418" 
d="M387 3q-85 -1 -170 -2.5t-170 -1.5q4 13 5 25.5t1 26.5q0 38 -1 90.5t-1 103.5q0 92 1 183t5 184q-2 22 -8 45t-14 43q38 5 97 8.5t120 3.5q38 0 73 -1.5t63 -5.5q0 -32 -3 -70.5t-6 -66.5q-32 27 -71.5 37.5t-74.5 10.5q-23 0 -42 -3q-1 -20 -2 -46t-1.5 -53t-0.5 -53.5
v-46.5q21 0 44.5 2.5t46 5.5t42.5 7t34 8q0 -35 -1.5 -73.5t-6.5 -70.5q-32 16 -70 21t-90 4q0 -26 -0.5 -53.5t-0.5 -55.5q0 -57 3 -109q25 -1 52 1.5t52.5 10.5t48.5 22.5t40 37.5q5 -40 5.5 -83.5t0.5 -85.5zM218 758q-33 0 -60.5 8t-48 24t-31.5 40t-10 56q4 1 16.5 1.5
t26.5 0.5h27t19 -1q1 -35 19 -51.5t44 -16.5q29 0 47 17t18 51q7 1 20 1h27t26 -0.5t15 -1.5q1 -33 -11.5 -57t-33.5 -39.5t-49.5 -23.5t-60.5 -8z" />
    <glyph glyph-name="ecaron" unicode="&#x11b;" horiz-adv-x="418" 
d="M387 3q-85 -1 -170 -2.5t-170 -1.5q4 13 5 25.5t1 26.5q0 38 -1 90.5t-1 103.5q0 92 1 183t5 184q-2 22 -8 45t-14 43q38 5 97 8.5t120 3.5q38 0 73 -1.5t63 -5.5q0 -32 -3 -70.5t-6 -66.5q-32 27 -71.5 37.5t-74.5 10.5q-23 0 -42 -3q-1 -20 -2 -46t-1.5 -53t-0.5 -53.5
v-46.5q21 0 44.5 2.5t46 5.5t42.5 7t34 8q0 -35 -1.5 -73.5t-6.5 -70.5q-32 16 -70 21t-90 4q0 -26 -0.5 -53.5t-0.5 -55.5q0 -57 3 -109q25 -1 52 1.5t52.5 10.5t48.5 22.5t40 37.5q5 -40 5.5 -83.5t0.5 -85.5zM385 901q-9 -11 -22.5 -28.5t-29 -36.5t-30.5 -38t-27 -33
q-26 -2 -58 -2t-58 3q-10 11 -24.5 29t-30 37.5t-30.5 38t-25 32.5q17 3 41 4t42 -1q20 -17 41.5 -36.5t42.5 -42.5q22 23 41 43t38 34q21 2 47 1t42 -4z" />
    <glyph glyph-name="edotaccent" unicode="&#x117;" horiz-adv-x="418" 
d="M387 3q-85 -1 -170 -2.5t-170 -1.5q4 13 5 25.5t1 26.5q0 38 -1 90.5t-1 103.5q0 92 1 183t5 184q-2 22 -8 45t-14 43q38 5 97 8.5t120 3.5q38 0 73 -1.5t63 -5.5q0 -32 -3 -70.5t-6 -66.5q-32 27 -71.5 37.5t-74.5 10.5q-23 0 -42 -3q-1 -20 -2 -46t-1.5 -53t-0.5 -53.5
v-46.5q21 0 44.5 2.5t46 5.5t42.5 7t34 8q0 -35 -1.5 -73.5t-6.5 -70.5q-32 16 -70 21t-90 4q0 -26 -0.5 -53.5t-0.5 -55.5q0 -57 3 -109q25 -1 52 1.5t52.5 10.5t48.5 22.5t40 37.5q5 -40 5.5 -83.5t0.5 -85.5zM214 910q33 0 58 -18.5t27 -54.5q0 -34 -20.5 -55.5
t-54.5 -21.5t-59.5 18t-27.5 55q0 33 21 54t56 23z" />
    <glyph glyph-name="uni0205" unicode="&#x205;" horiz-adv-x="418" 
d="M387 3q-85 -1 -170 -2.5t-170 -1.5q4 13 5 25.5t1 26.5q0 38 -1 90.5t-1 103.5q0 92 1 183t5 184q-2 22 -8 45t-14 43q38 5 97 8.5t120 3.5q38 0 73 -1.5t63 -5.5q0 -32 -3 -70.5t-6 -66.5q-32 27 -71.5 37.5t-74.5 10.5q-23 0 -42 -3q-1 -20 -2 -46t-1.5 -53t-0.5 -53.5
v-46.5q21 0 44.5 2.5t46 5.5t42.5 7t34 8q0 -35 -1.5 -73.5t-6.5 -70.5q-32 16 -70 21t-90 4q0 -26 -0.5 -53.5t-0.5 -55.5q0 -57 3 -109q25 -1 52 1.5t52.5 10.5t48.5 22.5t40 37.5q5 -40 5.5 -83.5t0.5 -85.5zM122 894q35 7 72.5 6t70.5 -4l12 -23q23 -26 48 -57.5
t42 -51.5q-43 -4 -83 0q-17 11 -38 27.5t-43.5 34.5t-43.5 36t-37 32zM-70 894q35 7 72.5 6t70.5 -4l12 -23q23 -26 48 -57.5t42 -51.5q-43 -4 -83 0q-17 11 -38 27.5t-43.5 34.5t-43.5 36t-37 32z" />
    <glyph glyph-name="eogonek" unicode="&#x119;" horiz-adv-x="418" 
d="M260 1q-52 -2 -106.5 -2h-106.5q4 13 5 25.5t1 26.5q0 38 -1 90.5t-1 103.5q0 92 1 183t5 184q-2 22 -8 45t-14 43q38 5 97 8.5t120 3.5q38 0 73 -1.5t63 -5.5q0 -32 -3 -70.5t-6 -66.5q-32 27 -71.5 37.5t-74.5 10.5q-23 0 -42 -3q-1 -20 -2 -46t-1.5 -53t-0.5 -53.5
v-46.5q21 0 44.5 2.5t46 5.5t42.5 7t34 8q0 -35 -1.5 -73.5t-6.5 -70.5q-32 16 -70 21t-90 4q0 -26 -0.5 -53.5t-0.5 -55.5q0 -57 3 -109q25 -1 52 1.5t52.5 10.5t48.5 22.5t40 37.5q5 -40 5.5 -82.5t0.5 -84.5q-5 -1 -17.5 -2t-20.5 -2q-11 -8 -26.5 -20t-29.5 -26.5
t-24 -30t-10 -30.5q0 -16 8 -25.5t29 -9.5q19 0 46.5 11t43.5 25l-16 -90q-35 -17 -62 -20t-41 -3q-20 0 -39 5t-33.5 15t-23.5 25.5t-9 37.5q0 19 8.5 37.5t22.5 35.5t31.5 33t35.5 30z" />
    <glyph glyph-name="uni0207" unicode="&#x207;" horiz-adv-x="418" 
d="M387 3q-85 -1 -170 -2.5t-170 -1.5q4 13 5 25.5t1 26.5q0 38 -1 90.5t-1 103.5q0 92 1 183t5 184q-2 22 -8 45t-14 43q38 5 97 8.5t120 3.5q38 0 73 -1.5t63 -5.5q0 -32 -3 -70.5t-6 -66.5q-32 27 -71.5 37.5t-74.5 10.5q-23 0 -42 -3q-1 -20 -2 -46t-1.5 -53t-0.5 -53.5
v-46.5q21 0 44.5 2.5t46 5.5t42.5 7t34 8q0 -35 -1.5 -73.5t-6.5 -70.5q-32 16 -70 21t-90 4q0 -26 -0.5 -53.5t-0.5 -55.5q0 -57 3 -109q25 -1 52 1.5t52.5 10.5t48.5 22.5t40 37.5q5 -40 5.5 -83.5t0.5 -85.5zM217 893q32 0 60.5 -8t49.5 -24t33.5 -40t11.5 -56
q-3 -1 -15 -2t-26 -1h-27t-20 1q0 34 -18 51.5t-47 17.5q-26 0 -44.5 -17t-18.5 -52q-6 0 -19.5 -0.5t-27.5 0t-26.5 1t-16.5 1.5q0 31 11 55t31.5 40.5t48 24.5t60.5 8z" />
    <glyph glyph-name="gbreve" unicode="&#x11f;" horiz-adv-x="507" 
d="M398 487q-23 63 -50 92t-59 29q-34 0 -56 -25.5t-35 -69t-18 -101.5t-5 -124q1 -18 3 -51.5t10.5 -66t26 -57t48.5 -24.5q35 0 52.5 24.5t19.5 61.5q1 23 0.5 59t-7.5 71q-5 27 -22 49t-38 32q23 5 56.5 8.5t65.5 3.5q23 0 44.5 -1.5t38.5 -5.5q-12 -23 -12 -51
q2 -84 0 -167.5t-7 -171.5q-27 13 -55 12.5t-56.5 -6.5t-56 -13.5t-53.5 -7.5q-59 0 -97.5 30t-62 78.5t-33 110t-9.5 124.5t8.5 132t33.5 127t71 95.5t120 37.5q57 0 104.5 -20.5t76.5 -48.5q-2 -19 -7 -42t-11.5 -45.5t-14 -43t-14.5 -34.5zM263 758q-33 0 -60.5 8t-48 24
t-31.5 40t-10 56q4 1 16.5 1.5t26.5 0.5h27t19 -1q1 -35 19 -51.5t44 -16.5q29 0 47 17t18 51q7 1 20 1h27t26 -0.5t15 -1.5q1 -33 -11.5 -57t-33.5 -39.5t-49.5 -23.5t-60.5 -8z" />
    <glyph glyph-name="gcircumflex" unicode="&#x11d;" horiz-adv-x="507" 
d="M398 487q-23 63 -50 92t-59 29q-34 0 -56 -25.5t-35 -69t-18 -101.5t-5 -124q1 -18 3 -51.5t10.5 -66t26 -57t48.5 -24.5q35 0 52.5 24.5t19.5 61.5q1 23 0.5 59t-7.5 71q-5 27 -22 49t-38 32q23 5 56.5 8.5t65.5 3.5q23 0 44.5 -1.5t38.5 -5.5q-12 -23 -12 -51
q2 -84 0 -167.5t-7 -171.5q-27 13 -55 12.5t-56.5 -6.5t-56 -13.5t-53.5 -7.5q-59 0 -97.5 30t-62 78.5t-33 110t-9.5 124.5t8.5 132t33.5 127t71 95.5t120 37.5q57 0 104.5 -20.5t76.5 -48.5q-2 -19 -7 -42t-11.5 -45.5t-14 -43t-14.5 -34.5zM434 765q-16 -3 -42 -4t-47 1
q-19 14 -38 34t-41 43q-21 -23 -42.5 -42.5t-41.5 -36.5q-18 -2 -42 -1t-41 4q10 13 25 32t30.5 38.5t30 37.5t24.5 29q26 3 58 3t58 -2q12 -14 27 -33t30.5 -38t29 -36.5t22.5 -28.5z" />
    <glyph glyph-name="gdotaccent" unicode="&#x121;" horiz-adv-x="507" 
d="M398 487q-23 63 -50 92t-59 29q-34 0 -56 -25.5t-35 -69t-18 -101.5t-5 -124q1 -18 3 -51.5t10.5 -66t26 -57t48.5 -24.5q35 0 52.5 24.5t19.5 61.5q1 23 0.5 59t-7.5 71q-5 27 -22 49t-38 32q23 5 56.5 8.5t65.5 3.5q23 0 44.5 -1.5t38.5 -5.5q-12 -23 -12 -51
q2 -84 0 -167.5t-7 -171.5q-27 13 -55 12.5t-56.5 -6.5t-56 -13.5t-53.5 -7.5q-59 0 -97.5 30t-62 78.5t-33 110t-9.5 124.5t8.5 132t33.5 127t71 95.5t120 37.5q57 0 104.5 -20.5t76.5 -48.5q-2 -19 -7 -42t-11.5 -45.5t-14 -43t-14.5 -34.5zM260 910q33 0 58 -18.5
t27 -54.5q0 -34 -20.5 -55.5t-54.5 -21.5t-59.5 18t-27.5 55q0 33 21 54t56 23z" />
    <glyph glyph-name="gcommaaccent" unicode="&#x123;" horiz-adv-x="507" 
d="M398 487q-23 63 -50 92t-59 29q-34 0 -56 -25.5t-35 -69t-18 -101.5t-5 -124q1 -18 3 -51.5t10.5 -66t26 -57t48.5 -24.5q35 0 52.5 24.5t19.5 61.5q1 23 0.5 59t-7.5 71q-5 27 -22 49t-38 32q23 5 56.5 8.5t65.5 3.5q23 0 44.5 -1.5t38.5 -5.5q-12 -23 -12 -51
q2 -84 0 -167.5t-7 -171.5q-27 13 -55 12.5t-56.5 -6.5t-56 -13.5t-53.5 -7.5q-59 0 -97.5 30t-62 78.5t-33 110t-9.5 124.5t8.5 132t33.5 127t71 95.5t120 37.5q57 0 104.5 -20.5t76.5 -48.5q-2 -19 -7 -42t-11.5 -45.5t-14 -43t-14.5 -34.5zM268 -180q-22 -2 -40 14
t-18 46q0 29 19.5 48.5t49.5 21.5q38 0 57.5 -22t19.5 -55q0 -43 -24.5 -84.5t-79.5 -72.5q-9 4 -16 9.5t-13 12.5q20 15 35 35.5t10 46.5z" />
    <glyph glyph-name="hcircumflex" unicode="&#x125;" horiz-adv-x="515" 
d="M35 1q8 22 10 45t2 46q0 130 2 262.5t2 279.5q0 20 -3.5 37t-11.5 34q13 1 36.5 2.5t48.5 1.5t47.5 -1t35.5 -5q-17 -31 -17 -71l-3 -225q33 2 67.5 2t72.5 -1l4 200q1 27 -3 52.5t-12 48.5q12 2 33.5 3t46 1t48 -2t39.5 -5q-16 -37 -16 -76q-2 -70 -3 -139.5t-3 -140.5
q-1 -54 -1 -107.5v-108.5q0 -32 3 -65.5t16 -60.5q-81 -9 -166 -3q8 15 10.5 30.5t2.5 29.5q0 59 -1 117.5t0 123.5h-69.5t-70.5 -1q-1 -20 -1.5 -46t-1 -55.5t-0.5 -59.5t1 -58q1 -25 5.5 -45.5t11.5 -37.5q-40 -4 -80 -4t-82 2zM427 765q-16 -3 -42 -4t-47 1
q-19 14 -38 34t-41 43q-21 -23 -42.5 -42.5t-41.5 -36.5q-18 -2 -42 -1t-41 4q10 13 25 32t30.5 38.5t30 37.5t24.5 29q26 3 58 3t58 -2q12 -14 27 -33t30.5 -38t29 -36.5t22.5 -28.5z" />
    <glyph glyph-name="hbar" unicode="&#x127;" horiz-adv-x="551" 
d="M52 1q8 22 10 45t2 46q0 103 1.5 205t2.5 214q-14 -1 -27 -1.5t-24 -2.5q-6 21 -7 41t5 45q11 -2 24 -2.5t29 -1.5v43q0 20 -3.5 38t-11.5 35q13 1 36.5 2.5t48.5 1.5t47.5 -1t35.5 -5q-9 -17 -13 -35t-4 -38l-1 -46q36 -1 71 -1h70q2 37 -2 70t-12 56q12 2 33.5 3t46 1
t48 -2t39.5 -5q-11 -26 -14 -58t-3 -62q18 1 33.5 2t23.5 4q5 -23 4 -42t-7 -44q-12 3 -26 3.5t-30 2.5l-3 -162q-1 -54 -1 -107.5v-108.5q0 -32 3 -65.5t16 -60.5q-81 -9 -166 -3q8 15 10.5 30.5t2.5 29.5q0 59 -1 117.5t0 123.5h-69.5t-70.5 -1q-1 -20 -1.5 -46t-1 -55.5
t-0.5 -59.5t1 -58q1 -25 5.5 -45.5t11.5 -37.5q-40 -4 -80 -4t-82 2zM343 515h-70.5t-70.5 -1l-1 -107q33 2 67.5 2t72.5 -1z" />
    <glyph glyph-name="imacron" unicode="&#x12b;" horiz-adv-x="242" 
d="M36 4q8 19 10.5 40t2.5 38q0 125 1.5 255.5t3.5 288.5q0 21 -3.5 40.5t-11.5 38.5q35 4 80 5.5t85 0.5q-11 -19 -11 -42q0 -55 -2 -127t-3.5 -151t-3 -160t0.5 -154q0 -36 16 -71q-21 -2 -45 -3.5t-50 -1.5q-37 0 -70 3zM-52 854q91 2 180.5 2t167.5 -1q2 -18 0 -41
t-8 -43q-26 1 -71 1.5t-94 0.5t-94.5 -1t-71.5 -2q-3 5 -5 15.5t-3.5 23t-2 24.5t1.5 21z" />
    <glyph glyph-name="uni012D" unicode="&#x12d;" horiz-adv-x="242" 
d="M36 4q8 19 10.5 40t2.5 38q0 125 1.5 255.5t3.5 288.5q0 21 -3.5 40.5t-11.5 38.5q35 4 80 5.5t85 0.5q-11 -19 -11 -42q0 -55 -2 -127t-3.5 -151t-3 -160t0.5 -154q0 -36 16 -71q-21 -2 -45 -3.5t-50 -1.5q-37 0 -70 3zM122 758q-33 0 -60.5 8t-48 24t-31.5 40t-10 56
q4 1 16.5 1.5t26.5 0.5h27t19 -1q1 -35 19 -51.5t44 -16.5q29 0 47 17t18 51q7 1 20 1h27t26 -0.5t15 -1.5q1 -33 -11.5 -57t-33.5 -39.5t-49.5 -23.5t-60.5 -8z" />
    <glyph glyph-name="itilde" unicode="&#x129;" horiz-adv-x="242" 
d="M36 4q8 19 10.5 40t2.5 38q0 125 1.5 255.5t3.5 288.5q0 21 -3.5 40.5t-11.5 38.5q35 4 80 5.5t85 0.5q-11 -19 -11 -42q0 -55 -2 -127t-3.5 -151t-3 -160t0.5 -154q0 -36 16 -71q-21 -2 -45 -3.5t-50 -1.5q-37 0 -70 3zM216 907q13 1 31.5 0t32.5 -4q8 -27 7 -52.5
t-12.5 -46t-32.5 -32.5t-53 -12q-37 0 -62 16t-53 36q-7 5 -13.5 9t-11.5 4q-17 0 -26 -17t-10 -47q-17 1 -33.5 3t-28.5 6q-3 25 3 52t21 47q13 17 32 27t42 10q22 0 39.5 -10.5t34 -23.5t32 -23.5t32.5 -10.5q11 0 18 6.5t10 16t3 22t-2 24.5z" />
    <glyph glyph-name="uni0209" unicode="&#x209;" horiz-adv-x="242" 
d="M36 4q8 19 10.5 40t2.5 38q0 125 1.5 255.5t3.5 288.5q0 21 -3.5 40.5t-11.5 38.5q35 4 80 5.5t85 0.5q-11 -19 -11 -42q0 -55 -2 -127t-3.5 -151t-3 -160t0.5 -154q0 -36 16 -71q-21 -2 -45 -3.5t-50 -1.5q-37 0 -70 3zM29 894q35 7 72.5 6t70.5 -4l12 -23
q23 -26 48 -57.5t42 -51.5q-43 -4 -83 0q-17 11 -38 27.5t-43.5 34.5t-43.5 36t-37 32zM-163 894q35 7 72.5 6t70.5 -4l12 -23q23 -26 48 -57.5t42 -51.5q-43 -4 -83 0q-17 11 -38 27.5t-43.5 34.5t-43.5 36t-37 32z" />
    <glyph glyph-name="uni020B" unicode="&#x20b;" horiz-adv-x="242" 
d="M36 4q8 19 10.5 40t2.5 38q0 125 1.5 255.5t3.5 288.5q0 21 -3.5 40.5t-11.5 38.5q35 4 80 5.5t85 0.5q-11 -19 -11 -42q0 -55 -2 -127t-3.5 -151t-3 -160t0.5 -154q0 -36 16 -71q-21 -2 -45 -3.5t-50 -1.5q-37 0 -70 3zM121 893q32 0 60.5 -8t49.5 -24t33.5 -40
t11.5 -56q-3 -1 -15 -2t-26 -1h-27t-20 1q0 34 -18 51.5t-47 17.5q-26 0 -44.5 -17t-18.5 -52q-6 0 -19.5 -0.5t-27.5 0t-26.5 1t-16.5 1.5q0 31 11 55t31.5 40.5t48 24.5t60.5 8z" />
    <glyph glyph-name="iogonek" unicode="&#x12f;" horiz-adv-x="242" 
d="M36 4q8 19 10.5 40t2.5 38q0 125 1.5 255.5t3.5 288.5q0 21 -3.5 40.5t-11.5 38.5q35 4 80 5.5t85 0.5q-11 -19 -11 -42q0 -55 -2 -127t-3.5 -151t-3 -160t0.5 -154q0 -36 16 -71l-39 -4q-17 -13 -36.5 -36t-26.5 -49q-6 -23 3 -40.5t35 -17.5q9 0 22 2.5t26 7.5
t24.5 11.5t18.5 14.5l-16 -90q-21 -15 -47.5 -19.5t-40.5 -4.5q-20 0 -39 4t-34.5 13t-25.5 24t-13 37q-2 18 2 37t13 37.5t22 35.5t30 31q-2 0 -8.5 0.5t-34.5 3.5z" />
    <glyph glyph-name="jcircumflex" unicode="&#x135;" horiz-adv-x="420" 
d="M173 85q28 0 42.5 21.5t20.5 54.5t6 71.5v73.5q0 42 1 95t-0.5 107.5t-6.5 105.5t-17 90q23 4 49 5.5t52 1.5q19 0 37.5 -2.5t34.5 -8.5q-17 -24 -17 -61q0 -62 1.5 -136t1.5 -150q0 -50 -2 -97.5t-5 -90.5q-8 -91 -55.5 -133.5t-117.5 -42.5q-28 0 -55 6t-50.5 14.5
t-41.5 16.5t-29 11q0 25 3 53t7.5 56.5t9.5 56t9 50.5q8 -34 19.5 -64.5t26.5 -53.5t34 -36.5t42 -13.5zM349 765q-16 -3 -42 -4t-47 1q-19 14 -38 34t-41 43q-21 -23 -42.5 -42.5t-41.5 -36.5q-18 -2 -42 -1t-41 4q10 13 25 32t30.5 38.5t30 37.5t24.5 29q26 3 58 3t58 -2
q12 -14 27 -33t30.5 -38t29 -36.5t22.5 -28.5z" />
    <glyph glyph-name="dotlessj" unicode="&#x237;" horiz-adv-x="420" 
d="M173 85q28 0 42.5 21.5t20.5 54.5t6 71.5v73.5q0 42 1 95t-0.5 107.5t-6.5 105.5t-17 90q23 4 49 5.5t52 1.5q19 0 37.5 -2.5t34.5 -8.5q-17 -24 -17 -61q0 -62 1.5 -136t1.5 -150q0 -50 -2 -97.5t-5 -90.5q-8 -91 -55.5 -133.5t-117.5 -42.5q-28 0 -55 6t-50.5 14.5
t-41.5 16.5t-29 11q0 25 3 53t7.5 56.5t9.5 56t9 50.5q8 -34 19.5 -64.5t26.5 -53.5t34 -36.5t42 -13.5z" />
    <glyph glyph-name="ij" unicode="&#x133;" horiz-adv-x="656" 
d="M36 4q8 19 10.5 40t2.5 38q0 125 1.5 255.5t3.5 288.5q0 21 -3.5 40.5t-11.5 38.5q35 4 80 5.5t85 0.5q-11 -19 -11 -42q0 -55 -2 -127t-3.5 -151t-3 -160t0.5 -154q0 -36 16 -71q-21 -2 -45 -3.5t-50 -1.5q-37 0 -70 3zM409 85q28 0 42.5 21.5t20.5 54.5t6 71.5v73.5
q0 42 1 95t-0.5 107.5t-6.5 105.5t-17 90q23 4 49 5.5t52 1.5q19 0 37.5 -2.5t34.5 -8.5q-17 -24 -17 -61q0 -62 1.5 -136t1.5 -150q0 -50 -2 -97.5t-5 -90.5q-8 -91 -55.5 -133.5t-117.5 -42.5q-28 0 -55 6t-50.5 14.5t-41.5 16.5t-29 11q0 25 3 53t7.5 56.5t9.5 56t9 50.5
q8 -34 19.5 -64.5t26.5 -53.5t34 -36.5t42 -13.5z" />
    <glyph glyph-name="kcommaaccent" unicode="&#x137;" horiz-adv-x="489" 
d="M33 4q8 17 10.5 35.5t2.5 35.5q0 130 1.5 263t1.5 278q0 26 -3 48.5t-11 39.5q20 2 44.5 4t50.5 2q20 0 39.5 -0.5t35.5 -5.5q-17 -28 -17 -64q-2 -48 -3 -101t-1 -101q31 54 63.5 107.5t63.5 100.5q8 13 16 29.5t7 34.5q38 0 72.5 -3.5t64.5 -12.5q-14 -16 -36 -46.5
t-47 -68t-50.5 -79t-47.5 -79.5q18 -33 38.5 -73.5t40.5 -85.5t39 -92t34 -94q5 -15 13.5 -28t17.5 -22q-35 -12 -75.5 -19.5t-82.5 -6.5q-12 40 -27.5 85t-31 87t-30.5 76.5t-26 53.5l-20 -52v-109t2 -73q0 -13 3.5 -29.5t13.5 -30.5q-54 -6 -108 -6h-29t-29 2zM225 -180
q-22 -2 -40 14t-18 46q0 29 19.5 48.5t49.5 21.5q38 0 57.5 -22t19.5 -55q0 -43 -24.5 -84.5t-79.5 -72.5q-9 4 -16 9.5t-13 12.5q20 15 35 35.5t10 46.5z" />
    <glyph glyph-name="kgreenlandic" unicode="&#x138;" horiz-adv-x="440" 
d="M173 517q5 -49 5 -100.5t-3 -93.5q13 18 30.5 43.5t33.5 52t26.5 50t10.5 36.5q0 6 -1 9q37 2 74 1t73 -5q-17 -19 -31.5 -44.5t-30 -53t-32 -56.5t-36.5 -54q11 -12 24.5 -35t27 -52t26.5 -61.5t24 -63.5q7 -21 17.5 -41t24.5 -37q-35 -5 -76.5 -8.5t-86.5 -3.5
q1 4 1 12q0 18 -7.5 45t-19.5 56t-25.5 56t-25.5 45l-24 -34v-92t18 -84q-27 -2 -62 -3t-94 -1q12 25 15 65q3 50 4 96t1 91t-1.5 91t-4.5 97q-1 18 -5.5 35t-9.5 32q30 5 68.5 8t71.5 2z" />
    <glyph glyph-name="ldot" unicode="&#x140;" horiz-adv-x="401" 
d="M376 3q-63 -1 -110 -2t-82 -1q-61 0 -99.5 2t-49.5 5q8 23 9.5 47t1.5 45q0 131 2.5 270t3.5 269q0 18 -3 35t-12 32q27 3 55.5 5t59.5 2q14 0 29.5 -1.5t23.5 -7.5q-8 -14 -11.5 -31t-3.5 -36q0 -64 -1.5 -132t-3 -137t-2.5 -136t-1 -130q31 1 56.5 5t48 12.5t43.5 22
t42 33.5q3 -42 4 -83.5t0 -87.5zM318 466q33 0 58 -18.5t27 -54.5q0 -34 -20.5 -55.5t-54.5 -21.5t-59.5 18t-27.5 55q0 33 21 54t56 23z" />
    <glyph glyph-name="lcommaaccent" unicode="&#x13c;" horiz-adv-x="405" 
d="M375 3q-63 -1 -110 -2t-82 -1q-61 0 -99.5 2t-49.5 5q8 23 9.5 47t1.5 45q0 131 2.5 270t3.5 269q0 18 -3 35t-12 32q27 3 55.5 5t59.5 2q14 0 29.5 -1.5t23.5 -7.5q-8 -14 -11.5 -31t-3.5 -36q0 -64 -1.5 -132t-3 -137t-2.5 -136t-1 -130q31 1 56.5 5t48 12.5t43.5 22
t42 33.5q3 -42 4 -83.5t0 -87.5zM196 -180q-22 -2 -40 14t-18 46q0 29 19.5 48.5t49.5 21.5q38 0 57.5 -22t19.5 -55q0 -43 -24.5 -84.5t-79.5 -72.5q-9 4 -16 9.5t-13 12.5q20 15 35 35.5t10 46.5z" />
    <glyph glyph-name="lacute" unicode="&#x13a;" horiz-adv-x="405" 
d="M375 3q-63 -1 -110 -2t-82 -1q-61 0 -99.5 2t-49.5 5q8 23 9.5 47t1.5 45q0 131 2.5 270t3.5 269q0 18 -3 35t-12 32q27 3 55.5 5t59.5 2q14 0 29.5 -1.5t23.5 -7.5q-8 -14 -11.5 -31t-3.5 -36q0 -64 -1.5 -132t-3 -137t-2.5 -136t-1 -130q31 1 56.5 5t48 12.5t43.5 22
t42 33.5q3 -42 4 -83.5t0 -87.5zM344 895q-18 -14 -40.5 -32t-46.5 -36.5t-47 -35t-42 -28.5q-23 -1 -45 -1t-43 2q9 10 21 23.5t25 28t26.5 29.5t26.5 28q7 15 12 23q38 2 77.5 2.5t75.5 -3.5z" />
    <glyph glyph-name="lcaron" unicode="&#x13e;" horiz-adv-x="451" 
d="M300 505q16 16 31 37.5t13 44.5q-14 -2 -27 1.5t-23.5 12t-17 23t-6.5 35.5q0 33 22 53.5t54 21.5q38 0 60 -22.5t23 -57.5q0 -42 -22 -86t-73 -79q-9 2 -19 6.5t-15 9.5zM375 3q-63 -1 -110 -2t-82 -1q-61 0 -99.5 2t-49.5 5q8 23 9.5 47t1.5 45q0 131 2.5 270t3.5 269
q0 18 -3 35t-12 32q27 3 55.5 5t59.5 2q14 0 29.5 -1.5t23.5 -7.5q-8 -14 -11.5 -31t-3.5 -36q0 -64 -1.5 -132t-3 -137t-2.5 -136t-1 -130q31 1 56.5 5t48 12.5t43.5 22t42 33.5q3 -42 4 -83.5t0 -87.5z" />
    <glyph glyph-name="ncaron" unicode="&#x148;" horiz-adv-x="508" 
d="M192 7q-38 -5 -78 -6.5t-79 1.5q8 17 10 34.5t3 37.5q2 58 3.5 133.5t2.5 154t0.5 153.5t-1.5 132q0 41 -14 61q37 3 73.5 4t74.5 -1q34 -98 70 -193t81 -201q1 75 2 153t0 165q0 22 -3.5 39.5t-9.5 31.5q38 4 75.5 4.5t75.5 -1.5q-11 -21 -15 -41.5t-4 -42.5
q-2 -81 -3 -164t-1 -168q0 -36 -0.5 -73.5t0 -74.5t3 -73.5t9.5 -69.5q-26 -3 -55 -4.5t-58 -1.5q-19 37 -42.5 85.5t-48.5 103.5t-49 113t-44 115q-3 -78 -3 -156.5t4 -167.5q1 -23 7 -44t14 -38zM428 901q-9 -11 -22.5 -28.5t-29 -36.5t-30.5 -38t-27 -33q-26 -2 -58 -2
t-58 3q-10 11 -24.5 29t-30 37.5t-30.5 38t-25 32.5q17 3 41 4t42 -1q20 -17 41.5 -36.5t42.5 -42.5q22 23 41 43t38 34q21 2 47 1t42 -4z" />
    <glyph glyph-name="nacute" unicode="&#x144;" horiz-adv-x="508" 
d="M192 7q-38 -5 -78 -6.5t-79 1.5q8 17 10 34.5t3 37.5q2 58 3.5 133.5t2.5 154t0.5 153.5t-1.5 132q0 41 -14 61q37 3 73.5 4t74.5 -1q34 -98 70 -193t81 -201q1 75 2 153t0 165q0 22 -3.5 39.5t-9.5 31.5q38 4 75.5 4.5t75.5 -1.5q-11 -21 -15 -41.5t-4 -42.5
q-2 -81 -3 -164t-1 -168q0 -36 -0.5 -73.5t0 -74.5t3 -73.5t9.5 -69.5q-26 -3 -55 -4.5t-58 -1.5q-19 37 -42.5 85.5t-48.5 103.5t-49 113t-44 115q-3 -78 -3 -156.5t4 -167.5q1 -23 7 -44t14 -38zM467 895q-18 -14 -40.5 -32t-46.5 -36.5t-47 -35t-42 -28.5q-23 -1 -45 -1
t-43 2q9 10 21 23.5t25 28t26.5 29.5t26.5 28q7 15 12 23q38 2 77.5 2.5t75.5 -3.5z" />
    <glyph glyph-name="ncommaaccent" unicode="&#x146;" horiz-adv-x="508" 
d="M192 7q-38 -5 -78 -6.5t-79 1.5q8 17 10 34.5t3 37.5q2 58 3.5 133.5t2.5 154t0.5 153.5t-1.5 132q0 41 -14 61q37 3 73.5 4t74.5 -1q34 -98 70 -193t81 -201q1 75 2 153t0 165q0 22 -3.5 39.5t-9.5 31.5q38 4 75.5 4.5t75.5 -1.5q-11 -21 -15 -41.5t-4 -42.5
q-2 -81 -3 -164t-1 -168q0 -36 -0.5 -73.5t0 -74.5t3 -73.5t9.5 -69.5q-26 -3 -55 -4.5t-58 -1.5q-19 37 -42.5 85.5t-48.5 103.5t-49 113t-44 115q-3 -78 -3 -156.5t4 -167.5q1 -23 7 -44t14 -38zM258 -180q-22 -2 -40 14t-18 46q0 29 19.5 48.5t49.5 21.5q38 0 57.5 -22
t19.5 -55q0 -43 -24.5 -84.5t-79.5 -72.5q-9 4 -16 9.5t-13 12.5q20 15 35 35.5t10 46.5z" />
    <glyph glyph-name="napostrophe" unicode="&#x149;" horiz-adv-x="642" 
d="M465 2q-4 75 -4 149t3 159q1 19 1 38t-3 34t-10.5 24t-22.5 9q-22 0 -36 -18t-21.5 -47t-10.5 -65t-3.5 -71.5t1.5 -68t3 -53.5q2 -26 4.5 -46t10.5 -40q-38 -5 -77.5 -6.5t-77.5 0.5q5 16 8 33t3 40q0 75 1 168t1 181q0 23 -5.5 45.5t-13.5 37.5q35 5 71.5 6.5
t69.5 -2.5l4 -61q23 35 59.5 55t71.5 20q33 0 54 -13.5t32 -38t15 -60t4 -79.5q0 -49 -1 -97l-2 -96q-1 -37 2 -71.5t19 -60.5q-34 -4 -74 -5.5t-76 0.5zM75 487q11 16 24.5 38.5t12.5 42.5q-16 -2 -32 1t-28.5 12.5t-20.5 27t-7 43.5q1 38 26 59.5t60 21.5q38 0 62.5 -24
t25.5 -60q1 -42 -18 -88t-65 -84q-9 1 -22 4t-18 6z" />
    <glyph glyph-name="eng" unicode="&#x14b;" horiz-adv-x="508" 
d="M192 7q-38 -5 -78 -6.5t-79 1.5q8 17 10 34.5t3 37.5q2 58 3.5 133.5t2.5 154t0.5 153.5t-1.5 132q0 41 -14 61q37 3 73.5 4t74.5 -1q34 -98 71 -193t82 -201q1 75 1.5 153t-1.5 165q-1 41 -14 71q38 4 76 4.5t76 -1.5q-11 -21 -15 -41.5t-4 -42.5v-196t-0.5 -154
t-1 -120.5t-1.5 -96t-2 -80.5t-3 -74q-3 -60 -40 -94.5t-97 -34.5q-13 0 -25.5 2.5t-25 4.5t-25.5 2t-26 -4q-5 29 -7 65.5t-2 68.5q11 -24 35 -38t43 -13q7 0 16 2.5t16.5 8.5t13 16t6.5 24q2 31 2.5 62.5t-0.5 63.5q-18 37 -40 81.5t-44 93t-43 98.5t-38 100
q-3 -78 -3 -156.5t4 -167.5q1 -23 7 -44t14 -38z" />
    <glyph glyph-name="omacron" unicode="&#x14d;" horiz-adv-x="530" 
d="M272 615q-26 -2 -44 -27.5t-29 -64.5t-16 -87.5t-5 -94.5q0 -48 4 -93t13.5 -80.5t26 -56.5t41.5 -21t42.5 23.5t28 62.5t15.5 88.5t5 101.5q0 49 -3.5 94t-13 79.5t-25.5 55t-40 20.5zM275 718q59 0 101.5 -25.5t70 -71t40.5 -109.5t13 -141q0 -189 -63 -287.5
t-178 -98.5q-62 0 -105.5 27.5t-71 76.5t-40 114.5t-12.5 142.5q0 94 17 165.5t48.5 119.5t75 73t97.5 27q2 -2 3.5 -6.5t3.5 -6.5zM95 854q91 2 180.5 2t167.5 -1q2 -18 0 -41t-8 -43q-26 1 -71 1.5t-94 0.5t-94.5 -1t-71.5 -2q-3 5 -5 15.5t-3.5 23t-2 24.5t1.5 21z" />
    <glyph glyph-name="obreve" unicode="&#x14f;" horiz-adv-x="530" 
d="M272 615q-26 -2 -44 -27.5t-29 -64.5t-16 -87.5t-5 -94.5q0 -48 4 -93t13.5 -80.5t26 -56.5t41.5 -21t42.5 23.5t28 62.5t15.5 88.5t5 101.5q0 49 -3.5 94t-13 79.5t-25.5 55t-40 20.5zM275 718q59 0 101.5 -25.5t70 -71t40.5 -109.5t13 -141q0 -189 -63 -287.5
t-178 -98.5q-62 0 -105.5 27.5t-71 76.5t-40 114.5t-12.5 142.5q0 94 17 165.5t48.5 119.5t75 73t97.5 27q2 -2 3.5 -6.5t3.5 -6.5zM271 758q-33 0 -60.5 8t-48 24t-31.5 40t-10 56q4 1 16.5 1.5t26.5 0.5h27t19 -1q1 -35 19 -51.5t44 -16.5q29 0 47 17t18 51q7 1 20 1h27
t26 -0.5t15 -1.5q1 -33 -11.5 -57t-33.5 -39.5t-49.5 -23.5t-60.5 -8z" />
    <glyph glyph-name="ohorn" unicode="&#x1a1;" horiz-adv-x="530" 
d="M374 818q7 4 19.5 8.5t26 8t25.5 6.5t19 3q30 -8 44.5 -27.5t14.5 -48.5q0 -41 -25.5 -69.5t-80.5 -38.5q43 -45 63 -119t20 -170q0 -189 -63 -287.5t-178 -98.5q-62 0 -105.5 27.5t-71 76.5t-40 114.5t-12.5 142.5q0 94 17 165.5t48.5 119.5t75 73t97.5 27
q2 -2 3.5 -6.5t3.5 -6.5q40 0 73 -12q45 0 61 14t16 38q0 17 -14.5 32.5t-36.5 27.5zM272 615q-26 -2 -44 -27.5t-29 -64.5t-16 -87.5t-5 -94.5q0 -48 4 -93t13.5 -80.5t26 -56.5t41.5 -21t42.5 23.5t28 62.5t15.5 88.5t5 101.5q0 49 -3.5 94t-13 79.5t-25.5 55t-40 20.5z
" />
    <glyph glyph-name="oslashacute" unicode="&#x1ff;" horiz-adv-x="529" 
d="M30 343q0 36 4 79t13.5 86t26.5 83t43 71t62 49.5t85 19.5q4 -3 7 -9q23 0 48 -8t45 -23q10 20 16 34.5t10 23.5q17 -2 32.5 -4t32.5 -7q-11 -21 -19.5 -39.5t-18.5 -41.5q20 -20 35.5 -51t26 -68.5t15.5 -79t5 -81.5q0 -84 -14 -155.5t-43 -123t-75 -81t-109 -29.5
q-26 0 -54 7.5t-49 23.5q-6 -17 -10 -30.5t-8 -23.5q-18 0 -35 1.5t-31 5.5q4 12 11 31.5t24 59.5q-20 21 -34.5 51t-23.5 66.5t-13.5 78t-4.5 84.5zM313 577q-3 14 -16.5 26t-31.5 12q-13 0 -25.5 -9t-21.5 -23q-11 -18 -19.5 -43.5t-14.5 -54t-9.5 -56.5t-3.5 -50
q-1 -35 2 -76t9 -73q29 84 65 173t66 174zM217 133q4 -16 17 -30.5t30 -14.5q23 0 40 20.5t27.5 54.5t15.5 76.5t5 86.5q0 43 -0.5 85t-6.5 68q-18 -50 -34 -92.5t-31.5 -83t-31 -81.5t-31.5 -89zM451 895q-18 -14 -40.5 -32t-46.5 -36.5t-47 -35t-42 -28.5q-23 -1 -45 -1
t-43 2q9 10 21 23.5t25 28t26.5 29.5t26.5 28q7 15 12 23q38 2 77.5 2.5t75.5 -3.5z" />
    <glyph glyph-name="uni020D" unicode="&#x20d;" horiz-adv-x="530" 
d="M272 615q-26 -2 -44 -27.5t-29 -64.5t-16 -87.5t-5 -94.5q0 -48 4 -93t13.5 -80.5t26 -56.5t41.5 -21t42.5 23.5t28 62.5t15.5 88.5t5 101.5q0 49 -3.5 94t-13 79.5t-25.5 55t-40 20.5zM275 718q59 0 101.5 -25.5t70 -71t40.5 -109.5t13 -141q0 -189 -63 -287.5
t-178 -98.5q-62 0 -105.5 27.5t-71 76.5t-40 114.5t-12.5 142.5q0 94 17 165.5t48.5 119.5t75 73t97.5 27q2 -2 3.5 -6.5t3.5 -6.5zM159 894q35 7 72.5 6t70.5 -4l12 -23q23 -26 48 -57.5t42 -51.5q-43 -4 -83 0q-17 11 -38 27.5t-43.5 34.5t-43.5 36t-37 32zM-33 894
q35 7 72.5 6t70.5 -4l12 -23q23 -26 48 -57.5t42 -51.5q-43 -4 -83 0q-17 11 -38 27.5t-43.5 34.5t-43.5 36t-37 32z" />
    <glyph glyph-name="ohungarumlaut" unicode="&#x151;" horiz-adv-x="530" 
d="M272 615q-26 -2 -44 -27.5t-29 -64.5t-16 -87.5t-5 -94.5q0 -48 4 -93t13.5 -80.5t26 -56.5t41.5 -21t42.5 23.5t28 62.5t15.5 88.5t5 101.5q0 49 -3.5 94t-13 79.5t-25.5 55t-40 20.5zM275 718q59 0 101.5 -25.5t70 -71t40.5 -109.5t13 -141q0 -189 -63 -287.5
t-178 -98.5q-62 0 -105.5 27.5t-71 76.5t-40 114.5t-12.5 142.5q0 94 17 165.5t48.5 119.5t75 73t97.5 27q2 -2 3.5 -6.5t3.5 -6.5zM371 894q-16 -14 -37 -32t-43.5 -36t-44 -34.5t-37.5 -27.5q-40 -4 -83 0q17 20 42 51.5t48 57.5l12 23q33 3 70.5 4t72.5 -6zM563 894
q-16 -14 -37 -32t-43.5 -36t-44 -34.5t-37.5 -27.5q-40 -4 -83 0q17 20 42 51.5t48 57.5l12 23q33 3 70.5 4t72.5 -6z" />
    </font>
</defs>
</svg>
