<svg xmlns="http://www.w3.org/2000/svg" width="235.2" height="67.4" viewBox="0 0 235.2 67.4"><path fill="#225902" d="M111.7 12.5h.6c1-.4 1.5-1 1.5-2l-.1-.5c-.3-1.1-1-1.6-2-1.6l-.6.1c-1 .4-1.5 1-1.5 1.9v.1l.1.4c.4 1.1 1.1 1.6 2 1.6zM144 24.4c0-.9.2-1.8.5-2.7.5-1.2 1.2-2.1 2.1-2.7.1 0 .1-.1.2-.1.1-.1.3-.2.4-.2.1 0 .2-.1.3-.1.2-.1.4-.1.6-.2.1 0 .3-.1.4-.1.2 0 .3-.1.5-.1h2.6c.2 0 .3.1.5.1.1 0 .3.1.4.1.2.1.4.1.6.2.1 0 .2.1.3.1.2.1.3.2.5.2.1 0 .1.1.2.1.9.6 1.6 1.5 2.1 2.7.3.9.5 1.8.5 2.7v10.3h4.1V24.1c0-1.3-.3-2.6-.8-4-.8-1.9-2-3.4-3.4-4.4-1.4-1-3.1-1.6-5.1-1.8h-2c-2 .2-3.7.7-5.1 1.8-1.4 1-2.6 2.5-3.4 4.4-.5 1.4-.8 2.7-.8 4v10.5h4.1V24.4zm-34.3-10.5h4.1v20.7h-4.1zM98.9 24.5c0-.7.2-1.5.5-2.3 1.2-2.8 3.8-4.2 7.8-4.2v-4.1c-3.3 0-6 .8-8.2 2.4h-.1v-2.4h-4.1v20.7h4.1V24.5zM10.4 13.9c-2.5 0-4.8.8-6.8 2.4-2.4 2.3-3.6 4.9-3.6 8 0 2.4.8 4.6 2.4 6.7 2.2 2.4 4.8 3.7 7.9 3.7h.1c2.6 0 5-.9 7-2.8l-2.6-3.2c-1.3 1.2-2.8 1.8-4.4 1.8-1 0-1.9-.2-2.8-.7-1.5-.8-2.5-2-3-3.5h16c.1-.6.2-1.3.2-2.1 0-2.4-.8-4.6-2.4-6.7-2.3-2.4-4.9-3.6-8-3.6zm-5.9 8.3l.4-1c1.4-2.1 3.2-3.2 5.4-3.2 1 0 2 .3 3.1.8 1.4.9 2.3 2 2.8 3.4H4.5zm105.1 25.9c-2-1.4-4.1-2.1-6.4-2.1-2.2 0-4.3.6-6.1 1.9-3.1 2.3-4.6 5.3-4.6 8.8 0 2.3.7 4.5 2.2 6.5 2.3 2.8 5.1 4.2 8.3 4.2h.6c2.1 0 4.1-.7 6.1-2.1v2.1h4.3V45.9h-4.3v2.2zm0 8.8c0 1.2-.4 2.3-1.2 3.5-1.4 1.8-3.1 2.7-5.1 2.7h-.3c-1 0-2-.3-3-.8-2.3-1.4-3.4-3.3-3.4-5.7 0-1.3.4-2.5 1.2-3.7 1.4-1.8 3.2-2.7 5.2-2.7 1.1 0 2.2.3 3.3.9 2.1 1.4 3.2 3.3 3.2 5.5v.3zm75.4-43h4.1v20.7H185zm-24.5 22.8h-4.1v9.2h-3.8v4.3h3.8v17.2h4.1V50.2h3.7v-4.3h-3.7zm13.2-6.2c-1 0-2-.3-3-.8-2.2-1.4-3.2-3.2-3.2-5.4 0-1.1.3-2.1.9-3.3 1.4-2 3.2-3 5.3-3 2.2 0 4 .9 5.3 2.8l2.7-3.3c-2.2-2.4-4.8-3.7-7.8-3.7-2.6 0-5 .9-7 2.7-2.3 2.2-3.4 4.8-3.4 7.7 0 2.3.7 4.4 2.1 6.3 2.2 2.7 5 4 8.2 4h.1c2.4 0 4.5-.8 6.5-2.3.6-.6 1.1-1 1.4-1.4l-2.8-3.2c-1.5 2-3.2 2.9-5.3 2.9zm61.1-4.4c-1-2.6-3.2-3.8-6.6-3.8h-5.5l-.8-.1c-.9-.3-1.3-.9-1.3-1.9 0-.5.2-1.1.6-1.6.3-.4 1-.5 2.1-.5h11v-4.1h-11c-2.4 0-4.1.6-5.2 1.9-1.1 1.3-1.6 2.8-1.6 4.3 0 1.7.6 3.2 1.7 4.4 1.3 1.2 2.8 1.8 4.4 1.8h6c1.7 0 2.5.7 2.5 2.1l-.1.9c-.3.8-1 1.2-1.9 1.2h-16V13.9H209v2h-.1c-1.9-1.4-3.9-2-6.2-2-2.1 0-4.1.6-5.9 1.9-3 2.2-4.4 5.1-4.4 8.5 0 2.2.7 4.3 2.1 6.3 2.3 2.7 5 4.1 8.1 4.1h.6c2 0 4-.7 5.9-2v2h20.3c.8 0 1.7-.2 2.6-.6 2.3-1.1 3.4-3 3.4-5.5-.2-.9-.4-1.7-.6-2.5zm-26-1.6c0 1.1-.4 2.3-1.1 3.4-1.4 1.7-3 2.6-4.9 2.6h-.3c-1 0-1.9-.2-2.9-.7-2.2-1.4-3.3-3.2-3.3-5.5 0-1.2.4-2.4 1.2-3.6 1.4-1.7 3-2.6 5-2.6 1.1 0 2.1.3 3.2.9 2.1 1.4 3.1 3.1 3.1 5.3v.2zM187.1 8.3l-.6.1c-1 .4-1.5 1-1.5 1.9v.1l.1.4c.4 1 1 1.5 2 1.5h.6c1-.4 1.5-1 1.5-2l-.1-.5c-.3-.9-1-1.5-2-1.5zm-60.6 26.3c2.7 0 5-.9 7.1-2.7l-2.6-3.2c-1.3 1.2-2.8 1.8-4.4 1.8-1 0-1.9-.2-2.8-.7-1.5-.8-2.5-2-3-3.5h16c.1-.6.2-1.3.2-2.1 0-2.4-.8-4.6-2.5-6.7-2.2-2.4-4.8-3.7-7.9-3.7-2.5 0-4.8.8-6.8 2.4-2.4 2.2-3.7 4.9-3.7 7.9 0 2.4.8 4.6 2.4 6.7 2.3 2.6 4.9 3.8 8 3.8zm-5.4-13.4c1.4-2.1 3.2-3.2 5.4-3.2 1 0 2 .3 3.1.8 1.4.9 2.3 2 2.8 3.4h-11.7l.4-1zm-33.5 39c-1.4 1.9-3.2 2.9-5.4 2.9-1.1 0-2.1-.3-3.1-.8-2.2-1.4-3.3-3.3-3.3-5.6 0-1.1.3-2.2.9-3.4 1.5-2.1 3.3-3.1 5.5-3.1 2.3 0 4.1 1 5.4 2.9l.1-.1 2.8-3.3c-2.2-2.6-5-3.8-8.1-3.8-2.7 0-5.2.9-7.3 2.8-2.3 2.3-3.5 4.9-3.5 7.9 0 2.4.7 4.6 2.2 6.6 2.3 2.8 5.1 4.2 8.5 4.2h.1c2.4 0 4.7-.8 6.7-2.4.7-.6 1.2-1.1 1.5-1.5l-3-3.3zm-6.1-46.3c-2.5 0-4.8.8-6.8 2.4-2.4 2.2-3.7 4.9-3.7 7.9 0 2.4.8 4.6 2.4 6.7 2.2 2.4 4.8 3.7 7.9 3.7h.1c2.6 0 4.9-.9 7-2.7l-2.6-3.2c-1.3 1.2-2.8 1.8-4.4 1.8-1 0-1.9-.2-2.8-.7-1.5-.8-2.5-2-3-3.5h16c.1-.6.2-1.3.2-2.1 0-2.4-.8-4.6-2.4-6.7-2.2-2.4-4.8-3.6-7.9-3.6zm-5.9 8.3l.4-1c1.4-2.1 3.2-3.2 5.4-3.2 1 0 2 .3 3.1.8 1.4.9 2.3 2 2.8 3.4H75.6zm66.2 23.7c-2.6 0-5 .8-7 2.5-2.5 2.3-3.8 5-3.8 8.2 0 2.5.8 4.8 2.5 6.9 2.3 2.5 5 3.8 8.2 3.8h.1c2.7 0 5.1-1 7.2-2.9l-2.7-3.3c-1.4 1.2-2.9 1.9-4.6 1.9-1 0-2-.2-2.9-.7-1.6-.8-2.6-2.1-3.2-3.6h16.6c.1-.6.2-1.3.2-2.1 0-2.5-.8-4.8-2.5-6.9-2.2-2.5-4.9-3.8-8.1-3.8zm-6.1 8.7l.4-1c1.5-2.2 3.3-3.3 5.6-3.3 1 0 2.1.3 3.2.8 1.5.9 2.4 2.1 2.9 3.5h-12.1zm-4.7-8.7c-3.4 0-6.3.8-8.5 2.4h-.1v-2.4h-4.3v21.5h4.3V56.9c0-.7.2-1.5.5-2.3 1.2-2.9 3.9-4.3 8.1-4.3v-4.4zM62.5 56.7l8.9-10.8h-5.5l-.6.7-5.6 6.7-6.2-7.4h-5.3l.8 1 7.9 9.8L48 67.4h5.6l6.1-7.4 6.2 7.4h5.6zM35.4 24.2L44 13.9h-5.4l-.5.6-5.4 6.5-6-7.1h-5.3l8.5 10.3v.1l-8.5 10.3h5.4l5.9-7.1 6 7.2h5.4zm31.1-6.4c-2.2-2.7-5-4-8.2-4-2.2 0-4.2.7-6.1 2h-.1v-2H48v30.1h4.1V32.6h.1c1.9 1.3 3.8 2 5.8 2h.8c2.2 0 4.4-.9 6.5-2.6 2.3-2.2 3.5-4.7 3.5-7.4V24c-.1-2.2-.8-4.2-2.3-6.2zm-1.9 6.5c0 1.3-.4 2.5-1.2 3.7-1.4 1.6-3 2.4-4.7 2.4h-.5c-.8 0-1.7-.2-2.7-.7-2.2-1.4-3.3-3.2-3.3-5.5 0-1.2.4-2.4 1.2-3.6 1.4-1.7 3.1-2.6 5.1-2.6 1.2 0 2.4.4 3.5 1.1 1.8 1.4 2.7 3 2.7 5v.2zM5.1 2.3c-.2-.3-.4-.5-.7-.6-.3-.1-.6-.2-.9-.2-.2 0-.5 0-.7.1-.2.1-.4.1-.6.3-.2.1-.3.2-.4.4-.1.2-.2.4-.2.7 0 .2 0 .4.1.5.1.2.2.3.3.5.1.1.3.2.6.4.2.1.5.2.9.3.3.1.7.2 1 .4.3.1.6.3.9.5.2.2.4.4.6.7.1.3.2.7.2 1.1 0 .4-.1.8-.3 1.2-.2.2-.4.4-.7.6-.3.2-.6.4-1 .5-.4.1-.8.2-1.2.2-.3 0-.5 0-.8-.1-.2 0-.5-.1-.7-.2-.3-.1-.5-.2-.7-.4-.2-.1-.4-.3-.5-.6l.9-.7c.2.3.4.6.8.7.3.2.7.3 1.1.3.2 0 .5 0 .7-.1l.6-.3c.2-.1.3-.3.4-.5.1-.2.2-.4.2-.7 0-.3 0-.5-.1-.7-.1-.1-.3-.2-.5-.4-.2-.1-.4-.2-.7-.3s-.6-.2-1-.4l-.9-.3c-.3-.1-.5-.3-.7-.5C.9 4.5.8 4.3.6 4c-.1-.2-.1-.5-.1-.9S.6 2.3.8 2c.2-.3.4-.6.7-.8.2-.2.5-.4.9-.5.4-.1.7-.2 1.1-.2.5 0 1 .1 1.4.2.4.2.8.5 1.1.9l-.9.7zm2.3-.8c0-.2.1-.4.2-.5.1-.1.3-.2.5-.2s.4.1.5.2c.1.1.2.3.2.5s-.1.4-.2.5c-.1.1-.3.2-.5.2s-.3-.1-.5-.2c-.1-.1-.2-.3-.2-.5zm.2 2.3h1v5.9h-1V3.8zm6 .8h-1.7V8c0 .2 0 .3.1.4.1.1.1.2.3.3.1.1.3.1.5.1.1 0 .3 0 .4-.1.2 0 .3-.1.4-.2v.9c-.2.1-.4.1-.6.2-.2 0-.4.1-.6.1-.4 0-.6 0-.8-.1-.2-.1-.4-.2-.5-.4 0-.1-.1-.3-.1-.5s-.1-.5-.1-.8V4.6H9.6v-.8h1.3V2.1h1v1.7h1.7v.8zm1-3.1c0-.2.1-.4.2-.5.1-.1.3-.2.5-.2s.4.1.5.2c.1.1.2.3.2.5s-.1.4-.2.5c-.1.1-.3.2-.5.2s-.4-.1-.5-.2c-.2-.1-.2-.3-.2-.5zm.2 2.3h1v5.9h-1V3.8zm2.4 2.9c0-.5.1-.9.2-1.3.2-.4.4-.7.7-1 .3-.3.6-.5 1-.6.4-.2.8-.2 1.3-.2s.9.1 1.3.2c.4.2.7.4 1 .6.3.3.5.6.7 1 .2.4.2.8.2 1.3s-.1.9-.2 1.3c-.2.4-.4.7-.7 1-.3.3-.6.5-1 .6-.4.2-.8.2-1.3.2s-.9-.1-1.3-.2c-.4-.2-.7-.4-1-.6-.3-.3-.5-.6-.7-1-.1-.4-.2-.8-.2-1.3zm1.1 0c0 .3 0 .6.1.9.1.3.2.5.4.7.2.2.4.4.7.5.3.1.5.2.9.2.3 0 .6-.1.9-.2.3-.1.5-.3.7-.5.2-.2.3-.4.4-.7.1-.3.1-.6.1-.9 0-.3 0-.6-.1-.9-.1-.3-.2-.5-.4-.7-.2-.2-.4-.4-.7-.5-.3-.1-.5-.2-.9-.2-.3 0-.6.1-.9.2-.2.2-.5.4-.7.6-.2.2-.3.4-.4.7-.1.2-.1.5-.1.8zm14.2 3.2c-.7 0-1.3-.1-1.9-.4-.6-.2-1.1-.6-1.5-1-.4-.4-.7-.9-1-1.5-.2-.6-.3-1.2-.3-1.9s.1-1.3.3-1.9c.2-.6.6-1.1 1-1.5.4-.4.9-.7 1.5-1 .6-.2 1.2-.4 1.9-.4s1.3.1 1.9.4c.6.2 1.1.6 1.5 1 .4.4.7.9 1 1.5.2.6.3 1.2.3 1.9s-.1 1.3-.3 1.9c-.2.6-.6 1.1-1 1.5-.4.4-.9.7-1.5 1-.6.3-1.2.4-1.9.4zm0-1c.5 0 1-.1 1.4-.3.4-.2.8-.5 1.1-.8.3-.3.6-.7.7-1.2.3-.4.3-.9.3-1.4 0-.5-.1-1-.3-1.4-.2-.4-.4-.8-.7-1.2-.2-.3-.6-.6-1-.8-.4-.2-.9-.3-1.4-.3-.5 0-1 .1-1.4.3-.5.2-.9.5-1.2.8-.3.3-.6.7-.7 1.2-.2.4-.3.9-.3 1.4 0 .5.1 1 .3 1.4.2.4.4.8.7 1.2.3.3.7.6 1.1.8.4.2.9.3 1.4.3zM39 4.6h-1.3v-.8H39V2.4c0-.4 0-.7.1-1 .1-.3.2-.6.3-.8.2-.2.4-.4.6-.5.3-.1.6-.2 1-.2h.4c.1 0 .3.1.4.1v1c-.2-.1-.5-.1-.7-.1-.3 0-.4 0-.6.1-.1.1-.2.2-.3.4-.1.2-.1.3-.2.6s0 .5 0 .7v1.1h1.4v.8H40v5.1h-1V4.6zm3.2-3.1c0-.2.1-.4.2-.5.1-.1.3-.2.5-.2s.4.1.5.2c.1.1.2.3.2.5s-.1.4-.2.5c-.1.1-.3.2-.5.2s-.4-.1-.5-.2c-.1-.1-.2-.3-.2-.5zm.2 2.3h1v5.9h-1V3.8zm7 1.4c-.2-.2-.4-.4-.7-.5-.2-.1-.5-.2-.8-.2-.3 0-.6.1-.9.2-.3.1-.5.3-.6.5-.2.2-.3.4-.4.7-.1.3-.1.5-.1.8 0 .3 0 .6.1.8.1.3.2.5.4.7.2.2.4.4.6.5.2.1.5.2.8.2.6 0 1.1-.2 1.5-.7l.7.7c-.3.3-.6.6-1 .7-.4.2-.8.2-1.2.2-.5 0-.9-.1-1.2-.2-.4-.2-.7-.4-1-.6-.3-.3-.5-.6-.6-1-.1-.4-.2-.8-.2-1.2 0-.4.1-.9.2-1.2.1-.4.4-.7.6-1 .3-.3.6-.5 1-.6.4-.2.8-.2 1.2-.2.4 0 .8.1 1.2.2.4.2.7.4 1 .7l-.6.5zM51 1.5c0-.2.1-.4.2-.5.1-.1.3-.2.5-.2s.4.1.5.2c.1.1.2.3.2.5s-.1.4-.2.5c-.1.1-.3.2-.5.2s-.4-.1-.5-.2c-.1-.1-.2-.3-.2-.5zm.2 2.3h1v5.9h-1V3.8zm2.7.7c.3-.3.7-.5 1.1-.7.4-.1.8-.2 1.3-.2.9 0 1.5.2 1.9.6.4.4.6 1 .6 1.9v3c0 .2 0 .3.1.5H58c0-.1-.1-.3-.1-.4v-.4c-.2.3-.5.5-.8.7-.3.2-.7.3-1.2.3-.3 0-.6 0-.8-.1-.3-.1-.5-.2-.7-.3-.2-.1-.4-.3-.5-.5-.1-.2-.2-.5-.2-.8 0-.5.1-.9.4-1.1.3-.3.6-.5.9-.6l1.2-.3c.4-.1.8-.1 1.2-.1h.4v-.2c0-.4-.1-.8-.4-1-.3-.2-.6-.3-1.1-.3-.3 0-.6.1-.9.2-.3.1-.6.3-.8.5l-.7-.7zm2.9 2.3c-.6 0-1.1.1-1.5.3-.4.2-.6.5-.6.9s.1.6.4.8c.2.1.5.2.9.2.3 0 .5 0 .7-.1.2-.1.4-.2.5-.4.1-.2.3-.3.3-.6.1-.2.1-.4.1-.7v-.4h-.8zM60.4.2h1v9.5h-1V.2z"/></svg>