<?xml version="1.0" encoding="utf-8"?>
<!-- Generator: Adobe Illustrator 21.0.0, SVG Export Plug-In . SVG Version: 6.00 Build 0)  -->
<svg version="1.1" id="Capa_1" xmlns="http://www.w3.org/2000/svg" xmlns:xlink="http://www.w3.org/1999/xlink" x="0px" y="0px"
	 viewBox="0 0 366.1 360.5" style="enable-background:new 0 0 366.1 360.5;" xml:space="preserve">
<style type="text/css">
	.st0{fill:#FF0097;}
	.st1{fill:#491149;}
	.st2{fill:#FFBB00;}
	.st3{fill:#FF0099;}
	.st4{fill:#00AEAA;}
	.st5{fill:#FFFFFF;}
	.st6{font-family:'MyriadPro-Bold';}
	.st7{font-size:26.2007px;}
	.st8{font-family:'MyriadPro-Regular';}
	.st9{font-size:18.6189px;}
</style>
<path class="st0" d="M348.8,176c0-2,1.8-3.3,3.7-6c11-16-2-34.5-20.6-31.2l-1.7-5.7c17.8-6.2,19.8-29,2.4-37c-3-1.4-5.2-2-6.3-3.5
	c-1-1.8-0.2-4,0-7.2C328,66,307.4,56.6,293,69l-3-3.3c12.2-14.4,2.8-35-16.5-33.5c-3.4,0.4-5.5,1-7.2,0.2c-1.7-1-2-3.3-3.5-6.3
	c-8.2-17.4-30.8-15.5-37.2,2.4c-1.6-0.4-3-1-4.7-1.3c3.3-18.7-15-32-31-21c-3,2-4.3,3.6-6.3,3.7c-2,0-3.4-1.8-6.2-3.7
	c-15.8-11-34.4,2-31,20.6l-4.8,1.2c-6.3-18-28.8-20-37.2-2.7c-1.5,3.3-2,5.4-3.6,6.5c-2,1-4,0-7.3,0c-19-2-28.7,18.5-16.5,33
	c-1,1-2.2,2-3.2,3.3c-14.3-12.5-35-3.2-33.6,16c0.2,3.4,1,5.5,0,7.2s-3.3,2-6.4,3.5c-17.5,8-15.7,30.7,2,37.2l-1.5,5.6
	c-18.6-3.4-31.6,15-20.8,31c2,2.7,3.6,4,3.7,6c0,2-1.8,3.5-3.7,6.3c-11,15.7,2,34.3,20.5,31l1.5,5.8c-18,6.4-20,29-2.5,37.2
	c3,1.4,5.2,1.8,6.3,3.5c1,2,0.2,4,0,7.3c-1.6,19.2,19,28.7,33.5,16.4c1,1.2,2,2.2,3.2,3.3c-12.4,14.4-3,35,16.3,33.6
	c3.4-0.4,5.5-1,7.2-0.2c1.7,1,2,3.3,3.5,6.3c8.2,17.5,30.8,15.6,37.2-2.3c1.6,0.5,3,1,4.7,1.3c-3.3,18.7,15,31.8,31,21
	c3-2,4.3-3.7,6.3-3.8c2,0,3.4,1.7,6.2,3.6c15.8,11,34.4-2,31-20.7l4.8-1.3c6.3,18,28.8,20,37.2,2.8c1.5-3,2-5.2,3.6-6.3
	c2-1,4,0,7.3,0C291.5,321,301,300.5,289,286l3-3.2c14.4,12.4,35,3,33.7-16c-0.2-3.5-1-5.6,0-7.3c1-1.7,3.3-2,6.4-3.5
	c17.6-8,16-30.6-2-37.2c0.8-2,1.3-4,1.8-6c18.6,3.5,31.7-15,20.8-30.8c-2-2.7-3.6-4-3.7-6H348.8z"/>
<path class="st1" d="M334.5,176c0-1.8,1.6-3,3.4-5.7c10-14.4-2-31.4-19-28.4c-0.4-2-1-3.7-1.4-5.4c16.3-6,18-26.5,2.2-34
	c-3-1.3-5-1.7-6-3.2c-0.7-1.6,0-3.5,0.2-6.6c1.4-17.7-17.4-26.3-30.6-15l-3-3c11.4-13.2,2.7-32-14.8-30.6c-3,0.2-5,1-6.6,0
	c-1.5-1-2-3-3.2-5.7c-7.5-16-28.2-14-34,2.2l-4.3-1.3c3.2-17-13.7-29-28.2-19c-2.6,1.6-4,3.2-5.7,3.3c-1.8,0-3-1.6-5.7-3.4
	c-14.5-10-31.5,1.8-28.4,19l-4.3,1C139.6,24,119,22,111.3,38c-1.3,3-1.6,5-3.3,6c-1.5,0.8-3.4,0-6.5,0C84,42.3,75,61,86.3,74.3l-3,3
	c-13-11.4-32-3-30.6,14.6c0.2,3,1,5,0,6.5s-3,2-5.8,3.2c-16,7.4-14.5,28,1.7,34l-1.4,5.2c-17-3-29,13.6-19,28.2
	c1.7,2.6,3.3,4,3.4,5.7c0,1.7-1.6,3-3.4,5.6C18.3,195,30,212,47,209l1.5,5.4c-16.4,5.8-18.2,26.5-2.3,34c2.8,1.3,4.8,1.7,5.8,3.2
	c1,1.6,0.3,3.5,0,6.6c-1.4,17.6,17.5,26.3,30.7,15l3,2.8c-11.4,13.2-2.8,32,14.8,30.7c3-0.2,5-1,6.6,0c1.7,1,2,3,3.4,5.7
	c7.5,16,28.2,14,34-2.2l4.3,1.2c-3.2,17,13.7,29,28.2,19c2.5-1.6,4-3.2,5.6-3.3c1.8,0.3,3,1.8,5.7,3.6c14.5,10,31.5-1.8,28.4-19
	l4.3-1c5.6,16.3,26.3,18.3,34,2.4c1.2-3,1.6-5,3.2-6c1.6-0.7,3.5,0,6.6,0.2c17.5,1.5,26.3-17.2,15.3-30.5l3-3
	c13,11.4,32,2.8,30.8-14.7c-0.2-3-1-5,0-6.6c1-1.5,3-2,5.8-3.2c16-7.4,14.3-28-1.8-34l1.5-5.4c17,3,29-13.8,19-28.3
	c-2-2.3-3.6-3.7-3.7-5.5L334.5,176z"/>
<path class="st2" d="M220.5,199l-0.3,0.4h-0.7c-0.4,0-0.7-0.2-1-0.3h-2.3l-1,0.8l-0.7,1l-0.3,1.5c0,0.7,0.2,1.2,0.5,1.7l1.2,1
	c0,0,1,0.3,1.5,0.3l1.8-0.2h1l0.3,0.5l0.8,2v0.5c0,0.2-0.2,0.2-0.3,0.3v0.2c-0.4,0.3-1,0.6-1.7,0.7l-2.4,0.2c0,0-1.8,0-2.7-0.4
	c-1-0.2-1.7-0.7-2.4-1.2c-0.8-0.6-1.4-1.3-2-2.2s-0.6-2-0.6-3.3s0.3-2.4,0.8-3.2l2-2c1-0.6,1.8-1,2.8-1.2c1-0.3,2-0.4,2.8-0.4
	c0.7,0,1.4,0,2,0.2c0.6,0,1,0.3,1.4,0.6c0,0.2,0,0.2,0.2,0.3l0.2,0.2v0.2c0.2,0,0.2,0.4,0,0.6l-1,1.6L220.5,199z M237.7,208
	c0.2,0.4,0,0.8-0.2,1c-0.2,0.3-0.5,0.4-1,0.4H234c0-0.2-0.2-0.2-0.2-0.2l-0.3-0.5l-1-2h-4l-0.6,2v0.2h-0.3c0,0,0,0-0.2,0h-3.9
	l-0.2-0.3v-0.4l5.2-12.4v-0.3h0.3l0.3-0.2h2.3c0.3,0,0.5,0,0.7,0.2l0.2,0.2l5.7,12L237.7,208z M230.2,201.3v-0.4
	c0-0.4-0.2-0.4-0.3-0.4c-0.3,0-0.4,0-0.4,0.3v0.4l-1.2,3.7h3.3l-1.6-4L230.2,201.3z M254,209.3h-0.2l-0.4,0.2h-3.1l-0.2-0.2l-3-4.6
	l-0.5-0.2h-0.5c-0.2,0-0.2,0.2-0.2,0.4v3.7c0,0.2,0,0.4-0.3,0.6h-0.2l-0.4,0.2h-3.5l-0.2-0.2c-0.2-0.2-0.3-0.3-0.3-0.6v-12.3
	c0-0.2,0.2-0.4,0.4-0.6c0,0,0-0.2,0.2-0.2h4.2l0.3,0.2c0.3,0,0.4,0.2,0.4,0.2l0.2,0.2l2,2.5h0.8v-2.5c0-0.2,0.2-0.4,0.4-0.6
	c0-0.2,0.2-0.2,0.3-0.2h4l0.2,0.7v12.4c0,0,0,0.3-0.2,0.5L254,209.3z M270,199c-0.2,0-0.3,0.3-0.4,0.4h-0.8l-1-0.3h-2.2l-1,0.8
	l-0.7,1l-0.4,1.5c0,0.7,0.2,1.2,0.5,1.7l1.3,1c0,0,1,0.3,1.6,0.3l1.7-0.2h1l0.3,0.5l0.8,2v0.5c0,0.2-0.2,0.2-0.3,0.3l-0.2,0.2
	c-0.4,0.3-1,0.6-1.7,0.7l-2.4,0.2c0,0-1.7,0-2.6-0.4c-1-0.2-1.7-0.7-2.4-1.2c-0.7-0.6-1.3-1.3-1.8-2.2s-0.7-2-0.7-3.3
	s0.3-2.4,0.8-3.2c0.5-0.7,1.2-1.4,2-2s1.7-1,2.7-1.2c1-0.3,2-0.4,2.8-0.4c0.7,0,1.4,0,2,0.2c0.6,0,1,0.3,1.4,0.6
	c0,0.2,0,0.2,0.2,0.3l0.2,0.2v0.2c0.2,0,0.2,0.4,0,0.6l-1,1.6L270,199z M287.2,196c0,0,0-0.2-0.2-0.3c-0.2-0.2-0.5-0.3-0.8-0.3h-1
	l-2.4,1.6v6.8l-0.4,0.7c0,0.2-0.3,0.4-0.5,0.6c-0.4,0.4-0.7,0.4-1,0.4l-1-0.2l-0.5-0.5c-0.2-0.2-0.3-0.5-0.3-0.8v-7.6
	c0-0.2-0.2-0.4-0.4-0.6h-0.3l-0.3-0.2H275v8.7c0,0.6,0,1.4,0.3,2c0.3,0.7,0.8,1.2,1.4,1.7s1.2,1,2,1.2s1.5,0.3,2.4,0.3
	c1,0,1.7,0,2.5-0.4l2-1.2c0.5-0.5,1-1,1.2-1.7c0.3-0.6,0.5-1.2,0.5-2v-7.9L287.2,196z"/>
<path class="st2" d="M285.3,194c0,0,0,0.2-0.2,0.2l-3.5,2.4h-0.3l-0.6-0.8v-0.6l3.4-2.8h0.7l0.8,1.2v0.4L285.3,194z M303.3,209.3
	h-3.2v-0.2l-3-4.3c0,0,0-0.2-0.3-0.2h-0.4v4.4l-0.4,0.5h-4c-0.2-0.2-0.3-0.3-0.3-0.6v-12.4c0-0.2,0-0.4,0.3-0.6h0.2l0.3-0.2h3.3
	l0.4,0.3h0.2c0,0.3,0,0.3,0.2,0.4l2,2.4c0,0,0,0.2,0.2,0.2c0,0,0.3,0,0.4-0.2v-2.5c0-0.2,0.2-0.4,0.4-0.6h3.7
	c0.2,0.2,0.3,0.4,0.3,0.7v12.3l-0.6,0.6L303.3,209.3z M153.7,170v16.7l3,4h10V170H153.7z M209.4,190.8h13v-21h-13V190.8z M216,155.8
	c-3.7,0-6.7,3-6.7,6.5c0,3.6,3,6.6,6.6,6.6c3.4,0,6.4-3,6.4-6.8s-3-6.6-6.6-6.6L216,155.8z M117,163.8c-0.7-2.8-2.5-5-5-6.4l-2-1
	h-0.2c-0.5,0-1,0-1.6-0.2h-1c-0.8,0-1.6,0-2.4,0.3c-0.3,0-0.5,0-0.7,0.2c-3,1-5.4,3.8-6.2,7c-4,1-7.3,4.6-7.6,9v0.8
	c0,1.2,0.3,2.3,0.7,3.4c1,3,3.7,5.3,7,6c1,3.6,3.5,6.5,7,7.4c1,0.2,1.7,0.4,2.7,0.4c0.3,0,0.7,0,1-0.2c0.6,0,1-0.2,1.7-0.3l2-0.8
	c2.6-1.3,4.4-3.7,5-6.5c3.3-0.8,6-3.2,7-6.3c0.5-1,0.7-2.3,0.7-3.5v-1c-0.7-4.2-4-7.8-8-8.7L117,163.8z M107.2,178.8
	c-3,0-5.5-2.4-5.5-5.4v-1l0.2-0.6c0.5-2.3,2.6-4,5-4s4.7,1.7,5.4,4v0.5c0.2,0.4,0.2,0.7,0.2,1c0,3.2-2.4,5.6-5.5,5.6L107.2,178.8z
	 M160.2,155.8c-3.6,0-6.6,3-6.6,6.5c0,3.6,3,6.6,6.6,6.6s6.6-3,6.6-6.8s-3-6.6-6.6-6.6V155.8z"/>
<path class="st3" d="M188,162l-5.4-6h-14.3v35h13v-17.3l5.5,2c-0.7-1-1-2.2-1-3.5c0-2,0.8-3.8,2.2-5c1.4,1.3,2.3,3,2.3,5
	c0,1.3-0.4,2.6-1,3.7l5.4-2v17h13v-34.6H193L188,162L188,162z"/>
<path class="st2" d="M263.3,176.6c-1,2.5-3.4,4-6.3,4c-1.8,0-3.5-0.8-4.8-2s-2-3.2-2-5c0-2.4,1-4,2-5c1.3-1.3,3-2,4.8-2
	c2.7,0,4.7,1,5.8,3h5c0.6-2.7,2-5.3,3.6-7.5c-3.3-4-8.5-6.5-14.4-6.5c-5,0-9.7,2-13,5.4c-3.5,3.4-5.4,8-5.4,12.7
	c0,1.5,0.2,3,0.6,4.5l0.2,0.7h10.2v11.4c2.4,1,5,1.6,7.5,1.6c6,0,11-2.4,14.5-6.6c-2-2.5-3.2-5.4-3.7-8.5h-4.4L263.3,176.6z"/>
<path class="st4" d="M237,180v-24h-13v35h24v-11H237z"/>
<path class="st3" d="M287.5,155.2c-10.3,0-18.7,8.2-18.7,18.2s8.4,18.2,18.7,18.2c10.3,0,18.7-8.2,18.7-18.2
	S297.8,155.2,287.5,155.2z M287.5,180.6c-4,0-7.2-3.2-7.2-7c0-4,3.2-7.2,7.2-7.2s7.2,3.2,7.2,7C294.7,177.4,291.5,180.6,287.5,180.6
	z"/>
<path class="st4" d="M142.5,174.2l12.4-18h-17.6l-5,5.8l-5.4-6h-14c2.5,1.5,4.4,3.8,5.2,6.6c4.4,1.4,7.5,5.3,8,10v1
	c0,1.2-0.3,2.6-0.8,3.8c-1.2,3.4-4,6-7.3,7c-0.7,2.7-2.5,5-5,6.5h14l5-6l5.4,6H155l-12.5-17V174.2z"/>
<path class="st3" d="M96.4,184.3c-3.4-1-6-3.6-7.3-7c-0.2-1.2-0.5-2.5-0.5-4v-1c0.4-4.6,3.5-8.4,8-9.8c0.8-2.7,2.7-5,5.2-6.4H87.3
	l-5,6l-5.4-6H59.3L72,173l-12.5,18H77l5.2-5.8l5.3,5.8h14.2c-2.5-1.4-4.4-3.7-5.3-6.5L96.4,184.3z"/>
<g>
	<path class="st3" d="M183,58.3c-1.3-2.7-6.5-18.6,0-19C188.8,39,184.5,54.7,183,58.3z M180.2,61c-3,0.3-5,0.6-7.6,0.7
		c-1.7,0-6-0.2-5.5-3c1-4,11,0.7,13.3,2.3H180.2z M193.2,61.4c-2.6,0-4.7-0.3-7.6-0.4c2.2-1.7,12-6.7,13-2.7c0.6,2.7-3.8,3-5.4,3
		V61.4z M180.8,59.2c-2.6-2-4.6-3.3-6.8-5.2c-1.4-1.2-5-4.7-2.3-6.6c3.7-2.7,8.5,8.8,9,11.8H180.8z M184.8,59.2c0.5-3,5-14.7,8.7-12
		c2.7,1.7-0.7,5.3-2,6.6C189.3,55.8,187.3,57.1,184.8,59.2z"/>
</g>
<text transform="matrix(1 0 0 1 119.622 88.43)" class="st5 st6 st7">Newsletter</text>
<text transform="matrix(1 0 0 1 67.585 114.01)" class="st5 st8 st9">Receive exclusive information</text>
<text transform="matrix(1 0 0 1 86.785 136.31)" class="st5 st8 st9">and promotions via email.</text>
</svg>
