<svg id="Capa_1" xmlns="http://www.w3.org/2000/svg" viewBox="0 0 366.1 360.5">
  <style>
    .st0{fill:#FF0097;} .st1{fill:#491149;} .st2{fill:#FFBB00;} .st3{fill:#FF0099;} .st4{fill:#00AEAA;} .st5{fill:#FFFFFF;} .st6{font-family:&apos;MyriadPro-Regular&apos;;} .st7{font-size:26.2007px;} .st8{font-size:25.5878px;}
  </style>
  <path class="st0" d="M348.8 176c0-2 1.8-3.3 3.7-6 11-16-2-34.5-20.6-31.2l-1.7-5.7c17.8-6.2 19.8-29 2.4-37-3-1.4-5.2-2-6.3-3.5-1-1.8-.2-4 0-7.2C328 66 307.4 56.6 293 69l-3-3.3c12.2-14.4 2.8-35-16.5-33.5-3.4.4-5.5 1-7.2.2-1.7-1-2-3.3-3.5-6.3-8.2-17.4-30.8-15.5-37.2 2.4-1.6-.4-3-1-4.7-1.3 3.3-18.7-15-32-31-21-3 2-4.3 3.6-6.3 3.7-2 0-3.4-1.8-6.2-3.7-15.8-11-34.4 2-31 20.6l-4.8 1.2c-6.3-18-28.8-20-37.2-2.7-1.5 3.3-2 5.4-3.6 6.5-2 1-4 0-7.3 0-19-2-28.7 18.5-16.5 33-1 1-2.2 2-3.2 3.3-14.3-12.5-35-3.2-33.6 16 .2 3.4 1 5.5 0 7.2-1 1.7-3.3 2-6.4 3.5-17.5 8-15.7 30.7 2 37.2l-1.5 5.6c-18.6-3.4-31.6 15-20.8 31 2 2.7 3.6 4 3.7 6 0 2-1.8 3.5-3.7 6.3-11 15.7 2 34.3 20.5 31l1.5 5.8c-18 6.4-20 29-2.5 37.2 3 1.4 5.2 1.8 6.3 3.5 1 2 .2 4 0 7.3-1.6 19.2 19 28.7 33.5 16.4 1 1.2 2 2.2 3.2 3.3-12.4 14.4-3 35 16.3 33.6 3.4-.4 5.5-1 7.2-.2 1.7 1 2 3.3 3.5 6.3 8.2 17.5 30.8 15.6 37.2-2.3 1.6.5 3 1 4.7 1.3-3.3 18.7 15 31.8 31 21 3-2 4.3-3.7 6.3-3.8 2 0 3.4 1.7 6.2 3.6 15.8 11 34.4-2 31-20.7l4.8-1.3c6.3 18 28.8 20 37.2 2.8 1.5-3 2-5.2 3.6-6.3 2-1 4 0 7.3 0C291.5 321 301 300.5 289 286l3-3.2c14.4 12.4 35 3 33.7-16-.2-3.5-1-5.6 0-7.3 1-1.7 3.3-2 6.4-3.5 17.6-8 16-30.6-2-37.2.8-2 1.3-4 1.8-6 18.6 3.5 31.7-15 20.8-30.8-2-2.7-3.6-4-3.7-6z"/>
  <path class="st1" d="M334.5 176c0-1.8 1.6-3 3.4-5.7 10-14.4-2-31.4-19-28.4-.4-2-1-3.7-1.4-5.4 16.3-6 18-26.5 2.2-34-3-1.3-5-1.7-6-3.2-.7-1.6 0-3.5.2-6.6 1.4-17.7-17.4-26.3-30.6-15l-3-3c11.4-13.2 2.7-32-14.8-30.6-3 .2-5 1-6.6 0-1.5-1-2-3-3.2-5.7-7.5-16-28.2-14-34 2.2l-4.3-1.3c3.2-17-13.7-29-28.2-19-2.6 1.6-4 3.2-5.7 3.3-1.8 0-3-1.6-5.7-3.4-14.5-10-31.5 1.8-28.4 19l-4.3 1C139.6 24 119 22 111.3 38c-1.3 3-1.6 5-3.3 6-1.5.8-3.4 0-6.5 0C84 42.3 75 61 86.3 74.3l-3 3c-13-11.4-32-3-30.6 14.6.2 3 1 5 0 6.5s-3 2-5.8 3.2c-16 7.4-14.5 28 1.7 34l-1.4 5.2c-17-3-29 13.6-19 28.2 1.7 2.6 3.3 4 3.4 5.7 0 1.7-1.6 3-3.4 5.6C18.3 195 30 212 47 209l1.5 5.4c-16.4 5.8-18.2 26.5-2.3 34 2.8 1.3 4.8 1.7 5.8 3.2 1 1.6.3 3.5 0 6.6-1.4 17.6 17.5 26.3 30.7 15l3 2.8c-11.4 13.2-2.8 32 14.8 30.7 3-.2 5-1 6.6 0 1.7 1 2 3 3.4 5.7 7.5 16 28.2 14 34-2.2l4.3 1.2c-3.2 17 13.7 29 28.2 19 2.5-1.6 4-3.2 5.6-3.3 1.8.3 3 1.8 5.7 3.6 14.5 10 31.5-1.8 28.4-19l4.3-1c5.6 16.3 26.3 18.3 34 2.4 1.2-3 1.6-5 3.2-6 1.6-.7 3.5 0 6.6.2 17.5 1.5 26.3-17.2 15.3-30.5l3-3c13 11.4 32 2.8 30.8-14.7-.2-3-1-5 0-6.6 1-1.5 3-2 5.8-3.2 16-7.4 14.3-28-1.8-34l1.5-5.4c17 3 29-13.8 19-28.3-2-2.3-3.6-3.7-3.7-5.5z"/>
  <path class="st2" d="M220.7 205.5l-.3.4h-.3l-1-.5-1-.2c-.6 0-1 0-1.4.2-.4 0-.7.3-1 .6l-.7 1c-.3.5-.4 1-.4 1.6 0 .7.2 1.2.5 1.7.4.4.8.8 1.3 1 .5.2 1 .4 1.6.4.5 0 1 0 1.7-.2h.8l.3.3.8 1.8v1s-.2 0-.3.3h-.2c-.2.4-1 .7-1.5.8l-2.4.2c-1 0-1.6-.2-2.5-.5-1-.2-1.7-.7-2.4-1.2-.6-.6-1.2-1.3-1.7-2.2-.5-.7-.7-2-.7-3 0-1.4.3-2.5.8-3.3.5-1 1.2-1.6 2-2.2.8-.6 1.7-1 2.7-1.2 1-.3 2-.4 3-.4h2c.5 0 1 .4 1.3.7l.2.2h.2v.3c.2.2.2.5 0 .7l-1 1.5zm17.3 9c0 .4 0 .8-.3 1-.2.3-.5.4-1 .4h-2.4l-.4-.3h-.4l-.3-.6-1-2h-4l-.6 2v.3s-.2 0-.3.2h-.2l-.4.2h-3.4c0-.2-.2-.2-.2-.2l-.2-.3v-.4l5.2-12.5v-.2h2.9l.7.2v.2l6 12zm-7.6-6.7v-.4c0-.2-.2-.2-.3-.2v.8l-1 3.7h3l-1.5-4zm23.8 8h-.2l-.4.2h-3.1l-.2-.2h-.2l-3-4.6-.3-.2h-.5v4.3c0 .2 0 .4-.3.6H241.5c-.2-.4-.3-.5-.3-.8V203c0-.2 0-.4.3-.6h.2l.3-.2h3.8l.4.3.2.2.2.2 2 2.3.4.2h.6V203c0-.3.2-.5.4-.7h4c.4 0 .5.3.5.6V215s0 .3-.2.5zm15.8-10.3s0 .3-.2.4h-.8l-1-.5-1-.2c-.4 0-.8 0-1.2.2-.4 0-.7.3-1 .6l-.7 1v1.6c0 .7 0 1.2.5 1.7.3.4.7.8 1.2 1 .5.2 1 .4 1.6.4.6 0 1.2 0 1.8-.2h1s0 .2.2.3l.8 1.8v1s-.2 0-.3.3h-.2c-.4.4-1 .7-1.7.8l-2.4.2c-1 0-1.7-.2-2.6-.5-1-.2-1.7-.7-2.4-1.2-.7-.6-1.3-1.3-1.8-2.2-.5-.7-.7-2-.7-3 0-1.4 0-2.5.6-3.3.5-1 1.2-1.6 2-2.2.8-.6 1.7-1 2.7-1.2 1-.3 2-.4 2.8-.4h2c.7 0 1 .4 1.5.7l.2.2h.2v1l-1 1.5zm17.4-3s0-.2-.2-.3c-.2-.2-.5-.3-.8-.3h-1l-2.4 1.4v6.8l-.4.7-.5.5c0 .2-.3.2-.6.2s-.6 0-1-.2l-.5-.6c-.3-.3-.4-.6-.4-1v-7.4c0-.2-.2-.4-.4-.6H275.5s0 .2-.2.3v8c0 .8.3 1.6.6 2 .2 1 .7 1.4 1.3 2 .6.4 1.2 1 2 1 .8.4 1.5.5 2.4.5.8 0 1.6 0 2.4-.4.8-.3 1.5-.7 2-1.2.6-.5 1-1 1.3-1.7.3-.7.5-1.3.5-2v-7.9z"/>
  <path class="st2" d="M285.5 200.5s0 .2-.2.2l-3.7 2.4c0 .3-.2.3-.3.3 0 0-.2 0-.2-.2l-.3-.6v-.5l3.4-2.8c0-.2.3-.2.4-.2h.3l.8 1.3v.6zm18 15.3H300v-.2l-3-4.5h-.5v4.3c0 .2-.2.4-.4.6H293c-.2-.3-.3-.4-.3-.7V203c0-.3 0-.5.3-.7h.2l.3-.2h3c.2 0 .4 0 .5.3 0 0 .2 0 .3.2l.3.2.2.2 2 2.3s0 .2.2.2h.4V203c0-.2.3-.4.5-.6h3.7l.2.7v12l-.6.6zM154 176.4v16.8l3 4h10v-20.8zm55.6 21h13v-21h-13zM216 162c-3.5 0-6.5 3-6.5 6.6 0 3.6 3 6.6 6.6 6.6 3.8 0 6.8-3 6.8-6.6 0-3.7-3-6.6-6.6-6.6zm-98.8 8c-.7-2.7-2.5-5-5-6.3-.6-.6-1.3-1-2-1h-.2l-1.6-.4h-1c-.8 0-1.6 0-2.4.3h-.7c-3.2 1-5.6 4-6.4 7-4.3 1-7.5 4.7-7.8 9v1c0 1 .2 2.2.6 3.3 1 3 3.7 5.5 7 6.3.8 3.5 3.5 6.4 7 7.3 1 0 1.7.3 2.7.3h1c.6 0 1-.3 1.7-.4l2-1c2.6-1.2 4.4-3.6 5-6.4 3.3-.8 6-3.2 7-6.3.5-1 .7-2.2.7-3.4v-1c-.7-4.3-3.8-8-8-8.8zm-9.8 15c-3 0-5.5-2.3-5.5-5.3V178c.7-2.3 3-4 5.3-4 2.5 0 4.6 1.7 5.3 4v.5c.2.4.2.7.2 1 0 3.2-2.5 5.6-5.6 5.6zm53-23c-3.6 0-6.6 3-6.6 6.6 0 3.6 3 6.6 6.6 6.6 3.6 0 6.6-3 6.6-6.6 0-3.7-3-6.6-6.6-6.6z"/>
  <path class="st3" d="M188 168.5l-5.2-6h-14.3v34.8h13V180l5.5 2c-.7-1-1-2.2-1-3.5 0-2 .8-3.8 2.2-5 1.4 1.3 2.3 3 2.3 5 0 1.3-.4 2.6-1 3.7l5.4-2v17.2h13v-34.6h-15l-5 5.7z"/>
  <path class="st2" d="M263.5 183c-1 2.6-3.4 4-6.3 4-1.8 0-3.5-.7-4.8-2-1.3-1.3-2-3-2-5 0-2.3 1-4 2-5 1.3-1.2 3-2 4.8-2 2.7 0 4.7 1.2 5.8 3.2h5c.6-2.8 2-5.4 3.6-7.6-3.3-4.2-8.5-6.7-14.4-6.7-5 0-9.7 2-13 5.2-3.5 3.5-5.4 8-5.4 12.8 0 1.6.2 3 .6 4.6l.2.6h10.2v11.5c2.4 1 5 1.6 7.5 1.6 5.8 0 11-2.4 14.3-6.6-2-2.5-3.2-5.4-3.7-8.5h-4.6z"/>
  <path class="st4" d="M237 186.5v-24h-13v34.8h24.2v-10.8z"/>
  <path class="st3" d="M287.7 161.7c-10.3 0-18.7 8.2-18.7 18.2s8.4 18 18.7 18c10.3 0 18.7-8 18.7-18s-8.4-18.4-18.7-18.4zm0 25.4c-4 0-7.2-3-7.2-7s3.2-7 7.2-7 7.2 3 7.2 7-3.4 7-7.4 7z"/>
  <path class="st4" d="M142.7 180.7l12.4-18H138l-5 5.8-5.4-6h-14c2.4 1.5 4.3 3.8 5 6.6 4.5 1.6 7.6 5.5 8 10v1c0 1.4-.2 2.8-.7 4-1.2 3.4-4 6-7.3 7-1 2.7-2.7 5-5.2 6.5h14.4l5-6 5.4 6h17.4L143 180.8z"/>
  <path class="st3" d="M96.6 190.8c-3.4-1-6-3.6-7.3-7-.4-1.2-.7-2.5-.7-4v-1c.4-4.6 3.5-8.4 8-9.8.8-2.7 2.7-5 5.2-6.4H87.5l-5 6-5.4-6H60l12.5 16.6-12.5 18h17.6l5-5.8 5.4 6H102c-2.6-1.5-4.5-3.8-5.4-6.6zM183.3 79.3c-1.4-2.7-6.6-18.6-.2-19 6-.3 1.8 15.4.4 19zm-3 2.7c-3 .3-5 .6-7.5.7-1.7 0-6-.2-5.5-3 .8-4 11 .7 13 2.3zm13 .4c-2.5 0-4.6-.3-7.5-.4 2.2-1.7 12-6.7 13-2.7.6 2.7-3.8 3-5.4 3zM181 80.2c-2.6-2-4.6-3.3-6.8-5.2-1.4-1.2-5-4.7-2.3-6.6 3.5-2.7 8.3 8.8 9 11.8zm4 0c.5-3 5-14.7 8.7-12 2.7 1.7-.7 5.3-2 6.6-2.2 2-4.2 3.3-6.7 5.4z"/>
  <text transform="translate(63.468 113.93)" class="st5 st6 st7">
    Quiero recibir noticias
  </text>
  <text transform="translate(87.578 139.843)" class="st5 st6 st8">
    y promociones de
  </text>
</svg>
